<svg id="Layer_1" data-name="Layer 1" xmlns="http://www.w3.org/2000/svg" viewBox="0 0 2000 2000"><defs><style>.cls-1{fill:#e4e4e4;}.cls-2{fill:#252424;}</style></defs><rect class="cls-1" width="2000" height="2000"/><rect class="cls-1" y="2000" width="2000" height="2000"/><rect class="cls-1" x="2000" width="2000" height="2000"/><rect class="cls-1" x="2000" y="2000" width="2000" height="2000"/><polygon class="cls-2" points="956.9 708.08 982.94 735.1 982.9 735.14 732.72 994.61 680.63 994.61 956.86 708.12 956.9 708.08"/><path class="cls-2" d="M683.34,1341.54l.29-1v-.62l1.09-5.94.68-3.88,5.43-31.73H649.4c-16.57,0-31.87,2.36-36.31,21.9l-1.77,9.83c-3.74,21.39,7.11,31.73,28.81,31.73h7.4c8.38,0,16.57-.71,23.17-3.89,4.74,2.65,11.15,3.89,18.64,3.89v-1.24C681.46,1360.37,681.85,1351.57,683.34,1341.54Zm-24.28-1.64c-1.38,8.6-3.15,20.67-11.53,20.67h-7.4c-8.09,0-7.7-9-6.12-19l2-11.46,1.79-9.83c1.27-8.61,3-20.68,11.63-20.68H666Z"/><path class="cls-2" d="M752.73,1298.08,745,1343.62l-2.67,16.94H726.77c-8.06,0-7.7-9-6.11-19l2-11.5,1.81-9.87L728,1298.3H703.3l-5.36,31.78h.16c-4,21.16,7,31.58,28.67,31.75H742l-.72,4.67c-2,11.32-5,18.21-12,18.76v1.29c21-.34,34.91-10.58,38.7-31.77l1.77-11.16,7.71-45.54Z"/><polygon class="cls-2" points="822.07 1296.98 827.99 1261.48 802.56 1266.34 797.37 1296.98 783.94 1296.98 783.94 1298.3 797.01 1298.3 786.27 1361.84 810.97 1361.84 821.71 1298.3 837.12 1298.3 837.12 1296.98 822.07 1296.98"/><path class="cls-2" d="M899.16,1298.3l-10.59,62.26H873.19c-8.08,0-7.71-9-6.1-19l2-11.5,1.6-9.32,3.77-22.46H849.89l-3.75,21.91-1.79,9.87c-3.77,21.34,7.17,31.75,28.84,31.75h39.94l.36-1.27L924,1298.3Z"/><path class="cls-2" d="M981.41,1298.3H941.29l-.18,1.28-10.57,62.25h24.91L966,1299.58h15.4c7.87,0,7.7,8.91,6.1,18.76l-2.15,11.74-1.45,9.28h-.18L980,1361.83h24.71l3.77-21.94,1.6-9.81C1014,1308.68,1003.1,1298.3,981.41,1298.3Z"/><path class="cls-2" d="M1090.08,1341.54l.39-1v-.62l1.09-5.94.68-3.88,5.32-31.73h-41.34c-16.65,0-31.85,2.36-36.3,21.9l-1.86,9.83c-3.75,21.39,7.2,31.73,28.91,31.73h7.29c8.39,0,16.67-.71,23.28-3.89,4.64,2.65,11.15,3.89,18.65,3.89v-1.24C1088.3,1360.37,1088.69,1351.57,1090.08,1341.54Zm-24.19-1.64c-1.37,8.6-3.24,20.67-11.63,20.67H1047c-8.1,0-7.8-9-6.12-19l2-11.46,1.79-9.83c1.28-8.61,3.05-20.68,11.62-20.68h16.48Z"/><path class="cls-2" d="M595.43,1240.93c-4.93-3.48-12-5.22-20.81-5.22H529.23l-.58,5.22L514,1361.81h41.52c16.69,0,31.88-2.46,36.3-21.91l1.69-9.82c3.37-18.22-4.05-28.35-19.62-31,13.11-1.13,24.17-5.53,27.81-21.7l1.58-9.83C605.6,1254.85,602.74,1246,595.43,1240.93Zm-24.56,77.38-3.75,21.59c-1.47,8.6-1.47,20.67-11.65,20.67H536.84l8.78-61h19.13C572.65,1299.57,572.54,1308.49,570.87,1318.31Zm9.87-62.44-3.76,21.5c-1.47,8.6-3,20.67-11.64,20.67H545.62l8.28-57.11.59-3.89h20.13a5.88,5.88,0,0,1,6,3.89C582.13,1244.4,581.62,1249.94,580.74,1255.87Z"/><polygon class="cls-2" points="1453.89 1223.82 1453.89 1352.17 1130.81 1352.17 1130.81 1313.89 1417 1313.89 1417 1185.54 1419.17 1187.79 1453.89 1223.82"/><path class="cls-2" d="M834,1042l-56.54,9.62-21.49,127H706.13L726,1061.79l4-23.64H631.44c-7,0-13.8,0-20.21.3-.9,0-1.69.11-2.59.11-20.51,1.23-37.67,5.83-48.72,23.23-4.45,6.85-7.88,15.76-10.27,27.23l-7.2,33.37a109,109,0,0,0-1.66,19.74c.19,11.88,3,21.71,8.08,29.7,10.66,16.58,31.57,24.77,61,24.77H811v-1.34l.49-3,3.16-18.52,10.45-61.41,12-70.83Zm-165.16,19.75-4.23,24.77-16.19,92.12H613.19c-14.89,0-26.34-13.81-23.87-29.08l4-23.94c2.85-16.9,8.19-45.35,8.67-48a25.72,25.72,0,0,1,4.16-9.72,23.19,23.19,0,0,1,5.22-5.33,5.39,5.39,0,0,1,1.28-.82,22.94,22.94,0,0,1,13-4.09h43.8Z"/><polygon class="cls-2" points="1486.05 1141.53 1486.05 1195.57 1428.24 1135.59 1436.04 1089.63 1486.05 1141.53"/><path class="cls-2" d="M1342.51,1050.12v.05l-16.45,95.14h-57.32l16.53-96.52,1.81-10.64-10.26,1.87-49.12,9L1211,1145.31h-68.66l18.35-107.16L1101.32,1049l-16.67,96.31h-52.59l9.88-56.29c8.77-49-16-73.39-64.53-74.31H881.22L868.7,1089c-.59,3.28-1.09,6.45-1.38,9.52a86.06,86.06,0,0,0,0,16.06c3.15,32.67,27.73,48.63,68.76,48.63h35.51s2.56,50.87-62.45,54H807.44l-.21,1.14-.49,3.17-2.37,13.71H852.9l88-.1c43.11-.82,74.58-33.27,87.21-72h352.68l21.26-124.76,0-.32Zm-367.66,95.19H939.62c-14.89,0-26.23-13.91-23.87-29.17a.3.3,0,0,1,.11-.2l10.65-62.55c2.06-12,12-20.67,23.76-20.67h43.41Z"/><polygon class="cls-2" points="1196.61 1195.57 1187.93 1248.28 1158.63 1253.61 1132 1258.52 1143.14 1195.57 1196.61 1195.57"/><polygon class="cls-2" points="1260.24 1195.57 1259.16 1202.22 1253.34 1236.31 1218.02 1242.76 1203.02 1245.52 1211.31 1195.57 1260.24 1195.57"/><polygon class="cls-2" points="1375.56 1195.57 1374.48 1202.22 1368.66 1236.31 1333.34 1242.76 1318.35 1245.52 1326.63 1195.57 1375.56 1195.57"/><path class="cls-2" d="M1353.26,1003.76l-43.79,8.59-296.89-308L925,613.48H948.5a66.68,66.68,0,0,1,32.06,8.19,67.5,67.5,0,0,1,16.78,12.79l.29.31,14.87,15.43,0,0,15.24-15.81a68,68,0,0,1,16.61-12.71l.17-.09a66.81,66.81,0,0,1,32.06-8.18H1100l-31.8,33-14.83,15.39-14.83,15.38,14.91,15.47Z"/><polygon class="cls-2" points="1132 948.08 1123.31 1000.79 1094.02 1006.11 1067.38 1011.02 1078.53 948.08 1132 948.08"/><polygon class="cls-2" points="1195.63 948.07 1194.55 954.67 1194.54 954.73 1188.72 988.82 1153.4 995.27 1138.41 998.02 1146.7 948.07 1195.63 948.07"/><polygon class="cls-2" points="848.18 968.56 841.27 1009.3 791.06 1018.51 791.55 1015.75 797.57 978.69 799.25 968.56 848.18 968.56"/></svg>