<svg id="Layer_1" data-name="Layer 1" xmlns="http://www.w3.org/2000/svg" viewBox="0 0 2000 2000"><defs><style>.cls-1{fill:#e4e4e4;}.cls-2{fill:#252424;}</style></defs><rect class="cls-1" y="-2000" width="2000" height="2000"/><rect class="cls-1" width="2000" height="2000"/><rect class="cls-1" x="2000" y="-2000" width="2000" height="2000"/><rect class="cls-1" x="2000" width="2000" height="2000"/><g id="Logo"><g id="Logo-2" data-name="Logo"><path class="cls-2" d="M541,808.24a180.56,180.56,0,0,0,2.92-26.78h0c33.42,3.36,148.76,44.81,151.31,179.72-1.47,117.75-97.14,172.5-151.3,179.89h0c0-6-1.57-18.21-2.92-27,41.19-1.89,133-35.6,135.55-152.93C673.77,830.61,562.9,808.24,541,808.24"/><path class="cls-2" d="M529.58,848.23s7.17-17.75,9.12-28.55h0C568.24,821,662.85,844.73,665.59,961.4c0,0,3.65,126.52-126.89,141.73,0,0-4.5-19.15-9-28.27,0,0,0,0,0,0,60.38,1.34,117.37-37.78,118-113.53C648.24,935,633.34,848,529.58,848.23"/><path class="cls-2" d="M517.93,954.94c87.41-12.32,109.36-37.5,109.39-37.53h0c9.55,21.41,9.47,37.53,9.47,37.53Z"/><path class="cls-2" d="M576.61,867.48s-13.54,50.29-89.49,78.66h0c.29,0,108-10.89,133.78-40.5,0,0-15.35-25.91-44.28-38.17"/><path class="cls-2" d="M564.56,863.18c-.06.19-17.86,59.37-116,81.29v-1.56a1.28,1.28,0,0,1,.62-1.09c5.9-3.41,52.13-31.43,75.37-82.24,0,0,32.37-.36,40,3.6h0"/><path class="cls-2" d="M448.56,928.67s81-45.25,84.09-148.56c-11.81-1.56-38.71-1.07-38.71-1.07s-2.28,56.23-45.38,100.64h0Z"/><path class="cls-2" d="M448.56,862.37V811.78s-1.06-17.07-16.14-31.33c0,0-1.05-1.23.53-1.36,1-.08,49.47,0,49.47,0s-2.32,44.37-33.86,83.28"/><path class="cls-2" d="M517.93,967.8c87.42,12.33,109.36,37.51,109.4,37.54h0c9.55-21.41,9.46-37.53,9.46-37.54Z"/><path class="cls-2" d="M576.61,1055.27S563.07,1005,487.12,976.6h0c.28,0,108,10.89,133.77,40.5,0,0-15.35,25.91-44.28,38.17"/><path class="cls-2" d="M564.56,1059.57c-.06-.19-17.86-59.37-116-81.29v1.56a1.25,1.25,0,0,0,.61,1.09c5.9,3.41,52.13,31.42,75.37,82.24,0,0,32.37.35,40-3.6h0"/><path class="cls-2" d="M448.56,994.08s81.1,45.74,84.09,148.56l-38.71,1s-2.28-56.18-45.38-100.59h0Z"/><path class="cls-2" d="M448.56,1060.38V1111s-1.05,17.07-16.14,31.33c0,0-1,1.22.53,1.36,1,.08,49.47,0,49.47,0s-2.31-44.37-33.86-83.28"/></g></g><path class="cls-2" d="M1144.7,1146.37c-5.15,0-8.35-.25-8.94-.3-56.18-3-102.83-24.51-135-62.32-28.61-33.65-43.82-78-42.85-124.89s18-90.66,48-123.14c33.74-36.52,81.3-56.14,137.53-56.75h.07a221.47,221.47,0,0,1,24.58,2,210.56,210.56,0,0,1,35.43,7.59l.19,0,10,2.14a19.43,19.43,0,0,1,14.94,23.09,11.1,11.1,0,0,1-20.35,3.43l-1.77-2.9a41.8,41.8,0,0,0-26.91-19l-10.2-2.18-3.56-.77a123.88,123.88,0,0,0-23.14-1.89c-1.45,0-2.92,0-4.39,0h-1.17c-58.86,0-103.76,47.55-122.15,94.67-17.08,40-21.1,87.84-11.06,131.38,10.87,47.1,37,82.91,73.5,100.84,23.36,11.46,47.34,17.27,71.28,17.27,33.27,0,58-11,72.9-20.27,18.67-11.59,32.3-26.85,37.4-41.87,1.56-4.63,4.45-5.32,6-5.32a6.79,6.79,0,0,1,5.41,3.09,4.54,4.54,0,0,1,.56,4.35c-12.55,28.25-34.35,48.61-64.8,60.49-24.84,9.71-49.25,11.16-61.59,11.16Z"/><path class="cls-2" d="M707.31,1146.53a2.07,2.07,0,0,1-1.39-3.61l5-4.54a36.75,36.75,0,0,0,12.23-27.24V814.72a36.9,36.9,0,0,0-12.26-27.33l-5-4.5a2.07,2.07,0,0,1,1.38-3.61H932.73a19.47,19.47,0,0,1,19.45,19.44A11.1,11.1,0,0,1,933,806.35l-2.34-2.46a41.83,41.83,0,0,0-30.31-12.95H767.79a2.1,2.1,0,0,0-2.1,2.1V955a2.1,2.1,0,0,0,2.1,2.1h57.55a38.62,38.62,0,0,0,28-12l3.22-3.41a11.14,11.14,0,0,1,19.23,7.65v27.12a11.09,11.09,0,0,1-19.17,7.62l-3.2-3.39a38.65,38.65,0,0,0-28-12H767.79a2.11,2.11,0,0,0-2.1,2.11v161.92a2.1,2.1,0,0,0,2.1,2.1H897a49.84,49.84,0,0,0,36-15.41,11,11,0,0,1,8-3.48,11.19,11.19,0,0,1,4.14.79,11.07,11.07,0,0,1,7,10.32,19.43,19.43,0,0,1-19.4,19.4Z"/><path class="cls-2" d="M1303.74,1146.28c-.65,0-15.76,0-21.15,0a4.72,4.72,0,0,1-4-2.32c-3-4.61-1.42-15.79,3.74-27.17l9.67-23.53c1.35-3.3,2.64-6.47,3.9-9.6,2.5-6.15,4.86-12,7.54-18.42L1419.74,781.4a3.77,3.77,0,0,1,7,0l136,337.17c2.17,5.4,2.83,7,4.3,11.49a17.34,17.34,0,0,1,.8,7.79c-.66,5-3.3,8-7.44,8.4h-.2l-35.43,0a12,12,0,0,1-11.26-15.93,29.51,29.51,0,0,0-.46-20.92l-50.72-125.76a2.1,2.1,0,0,0-2-1.32,2.49,2.49,0,0,0-.53.07l-66.88,17.42c-43.9,11.42-54.26,17.52-55.3,18.18a2.18,2.18,0,0,0-.82,1c-.83,2-20.49,50.18-20.67,50.63-1.14,2.79-2.19,5.37-3.18,7.78-11.09,27-12.8,31.13-1.91,53.18a12.28,12.28,0,0,1,.24,10.93,9.38,9.38,0,0,1-7.24,4.79Zm102.77-297.4a2.12,2.12,0,0,0-2,1.31l-59.34,146.06a2.1,2.1,0,0,0,1.94,2.9,2,2,0,0,0,.54-.07c15.21-4,30.69-8,44.6-11.64,22.23-5.79,39.8-10.36,62.43-16.12a2.1,2.1,0,0,0,1.43-2.83l-47.7-118.3a2.1,2.1,0,0,0-1.94-1.31Z"/></svg>