<svg id="Layer_1" data-name="Layer 1" xmlns="http://www.w3.org/2000/svg" viewBox="0 0 2000 2000"><defs><style>.cls-1{fill:#13b8b4;}.cls-2{fill:#fff;}</style></defs><rect class="cls-1" width="2000" height="2000"/><g id="Logo"><g id="Logo-2" data-name="Logo"><path class="cls-2" d="M529,803.22a185.94,185.94,0,0,0,3-27.49h0c34.29,3.46,152.65,46,155.27,184.43-1.51,120.84-99.69,177-155.26,184.6h0c0-6.14-1.62-18.68-3-27.66,42.27-1.94,136.46-36.54,139.1-156.94-2.88-134-116.65-156.94-139.11-156.94"/><path class="cls-2" d="M517.26,844.25S524.62,826,526.62,815h0c30.3,1.32,127.39,25.71,130.2,145.44,0,0,3.75,129.83-130.21,145.44,0,0-4.61-19.65-9.24-29,0,0,0,0,0,0,62,1.38,120.45-38.76,121.15-116.5.48-27-14.81-116.26-121.28-116.06"/><path class="cls-2" d="M505.3,953.76c89.7-12.64,112.23-38.48,112.26-38.52h0c9.8,22,9.71,38.51,9.71,38.51Z"/><path class="cls-2" d="M565.52,864s-13.89,51.61-91.84,80.72h0c.29,0,110.82-11.17,137.28-41.56,0,0-15.75-26.59-45.44-39.17"/><path class="cls-2" d="M553.15,859.59c0,.2-18.32,60.93-119,83.42v-1.6a1.28,1.28,0,0,1,.63-1.11c6.05-3.51,53.5-32.25,77.34-84.4,0,0,33.22-.36,41.06,3.69h0"/><path class="cls-2" d="M434.12,926.8s83.14-46.43,86.29-152.45c-12.12-1.6-39.72-1.1-39.72-1.1S478.35,831,434.12,876.53h0Z"/><path class="cls-2" d="M434.12,858.76V806.85S433,789.33,417.55,774.7c0,0-1.07-1.26.55-1.39,1-.09,50.77,0,50.77,0s-2.38,45.52-34.75,85.45"/><path class="cls-2" d="M505.31,967c89.7,12.65,112.22,38.49,112.26,38.52h0c9.8-22,9.71-38.51,9.71-38.52Z"/><path class="cls-2" d="M565.52,1056.72s-13.89-51.61-91.83-80.73h0c.3,0,110.82,11.17,137.29,41.56,0,0-15.76,26.59-45.45,39.17"/><path class="cls-2" d="M553.16,1061.13c-.06-.19-18.33-60.92-119-83.42v1.6a1.29,1.29,0,0,0,.64,1.12c6.05,3.5,53.49,32.25,77.34,84.4,0,0,33.22.36,41-3.7h0"/><path class="cls-2" d="M434.12,993.92s83.22,46.94,86.29,152.46l-39.72,1s-2.34-57.65-46.57-103.22h0Z"/><path class="cls-2" d="M434.12,1062v51.92S433,1131.4,417.56,1146c0,0-1.08,1.25.54,1.39,1,.08,50.77,0,50.77,0s-2.38-45.53-34.75-85.46"/></g></g><path class="cls-2" d="M1148.49,1150.2c-5.29,0-8.57-.25-9.18-.3-57.64-3-105.52-25.15-138.5-64-29.35-34.53-45-80-44-128.16s18.51-93,49.3-126.36c34.62-37.48,83.42-57.61,141.13-58.24h.07a228.49,228.49,0,0,1,25.23,2.09,216.41,216.41,0,0,1,36.36,7.78l.19.05,10.26,2.2A19.92,19.92,0,0,1,1234.71,809a11.39,11.39,0,0,1-20.88,3.53l-1.81-3A43,43,0,0,0,1184.39,790l-10.46-2.23-3.66-.79a126.41,126.41,0,0,0-23.74-2c-1.49,0-3,0-4.51.05h-1.2c-60.4,0-106.48,48.79-125.35,97.14-17.52,41-21.64,90.14-11.34,134.83,11.15,48.33,37.93,85.07,75.42,103.47,24,11.76,48.59,17.73,73.14,17.73,34.15,0,59.53-11.31,74.81-20.8,19.16-11.9,33.15-27.56,38.38-43,1.61-4.74,4.57-5.45,6.19-5.45a7,7,0,0,1,5.54,3.16,4.67,4.67,0,0,1,.58,4.47c-12.88,29-35.25,49.88-66.49,62.08-25.5,10-50.55,11.44-63.21,11.44Z"/><path class="cls-2" d="M699.64,1150.37a2.13,2.13,0,0,1-1.42-3.71l5.16-4.65a37.71,37.71,0,0,0,12.55-28V809.87a37.84,37.84,0,0,0-12.59-28l-5.13-4.61a2.13,2.13,0,0,1,1.42-3.71H931a20,20,0,0,1,19.95,20A11.34,11.34,0,0,1,943.74,804a11.55,11.55,0,0,1-4.25.82,11.25,11.25,0,0,1-8.25-3.58l-2.4-2.53a42.93,42.93,0,0,0-31.1-13.29h-136a2.16,2.16,0,0,0-2.16,2.16V953.81a2.16,2.16,0,0,0,2.16,2.16h59.06a39.64,39.64,0,0,0,28.73-12.29l3.3-3.5a11.33,11.33,0,0,1,8.29-3.59A11.47,11.47,0,0,1,872.54,948v27.83a11.4,11.4,0,0,1-19.68,7.83l-3.28-3.48a39.63,39.63,0,0,0-28.74-12.3H761.71a2.16,2.16,0,0,0-2.16,2.16v166.16a2.16,2.16,0,0,0,2.16,2.16h132.6a51.08,51.08,0,0,0,37-15.82,11.28,11.28,0,0,1,8.26-3.57,11.63,11.63,0,0,1,4.25.82,11.36,11.36,0,0,1,7.18,10.59,19.94,19.94,0,0,1-19.91,19.91Z"/><path class="cls-2" d="M1311.69,1150.11c-.66,0-16.17,0-21.7,0a4.85,4.85,0,0,1-4.13-2.38c-3-4.74-1.46-16.2,3.83-27.88l9.93-24.15,4-9.85c2.56-6.31,5-12.27,7.74-18.91l119.38-291.23a3.87,3.87,0,0,1,7.17,0l139.5,346c2.24,5.54,2.91,7.22,4.42,11.8a17.8,17.8,0,0,1,.82,8c-.67,5.13-3.38,8.19-7.63,8.62h-.21l-36.35,0a12.28,12.28,0,0,1-11.57-16.35,30.23,30.23,0,0,0-.46-21.46l-52-129.06a2.17,2.17,0,0,0-2-1.35,2.13,2.13,0,0,0-.55.07l-68.63,17.87c-45,11.73-55.68,18-56.74,18.66a2.08,2.08,0,0,0-.84,1c-.86,2.1-21,51.49-21.22,52-1.17,2.87-2.25,5.51-3.27,8-11.38,27.7-13.12,31.95-2,54.58a12.55,12.55,0,0,1,.24,11.21,9.61,9.61,0,0,1-7.43,4.92Zm105.47-305.19a2.15,2.15,0,0,0-2,1.35l-60.9,149.89a2.17,2.17,0,0,0,2,3,2,2,0,0,0,.54-.08c15.61-4.09,31.5-8.22,45.77-11.94,22.82-5.94,40.84-10.63,64.07-16.54a2.17,2.17,0,0,0,1.39-1.12,2.13,2.13,0,0,0,.08-1.78l-48.95-121.4a2.17,2.17,0,0,0-2-1.35Z"/></svg>