<?xml version="1.0" encoding="utf-8"?>
<!-- Generator: Adobe Illustrator 24.1.0, SVG Export Plug-In . SVG Version: 6.00 Build 0)  -->
<svg version="1.1" id="Layer_1" xmlns="http://www.w3.org/2000/svg" xmlns:xlink="http://www.w3.org/1999/xlink" x="0px" y="0px"
	 viewBox="0 0 721.9 575.2" style="enable-background:new 0 0 721.9 575.2;" xml:space="preserve">
<style type="text/css">
	.st0{fill:#C01F4A;}
	.st1{clip-path:url(#SVGID_2_);}
	.st2{clip-path:url(#SVGID_6_);}
	.st3{clip-path:url(#SVGID_10_);}
	.st4{clip-path:url(#SVGID_14_);}
</style>
<g>
	<polygon class="st0" points="330.5,71 349.7,91 349.7,91 164.6,283 126.1,283 330.4,71 	"/>
	<path class="st0" d="M128.1,539.7l0.2-0.8v-0.5l0.8-4.4l0.5-2.9l4-23.5H103c-12.3,0-23.6,1.7-26.9,16.2l-1.3,7.3
		C72,547,80,554.7,96.1,554.7h5.5c6.2,0,12.3-0.5,17.1-2.9c3.5,2,8.3,2.9,13.8,2.9v-0.9C126.7,553.6,127,547.1,128.1,539.7z
		 M110.1,538.5c-1,6.4-2.3,15.3-8.5,15.3h-5.5c-6,0-5.7-6.7-4.5-14.1l1.5-8.5l1.3-7.3c0.9-6.4,2.3-15.3,8.6-15.3h12.3L110.1,538.5z"
		/>
	<path class="st0" d="M179.4,507.5l-5.7,33.7l-2,12.5h-11.5c-6,0-5.7-6.6-4.5-14l1.5-8.5l1.3-7.3l2.6-16.2h-18.3l-4,23.5h0.1
		c-2.9,15.7,5.2,23.4,21.2,23.5h11.3l-0.5,3.4c-1.5,8.4-3.7,13.5-8.9,13.9v1c15.5-0.3,25.8-7.8,28.6-23.5l1.3-8.3l5.7-33.7H179.4z"
		/>
	<polygon class="st0" points="230.7,506.7 235.1,480.4 216.3,484 212.4,506.7 202.5,506.7 202.5,507.7 212.2,507.7 204.2,554.7 
		222.5,554.7 230.4,507.7 241.8,507.7 241.8,506.7 	"/>
	<path class="st0" d="M287.7,507.7l-7.8,46.1h-11.4c-6,0-5.7-6.6-4.5-14l1.5-8.5l1.2-6.9l2.8-16.6h-18.2l-2.8,16.2l-1.3,7.3
		c-2.8,15.8,5.3,23.5,21.3,23.5h29.5l0.3-0.9l7.8-46.1H287.7z"/>
	<path class="st0" d="M348.6,507.7h-29.7l-0.1,0.9l-7.8,46.1h18.4l7.8-46.1h11.4c5.8,0,5.7,6.6,4.5,13.9l-1.6,8.7l-1.1,6.9h-0.1
		l-2.8,16.6h18.3l2.8-16.2l1.2-7.3C372.7,515.4,364.6,507.7,348.6,507.7z"/>
	<path class="st0" d="M429,539.7l0.3-0.8v-0.5l0.8-4.4l0.5-2.9l3.9-23.5h-30.6c-12.3,0-23.6,1.7-26.9,16.2l-1.4,7.3
		c-2.8,15.8,5.3,23.5,21.4,23.5h5.4c6.2,0,12.3-0.5,17.2-2.9c3.4,2,8.3,2.9,13.8,2.9v-0.9C427.7,553.6,428,547.1,429,539.7z
		 M411.1,538.5c-1,6.4-2.4,15.3-8.6,15.3h-5.4c-6,0-5.8-6.7-4.5-14.1l1.5-8.5l1.3-7.3c0.9-6.4,2.3-15.3,8.6-15.3h12.2L411.1,538.5z"
		/>
	<path class="st0" d="M63,465.2c-3.6-2.6-8.9-3.9-15.4-3.9H14.1l-0.4,3.9L2.7,554.7h30.7c12.3,0,23.6-1.8,26.9-16.2l1.2-7.3
		c2.5-13.5-3-21-14.5-22.9c9.7-0.8,17.9-4.1,20.6-16.1l1.2-7.3C70.6,475.5,68.4,469,63,465.2z M44.9,522.5l-2.8,16
		c-1.1,6.4-1.1,15.3-8.6,15.3H19.7l6.5-45.1h14.2C46.2,508.6,46.1,515.2,44.9,522.5z M52.2,476.3l-2.8,15.9
		c-1.1,6.4-2.3,15.3-8.6,15.3H26.2l6.1-42.3l0.4-2.9h14.9c2.3,0,3.7,1.1,4.5,2.9C53.2,467.8,52.8,471.9,52.2,476.3z"/>
	<polygon class="st0" points="698.2,452.6 698.2,547.5 459.1,547.5 459.1,519.2 670.9,519.2 670.9,424.3 672.5,425.9 	"/>
	<path class="st0" d="M239.5,318.1l-41.8,7.1l-15.9,94h-36.9l14.7-86.5l3-17.5H89.7c-5.2,0-10.2,0-15,0.2c-0.7,0-1.2,0.1-1.9,0.1
		c-15.2,0.9-27.9,4.3-36,17.2c-3.3,5.1-5.8,11.7-7.6,20.1l-5.3,24.7c-0.9,5.2-1.3,10.1-1.2,14.6c0.1,8.8,2.2,16.1,6,22
		c7.9,12.3,23.4,18.3,45.1,18.3h148.8v-1l0.4-2.2l2.3-13.7l7.7-45.4l8.9-52.4L239.5,318.1z M117.3,332.7l-3.1,18.3l-12,68.2H76.2
		c-11,0-19.5-10.2-17.7-21.5c0,0,1.4-8.2,3-17.7c2.1-12.5,6.1-33.5,6.4-35.5c0.5-2.7,1.6-5.1,3.1-7.2c1.1-1.5,2.4-2.9,3.9-3.9
		c0.3-0.2,0.6-0.5,0.9-0.6c2.8-1.9,6-3,9.6-3h32.4L117.3,332.7z"/>
	<polygon class="st0" points="721.9,391.7 721.9,431.7 679.2,387.3 684.9,353.3 	"/>
	<path class="st0" d="M615.8,324.1L615.8,324.1l-12.2,70.4h-42.4l12.2-71.4l1.3-7.9l-7.6,1.4l-36.3,6.6l-12.3,71.3h-50.8l13.6-79.3
		l-43.9,8L425,394.5h-38.9l7.3-41.6c6.5-36.3-11.8-54.3-47.7-55h-71.2l-9.3,55c-0.4,2.4-0.8,4.8-1,7c-0.4,4.2-0.4,8.2,0,11.9
		c2.3,24.2,20.5,36,50.9,36h26.3c0,0,1.9,37.6-46.2,40h-75.2l-0.1,0.8l-0.4,2.3l-1.8,10.1h35.9l65.1-0.1
		c31.9-0.6,55.2-24.6,64.5-53.2h260.9l15.7-92.3l0-0.2L615.8,324.1z M343.7,394.5h-26.1c-11,0-19.4-10.3-17.7-21.6
		c0,0,0-0.1,0.1-0.1l7.9-46.3c1.5-8.9,8.9-15.3,17.6-15.3h32.1L343.7,394.5z"/>
	<polygon class="st0" points="507.8,431.7 501.4,470.7 479.7,474.6 460,478.2 468.2,431.7 	"/>
	<polygon class="st0" points="554.9,431.7 554.1,436.6 549.8,461.8 523.6,466.6 512.6,468.6 518.7,431.7 	"/>
	<polygon class="st0" points="640.2,431.7 639.4,436.6 635.1,461.8 609,466.6 597.9,468.6 604,431.7 	"/>
	<path class="st0" d="M623.7,289.8l-32.4,6.4L371.7,68.2L306.9,1h17.4c8.4,0,16.5,2.1,23.7,6.1c4.5,2.4,8.7,5.6,12.4,9.5l0.2,0.2
		l11,11.4l0,0l11.3-11.7c3.7-3.8,7.8-7,12.3-9.4c0,0,0.1-0.1,0.1-0.1C402.5,3.1,410.6,1,419,1h17.3l-23.5,24.4l-11,11.4l-11,11.4
		l11,11.4L623.7,289.8z"/>
	<polygon class="st0" points="460,248.6 453.6,287.6 431.9,291.5 412.2,295.1 420.4,248.6 	"/>
	<polygon class="st0" points="507.1,248.6 506.3,253.5 506.3,253.5 502,278.7 475.8,283.5 464.7,285.5 470.9,248.6 	"/>
	<polygon class="st0" points="250,263.7 244.9,293.9 207.8,300.7 208.1,298.6 212.6,271.2 213.8,263.7 	"/>
</g>
</svg>
