<svg id="Layer_1" data-name="Layer 1" xmlns="http://www.w3.org/2000/svg" viewBox="0 0 2000 2000"><defs><style>.cls-1{fill:#e4e4e4;}.cls-2{fill:#252424;}</style></defs><rect class="cls-1" y="2000" width="2000" height="2000"/><rect class="cls-1" width="2000" height="2000"/><path class="cls-2" d="M684.39,982H602.64V936.18h43.94V903.26H602.64V845.53H569.72v57.73h-108a44.42,44.42,0,0,0-32.5,13.41q-13.49,13.41-13.49,32v20.52q0,18.62,13.47,32a44.32,44.32,0,0,0,32.46,13.41h56.64A12.67,12.67,0,0,1,531,1027.26v20.3a12.65,12.65,0,0,1-12.65,12.62H242.64v32.92H518.08a44.34,44.34,0,0,0,32.37-13.3,43.69,43.69,0,0,0,13.44-32.24v-20.3A43.62,43.62,0,0,0,550.42,995,44.56,44.56,0,0,0,518,981.72H461.32a12.65,12.65,0,0,1-12.65-12.62V948.53a11.65,11.65,0,0,1,3.73-8.78,12.51,12.51,0,0,1,9-3.57H569.72V1093.1h32.92v-78.18h81.75v139.55h32.93V903.26H684.39Z"/><path class="cls-2" d="M825.75,903.26H768.69a45.87,45.87,0,0,0-45.54,45.48v98.89a43.6,43.6,0,0,0,13.44,32.19,44,44,0,0,0,32.1,13.28h57.06a44.08,44.08,0,0,0,32.1-13.28,43.6,43.6,0,0,0,13.44-32.19V948.74a45.87,45.87,0,0,0-45.54-45.48Zm12.62,144.3a12.65,12.65,0,0,1-12.62,12.62H768.69a12.63,12.63,0,0,1-12.62-12.62v-99a11.7,11.7,0,0,1,3.7-8.78,12.39,12.39,0,0,1,8.92-3.57h57.06a12.38,12.38,0,0,1,8.91,3.57,11.71,11.71,0,0,1,3.71,8.78Z"/><path class="cls-2" d="M1111.85,934.54a9.73,9.73,0,0,1-4.39,8.5l-77.37,56.51V903.26H997.17v156.92H922.94a12.63,12.63,0,0,1-12.62-12.62v-99a11.7,11.7,0,0,1,3.7-8.78,12.39,12.39,0,0,1,8.92-3.57h67.85V903.26H922.94a45.65,45.65,0,0,0-45.55,45.48v98.89a45.39,45.39,0,0,0,45.55,45.47h74.23v61.37h32.92V1093.1H1071v-32.92h-40.88v-19.86l40.45-29.2,36.45,41a16.14,16.14,0,0,1,4.86,11.75v29.23h32.92v-29.35a49.67,49.67,0,0,0-12.9-34l-34.78-38.35,29.81-21.78q17.86-12.89,17.87-35.09v-89h-32.92Z"/><path class="cls-2" d="M1473.23,939.75a12.53,12.53,0,0,1,9-3.57h275.15V903.26H1482.57a44.43,44.43,0,0,0-32.5,13.41q-13.48,13.41-13.49,32v20.52q0,18.62,13.47,32a44.32,44.32,0,0,0,32.46,13.41h56.64a12.67,12.67,0,0,1,12.65,12.62v20.3a12.65,12.65,0,0,1-12.65,12.62H1418.36q-9.69-25.92-17.79-48.12a45.67,45.67,0,0,0,21.81-16.63,43.92,43.92,0,0,0,8.37-26.23V948.87a45.46,45.46,0,0,0-45.54-45.61h-85.6a16.41,16.41,0,0,0-16.45,16.49v140.43h-99.37v-45.26h91.35V982h-91.35V936.18h68.79V903.26h-85.25a16.41,16.41,0,0,0-16.46,16.49v156.87a16.39,16.39,0,0,0,16.46,16.48h115.83v61.37h32.92V1093.1h222.83a44.34,44.34,0,0,0,32.37-13.3,43.69,43.69,0,0,0,13.44-32.24v-20.3A43.62,43.62,0,0,0,1571.25,995a44.53,44.53,0,0,0-32.45-13.31h-56.65a12.65,12.65,0,0,1-12.65-12.62V948.53A11.65,11.65,0,0,1,1473.23,939.75Zm-157.15-3.57h69.13a12.12,12.12,0,0,1,8.92,3.73,12.25,12.25,0,0,1,3.7,9V969.3a12.25,12.25,0,0,1-3.7,9,12.12,12.12,0,0,1-8.92,3.73h-69.13Zm0,124v-45.26h50.39c6.36,17.47,11.87,32.52,16.57,45.26h-67Z"/></svg>