<svg id="Layer_1" data-name="Layer 1" xmlns="http://www.w3.org/2000/svg" viewBox="0 0 2000 2000"><defs><style>.cls-1{fill:#fccd11;}.cls-2{fill:#252424;}</style></defs><rect class="cls-1" width="2000" height="2000"/><path class="cls-2" d="M676.13,981.52h-83.9v-47h45.09V900.73H592.23V841.49H558.45v59.24H447.64a45.58,45.58,0,0,0-33.35,13.76q-13.85,13.77-13.84,32.86v21.06q0,19.1,13.82,32.86A45.53,45.53,0,0,0,447.58,1015h58.13a13,13,0,0,1,13,13v20.83a13,13,0,0,1-13,13H222.81v33.78H505.46a45.49,45.49,0,0,0,33.21-13.65,44.81,44.81,0,0,0,13.8-33.08V1028a44.76,44.76,0,0,0-13.83-33.08,45.7,45.7,0,0,0-33.3-13.66H447.21a13,13,0,0,1-13-13V947.18a12,12,0,0,1,3.83-9,12.84,12.84,0,0,1,9.21-3.66H558.45v161h33.78v-80.23h83.9v143.2h33.78V900.73H676.13Z"/><path class="cls-2" d="M821.18,900.73H762.63a45,45,0,0,0-32.94,13.77q-13.8,13.79-13.8,32.89v101.48a44.72,44.72,0,0,0,13.8,33,45.2,45.2,0,0,0,32.94,13.63h58.55a45.2,45.2,0,0,0,32.94-13.63,44.72,44.72,0,0,0,13.8-33V947.39q0-19.11-13.8-32.89A45,45,0,0,0,821.18,900.73Zm13,148.08a13,13,0,0,1-13,13H762.63a13,13,0,0,1-13-13V947.18a12,12,0,0,1,3.8-9,12.71,12.71,0,0,1,9.15-3.66h58.55a12.71,12.71,0,0,1,9.15,3.66,12,12,0,0,1,3.81,9Z"/><path class="cls-2" d="M1114.77,932.82a10,10,0,0,1-4.5,8.73l-79.39,58V900.73H997.1v161H920.92a13,13,0,0,1-12.95-13V947.18a12,12,0,0,1,3.8-9,12.71,12.71,0,0,1,9.15-3.66h69.63V900.73H920.92a46.83,46.83,0,0,0-46.74,46.66v101.48a46.59,46.59,0,0,0,46.74,46.67H997.1v63h33.78v-63h41.95v-33.78h-41.95v-20.38l41.5-30,37.42,42.08a16.62,16.62,0,0,1,5,12.06v30h33.79v-30.12a51,51,0,0,0-13.23-34.91l-35.7-39.35,30.59-22.35q18.33-13.23,18.34-36V841.49h-33.79Z"/><path class="cls-2" d="M1485.63,938.17a12.84,12.84,0,0,1,9.21-3.66h282.35V900.73h-282a45.56,45.56,0,0,0-33.35,13.76Q1448,928.26,1448,947.35v21.06q0,19.1,13.82,32.86a45.52,45.52,0,0,0,33.3,13.76h58.13a13,13,0,0,1,13,13v20.83a13,13,0,0,1-13,13h-124q-10-26.6-18.26-49.39a46.86,46.86,0,0,0,22.39-17.06,45.11,45.11,0,0,0,8.58-26.92V947.53a46.64,46.64,0,0,0-46.73-46.8h-87.84a16.83,16.83,0,0,0-16.89,16.91v144.12h-102v-46.45h93.75V981.52H1188.6v-47h70.6V900.73h-87.49a16.83,16.83,0,0,0-16.89,16.91v161a16.83,16.83,0,0,0,16.89,16.92h118.86v63h33.78v-63H1553a45.51,45.51,0,0,0,33.22-13.65,44.81,44.81,0,0,0,13.8-33.08V1028a44.76,44.76,0,0,0-13.83-33.08,45.7,45.7,0,0,0-33.3-13.66h-58.13a13,13,0,0,1-13-13V947.18A12,12,0,0,1,1485.63,938.17Zm-161.28-3.66h71a12.43,12.43,0,0,1,9.15,3.82,12.61,12.61,0,0,1,3.8,9.21v21a12.59,12.59,0,0,1-3.8,9.21,12.43,12.43,0,0,1-9.15,3.82h-71Zm0,127.25v-46.45h51.71c6.53,17.93,12.19,33.37,17,46.45h-68.72Z"/></svg>