<svg id="Layer_1" data-name="Layer 1" xmlns="http://www.w3.org/2000/svg" viewBox="0 0 2000 2000"><defs><style>.cls-1{fill:#25325c;}.cls-2{fill:#f1efe6;}.cls-3{fill:#bf2627;}</style></defs><rect class="cls-1" width="2000" height="2000"/><path class="cls-2" d="M1587.25,868.89l-39.43.06-12,0-14.1,62.84-40.23,0,14.1-62.83-66.18.08v0l-18.76,0c-9.38,0-22.42,0-35.52,0h-1.38c-12.62,0-25.19,0-34.51,0l-6.4,0-27,28.36,20.42-91.05-18.74,0-58.48.06-42.29,188.5h-8l-63.85.06h-3.08l-56.66.05c3.79-16.86,8.18-36.46,11.78-52.48h112.19l-50.81-73.32-122.16.11-9.74,43.38-30.05-43.37-7.86,0c-15.93,0-35.57,0-53.94,0l-35,0H886.5l-64,0-9.78,43.57-30.18-43.55h-76.1L720.55,807H643.34l-14.07,62.71h-53.9c-36.32,0-73.88,0-92.43-.16l-5.74-.05-56.92,50.3-8,35.67c-2.8,12.48-5.63,25.07-7.16,31.88L402.71,998l-15.8,70.43h275l28.21-125.74h49.48c-5.86,26.13-28.21,125.74-28.21,125.74h556.17l2.62-11.71c.94-4.21,4.79-21.32,4.79-21.32,2.24-10,4.74-21.1,6.71-29.9h39.89l-14.11,62.93h77.2l6.24-27.78c3.68-16.4,8.51-37.91,10.55-47.06l1.42-6.4L1372,942.73h23l43.51,62.81h66.71l-28.28,126h77.22l58.95-262.74Z"/><path class="cls-3" d="M476.14,946.51l-.19.82c39.64,0,88.29.1,131.56.12-6.85,30.54-16.93,75.49-23.79,106H405.63l9.73-43.35c43.08.12,83.85.17,131.54.2.19-.87,4.25-18.9,4.44-19.77H419.75c3-13.52,11.19-49.84,14.09-62.81l49-43.29c27.07.22,94.9.13,138.79.18l-9.67,43.11H480.35l-.19.81Z"/><path class="cls-3" d="M774.73,884.65h-87c4.78-21.3,9.5-42.31,14.08-62.71h-46.5c-16.69,74.43-35.29,157.25-52,231.54h46.5c9-40.32,18.64-83.12,28.21-125.73h80.19c-8.6,38.36-19.59,87.28-28.21,125.73h46.5c8.6-38.33,19.59-87.28,28.16-125.53Z"/><path class="cls-3" d="M834.52,884.62l46.51,0C872.4,923,861.42,972,852.81,1010.34c30.28,0,60.38,0,90.85-.05,5.12-22.77,13.41-59.76,18.52-82.54H888.92l9.69-43.17c23.81,0,56,0,80-.05l30.07,43.39c-8.57,38.23-19.58,87.25-28.17,125.56H796.64Z"/><path class="cls-3" d="M1198.8,1010.09l-9.74,43.39H1000.28c12-53.53,25.9-115.46,37.91-169l102.33-.09,30,43.35H1075c-5.09,22.7-13.4,59.75-18.5,82.46C1104.28,1010.18,1151.42,1010.12,1198.8,1010.09Z"/><path class="cls-3" d="M1547.85,883.93l-14.11,62.86c-20.24,0-54.8,0-70.94.06l.07-.34,14-62.49-46.52.06-14,62.43-.08.4,0,.19,30.1,43.45h77.58l-28.28,126h46.5l52.22-232.74Z"/><path class="cls-3" d="M1400.93,927.75l9.8-43.65c-18.75,0-52.09,0-71.42.08l-59.91,62.89,28.16-125.54-46.5.05-52,231.9h46.5c3-13.27,11.27-50.17,14.11-62.92h70.62c-2.89,12.87-11.11,49.49-14.12,62.92h46.5c3-13.31,11.3-50.31,14.15-63.11L1356.72,947h-14.51l18.52-19.25Z"/><polygon class="cls-2" points="1219.83 1079.68 1224.06 1060.91 1176.16 1060.91 1172.68 1079.68 781.45 1079.68 755.82 1193.48 1355.78 1193.48 1381.41 1079.68 1219.83 1079.68"/><path class="cls-3" d="M800.06,1155.7h62.41l-5.54,24.44H769.56l19.38-85.56h87.38L870.78,1119H808.37l-1.38,6.12h62.4l-5.53,24.44H801.45Z"/><path class="cls-3" d="M886.92,1094.58h25l-8.77,38.75,14.56,18.33,0-.06,22.87-18.34,8.77-38.68h25l-11.06,48.83-45.83,36.73H905l-29.14-36.67Z"/><path class="cls-3" d="M996,1155.7h62.41l-5.54,24.44H965.51l19.39-85.56h87.37l-12.46,55H997.4Zm8.31-36.68-1.38,6.12h37.44l1.39-6.12Z"/><path class="cls-3" d="M1102.3,1119l-13.85,61.12h-25l19.38-85.56h87.37l-19.38,85.56h-25l13.84-61.12Z"/><path class="cls-3" d="M1185,1076.24h25l-4.15,18.34h62.41l-5.54,24.44h-62.41L1192,1155.7h62.41l-5.53,24.44h-87.38Z"/><path class="cls-3" d="M1259.44,1180.14l5.54-24.44h62.41l1.38-6.12h-62.41l12.46-55h87.38l-5.54,24.44h-62.41l-1.39,6.12h62.41l-12.46,55Z"/></svg>