<svg id="Layer_1" data-name="Layer 1" xmlns="http://www.w3.org/2000/svg" viewBox="0 0 2000 2000"><defs><style>.cls-1{fill:#e4e4e4;}.cls-2{fill:#252424;}</style></defs><rect class="cls-1" y="-2000" width="2000" height="2000"/><rect class="cls-1" width="2000" height="2000"/><path class="cls-2" d="M489.51,947.07l-.18.79c38.63,0,86,.1,128.2.11-6.67,29.77-16.5,73.57-23.18,103.33H420.8l9.48-42.25c42,.12,81.72.18,128.19.21.18-.85,4.14-18.43,4.32-19.28H434.56c2.95-13.16,10.9-48.56,13.73-61.2L496,886.6c26.39.21,92.48.12,135.25.17l-9.42,42H493.61l-.18.79Z"/><path class="cls-2" d="M780.48,886.78H695.73c4.65-20.75,9.25-41.23,13.71-61.11H664.13c-16.27,72.53-34.39,153.24-50.62,225.63h45.3c8.82-39.29,18.18-81,27.49-122.52h78.15c-8.38,37.38-19.09,85.05-27.49,122.52h45.32c8.37-37.35,19.09-85,27.44-122.32Z"/><path class="cls-2" d="M838.75,886.75l45.32,0c-8.41,37.46-19.11,85.16-27.5,122.54l88.53,0c5-22.2,13.07-58.24,18-80.44H891.76l9.44-42.07c23.2,0,54.62,0,77.92-.05l29.3,42.29c-8.35,37.25-19.08,85-27.45,122.35H801.83Z"/><path class="cls-2" d="M1193.73,1009l-9.49,42.28h-184c11.7-52.16,25.25-112.51,37-164.67l99.71-.09,29.27,42.24h-93.13c-5,22.13-13.06,58.23-18,80.35C1101.62,1009.11,1147.56,1009.05,1193.73,1009Z"/><path class="cls-2" d="M1533.87,886.08l-13.75,61.25-69.13.06.07-.32,13.67-60.9-45.34.05-13.65,60.85-.09.38,0,.19L1435,990h75.6L1483,1112.81h45.32L1579.2,886Z"/><path class="cls-2" d="M1390.7,928.78l9.55-42.54c-18.27,0-50.76,0-69.59.08l-58.39,61.29,27.44-122.34-45.31.05-50.71,226H1249c2.9-12.93,11-48.89,13.76-61.32h68.8c-2.8,12.55-10.82,48.24-13.75,61.32h45.31c2.91-13,11-49,13.79-61.5l-29.3-42.28-14.13,0,18-18.76Z"/><path class="cls-2" d="M805.17,1150.91H866l-5.39,23.82H775.44l18.89-83.38h85.15l-5.4,23.82H813.26l-1.35,6h60.82l-5.4,23.82H806.52Z"/><path class="cls-2" d="M889.81,1091.35h24.33l-8.56,37.76,14.2,17.87v-.06l22.29-17.87,8.55-37.7H975l-10.78,47.59-44.66,35.79h-12.1L879,1139Z"/><path class="cls-2" d="M996.12,1150.91h60.81l-5.39,23.82H966.39l18.89-83.38h85.15l-12.15,53.6H997.47Zm8.09-35.74-1.35,6h36.49l1.35-6Z"/><path class="cls-2" d="M1099.69,1115.17l-13.49,59.56h-24.33l18.89-83.38h85.14L1147,1174.73h-24.32l13.49-59.56Z"/><path class="cls-2" d="M1180.28,1073.48h24.33l-4,17.87h60.82l-5.4,23.82h-60.82l-8.09,35.74h60.81l-5.39,23.82h-85.15Z"/><path class="cls-2" d="M1252.82,1174.73l5.4-23.82H1319l1.35-6h-60.81l12.14-53.6h85.14l-5.39,23.82h-60.82l-1.35,6h60.82l-12.15,53.6Z"/></svg>