<svg id="Layer_1" data-name="Layer 1" xmlns="http://www.w3.org/2000/svg" viewBox="0 0 2000 2000"><defs><style>.cls-1{fill:#b9d988;}</style></defs><rect class="cls-1" width="2000" height="2000"/><polygon points="731.34 1101.73 691.38 1101.73 615.88 1225.87 540.67 1101.73 497.56 1101.73 594.3 1261.25 594.3 1347.08 634.6 1347.08 634.6 1260.73 731.34 1101.73"/><path d="M823.88,1101.73,713.12,1347.08h41.71l25.51-58.88H906.92l25.61,58.88h42.41L863.83,1101.73ZM794.31,1256l49.21-113.57L892.9,1256Z"/><path d="M1162.11,1263.84q23.13-10.33,35.57-29.62t12.44-45.92q0-27-12.44-46.44t-35.57-29.79q-23.14-10.33-55.38-10.34h-98.14v245.35h40.31v-72.9h57.83c4.26,0,8.37-.18,12.39-.45l51.4,73.35h43.81l-57.22-81.2C1158.8,1265.23,1160.48,1264.56,1162.11,1263.84Zm-56.78-23.66H1048.9v-103.4h56.43q31.89,0,48,13.32t16.13,38.2q0,24.54-16.13,38.21T1105.33,1240.18Z"/><path d="M1485.62,1160.09q-16.83-27.51-46.79-42.94t-69.58-15.42H1264.1v245.35h105.15q39.6,0,69.58-15.42t46.79-42.94q16.82-27.51,16.82-64.31T1485.62,1160.09ZM1450,1270.32a81.38,81.38,0,0,1-32.77,30.67q-21,11-50.12,11h-62.74V1136.78h62.74q29.08,0,50.12,11a81.81,81.81,0,0,1,32.77,30.5q11.74,19.44,11.74,46.09Q1461.78,1250.69,1450,1270.32Z"/><path d="M497.56,652.92v415H1502.44v-415Zm971.07,381.19H1065.19c-14.09-72.68,20.27-108.43,20.61-108.79a1.29,1.29,0,0,0,.06-1.74,1.28,1.28,0,0,0-1.73-.22c-37,25.94-48.29,68.88-51.78,92.26-4.31-116.88,64.2-171.39,64.92-172a1.29,1.29,0,0,0-1.44-2.14C994.21,899.21,981.65,995.13,981,1034.11h0c-11.14-127.57-44.3-195.56-69.48-230.29-28.18-38.89-53.65-45.72-54.71-46A1.29,1.29,0,0,0,855.6,760c80.29,75.56,77.63,217.73,73,274.09H531.37V686.73h937.26Z"/></svg>