<svg id="Layer_1" data-name="Layer 1" xmlns="http://www.w3.org/2000/svg" viewBox="0 0 2000 2000"><defs><style>.cls-1{fill:#e4e4e4;}.cls-2{fill:#252424;}</style></defs><rect class="cls-1" width="2000" height="2000"/><rect class="cls-1" y="2000" width="2000" height="2000"/><polygon class="cls-2" points="738.2 1099.14 699.26 1099.14 625.68 1220.1 552.39 1099.14 510.38 1099.14 604.65 1254.58 604.65 1338.22 643.93 1338.22 643.93 1254.07 738.2 1099.14"/><path class="cls-2" d="M828.37,1099.14,720.44,1338.22h40.64L786,1280.84H909.3l25,57.38h41.33L867.31,1099.14Zm-28.81,150.28,48-110.67,48.13,110.67Z"/><path class="cls-2" d="M1158,1257.1q22.54-10.06,34.67-28.86t12.12-44.74q0-26.3-12.12-45.26t-34.67-29q-22.54-10.07-54-10.07h-95.63v239.08h39.28v-71H1104c4.16,0,8.16-.17,12.08-.43l50.09,71.47h42.69l-55.76-79.12C1154.75,1258.46,1156.38,1257.81,1158,1257.1Zm-55.33-23h-55V1133.29h55q31.06,0,46.79,13t15.71,37.23q0,23.91-15.71,37.23T1102.64,1234.05Z"/><path class="cls-2" d="M1473.22,1156q-16.4-26.82-45.59-41.85t-67.8-15H1257.36v239.08h102.47q38.6,0,67.8-15t45.59-41.84q16.4-26.8,16.4-62.67T1473.22,1156Zm-34.66,107.41a79.37,79.37,0,0,1-31.94,29.89q-20.49,10.76-48.84,10.76h-61.14V1133.29h61.14q28.35,0,48.84,10.76a79.83,79.83,0,0,1,31.94,29.71q11.43,19,11.44,44.92Q1450,1244.3,1438.56,1263.42Z"/><path class="cls-2" d="M510.38,661.78v404.41h979.24V661.78Zm946.29,371.46H1063.53c-13.73-70.83,19.75-105.66,20.08-106a1.25,1.25,0,0,0,.06-1.69,1.27,1.27,0,0,0-1.69-.22c-36,25.29-47,67.13-50.46,89.91-4.19-113.9,62.56-167,63.27-167.56a1.26,1.26,0,0,0-1.41-2.09c-99,56.22-111.26,149.68-111.9,187.67h0c-10.85-124.31-43.16-190.57-67.7-224.42-27.46-37.89-52.28-44.55-53.31-44.81a1.28,1.28,0,0,0-1.43.62,1.26,1.26,0,0,0,.24,1.51c78.25,73.63,75.65,212.18,71.11,267.1H543.33V694.73h913.34Z"/></svg>