<svg id="Layer_1" data-name="Layer 1" xmlns="http://www.w3.org/2000/svg" viewBox="0 0 2000 2000"><defs><style>.cls-1{fill:#052460;}.cls-2{fill:#ffcf01;}</style></defs><rect class="cls-1" width="2000" height="2000"/><rect class="cls-2" x="941.9" y="1028.72" width="95.87" height="95.87"/><path class="cls-2" d="M995.38,846.65H881.45L782.66,693.38H896.58l45.32,70.3C959.6,791.13,977.5,818.9,995.38,846.65Z"/><path class="cls-2" d="M1217.34,693.38,1111.7,846.65c-19.86,28.83-40,58-60.11,87.2q-6.9,10-13.82,20.06v65.37H941.9v-95c17.73-25.75,35.64-51.72,53.5-77.63l42.37-61.48c21.49-31.19,42.71-61.95,63.27-91.79Z"/><polygon class="cls-2" points="637.84 1233.63 637.84 1279.25 663.59 1279.25 663.59 1163.57 614.22 1212.94 564.85 1163.57 564.85 1279.25 590.6 1279.25 590.6 1233.63 614.22 1257.25 637.84 1233.63"/><path class="cls-2" d="M767.85,1279.25V1170.08H679.54v109.17h25.75v-41.71H742.1v41.71Zm-62.56-67.46v-16H742.1v16Z"/><path class="cls-2" d="M872.12,1262.3l-24.76-24.76h24.76v-67.46H783.81v109.17h25.75v-45.62l62.56,62.56Zm-25.75-50.51H809.56v-16h36.81Z"/><polygon class="cls-2" points="976.38 1262.3 951.62 1237.54 976.38 1237.54 976.38 1170.09 950.63 1170.09 950.63 1211.79 913.82 1211.79 913.82 1170.09 888.07 1170.09 888.07 1279.25 913.82 1279.25 913.82 1244.06 976.38 1306.62 976.38 1262.3"/><polygon class="cls-2" points="1080.65 1195.84 1080.65 1170.09 992.34 1170.09 992.34 1279.25 1080.65 1279.25 1080.65 1253.5 1018.09 1253.5 1018.09 1237.54 1080.65 1237.54 1080.65 1211.79 1018.09 1211.79 1018.09 1195.84 1080.65 1195.84"/><polygon class="cls-2" points="1184.91 1170.09 1096.6 1170.09 1096.6 1195.84 1127.88 1195.84 1127.88 1279.25 1153.63 1279.25 1153.63 1195.84 1184.91 1195.84 1184.91 1170.09"/><rect class="cls-2" x="1200.87" y="1170.08" width="25.75" height="109.16"/><polygon class="cls-2" points="1330.88 1170.09 1305.13 1170.09 1305.13 1215.7 1242.58 1153.14 1242.58 1279.25 1268.33 1279.25 1268.33 1233.63 1330.88 1296.19 1330.88 1170.09"/><polygon class="cls-2" points="1435.15 1195.84 1435.15 1170.09 1346.84 1170.09 1346.84 1279.25 1435.15 1279.25 1435.15 1211.79 1388.55 1211.79 1388.55 1237.54 1409.4 1237.54 1409.4 1253.5 1372.59 1253.5 1372.59 1195.84 1435.15 1195.84"/></svg>