<svg id="Layer_1" data-name="Layer 1" xmlns="http://www.w3.org/2000/svg" viewBox="0 0 2000 2000"><defs><style>.cls-1{fill:#e4e4e4;}.cls-2{fill:#252424;}</style></defs><rect class="cls-1" width="2000" height="2000"/><rect class="cls-1" y="-2000" width="2000" height="2000"/><rect class="cls-2" x="943.38" y="1027.98" width="93.42" height="93.42"/><path class="cls-2" d="M995.5,850.56h-111C851.57,799.53,819,749,788.21,701.21h111l44.16,68.51C960.63,796.46,978.07,823.52,995.5,850.56Z"/><path class="cls-2" d="M1211.79,701.21,1108.85,850.56l-58.58,85q-6.72,9.78-13.46,19.54v63.7H943.38V926.21c17.28-25.09,34.74-50.4,52.14-75.65q20.72-30.07,41.29-59.9c20.94-30.4,41.61-60.38,61.65-89.45Z"/><polygon class="cls-2" points="647.08 1227.67 647.08 1272.12 672.17 1272.12 672.17 1159.39 624.06 1207.5 575.96 1159.39 575.96 1272.12 601.05 1272.12 601.05 1227.67 624.06 1250.69 647.08 1227.67"/><path class="cls-2" d="M773.78,1272.12V1165.74H687.72v106.38h25.09v-40.64h35.87v40.64Zm-61-65.73v-15.55h35.87v15.55Z"/><path class="cls-2" d="M875.38,1255.61l-24.13-24.13h24.13v-65.74H789.32v106.38h25.1v-44.45l61,61Zm-25.09-49.22H814.42v-15.55h35.87Z"/><polygon class="cls-2" points="976.99 1255.61 952.86 1231.48 976.99 1231.48 976.99 1165.74 951.89 1165.74 951.89 1206.39 916.02 1206.39 916.02 1165.74 890.93 1165.74 890.93 1272.12 916.02 1272.12 916.02 1237.83 976.99 1298.79 976.99 1255.61"/><polygon class="cls-2" points="1078.59 1190.84 1078.59 1165.74 992.53 1165.74 992.53 1272.12 1078.59 1272.12 1078.59 1247.03 1017.63 1247.03 1017.63 1231.48 1078.59 1231.48 1078.59 1206.39 1017.63 1206.39 1017.63 1190.84 1078.59 1190.84"/><polygon class="cls-2" points="1180.19 1165.74 1094.14 1165.74 1094.14 1190.84 1124.62 1190.84 1124.62 1272.12 1149.71 1272.12 1149.71 1190.84 1180.19 1190.84 1180.19 1165.74"/><rect class="cls-2" x="1195.74" y="1165.74" width="25.09" height="106.38"/><polygon class="cls-2" points="1322.44 1165.74 1297.35 1165.74 1297.35 1210.19 1236.38 1149.23 1236.38 1272.12 1261.48 1272.12 1261.48 1227.67 1322.44 1288.63 1322.44 1165.74"/><polygon class="cls-2" points="1424.04 1190.84 1424.04 1165.74 1337.99 1165.74 1337.99 1272.12 1424.04 1272.12 1424.04 1206.39 1378.63 1206.39 1378.63 1231.48 1398.95 1231.48 1398.95 1247.03 1363.08 1247.03 1363.08 1190.84 1424.04 1190.84"/></svg>