<?xml version="1.0" encoding="utf-8"?>
<!-- Generator: Adobe Illustrator 24.1.0, SVG Export Plug-In . SVG Version: 6.00 Build 0)  -->
<svg version="1.1" id="Layer_1" xmlns="http://www.w3.org/2000/svg" xmlns:xlink="http://www.w3.org/1999/xlink" x="0px" y="0px"
	 viewBox="0 0 1080 1080" style="enable-background:new 0 0 1080 1080;" xml:space="preserve">
<style type="text/css">
	.st0{fill:#FFFFFF;}
</style>
<g>
	<polygon class="st0" points="508.1,287.8 527.4,307.8 527.3,307.9 342.3,499.8 303.7,499.8 508.1,287.9 	"/>
	<path class="st0" d="M305.7,756.5l0.2-0.8v-0.5l0.8-4.4l0.5-2.9l4-23.5h-30.6c-12.3,0-23.6,1.7-26.9,16.2l-1.3,7.3
		c-2.8,15.8,5.3,23.5,21.3,23.5h5.5c6.2,0,12.3-0.5,17.1-2.9c3.5,2,8.3,2.9,13.8,2.9v-0.9C304.3,770.4,304.6,763.9,305.7,756.5z
		 M287.8,755.3c-1,6.4-2.3,15.3-8.5,15.3h-5.5c-6,0-5.7-6.7-4.5-14.1l1.5-8.5l1.3-7.3c0.9-6.4,2.3-15.3,8.6-15.3h12.3L287.8,755.3z"
		/>
	<path class="st0" d="M357.1,724.4l-5.7,33.7l-2,12.5h-11.5c-6,0-5.7-6.6-4.5-14l1.5-8.5l1.3-7.3l2.6-16.2h-18.3l-4,23.5h0.1
		c-2.9,15.7,5.2,23.4,21.2,23.5h11.3l-0.5,3.4c-1.5,8.4-3.7,13.5-8.9,13.9v1c15.5-0.3,25.8-7.8,28.6-23.5l1.3-8.3l5.7-33.7H357.1z"
		/>
	<polygon class="st0" points="408.4,723.5 412.7,697.3 393.9,700.9 390.1,723.5 380.1,723.5 380.1,724.5 389.8,724.5 381.9,771.5 
		400.1,771.5 408.1,724.5 419.5,724.5 419.5,723.5 	"/>
	<path class="st0" d="M465.4,724.5l-7.8,46.1h-11.4c-6,0-5.7-6.6-4.5-14l1.5-8.5l1.2-6.9l2.8-16.6h-18.2l-2.8,16.2l-1.3,7.3
		c-2.8,15.8,5.3,23.5,21.3,23.5h29.5l0.3-0.9l7.8-46.1H465.4z"/>
	<path class="st0" d="M526.2,724.5h-29.7l-0.1,0.9l-7.8,46.1H507l7.8-46.1h11.4c5.8,0,5.7,6.6,4.5,13.9l-1.6,8.7l-1.1,6.9H528
		l-2.8,16.6h18.3l2.8-16.2l1.2-7.3C550.4,732.2,542.3,724.5,526.2,724.5z"/>
	<path class="st0" d="M606.6,756.5l0.3-0.8v-0.5l0.8-4.4l0.5-2.9l3.9-23.5h-30.6c-12.3,0-23.6,1.7-26.9,16.2l-1.4,7.3
		c-2.8,15.8,5.3,23.5,21.4,23.5h5.4c6.2,0,12.3-0.5,17.2-2.9c3.4,2,8.3,2.9,13.8,2.9v-0.9C605.3,770.4,605.6,763.9,606.6,756.5z
		 M588.8,755.3c-1,6.4-2.4,15.3-8.6,15.3h-5.4c-6,0-5.8-6.7-4.5-14.1l1.5-8.5l1.3-7.3c0.9-6.4,2.3-15.3,8.6-15.3h12.2L588.8,755.3z"
		/>
	<path class="st0" d="M240.7,682.1c-3.6-2.6-8.9-3.9-15.4-3.9h-33.6l-0.4,3.9l-10.9,89.4h30.7c12.3,0,23.6-1.8,26.9-16.2l1.2-7.3
		c2.5-13.5-3-21-14.5-22.9c9.7-0.8,17.9-4.1,20.6-16.1l1.2-7.3C248.2,692.4,246.1,685.8,240.7,682.1z M222.5,739.3l-2.8,16
		c-1.1,6.4-1.1,15.3-8.6,15.3h-13.8l6.5-45.1H218C223.8,725.5,223.7,732.1,222.5,739.3z M229.8,693.1L227,709
		c-1.1,6.4-2.3,15.3-8.6,15.3h-14.6l6.1-42.3l0.4-2.9h14.9c2.3,0,3.7,1.1,4.5,2.9C230.8,684.6,230.5,688.7,229.8,693.1z"/>
	<polygon class="st0" points="875.8,669.4 875.8,764.4 636.8,764.4 636.8,736.1 848.5,736.1 848.5,641.1 850.1,642.8 	"/>
	<path class="st0" d="M417.2,534.9l-41.8,7.1l-15.9,94h-36.9l14.7-86.5l3-17.5h-72.9c-5.2,0-10.2,0-15,0.2c-0.7,0-1.2,0.1-1.9,0.1
		c-15.2,0.9-27.9,4.3-36,17.2c-3.3,5.1-5.8,11.7-7.6,20.1l-5.3,24.7c-0.9,5.2-1.3,10.1-1.2,14.6c0.1,8.8,2.2,16.1,6,22
		c7.9,12.3,23.4,18.3,45.1,18.3h148.8v-1l0.4-2.2l2.3-13.7l7.7-45.4l8.9-52.4L417.2,534.9z M295,549.5l-3.1,18.3l-12,68.2h-26.1
		c-11,0-19.5-10.2-17.7-21.5c0,0,1.4-8.2,3-17.7c2.1-12.5,6.1-33.5,6.4-35.5c0.5-2.7,1.6-5.1,3.1-7.2c1.1-1.5,2.4-2.9,3.9-3.9
		c0.3-0.2,0.6-0.5,0.9-0.6c2.8-1.9,6-3,9.6-3h32.4L295,549.5z"/>
	<polygon class="st0" points="899.6,608.5 899.6,648.5 856.8,604.1 862.6,570.1 	"/>
	<path class="st0" d="M793.4,540.9L793.4,540.9l-12.2,70.4h-42.4l12.2-71.4l1.3-7.9l-7.6,1.4l-36.3,6.6l-12.3,71.3h-50.8l13.6-79.3
		l-43.9,8l-12.3,71.3h-38.9l7.3-41.6c6.5-36.3-11.8-54.3-47.7-55h-71.2l-9.3,55c-0.4,2.4-0.8,4.8-1,7c-0.4,4.2-0.4,8.2,0,11.9
		c2.3,24.2,20.5,36,50.9,36H519c0,0,1.9,37.6-46.2,40h-75.2l-0.1,0.8l-0.4,2.3l-1.8,10.1h35.9l65.1-0.1
		c31.9-0.6,55.2-24.6,64.5-53.2h260.9l15.7-92.3l0-0.2L793.4,540.9z M521.4,611.3h-26.1c-11,0-19.4-10.3-17.7-21.6
		c0,0,0-0.1,0.1-0.1l7.9-46.3c1.5-8.9,8.9-15.3,17.6-15.3h32.1L521.4,611.3z"/>
	<polygon class="st0" points="685.5,648.5 679,687.5 657.4,691.4 637.7,695.1 645.9,648.5 	"/>
	<polygon class="st0" points="732.5,648.5 731.7,653.4 727.4,678.6 701.3,683.4 690.2,685.5 696.3,648.5 	"/>
	<polygon class="st0" points="817.9,648.5 817.1,653.4 812.8,678.6 786.6,683.4 775.5,685.5 781.7,648.5 	"/>
	<path class="st0" d="M801.4,506.6L769,513L549.3,285.1l-64.8-67.2h17.4c8.4,0,16.5,2.1,23.7,6.1c4.5,2.4,8.7,5.6,12.4,9.5l0.2,0.2
		l11,11.4l0,0l11.3-11.7c3.7-3.8,7.8-7,12.3-9.4c0,0,0.1-0.1,0.1-0.1c7.2-3.9,15.3-6.1,23.7-6.1H614l-23.5,24.4l-11,11.4l-11,11.4
		l11,11.4L801.4,506.6z"/>
	<polygon class="st0" points="637.7,465.4 631.2,504.4 609.6,508.3 589.9,512 598.1,465.4 	"/>
	<polygon class="st0" points="684.7,465.4 683.9,470.3 683.9,470.3 679.6,495.5 653.5,500.3 642.4,502.4 648.5,465.4 	"/>
	<polygon class="st0" points="427.7,480.6 422.6,510.7 385.4,517.5 385.8,515.5 390.2,488.1 391.5,480.6 	"/>
</g>
</svg>
