<?xml version="1.0" encoding="utf-8"?>
<!-- Generator: Adobe Illustrator 24.1.0, SVG Export Plug-In . SVG Version: 6.00 Build 0)  -->
<svg version="1.1" id="Layer_1" xmlns="http://www.w3.org/2000/svg" xmlns:xlink="http://www.w3.org/1999/xlink" x="0px" y="0px"
	 viewBox="0 0 1080 425.2" style="enable-background:new 0 0 1080 425.2;" xml:space="preserve">
<style type="text/css">
	.st0{fill:#FCFAFA;}
</style>
<g>
	<path class="st0" d="M451.3,358c1.6-3.6,2.5-7.4,2.5-11.2l0.6-95.3c0-6-4.9-10.9-10.9-10.9l0,0c-6,0-10.9,4.9-10.9,10.9l-0.6,95.3
		c0,1.3-0.2,2.5-0.7,3.6c-0.5,1.1-1.2,2.1-2.2,3c-1.7,1.6-4.3,2.5-7.8,2.7c-0.5,0-1,0-1.4-0.1c-2.3-0.2-21.3-0.3-35.7-0.1l-2.5,0
		c-2.4,0-4.4-0.9-6.3-2.7c-0.8-0.8-1.5-1.8-2.1-3.1c-0.5-1.2-0.8-2.5-0.8-3.7l0.6-76.7c0-3.9-0.8-7.7-2.5-11.3
		c-1.6-3.6-3.9-6.8-6.8-9.6c-2.9-2.7-6.3-4.8-10.1-6.3c-3.8-1.5-7.8-2.2-11.9-2.2h-54.5c-4,0-8.1,0.9-12.1,2.6
		c-4,1.7-7.4,3.8-10.3,6.4c-2.9,2.6-5.1,5.7-6.6,9.3c-1.5,3.5-2.2,7.3-2.2,11.2l-0.6,76.7c0,3.7,0.8,7.4,2.4,11.1
		c1.6,3.6,3.8,6.8,6.7,9.6c1.6,1.5,3.2,2.8,4.8,3.9c1.6,1,3.4,1.9,5.3,2.7c3.6,1.5,7.7,2.2,12,2.2h54.5c4.2,0,8.3-0.8,12.2-2.4
		c1-0.4,2.1-0.9,3-1.4c3.2-1.7,7-1.6,10.2,0.1c1,0.6,2.1,1.1,3.1,1.5l0.1,0c3.6,1.3,7.5,2.1,11.7,2.3l36.7,0v0h4.7l0,0
		c0.2,0,0.3,0,0.5,0l0.2,0l0,0c3.7-0.2,7.3-1,10.8-2.3c3.9-1.5,7.3-3.6,10.1-6.3C447.4,364.8,449.7,361.6,451.3,358z M350.8,346.5
		c0,1.1-0.3,2.4-0.9,3.6c0,0,0,0.1,0,0.1c-1,2.1-2.6,3.8-4.6,4.8c-0.2,0.1-0.3,0.2-0.5,0.2c-0.9,0.4-2,0.6-3.4,0.6h-54.5
		c-2.6,0-4.8-0.9-6.7-2.8c-1.9-1.8-2.8-4-2.8-6.5l0.6-76.7c0-2.7,0.9-4.8,2.8-6.6c1-1,2-1.7,3-2.1c1.1-0.4,2.3-0.6,3.6-0.6h54.5
		c2.6,0,4.8,0.9,6.7,2.7c1.8,1.8,2.7,3.9,2.7,6.6L350.8,346.5z"/>
	<path class="st0" d="M715.3,414.4c2.5,0,4.6-2,4.6-4.6v-11c0-2.5-2-4.6-4.6-4.6h-12.6c-2.5,0-4.6,2-4.6,4.6v11c0,2.5,2,4.6,4.6,4.6
		H715.3z"/>
	<path class="st0" d="M750.3,409.8v-11c0-2.5-2-4.6-4.6-4.6h-12.6c-2.5,0-4.6,2-4.6,4.6v11c0,2.5,2,4.6,4.6,4.6h12.6
		C748.3,414.4,750.3,412.3,750.3,409.8z"/>
	<path class="st0" d="M805.7,414.4c2.5,0,4.6-2,4.6-4.6v-11c0-2.5-2-4.6-4.6-4.6H793c-2.5,0-4.6,2-4.6,4.6v11c0,2.5,2,4.6,4.6,4.6
		H805.7z"/>
	<path class="st0" d="M636.9,224.3c3.3,0,5.9-2.6,5.9-5.9v-23.8c0-3.3-2.6-5.9-5.9-5.9h-26.8c-3.3,0-5.9,2.6-5.9,5.9v23.8
		c0,3.3,2.6,5.9,5.9,5.9H636.9z"/>
	<path class="st0" d="M664.6,224.3h26.8c3.3,0,5.9-2.6,5.9-5.9v-23.8c0-3.3-2.6-5.9-5.9-5.9h-26.8c-3.3,0-5.9,2.6-5.9,5.9v23.8
		C658.7,221.6,661.3,224.3,664.6,224.3z"/>
	<path class="st0" d="M456.6,224.2c3.4,0,6.1-2.7,6.1-6.1v-23.3c0-3.4-2.7-6.1-6.1-6.1h-26.3c-3.4,0-6.1,2.7-6.1,6.1v23.3
		c0,3.4,2.7,6.1,6.1,6.1H456.6z"/>
	<path class="st0" d="M835.3,226.9l-96-64.9c-2.1-1.4-27.9-18.8-29.9-20.2L552.8,36c0,0,0,0,0,0l22.5-15.2h0
		c-6.8-10.1-20.5-12.7-30.6-5.9l-11.7,7.9c0,0,0,0,0,0l-12-8.1c-10.1-6.8-23.8-4.2-30.6,5.9v0L513.4,36c0,0,0,0,0,0L235,224.1
		c0,0,0,0.1,0,0.1h20.8c12,0,23.7-3.6,33.7-10.3L515.9,61c10.4-7,24.1-7,34.5,0l225.6,152.4c0,0,0,0,0,0c8.4,7.3,13.3,18,13.3,29.3
		l-0.6,75.5h0v28.6c0,1.3-0.2,2.5-0.7,3.6c-0.5,1.1-1.2,2.1-2.2,3c-1.8,1.8-4.8,2.7-8.7,2.7l-25.1,0c-8.2,0-10.3-0.4-10.8-0.6
		c-1.1-0.4-2-1-2.9-2c-2-1.9-3-4.1-3-6.7l0.6-95.1c0-5.8-4.5-10.9-10.3-11.1c-6.2-0.3-11.4,4.7-11.4,10.8l-0.6,95.4
		c0,2.5-0.9,4.6-2.8,6.5c-1.3,1.3-4.8,2.8-13.9,2.8h-25.6v0.2c-2.1-0.1-3.2-0.4-3.8-0.6c-1.1-0.4-2-1-2.9-2c-2-1.9-3-4.1-3-6.7
		l0.6-95.7c0-5.8-4.7-10.5-10.5-10.5h-0.3c-6,0-10.9,4.9-10.9,10.8c0,23.1-0.6,95.4-0.6,95.4c0,2.5-0.9,4.6-2.8,6.5
		c-1.9,1.9-4.9,2.8-8.8,2.8l-25.3-0.1l-2.4,0c-2.4,0-4.4-0.9-6.1-2.6l-0.1-0.1c-1-0.9-1.7-1.8-2.2-2.8c-0.4-0.9-0.7-2.2-0.7-3.8
		l0.6-76.2c0-3.8-0.8-7.6-2.5-11.2c-1.6-3.6-3.8-6.8-6.6-9.4c-3.1-2.7-6.5-4.9-10.1-6.3c-2-0.8-3.9-1.4-5.8-1.7
		c-1.9-0.3-3.9-0.5-6.1-0.5h-53.8c-4.4,0-8.5,0.8-12.2,2.3c-3.7,1.5-7,3.7-9.9,6.5c-3,2.8-5.2,6-6.7,9.4c-1.5,3.4-2.2,7.1-2.2,10.9
		l-0.6,76.2c0,3.7,0.8,7.4,2.4,11c1.6,3.6,3.9,6.8,6.8,9.5c2.9,2.7,6.2,4.8,9.7,6.3c3.6,1.5,7.7,2.3,12.1,2.3h53.6
		c0.2,0,0.5,0,0.7,0l3.5-0.4c0.2,0,0.4-0.1,0.6-0.1l3.4-0.6l0.2,0c0.4-0.1,0.8-0.2,1.1-0.3v11.7c0,2.6-0.9,4.6-2.7,6.3c0,0,0,0,0,0
		c-1.2,1-2.7,1.6-4.3,1.6c-9.6,0.2-56.1,0.3-77,0.3c-5.4,0-10.1,4.3-10.2,9.7c-0.1,5.5,4.4,10,9.8,10c10.4,0,63.6-0.5,63.6-0.5
		c12.9-0.2,22.6-0.5,23.6-0.9c3.8-1.6,7.2-3.7,9.9-6.4c3-2.6,5.2-5.6,6.7-9.2c1.5-3.4,2.2-7.1,2.2-10.8l0-11.6
		c0.4,0.1,0.8,0.2,1.3,0.3c2.6,0.7,5.9,1,10.1,1h23.3v0.2h2c1.6,0,3.3-0.1,4.9-0.2c3.6-0.3,6.7-1.1,9.4-2.2c1.6-0.7,3.2-1.4,4.7-2.3
		c2.2-1.3,5-1.3,7.2,0c1.4,0.8,2.9,1.6,4.4,2.2c2.6,1.2,5.8,1.9,9.5,2.3h0c1.6,0.2,3.2,0.2,4.9,0.2h2V376l19.6,0v0h2
		c0.5,0,0.9,0,1.4,0h0c8.4-0.1,14.3-0.9,18.1-2.4c1.6-0.7,3.1-1.4,4.6-2.3c2.3-1.4,5.1-1.3,7.3,0.1c1.3,0.8,2.7,1.5,4.1,2.2l0.1,0
		c3.6,1.3,8.5,2.1,15.1,2.4v0l4.3,0l2,0H775v0h4.5l0.1,0v0l0,0c4-0.2,7.8-0.9,11.5-2.3c3.9-1.5,7.3-3.6,10.1-6.3
		c2.8-2.7,5.1-5.8,6.7-9.5c1.6-3.6,2.5-7.4,2.5-11.2l0.6-95.3c0-0.5,0-1-0.1-1.4c0,0,0,0,0,0v-7.3c0-1.9-0.1-3.9-0.3-5.8
		c0,0,0,0,0,0l30.6,20.7c0,0,0,0,0,0C848.1,247.4,845.4,233.7,835.3,226.9z M570,346.9c0,2.7-0.9,4.8-2.7,6.5c-1,0.9-2.1,1.6-3.3,2
		c-1.2,0.5-2.3,0.7-3.3,0.7h-3.1c-1.8,0-45.4,0-47.2,0h-3.4c-2.5,0-4.6-0.8-6.5-2.6c-1-1-1.7-2-2.2-3c-0.5-0.9-0.7-2.1-0.7-3.6
		l0.6-76.2c0-2.6,0.9-4.8,2.9-6.6l0.1-0.1c0.8-0.9,1.8-1.5,2.8-1.9c1.1-0.4,2.3-0.6,3.6-0.6h53.8c2.6,0,4.7,0.9,6.6,2.7
		c0.9,0.9,1.6,1.8,2.1,2.9c0.5,1,0.7,2.3,0.7,3.6L570,346.9z"/>
</g>
</svg>
