<?xml version="1.0" encoding="utf-8"?>
<!-- Generator: Adobe Illustrator 24.1.0, SVG Export Plug-In . SVG Version: 6.00 Build 0)  -->
<svg version="1.1" id="Layer_1" xmlns="http://www.w3.org/2000/svg" xmlns:xlink="http://www.w3.org/1999/xlink" x="0px" y="0px"
	 viewBox="0 0 1080 637.8" style="enable-background:new 0 0 1080 637.8;" xml:space="preserve">
<style type="text/css">
	.st0{fill:#FCFAFA;}
</style>
<g>
	<polygon class="st0" points="510,115.9 528.2,134.7 528.1,134.8 354.3,315.1 318,315.1 510,116 	"/>
	<path class="st0" d="M319.9,556.3l0.2-0.8V555l0.8-4.1l0.5-2.7l3.8-22.1h-28.7c-11.6,0-22.2,1.6-25.3,15.2l-1.2,6.9
		c-2.6,14.8,5,22.1,20,22.1h5.2c5.8,0,11.6-0.5,16.1-2.7c3.3,1.9,7.8,2.7,13,2.7v-0.8C318.6,569.3,318.8,563.2,319.9,556.3z
		 M303.1,555.1c-0.9,6-2.2,14.4-8,14.4h-5.2c-5.6,0-5.4-6.3-4.2-13.2l1.4-8l1.2-6.9c0.8-6,2.2-14.4,8.1-14.4H308L303.1,555.1z"/>
	<path class="st0" d="M368.2,526.1l-5.4,31.7l-1.9,11.7h-10.8c-5.6,0-5.4-6.2-4.2-13.2l1.4-8l1.2-6.9l2.4-15.2h-17.2l-3.8,22.1h0.1
		c-2.7,14.8,4.9,22,19.9,22.1h10.6l-0.5,3.2c-1.4,7.9-3.5,12.7-8.4,13.1v0.9c14.6-0.3,24.2-7.3,26.9-22.1l1.2-7.8l5.4-31.7
		L368.2,526.1L368.2,526.1z"/>
	<polygon class="st0" points="416.4,525.3 420.4,500.6 402.7,504 399.2,525.3 389.8,525.3 389.8,526.2 398.9,526.2 391.5,570.4 
		408.6,570.4 416.1,526.2 426.8,526.2 426.8,525.3 	"/>
	<path class="st0" d="M469.9,526.2l-7.3,43.3h-10.7c-5.6,0-5.4-6.2-4.2-13.2l1.4-8l1.1-6.5l2.6-15.6h-17.1l-2.6,15.2l-1.2,6.9
		c-2.6,14.8,5,22.1,20,22.1h27.7l0.3-0.8l7.3-43.3L469.9,526.2L469.9,526.2z"/>
	<path class="st0" d="M527,526.2h-27.9L499,527l-7.3,43.3H509l7.3-43.3H527c5.4,0,5.4,6.2,4.2,13.1l-1.5,8.2l-1,6.5l0,0l-2.6,15.6
		h17.2l2.6-15.2l1.1-6.9C549.8,533.4,542.2,526.2,527,526.2z"/>
	<path class="st0" d="M602.6,556.3l0.3-0.8V555l0.8-4.1l0.5-2.7l3.7-22.1H579c-11.6,0-22.2,1.6-25.3,15.2l-1.3,6.9
		c-2.6,14.8,5,22.1,20.1,22.1h5.1c5.8,0,11.6-0.5,16.2-2.7c3.2,1.9,7.8,2.7,13,2.7v-0.8C601.4,569.3,601.6,563.2,602.6,556.3z
		 M585.8,555.1c-0.9,6-2.3,14.4-8.1,14.4h-5.1c-5.6,0-5.4-6.3-4.2-13.2l1.4-8l1.2-6.9c0.8-6,2.2-14.4,8.1-14.4h11.5L585.8,555.1z"/>
	<path class="st0" d="M258.8,486.4c-3.4-2.4-8.4-3.7-14.5-3.7h-31.6l-0.4,3.7l-10.2,84H231c11.6,0,22.2-1.7,25.3-15.2l1.1-6.9
		c2.3-12.7-2.8-19.7-13.6-21.5c9.1-0.8,16.8-3.9,19.4-15.1l1.1-6.9C265.8,496,263.9,489.8,258.8,486.4z M241.7,540.1l-2.6,15
		c-1,6-1,14.4-8.1,14.4h-13l6.1-42.4h13.3C242.9,527.1,242.8,533.3,241.7,540.1z M248.6,496.7l-2.6,14.9c-1,6-2.2,14.4-8.1,14.4
		h-13.7l5.7-39.7l0.4-2.7h14c2.2,0,3.5,1,4.2,2.7C249.5,488.7,249.2,492.6,248.6,496.7z"/>
	<polygon class="st0" points="855.5,474.4 855.5,563.7 630.9,563.7 630.9,537.1 829.8,537.1 829.8,447.8 831.3,449.4 	"/>
	<path class="st0" d="M424.6,348.1l-39.3,6.7l-14.9,88.3h-34.7l13.8-81.3l2.8-16.4h-68.5c-4.9,0-9.6,0-14.1,0.2
		c-0.7,0-1.1,0.1-1.8,0.1c-14.3,0.8-26.2,4-33.8,16.2c-3.1,4.8-5.4,11-7.1,18.9l-5,23.2c-0.8,4.9-1.2,9.5-1.1,13.7
		c0.1,8.3,2.1,15.1,5.6,20.7c7.4,11.6,22,17.2,42.4,17.2h139.8v-0.9l0.4-2.1l2.2-12.9l7.2-42.7l8.4-49.2L424.6,348.1z M309.8,361.8
		l-2.9,17.2l-11.3,64.1h-24.5c-10.3,0-18.3-9.6-16.6-20.2c0,0,1.3-7.7,2.8-16.6c2-11.7,5.7-31.5,6-33.4c0.5-2.5,1.5-4.8,2.9-6.8
		c1-1.4,2.3-2.7,3.7-3.7c0.3-0.2,0.6-0.5,0.8-0.6c2.6-1.8,5.6-2.8,9-2.8h30.4L309.8,361.8z"/>
	<polygon class="st0" points="877.9,417.2 877.9,454.8 837.6,413.1 843.1,381.1 	"/>
	<path class="st0" d="M778.1,353.7L778.1,353.7l-11.5,66.1h-39.8l11.5-67.1l1.2-7.4l-7.1,1.3l-34.1,6.2l-11.6,67H639l12.8-74.5
		l-41.2,7.5l-11.6,67h-36.5l6.9-39.1c6.1-34.1-11.1-51-44.8-51.7h-66.9l-8.7,51.7c-0.4,2.3-0.8,4.5-0.9,6.6c-0.4,3.9-0.4,7.7,0,11.2
		c2.2,22.7,19.3,33.8,47.8,33.8h24.6c0,0,1.8,35.3-43.4,37.6h-70.7l-0.1,0.8l-0.4,2.2l-1.7,9.5h33.7l61.2-0.1
		c30-0.6,51.9-23.1,60.6-50h245.1l14.8-86.7v-0.2L778.1,353.7z M522.5,419.8H498c-10.3,0-18.2-9.7-16.6-20.3c0,0,0-0.1,0.1-0.1
		l7.4-43.5c1.4-8.4,8.4-14.4,16.5-14.4h30.2L522.5,419.8z"/>
	<polygon class="st0" points="676.7,454.8 670.6,491.4 650.3,495.1 631.8,498.6 639.5,454.8 	"/>
	<polygon class="st0" points="720.9,454.8 720.1,459.4 716.1,483.1 691.5,487.6 681.1,489.6 686.8,454.8 	"/>
	<polygon class="st0" points="801.1,454.8 800.3,459.4 796.3,483.1 771.7,487.6 761.3,489.6 767.1,454.8 	"/>
	<path class="st0" d="M785.6,321.5l-30.4,6L548.7,113.4l-60.9-63.1h16.3c7.9,0,15.5,2,22.3,5.7c4.2,2.3,8.2,5.3,11.7,8.9l0.2,0.2
		l10.3,10.7l0,0l10.6-11c3.5-3.6,7.3-6.6,11.6-8.8l0.1-0.1c6.8-3.7,14.4-5.7,22.3-5.7h16.3l-22.1,22.9l-10.3,10.7l-10.3,10.7
		l10.3,10.7L785.6,321.5z"/>
	<polygon class="st0" points="631.8,282.8 625.7,319.4 605.4,323.1 586.9,326.6 594.6,282.8 	"/>
	<polygon class="st0" points="675.9,282.8 675.2,287.4 675.2,287.4 671.2,311.1 646.6,315.6 636.2,317.5 641.9,282.8 	"/>
	<polygon class="st0" points="434.5,297.1 429.7,325.3 394.8,331.7 395.1,329.8 399.3,304.1 400.5,297.1 	"/>
</g>
</svg>
