<?xml version="1.0" encoding="utf-8"?>
<!-- Generator: Adobe Illustrator 24.1.0, SVG Export Plug-In . SVG Version: 6.00 Build 0)  -->
<svg version="1.1" id="Layer_1" xmlns="http://www.w3.org/2000/svg" xmlns:xlink="http://www.w3.org/1999/xlink" x="0px" y="0px"
	 viewBox="0 0 1080 425.2" style="enable-background:new 0 0 1080 425.2;" xml:space="preserve">
<style type="text/css">
	.st0{fill:#252424;}
</style>
<g>
	<polygon class="st0" points="517.2,58.5 531,72.8 531,72.8 399,209.7 371.5,209.7 517.2,58.6 	"/>
	<path class="st0" d="M372.9,392.8l0.2-0.6v-0.4l0.6-3.1l0.4-2l2.9-16.8h-21.8c-8.8,0-16.9,1.2-19.2,11.5l-0.9,5.2
		c-2,11.2,3.8,16.8,15.2,16.8h3.9c4.4,0,8.8-0.4,12.2-2c2.5,1.4,5.9,2,9.9,2v-0.6C371.9,402.7,372.1,398.1,372.9,392.8z
		 M360.1,391.9c-0.7,4.6-1.7,10.9-6.1,10.9h-3.9c-4.3,0-4.1-4.8-3.2-10l1.1-6.1l0.9-5.2c0.6-4.6,1.7-10.9,6.1-10.9h8.8L360.1,391.9z
		"/>
	<path class="st0" d="M409.6,369.9l-4.1,24.1l-1.4,8.9h-8.2c-4.3,0-4.1-4.7-3.2-10l1.1-6.1l0.9-5.2l1.8-11.5h-13.1l-2.9,16.8h0.1
		c-2,11.2,3.7,16.7,15.1,16.8h8l-0.4,2.4c-1.1,6-2.7,9.6-6.4,9.9v0.7c11.1-0.2,18.4-5.5,20.4-16.8l0.9-5.9l4.1-24.1L409.6,369.9
		L409.6,369.9z"/>
	<polygon class="st0" points="446.2,369.3 449.2,350.5 435.8,353.1 433.1,369.3 426,369.3 426,370 432.9,370 427.3,403.5 
		440.2,403.5 445.9,370 454.1,370 454.1,369.3 	"/>
	<path class="st0" d="M486.8,370l-5.5,32.9h-8.1c-4.3,0-4.1-4.7-3.2-10l1.1-6.1l0.8-4.9l2-11.8h-13l-2,11.5l-0.9,5.2
		c-2,11.2,3.8,16.8,15.2,16.8h21l0.2-0.6l5.5-32.9L486.8,370L486.8,370z"/>
	<path class="st0" d="M530.1,370h-21.2l-0.1,0.6l-5.5,32.9h13.1l5.5-32.9h8.1c4.1,0,4.1,4.7,3.2,9.9l-1.1,6.2l-0.8,4.9l0,0l-2,11.8
		h13.1l2-11.5l0.8-5.2C547.4,375.4,541.7,370,530.1,370z"/>
	<path class="st0" d="M587.5,392.8l0.2-0.6v-0.4l0.6-3.1l0.4-2l2.8-16.8h-21.9c-8.8,0-16.9,1.2-19.2,11.5l-1,5.2
		c-2,11.2,3.8,16.8,15.3,16.8h3.9c4.4,0,8.8-0.4,12.3-2c2.4,1.4,5.9,2,9.9,2v-0.6C586.6,402.7,586.8,398.1,587.5,392.8z
		 M574.8,391.9c-0.7,4.6-1.7,10.9-6.1,10.9h-3.9c-4.3,0-4.1-4.8-3.2-10l1.1-6.1l0.9-5.2c0.6-4.6,1.7-10.9,6.1-10.9h8.7L574.8,391.9z
		"/>
	<path class="st0" d="M326.5,339.8c-2.6-1.8-6.4-2.8-11-2.8h-24l-0.3,2.8l-7.7,63.8h21.9c8.8,0,16.9-1.3,19.2-11.5l0.8-5.2
		c1.7-9.6-2.1-15-10.3-16.3c6.9-0.6,12.8-3,14.7-11.5l0.8-5.2C331.8,347.1,330.4,342.3,326.5,339.8z M313.5,380.5l-2,11.4
		c-0.8,4.6-0.8,10.9-6.1,10.9h-9.9l4.6-32.2h10.1C314.4,370.7,314.4,375.4,313.5,380.5z M318.8,347.6l-2,11.3
		c-0.8,4.6-1.7,10.9-6.1,10.9h-10.4l4.3-30.1l0.3-2h10.6c1.7,0,2.7,0.8,3.2,2C319.5,341.5,319.2,344.5,318.8,347.6z"/>
	<polygon class="st0" points="779.5,330.7 779.5,398.5 609,398.5 609,378.3 760,378.3 760,310.5 761.2,311.7 	"/>
	<path class="st0" d="M452.4,234.8l-29.8,5.1l-11.3,67h-26.3l10.5-61.7l2.1-12.5h-52c-3.7,0-7.3,0-10.7,0.2c-0.5,0-0.8,0.1-1.4,0.1
		c-10.9,0.6-19.9,3-25.7,12.3c-2.4,3.6-4.1,8.4-5.4,14.3l-3.8,17.6c-0.6,3.7-0.9,7.2-0.8,10.4c0.1,6.3,1.6,11.5,4.3,15.7
		c5.6,8.8,16.7,13.1,32.2,13.1h106.1v-0.7l0.3-1.6l1.7-9.8l5.5-32.4l6.4-37.4L452.4,234.8z M365.2,245.2l-2.2,13.1l-8.6,48.7h-18.6
		c-7.8,0-13.9-7.3-12.6-15.3c0,0,1-5.8,2.1-12.6c1.5-8.9,4.3-23.9,4.6-25.4c0.4-1.9,1.1-3.6,2.2-5.2c0.8-1.1,1.7-2,2.8-2.8
		c0.2-0.2,0.5-0.4,0.6-0.5c2-1.4,4.3-2.1,6.8-2.1h23.1L365.2,245.2z"/>
	<polygon class="st0" points="796.5,287.2 796.5,315.8 765.9,284.1 770.1,259.8 	"/>
	<path class="st0" d="M720.8,239L720.8,239l-8.7,50.2h-30.2l8.7-50.9l0.9-5.6l-5.4,1l-25.9,4.7l-8.8,50.9h-36.2l9.7-56.6l-31.3,5.7
		l-8.8,50.9h-27.7l5.2-29.7c4.6-25.9-8.4-38.7-34-39.3h-50.8l-6.6,39.3c-0.3,1.7-0.6,3.4-0.7,5c-0.3,3-0.3,5.8,0,8.5
		c1.7,17.2,14.7,25.7,36.3,25.7h18.7c0,0,1.4,26.8-32.9,28.5h-53.7l-0.1,0.6l-0.3,1.7l-1.3,7.2h25.6l46.5-0.1
		c22.8-0.5,39.4-17.5,46-38H741l11.2-65.8v-0.2L720.8,239z M526.7,289.2h-18.6c-7.8,0-13.8-7.4-12.6-15.4c0,0,0-0.1,0.1-0.1l5.6-33
		c1.1-6.4,6.4-10.9,12.5-10.9h22.9L526.7,289.2z"/>
	<polygon class="st0" points="643.8,315.8 639.2,343.6 623.7,346.4 609.7,349 615.5,315.8 	"/>
	<polygon class="st0" points="677.3,315.8 676.7,319.3 673.7,337.3 655,340.7 647.1,342.2 651.5,315.8 	"/>
	<polygon class="st0" points="738.2,315.8 737.6,319.3 734.6,337.3 715.9,340.7 708,342.2 712.4,315.8 	"/>
	<path class="st0" d="M726.5,214.6l-23.1,4.6L546.6,56.6L500.4,8.7h12.4c6,0,11.8,1.5,16.9,4.3c3.2,1.7,6.2,4,8.9,6.8l0.2,0.2
		l7.8,8.1l0,0l8-8.4c2.7-2.7,5.5-5,8.8-6.7l0.1-0.1c5.2-2.8,10.9-4.3,16.9-4.3h12.4L576,26l-7.8,8.1l-7.8,8.1l7.8,8.1L726.5,214.6z"
		/>
	<polygon class="st0" points="609.7,185.2 605.1,213 589.7,215.8 575.6,218.4 581.5,185.2 	"/>
	<polygon class="st0" points="643.2,185.2 642.6,188.7 642.6,188.7 639.6,206.7 620.9,210.1 613,211.5 617.4,185.2 	"/>
	<polygon class="st0" points="459.9,196 456.3,217.5 429.8,222.3 430,220.9 433.2,201.4 434.1,196 	"/>
</g>
</svg>
