<?xml version="1.0" encoding="utf-8"?>
<!-- Generator: Adobe Illustrator 24.1.0, SVG Export Plug-In . SVG Version: 6.00 Build 0)  -->
<svg version="1.1" id="Layer_1" xmlns="http://www.w3.org/2000/svg" xmlns:xlink="http://www.w3.org/1999/xlink" x="0px" y="0px"
	 viewBox="0 0 1080 637.8" style="enable-background:new 0 0 1080 637.8;" xml:space="preserve">
<style type="text/css">
	.st0{fill:#FFFFFF;}
</style>
<g>
	<g id="Logo_00000119093945485753560110000006823083627894761359_">
		<g>
			<path class="st0" d="M522.3,459.3l1.6-4.6l4.3-13.6c0.7,0.1,1.2,0.2,1.5,0.2c0.4,0,0.9-0.1,1.6-0.2l5.6,17.5c0.8,2.6,1.5,4.6,2,6
				s0.8,2.4,1.1,3h0.3c0.3-0.8,0.5-1.3,0.7-1.7c0.1-0.4,0.5-1.5,1.1-3.4s1.4-4.3,2.3-7.1c0.9-2.8,1.7-5.4,2.4-7.8
				c0.7-2.4,1.3-4.6,1.8-6.5c0.5,0.1,1,0.2,1.5,0.2s1.1-0.1,1.8-0.2l-4.2,10.9l-1.7,5.1l-1.7,5l-1.8,5.3c-0.5,1.5-0.9,2.5-1.1,3.2
				c-0.2,0.6-0.4,1.4-0.7,2.3c-0.5-0.1-1-0.2-1.5-0.2s-1.1,0.1-1.7,0.2l-4.3-13.6l-4.2-12.4h-0.3l-0.1,0.5l-8.8,25.3
				c-0.7-0.1-1.2-0.2-1.7-0.2h-1c-0.3,0.1-0.4,0.2-0.6,0.2l-3.2-10.8l-1.7-5.2l-1.5-5l-1.7-5.3l-1.6-5l-0.2-0.5
				c0.9,0.1,1.6,0.2,2.3,0.2h1.4c0.4-0.1,0.7-0.2,0.9-0.2l1.2,4.6l1.4,4.8l2.7,8.9l2.7,8.5h0.3L522.3,459.3z"/>
			<path class="st0" d="M556,443.9l-0.2-5.7c0.4,0.1,0.7,0.1,1,0.1s0.6,0,1,0h1.2c0.3-0.1,0.6-0.2,0.8-0.2c-0.1,0.7-0.1,1.4-0.2,2.1
				c-0.1,0.8-0.1,1.5-0.1,2.3l-0.2,11.9v0.4l0.2,0.1c1.5-2.9,3.9-4.4,7.2-4.4c2.4,0,4.2,0.7,5.6,2.1c1.3,1.4,2,3.3,2,5.8l-0.2,10.3
				l0.1,4c-0.7-0.1-1.3-0.2-1.8-0.2h-0.8c-0.2,0-0.7,0.1-1.3,0.2c0.1-1.1,0.2-2.7,0.3-4.8s0.1-4,0.1-5.7c0-2.1,0-3.5-0.1-4.2
				s-0.3-1.5-0.6-2.3s-0.9-1.5-1.8-2c-0.9-0.6-1.9-0.8-3-0.8s-2.1,0.3-3,0.8s-1.6,1.2-2,2.1c-0.4,0.8-0.7,1.7-0.8,2.5
				c-0.1,0.9-0.2,2.4-0.2,4.6v4.8l0.5,5c-0.9-0.1-1.5-0.2-1.9-0.2s-0.6,0-0.9,0c-0.2,0-0.6,0.1-1.2,0.2c0.1-1.1,0.1-2.8,0.2-5
				c0-2.2,0.1-4.2,0.1-6v-12L556,443.9L556,443.9z"/>
			<path class="st0" d="M590.8,473.3c-3.5,0-6.2-1-8.1-3c-1.9-2-2.9-4.9-2.9-8.5c0-3.5,1-6.2,2.9-8.2s4.5-3,7.9-3c3,0,5.4,0.8,7,2.5
				s2.4,4.1,2.4,7.2v1.3h-3.7h-3.9h-7.8H584v0.6c0,2.9,0.7,5.2,2.1,6.8c1.4,1.6,3.3,2.4,5.9,2.4c2.8,0,5.2-1.1,7.1-3.2l0.3,0.1
				l-0.4,2.3c-1.3,0.9-2.6,1.6-3.9,2C593.6,473.1,592.3,473.3,590.8,473.3 M583.9,459.9l6.2,0.1h2.1c1.2,0,2.3,0,3.5-0.1h0.5
				c0-2.2-0.4-4.1-1.3-5.6c-0.9-1.5-2.3-2.3-4.4-2.3c-1.9,0-3.5,0.7-4.7,2.2C584.5,455.6,583.9,457.5,583.9,459.9"/>
			<path class="st0" d="M605.4,456.2l-0.2-4.8v-0.5c0.6,0.1,1.2,0.1,1.8,0.1h0.7c0.3,0,0.7,0,1.2-0.1l-0.2,3.8v0.8
				c0.9-1.1,1.8-2.1,2.6-3.2c1.1-1.1,2.3-1.6,3.7-1.6c0.5,0,0.9,0.1,1.4,0.3c-0.1,0.4-0.2,0.8-0.3,1.3s-0.1,1-0.1,1.4v0.8l-0.3,0.2
				c-0.7-0.5-1.5-0.8-2.3-0.8c-3.2,0-4.8,2.5-4.8,7.4v4.1l0.2,7.3c-0.6-0.1-1.1-0.2-1.6-0.2s-1.2,0.1-2.1,0.2v-0.5l0.2-5.1v-5.2
				L605.4,456.2L605.4,456.2z"/>
			<path class="st0" d="M630.4,473.3c-3.5,0-6.2-1-8.1-3c-1.9-2-2.9-4.9-2.9-8.5c0-3.5,1-6.2,2.9-8.2s4.5-3,7.9-3c3,0,5.4,0.8,7,2.5
				s2.4,4.1,2.4,7.2v1.3h-3.7H632h-7.8h-0.6v0.6c0,2.9,0.7,5.2,2.1,6.8c1.4,1.6,3.3,2.4,5.9,2.4c2.8,0,5.2-1.1,7.1-3.2l0.3,0.1
				l-0.4,2.3c-1.3,0.9-2.6,1.6-3.9,2C633.2,473.1,631.9,473.3,630.4,473.3 M623.5,459.9l6.2,0.1h2.1c1.2,0,2.3,0,3.5-0.1h0.5
				c0-2.2-0.4-4.1-1.3-5.6c-0.9-1.5-2.3-2.3-4.4-2.3c-1.9,0-3.5,0.7-4.7,2.2C624.1,455.6,623.5,457.5,623.5,459.9"/>
			<path class="st0" d="M670.5,441.1c3.1,0,5.6,0.2,7.5,0.6c1.9,0.4,4,1.7,6.3,3.8s3.4,5.7,3.4,10.6c0,2.6-0.5,5.1-1.6,7.4
				c-1.1,2.3-2.5,4.2-4.3,5.6c-1.8,1.4-3.6,2.4-5.4,2.8c-1.8,0.5-4.5,0.7-8.2,0.7l-6.8-0.2l-2.9,0.2c0.1-0.7,0.2-1.3,0.2-1.8
				s0-1.6,0-3.3l0.1-15.9l-0.1-5.5V441l3.4,0.2L670.5,441.1z M674.1,470.3c3-0.5,5.2-2.2,6.7-5s2.3-5.8,2.3-9.1c0-4.8-0.9-8-2.7-9.6
				c-1.8-1.7-3.4-2.7-4.9-3.1c-1.5-0.4-3.6-0.7-6.3-0.7l-6.6,0.3c-0.2,2.4-0.3,5.4-0.3,9v4.6v4.7c0,1.5,0,3.1,0,4.6
				c0,1.6,0.1,3.1,0.2,4.5c0.8,0.2,1.4,0.3,2,0.3s1.2,0,1.9,0c1.7,0,3,0,4-0.1C671.6,470.8,672.8,470.6,674.1,470.3"/>
			<path class="st0" d="M703.5,473.3c-3.5,0-6.2-1-8.1-3c-1.9-2-2.9-4.9-2.9-8.5c0-3.5,1-6.2,2.9-8.2s4.5-3,7.9-3c3,0,5.4,0.8,7,2.5
				s2.4,4.1,2.4,7.2v1.3H709h-3.9h-7.8h-0.6v0.6c0,2.9,0.7,5.2,2.1,6.8c1.4,1.6,3.3,2.4,5.9,2.4c2.8,0,5.2-1.1,7.1-3.2l0.3,0.1
				l-0.4,2.3c-1.3,0.9-2.6,1.6-3.9,2C706.2,473.1,704.9,473.3,703.5,473.3 M696.5,459.9l6.2,0.1h2.1c1.2,0,2.3,0,3.5-0.1h0.5
				c0-2.2-0.4-4.1-1.3-5.6c-0.9-1.5-2.3-2.3-4.4-2.3c-1.9,0-3.5,0.7-4.7,2.2C697.1,455.6,696.5,457.5,696.5,459.9"/>
			<path class="st0" d="M723.1,445.1l-0.3,6.2h5c-0.1,0.5-0.2,0.8-0.2,0.9c0,0.2,0.1,0.5,0.2,0.8h-5v3.9v7.8c0,2.7,0.2,4.6,0.7,5.5
				c0.5,1,1.4,1.4,2.7,1.4c0.6,0,1.1-0.1,1.4-0.2c0.3-0.1,0.5-0.2,0.7-0.3v1.1c-1.6,0.6-2.9,0.8-3.9,0.8c-1.7,0-3-0.5-4-1.6
				s-1.4-2.5-1.4-4.3l0.3-12V454v-0.6v-0.7h-3.1c0.1-0.2,0.1-0.5,0.1-0.8s0-0.6-0.1-0.9h3.1v-0.3c0-1.6-0.1-3.2-0.3-4.8l4-1.5
				L723.1,445.1z"/>
			<path class="st0" d="M740.2,450.4c2.4,0,4.3,0.6,5.6,1.9c1.3,1.3,2,3.1,2,5.4l-0.2,7.8c0,2.6,0.1,4.2,0.3,4.8
				c0.2,0.7,0.8,1,1.6,1c0.1,0,0.4,0,0.9-0.1v0.9c-1.2,0.5-2.2,0.7-3,0.7c-2,0-3.1-0.9-3.3-2.8c-2,2.2-4.3,3.3-6.8,3.3
				c-2.1,0-3.7-0.5-4.8-1.5s-1.7-2.4-1.7-4.2c0-3.4,2-5.5,5.9-6.2s6.4-1.4,7.5-2.1c0.1-0.7,0.1-1.2,0.1-1.4c0-1.7-0.5-3.1-1.4-4.1
				s-2.2-1.6-3.8-1.6c-2.7,0-4.7,1.1-5.8,3.3h-0.5v-2.6c1.2-0.8,2.4-1.4,3.6-1.9C737.6,450.6,738.9,450.4,740.2,450.4 M744.3,461.2
				L741,462c-2.7,0.6-4.4,1.2-5.2,1.8s-1.2,1.7-1.2,3.1c0,1.3,0.4,2.4,1.2,3.2s1.8,1.2,3,1.2c1,0,2-0.3,3.1-0.8
				c1-0.5,1.8-1.4,2.4-2.4V461.2z"/>
			<path class="st0" d="M756.9,445.4c-0.7,0-1.2-0.2-1.7-0.7s-0.7-1-0.7-1.7s0.2-1.2,0.7-1.7s1-0.7,1.7-0.7s1.2,0.2,1.7,0.7
				s0.7,1,0.7,1.7s-0.2,1.2-0.7,1.7C758.1,445.1,757.6,445.4,756.9,445.4 M754.7,450.8c0.3,0,0.7,0.1,1.1,0.1c0.4,0,0.7,0,0.9,0
				l2.4-0.1l-0.3,5.9l-0.1,10.3l0.1,5.7c-0.9-0.1-1.6-0.2-2-0.2c-0.6,0-1.3,0.1-2.1,0.2c0.2-0.9,0.3-1.6,0.3-2.1s0.1-1.7,0.1-3.5
				v-5.3v-5.2v-1.2c0-1.3-0.1-2.2-0.1-2.8C754.8,451.9,754.7,451.3,754.7,450.8"/>
			<path class="st0" d="M765.8,443.3l-0.2-4.6l-0.1-0.5c0.4,0.1,0.7,0.1,0.9,0.1s0.6,0,1.1,0h1.2c0.3-0.1,0.6-0.2,0.7-0.2
				c0,0.6-0.1,1.4-0.2,2.5c-0.1,1.1-0.2,2-0.2,2.7v5.7v6.2v5.8v5.8v5.8c-0.9-0.1-1.5-0.2-1.9-0.2s-1,0.1-1.7,0.2l0.2-11.5v-5.7V449
				v-5.7H765.8z"/>
			<path class="st0" d="M782.1,451.7c-1.1,0-2,0.4-2.7,1.1c-0.7,0.7-1.1,1.7-1.1,2.7c0,2,1.8,3.5,5.5,4.5c3.6,1,5.5,2.8,5.5,5.4
				c0,2.3-0.8,4.1-2.4,5.5c-1.6,1.4-3.7,2.1-6.2,2.1c-1,0-2-0.1-3-0.4c-1.1-0.3-1.9-0.7-2.7-1.1c0.3-0.8,0.7-1.9,1-3.3h0.4
				c1.4,2.2,3.1,3.2,5.3,3.2c1.4,0,2.5-0.4,3.3-1.1c0.8-0.8,1.3-1.8,1.3-3.1c0-1.8-1.8-3.2-5.5-4.4s-5.5-3.2-5.5-6.2
				c0-1.8,0.7-3.4,2.2-4.6c1.4-1.2,3.3-1.8,5.5-1.8c2.1,0,3.9,0.4,5.2,1.2c-0.3,0.6-0.6,1.2-0.8,1.7s-0.3,1-0.3,1.5h-0.4
				c-0.5-1.1-1.1-1.8-1.8-2.3C783.9,452,783.1,451.7,782.1,451.7"/>
			<path class="st0" d="M812.8,441l3.2,6.3l3.2,6.1c1,2.1,2.1,4.1,3.1,6.1c1.1,2,2.2,4,3.5,6h0.2l0.2-0.4c0.9-1.4,1.9-3.2,3.1-5.4
				c1.2-2.2,2.3-4.3,3.3-6.2l3.4-6.2l3.4-6.2l0.3-0.5h0.6v0.5l0.5,4.9l0.6,5.8l0.5,5l0.5,4.5l0.8,6.1l0.7,4.8l0.1,0.5h-1h-1h-2.4
				c0-2.7-0.1-5-0.3-7s-0.6-5.4-1.2-10.4l-0.7-5.7l-0.1-0.6c-0.5,0.8-1,1.5-1.3,2.1s-1,1.9-2,3.7l-3,5.8l-2.9,5.5
				c-0.2,0.4-0.6,1.2-1.3,2.6c-0.7,1.4-1.2,2.5-1.6,3.5h-0.6l-2.8-5.6l-5.7-11.1l-3.1-5.6l-0.3-0.5l-0.1,0.6l-0.7,5.7l-0.7,6
				c-0.2,1.8-0.4,3.7-0.6,5.7c-0.2,2-0.3,3.7-0.3,5.4h-1.5H807l3.2-21l1.5-11.1h0.8L812.8,441z"/>
			<path class="st0" d="M858.6,450.4c2.4,0,4.3,0.6,5.6,1.9c1.3,1.3,2,3.1,2,5.4l-0.2,7.8c0,2.6,0.1,4.2,0.3,4.8
				c0.2,0.7,0.8,1,1.6,1c0.1,0,0.4,0,0.9-0.1v0.9c-1.2,0.5-2.2,0.7-3,0.7c-2,0-3.1-0.9-3.3-2.8c-2,2.2-4.3,3.3-6.8,3.3
				c-2.1,0-3.7-0.5-4.8-1.5s-1.7-2.4-1.7-4.2c0-3.4,2-5.5,5.9-6.2s6.4-1.4,7.5-2.1c0.1-0.7,0.1-1.2,0.1-1.4c0-1.7-0.5-3.1-1.4-4.1
				s-2.2-1.6-3.8-1.6c-2.7,0-4.7,1.1-5.8,3.3h-0.5v-2.6c1.2-0.8,2.4-1.4,3.6-1.9C856,450.6,857.3,450.4,858.6,450.4 M862.7,461.2
				l-3.3,0.8c-2.7,0.6-4.4,1.2-5.2,1.8s-1.2,1.7-1.2,3.1c0,1.3,0.4,2.4,1.2,3.2s1.8,1.2,3,1.2c1,0,2-0.3,3.1-0.8
				c1-0.5,1.8-1.4,2.4-2.4V461.2z"/>
			<path class="st0" d="M878.6,445.1l-0.3,6.2h5c-0.1,0.5-0.2,0.8-0.2,0.9c0,0.2,0.1,0.5,0.2,0.8h-5v3.9v7.8c0,2.7,0.2,4.6,0.7,5.5
				c0.5,1,1.4,1.4,2.7,1.4c0.6,0,1.1-0.1,1.4-0.2c0.3-0.1,0.5-0.2,0.7-0.3v1.1c-1.6,0.6-2.9,0.8-3.9,0.8c-1.7,0-3-0.5-4-1.6
				s-1.4-2.5-1.4-4.3l0.3-12V454v-0.6v-0.7h-3.1c0.1-0.2,0.1-0.5,0.1-0.8s0-0.6-0.1-0.9h3.1v-0.3c0-1.6-0.1-3.2-0.3-4.8l4-1.5
				L878.6,445.1z"/>
			<path class="st0" d="M892.6,445.1l-0.3,6.2h5c-0.1,0.5-0.2,0.8-0.2,0.9c0,0.2,0.1,0.5,0.2,0.8h-5v3.9v7.8c0,2.7,0.2,4.6,0.7,5.5
				c0.5,1,1.4,1.4,2.7,1.4c0.6,0,1.1-0.1,1.4-0.2c0.3-0.1,0.5-0.2,0.7-0.3v1.1c-1.6,0.6-2.9,0.8-3.9,0.8c-1.7,0-3-0.5-4-1.6
				s-1.4-2.5-1.4-4.3l0.3-12V454v-0.6v-0.7h-3.1c0.1-0.2,0.1-0.5,0.1-0.8s0-0.6-0.1-0.9h3.1v-0.3c0-1.6-0.1-3.2-0.3-4.8l4-1.5
				L892.6,445.1z"/>
			<path class="st0" d="M911.2,473.3c-3.5,0-6.2-1-8.1-3c-1.9-2-2.9-4.9-2.9-8.5c0-3.5,1-6.2,2.9-8.2s4.5-3,7.9-3c3,0,5.4,0.8,7,2.5
				s2.4,4.1,2.4,7.2v1.3h-3.7h-3.9H905h-0.6v0.6c0,2.9,0.7,5.2,2.1,6.8c1.4,1.6,3.3,2.4,5.9,2.4c2.8,0,5.2-1.1,7.1-3.2l0.3,0.1
				l-0.4,2.3c-1.3,0.9-2.6,1.6-3.9,2C914,473.1,912.7,473.3,911.2,473.3 M904.3,459.9l6.2,0.1h2.1c1.2,0,2.3,0,3.5-0.1h0.5
				c0-2.2-0.4-4.1-1.3-5.6c-0.9-1.5-2.3-2.3-4.4-2.3c-1.9,0-3.5,0.7-4.7,2.2C904.9,455.6,904.3,457.5,904.3,459.9"/>
			<path class="st0" d="M925.8,456.2l-0.2-4.8v-0.5c0.6,0.1,1.2,0.1,1.8,0.1h0.7c0.3,0,0.7,0,1.2-0.1l-0.2,3.8v0.8
				c0.9-1.1,1.8-2.1,2.6-3.2c1.1-1.1,2.3-1.6,3.7-1.6c0.5,0,0.9,0.1,1.4,0.3c-0.1,0.4-0.2,0.8-0.3,1.3s-0.1,1-0.1,1.4v0.8l-0.3,0.2
				c-0.7-0.5-1.5-0.8-2.3-0.8c-3.2,0-4.8,2.5-4.8,7.4v4.1l0.2,7.3c-0.6-0.1-1.1-0.2-1.6-0.2s-1.2,0.1-2.1,0.2v-0.5l0.2-5.1v-5.2
				L925.8,456.2L925.8,456.2z"/>
		</g>
		<g id="Logo_00000116224823668423998320000004309093272597016712_">
			<path class="st0" d="M219.3,184.9c0.5-3.3,1.9-10.7,2-18.7l0,0c23.4,2.4,103.9,31.3,105.7,125.6c-1,82.3-67.9,120.5-105.7,125.7
				l0,0c0-4.2-1.1-12.7-2-18.8c28.8-1.3,92.9-24.9,94.7-106.9C312.1,200.5,234.6,184.9,219.3,184.9"/>
			<path class="st0" d="M211.3,212.9c0,0,5-12.4,6.4-19.9l0,0c20.6,0.9,86.7,17.5,88.7,99c0,0,2.6,88.4-88.7,99
				c0,0-3.1-13.4-6.3-19.8l0,0c42.2,0.9,82-26.4,82.5-79.3C294.2,273.5,283.8,212.7,211.3,212.9"/>
			<path class="st0" d="M203.2,287.4c61.1-8.6,76.4-26.2,76.4-26.2l0,0c6.7,15,6.6,26.2,6.6,26.2H203.2z"/>
			<path class="st0" d="M244.2,226.3c0,0-9.5,35.1-62.5,55l0,0c0.2,0,75.5-7.6,93.5-28.3C275.1,253,264.4,234.9,244.2,226.3"/>
			<path class="st0" d="M235.7,223.3c0,0.1-12.5,41.5-81,56.8V279c0-0.3,0.2-0.6,0.4-0.8c4.1-2.4,36.4-22,52.7-57.5
				C207.8,220.8,230.4,220.5,235.7,223.3L235.7,223.3"/>
			<path class="st0" d="M154.7,269.1c0,0,56.6-31.6,58.8-103.8c-8.3-1.1-27-0.7-27-0.7s-1.6,39.3-31.7,70.3l0,0v34.2H154.7z"/>
			<path class="st0" d="M154.7,222.7v-35.4c0,0-0.7-11.9-11.3-21.9c0,0-0.7-0.9,0.4-0.9c0.7-0.1,34.6,0,34.6,0
				S176.7,195.5,154.7,222.7"/>
			<path class="st0" d="M203.2,296.4c61.1,8.6,76.4,26.2,76.4,26.2l0,0c6.7-15,6.6-26.2,6.6-26.2H203.2z"/>
			<path class="st0" d="M244.2,357.5c0,0-9.5-35.1-62.5-55l0,0c0.2,0,75.5,7.6,93.5,28.3C275.1,330.8,264.4,349,244.2,357.5"/>
			<path class="st0" d="M235.7,360.5c0-0.1-12.5-41.5-81-56.8v1.1c0,0.3,0.2,0.6,0.4,0.8c4.1,2.4,36.4,22,52.7,57.5
				C207.8,363,230.4,363.3,235.7,360.5L235.7,360.5"/>
			<path class="st0" d="M154.7,314.8c0,0,56.7,32,58.8,103.8l-27,0.7c0,0-1.6-39.3-31.7-70.3l0,0v-34.2H154.7z"/>
			<path class="st0" d="M154.7,361.1v35.4c0,0-0.7,11.9-11.3,21.9c0,0-0.7,0.9,0.4,0.9c0.7,0.1,34.6,0,34.6,0
				S176.7,388.3,154.7,361.1"/>
		</g>
	</g>
	<g>
		<path class="st0" d="M641.1,421.2c-3.6,0-5.8-0.2-6.2-0.2c-39.3-2.1-71.8-17.1-94.3-43.5c-20-23.5-30.6-54.5-29.9-87.3
			s12.6-63.3,33.6-86c23.6-25.5,56.8-39.2,96.1-39.7l0,0c0.3,0,7.3,0.1,17.2,1.4c9,1.2,17.3,3,24.8,5.3h0.1l7,1.5
			c3,0.6,5.6,2.2,7.5,4.5c2.7,3.2,3.8,7.5,2.9,11.6c-0.8,3.6-3.9,6.1-7.6,6.1c-2.7,0-5.2-1.4-6.6-3.7l-1.2-2
			c-4.1-6.8-11-11.6-18.8-13.3l-7.1-1.5l-2.5-0.5c-4.7-0.9-10-1.3-16.2-1.3c-1,0-2,0-3.1,0H636c-41.1,0-72.5,33.2-85.4,66.1
			c-11.9,27.9-14.7,61.4-7.7,91.8c7.6,32.9,25.8,57.9,51.4,70.5c16.3,8,33.1,12.1,49.8,12.1c23.2,0,40.5-7.7,50.9-14.2
			c13-8.1,22.6-18.8,26.1-29.3c1.1-3.2,3.1-3.7,4.2-3.7c1.4,0,2.9,0.9,3.8,2.2c0.7,1,0.8,2.1,0.4,3c-8.8,19.7-24,34-45.3,42.3
			C666.8,420.2,649.7,421.2,641.1,421.2L641.1,421.2z"/>
		<path class="st0" d="M335.5,421.3c-0.6,0-1.1-0.4-1.4-0.9c-0.2-0.6-0.1-1.2,0.4-1.6l3.5-3.2c5.4-4.9,8.5-11.8,8.5-19V189.4
			c0-7.2-3.1-14.2-8.6-19.1l-3.5-3.1c-0.4-0.4-0.6-1-0.4-1.6s0.8-0.9,1.4-0.9H493c7.5,0,13.6,6.1,13.6,13.6c0,3.2-1.9,6-4.9,7.2
			c-0.9,0.4-1.9,0.6-2.9,0.6c-2.1,0-4.1-0.9-5.6-2.4l-1.6-1.7c-5.4-5.8-13.2-9-21.2-9h-92.6c-0.8,0-1.5,0.7-1.5,1.5v113.2
			c0,0.8,0.7,1.5,1.5,1.5H418c7.4,0,14.5-3.1,19.6-8.4l2.2-2.4c1.5-1.6,3.5-2.4,5.6-2.4c1,0,2,0.2,2.9,0.6c3,1.2,4.9,4,4.9,7.2v18.9
			c0,3.2-1.9,6-4.9,7.2c-0.9,0.4-1.9,0.6-2.9,0.6c-2.1,0-4.1-0.9-5.6-2.4l-2.2-2.4c-5-5.3-12.2-8.4-19.6-8.4h-40.3
			c-0.8,0-1.5,0.7-1.5,1.5v113.1c0,0.8,0.7,1.5,1.5,1.5H468c9.5,0,18.7-3.9,25.2-10.8c1.5-1.6,3.5-2.4,5.6-2.4c1,0,2,0.2,2.9,0.6
			c3,1.2,4.9,4,4.9,7.2c0,7.5-6.1,13.6-13.6,13.6L335.5,421.3z"/>
		<path class="st0" d="M752.2,421.1c-0.4,0-11,0-14.8,0c-1.1,0-2.1-0.6-2.8-1.6c-2.1-3.2-1-11,2.6-19l6.8-16.4
			c0.9-2.3,1.8-4.5,2.7-6.7c1.7-4.3,3.4-8.4,5.3-12.9l81.3-198.3c0.4-1,1.4-1.6,2.4-1.6c1.1,0,2,0.6,2.4,1.6l95,235.6
			c1.5,3.8,2,4.9,3,8c0.6,1.8,0.8,3.7,0.6,5.4c-0.5,3.5-2.3,5.6-5.2,5.9h-0.1h-24.8c-2.7,0-5.3-1.3-6.8-3.5c-1.6-2.2-2-5-1.1-7.6
			c1.7-4.8,1.6-9.9-0.3-14.6L863,307.5c-0.2-0.6-0.8-0.9-1.4-0.9c-0.1,0-0.2,0-0.4,0l-46.7,12.2c-30.7,8-37.9,12.2-38.6,12.7
			c-0.3,0.2-0.5,0.4-0.6,0.7c-0.6,1.4-14.3,35.1-14.4,35.4c-0.8,2-1.5,3.8-2.2,5.4c-7.7,18.9-8.9,21.8-1.3,37.2
			c1.3,2.5,1.3,5.5,0.2,7.6c-1,1.8-2.8,3-5.1,3.3C752.4,421.1,752.3,421.1,752.2,421.1z M824,213.3c-0.6,0-1.1,0.4-1.4,0.9
			l-41.5,102.1c-0.2,0.5-0.1,1.1,0.3,1.5c0.3,0.3,0.7,0.5,1.1,0.5c0.1,0,0.2,0,0.4,0c10.6-2.8,21.4-5.6,31.2-8.1
			c15.5-4,27.8-7.2,43.6-11.3c0.4-0.1,0.8-0.4,0.9-0.8c0.2-0.4,0.2-0.8,0.1-1.2l-33.3-82.7C825.2,213.7,824.6,213.3,824,213.3
			L824,213.3z"/>
	</g>
</g>
</svg>
