<?xml version="1.0" encoding="utf-8"?>
<!-- Generator: Adobe Illustrator 24.1.0, SVG Export Plug-In . SVG Version: 6.00 Build 0)  -->
<svg version="1.1" id="Layer_1" xmlns="http://www.w3.org/2000/svg" xmlns:xlink="http://www.w3.org/1999/xlink" x="0px" y="0px"
	 viewBox="0 0 1080 1080" style="enable-background:new 0 0 1080 1080;" xml:space="preserve">
<style type="text/css">
	.st0{fill:#FFFFFF;}
</style>
<g>
	<g id="Logo_00000119093945485753560110000006823083627894761359_">
		<g>
			<path class="st0" d="M522.3,680.4l1.6-4.6l4.3-13.6c0.7,0.1,1.2,0.2,1.5,0.2c0.4,0,0.9-0.1,1.6-0.2l5.6,17.5c0.8,2.6,1.5,4.6,2,6
				c0.5,1.4,0.8,2.4,1.1,3h0.3c0.3-0.8,0.5-1.3,0.7-1.7c0.1-0.4,0.5-1.5,1.1-3.4c0.6-1.9,1.4-4.3,2.3-7.1c0.9-2.8,1.7-5.4,2.4-7.8
				c0.7-2.4,1.3-4.6,1.8-6.5c0.5,0.1,1,0.2,1.5,0.2c0.5,0,1.1-0.1,1.8-0.2l-4.2,10.9l-1.7,5.1l-1.7,5l-1.8,5.3
				c-0.5,1.5-0.9,2.5-1.1,3.2c-0.2,0.6-0.4,1.4-0.7,2.3c-0.5-0.1-1-0.2-1.5-0.2c-0.5,0-1.1,0.1-1.7,0.2l-4.3-13.6L529,668h-0.3
				l-0.1,0.5l-8.8,25.3c-0.7-0.1-1.2-0.2-1.7-0.2h-1c-0.3,0.1-0.4,0.2-0.6,0.2l-3.2-10.8l-1.7-5.2l-1.5-5l-1.7-5.3l-1.6-5l-0.2-0.5
				c0.9,0.1,1.6,0.2,2.3,0.2h1.4c0.4-0.1,0.7-0.2,0.9-0.2l1.2,4.6l1.4,4.8l2.7,8.9l2.7,8.5h0.3L522.3,680.4z"/>
			<path class="st0" d="M556,665l-0.2-5.7c0.4,0.1,0.7,0.1,1,0.1c0.3,0,0.6,0,1,0h1.2c0.3-0.1,0.6-0.2,0.8-0.2
				c-0.1,0.7-0.1,1.4-0.2,2.1c-0.1,0.8-0.1,1.5-0.1,2.3l-0.2,11.9v0.4l0.2,0.1c1.5-2.9,3.9-4.4,7.2-4.4c2.4,0,4.2,0.7,5.6,2.1
				c1.3,1.4,2,3.3,2,5.8l-0.2,10.3l0.1,4c-0.7-0.1-1.3-0.2-1.8-0.2h-0.8c-0.2,0-0.7,0.1-1.3,0.2c0.1-1.1,0.2-2.7,0.3-4.8
				c0.1-2.1,0.1-4,0.1-5.7c0-2.1,0-3.5-0.1-4.2c-0.1-0.7-0.3-1.5-0.6-2.3c-0.3-0.8-0.9-1.5-1.8-2c-0.9-0.6-1.9-0.8-3-0.8
				c-1.1,0-2.1,0.3-3,0.8c-0.9,0.5-1.6,1.2-2,2.1c-0.4,0.8-0.7,1.7-0.8,2.5c-0.1,0.9-0.2,2.4-0.2,4.6v4.8l0.5,5
				c-0.9-0.1-1.5-0.2-1.9-0.2c-0.4,0-0.6,0-0.9,0c-0.2,0-0.6,0.1-1.2,0.2c0.1-1.1,0.1-2.8,0.2-5c0-2.2,0.1-4.2,0.1-6v-12V665z"/>
			<path class="st0" d="M590.8,694.4c-3.5,0-6.2-1-8.1-3c-1.9-2-2.9-4.9-2.9-8.5c0-3.5,1-6.2,2.9-8.2c1.9-2,4.5-3,7.9-3
				c3,0,5.4,0.8,7,2.5c1.6,1.7,2.4,4.1,2.4,7.2l0,1.3h-3.7h-3.9h-7.8h-0.6l0,0.6c0,2.9,0.7,5.2,2.1,6.8c1.4,1.6,3.3,2.4,5.9,2.4
				c2.8,0,5.2-1.1,7.1-3.2l0.3,0.1l-0.4,2.3c-1.3,0.9-2.6,1.6-3.9,2C593.6,694.2,592.3,694.4,590.8,694.4 M583.9,681l6.2,0.1h2.1
				c1.2,0,2.3,0,3.5-0.1h0.5c0-2.2-0.4-4.1-1.3-5.6c-0.9-1.5-2.3-2.3-4.4-2.3c-1.9,0-3.5,0.7-4.7,2.2
				C584.5,676.7,583.9,678.6,583.9,681"/>
			<path class="st0" d="M605.4,677.3l-0.2-4.8v-0.5c0.6,0.1,1.2,0.1,1.8,0.1h0.7c0.3,0,0.7,0,1.2-0.1l-0.2,3.8v0.8
				c0.9-1.1,1.8-2.1,2.6-3.2c1.1-1.1,2.3-1.6,3.7-1.6c0.5,0,0.9,0.1,1.4,0.3c-0.1,0.4-0.2,0.8-0.3,1.3c-0.1,0.5-0.1,1-0.1,1.4l0,0.8
				l-0.3,0.2c-0.7-0.5-1.5-0.8-2.3-0.8c-3.2,0-4.8,2.5-4.8,7.4v4.1l0.2,7.3c-0.6-0.1-1.1-0.2-1.6-0.2c-0.5,0-1.2,0.1-2.1,0.2v-0.5
				l0.2-5.1V683V677.3z"/>
			<path class="st0" d="M630.4,694.4c-3.5,0-6.2-1-8.1-3c-1.9-2-2.9-4.9-2.9-8.5c0-3.5,1-6.2,2.9-8.2c1.9-2,4.5-3,7.9-3
				c3,0,5.4,0.8,7,2.5c1.6,1.7,2.4,4.1,2.4,7.2l0,1.3h-3.7h-3.9h-7.8h-0.6l0,0.6c0,2.9,0.7,5.2,2.1,6.8c1.4,1.6,3.3,2.4,5.9,2.4
				c2.8,0,5.2-1.1,7.1-3.2l0.3,0.1l-0.4,2.3c-1.3,0.9-2.6,1.6-3.9,2C633.2,694.2,631.9,694.4,630.4,694.4 M623.5,681l6.2,0.1h2.1
				c1.2,0,2.3,0,3.5-0.1h0.5c0-2.2-0.4-4.1-1.3-5.6c-0.9-1.5-2.3-2.3-4.4-2.3c-1.9,0-3.5,0.7-4.7,2.2
				C624.1,676.7,623.5,678.6,623.5,681"/>
			<path class="st0" d="M670.5,662.2c3.1,0,5.6,0.2,7.5,0.6c1.9,0.4,4,1.7,6.3,3.8c2.3,2.1,3.4,5.7,3.4,10.6c0,2.6-0.5,5.1-1.6,7.4
				c-1.1,2.3-2.5,4.2-4.3,5.6c-1.8,1.4-3.6,2.4-5.4,2.8c-1.8,0.5-4.5,0.7-8.2,0.7l-6.8-0.2l-2.9,0.2c0.1-0.7,0.2-1.3,0.2-1.8
				c0-0.5,0-1.6,0-3.3l0.1-15.9l-0.1-5.5v-5.1l3.4,0.2L670.5,662.2z M674.1,691.4c3-0.5,5.2-2.2,6.7-5c1.5-2.8,2.3-5.8,2.3-9.1
				c0-4.8-0.9-8-2.7-9.6c-1.8-1.7-3.4-2.7-4.9-3.1c-1.5-0.4-3.6-0.7-6.3-0.7l-6.6,0.3c-0.2,2.4-0.3,5.4-0.3,9v4.6v4.7
				c0,1.5,0,3.1,0,4.6c0,1.6,0.1,3.1,0.2,4.5c0.8,0.2,1.4,0.3,2,0.3c0.6,0,1.2,0,1.9,0c1.7,0,3,0,4-0.1
				C671.6,691.9,672.8,691.7,674.1,691.4"/>
			<path class="st0" d="M703.5,694.4c-3.5,0-6.2-1-8.1-3c-1.9-2-2.9-4.9-2.9-8.5c0-3.5,1-6.2,2.9-8.2c1.9-2,4.5-3,7.9-3
				c3,0,5.4,0.8,7,2.5c1.6,1.7,2.4,4.1,2.4,7.2l0,1.3h-3.7h-3.9h-7.8h-0.6l0,0.6c0,2.9,0.7,5.2,2.1,6.8c1.4,1.6,3.3,2.4,5.9,2.4
				c2.8,0,5.2-1.1,7.1-3.2l0.3,0.1l-0.4,2.3c-1.3,0.9-2.6,1.6-3.9,2C706.2,694.2,704.9,694.4,703.5,694.4 M696.5,681l6.2,0.1h2.1
				c1.2,0,2.3,0,3.5-0.1h0.5c0-2.2-0.4-4.1-1.3-5.6c-0.9-1.5-2.3-2.3-4.4-2.3c-1.9,0-3.5,0.7-4.7,2.2
				C697.1,676.7,696.5,678.6,696.5,681"/>
			<path class="st0" d="M723.1,666.2l-0.3,6.2h5c-0.1,0.5-0.2,0.8-0.2,0.9c0,0.2,0.1,0.5,0.2,0.8h-5v3.9v7.8c0,2.7,0.2,4.6,0.7,5.5
				c0.5,1,1.4,1.4,2.7,1.4c0.6,0,1.1-0.1,1.4-0.2c0.3-0.1,0.5-0.2,0.7-0.3v1.1c-1.6,0.6-2.9,0.8-3.9,0.8c-1.7,0-3-0.5-4-1.6
				c-1-1.1-1.4-2.5-1.4-4.3l0.3-12v-1.1v-0.6v-0.7h-3.1c0.1-0.2,0.1-0.5,0.1-0.8c0-0.3,0-0.6-0.1-0.9h3.1v-0.3
				c0-1.6-0.1-3.2-0.3-4.8l4-1.5L723.1,666.2z"/>
			<path class="st0" d="M740.2,671.5c2.4,0,4.3,0.6,5.6,1.9c1.3,1.3,2,3.1,2,5.4l-0.2,7.8c0,2.6,0.1,4.2,0.3,4.8
				c0.2,0.7,0.8,1,1.6,1c0.1,0,0.4,0,0.9-0.1v0.9c-1.2,0.5-2.2,0.7-3,0.7c-2,0-3.1-0.9-3.3-2.8c-2,2.2-4.3,3.3-6.8,3.3
				c-2.1,0-3.7-0.5-4.8-1.5c-1.1-1-1.7-2.4-1.7-4.2c0-3.4,2-5.5,5.9-6.2c3.9-0.7,6.4-1.4,7.5-2.1c0.1-0.7,0.1-1.2,0.1-1.4
				c0-1.7-0.5-3.1-1.4-4.1c-0.9-1-2.2-1.6-3.8-1.6c-2.7,0-4.7,1.1-5.8,3.3h-0.5v-2.6c1.2-0.8,2.4-1.4,3.6-1.9
				C737.6,671.7,738.9,671.5,740.2,671.5 M744.3,682.3l-3.3,0.8c-2.7,0.6-4.4,1.2-5.2,1.8c-0.8,0.6-1.2,1.7-1.2,3.1
				c0,1.3,0.4,2.4,1.2,3.2c0.8,0.8,1.8,1.2,3,1.2c1,0,2-0.3,3.1-0.8c1-0.5,1.8-1.4,2.4-2.4L744.3,682.3z"/>
			<path class="st0" d="M756.9,666.5c-0.7,0-1.2-0.2-1.7-0.7c-0.5-0.5-0.7-1-0.7-1.7c0-0.7,0.2-1.2,0.7-1.7c0.5-0.5,1-0.7,1.7-0.7
				c0.7,0,1.2,0.2,1.7,0.7c0.5,0.5,0.7,1,0.7,1.7c0,0.7-0.2,1.2-0.7,1.7C758.1,666.2,757.6,666.5,756.9,666.5 M754.7,671.9
				c0.3,0,0.7,0.1,1.1,0.1c0.4,0,0.7,0,0.9,0l2.4-0.1l-0.3,5.9l-0.1,10.3l0.1,5.7c-0.9-0.1-1.6-0.2-2-0.2c-0.6,0-1.3,0.1-2.1,0.2
				c0.2-0.9,0.3-1.6,0.3-2.1c0-0.5,0.1-1.7,0.1-3.5v-5.3v-5.2v-1.2c0-1.3-0.1-2.2-0.1-2.8C754.8,673,754.7,672.4,754.7,671.9"/>
			<path class="st0" d="M765.8,664.4l-0.2-4.6l-0.1-0.5c0.4,0.1,0.7,0.1,0.9,0.1c0.2,0,0.6,0,1.1,0h1.2c0.3-0.1,0.6-0.2,0.7-0.2
				c0,0.6-0.1,1.4-0.2,2.5c-0.1,1.1-0.2,2-0.2,2.7v5.7l0,6.2l0,5.8v5.8l0,5.8c-0.9-0.1-1.5-0.2-1.9-0.2c-0.4,0-1,0.1-1.7,0.2
				l0.2-11.5v-5.7v-6.4V664.4z"/>
			<path class="st0" d="M782.1,672.8c-1.1,0-2,0.4-2.7,1.1c-0.7,0.7-1.1,1.7-1.1,2.7c0,2,1.8,3.5,5.5,4.5c3.6,1,5.5,2.8,5.5,5.4
				c0,2.3-0.8,4.1-2.4,5.5c-1.6,1.4-3.7,2.1-6.2,2.1c-1,0-2-0.1-3-0.4c-1.1-0.3-1.9-0.7-2.7-1.1c0.3-0.8,0.7-1.9,1-3.3h0.4
				c1.4,2.2,3.1,3.2,5.3,3.2c1.4,0,2.5-0.4,3.3-1.1c0.8-0.8,1.3-1.8,1.3-3.1c0-1.8-1.8-3.2-5.5-4.4c-3.7-1.2-5.5-3.2-5.5-6.2
				c0-1.8,0.7-3.4,2.2-4.6c1.4-1.2,3.3-1.8,5.5-1.8c2.1,0,3.9,0.4,5.2,1.2c-0.3,0.6-0.6,1.2-0.8,1.7c-0.2,0.5-0.3,1-0.3,1.5h-0.4
				c-0.5-1.1-1.1-1.8-1.8-2.3C783.9,673.1,783.1,672.8,782.1,672.8"/>
			<path class="st0" d="M812.8,662.1l3.2,6.3l3.2,6.1c1,2.1,2.1,4.1,3.1,6.1c1.1,2,2.2,4,3.5,6h0.2l0.2-0.4c0.9-1.4,1.9-3.2,3.1-5.4
				c1.2-2.2,2.3-4.3,3.3-6.2l3.4-6.2l3.4-6.2l0.3-0.5h0.6l0,0.5l0.5,4.9l0.6,5.8l0.5,5l0.5,4.5l0.8,6.1l0.7,4.8l0.1,0.5h-1h-1h-2.4
				c0-2.7-0.1-5-0.3-7c-0.2-2-0.6-5.4-1.2-10.4l-0.7-5.7l-0.1-0.6c-0.5,0.8-1,1.5-1.3,2.1c-0.3,0.6-1,1.9-2,3.7l-3,5.8l-2.9,5.5
				c-0.2,0.4-0.6,1.2-1.3,2.6c-0.7,1.4-1.2,2.5-1.6,3.5h-0.6l-2.8-5.6l-5.7-11.1L813,671l-0.3-0.5l-0.1,0.6l-0.7,5.7l-0.7,6
				c-0.2,1.8-0.4,3.7-0.6,5.7c-0.2,2-0.3,3.7-0.3,5.4h-1.5h-1.8l3.2-21l1.5-11.1h0.8L812.8,662.1z"/>
			<path class="st0" d="M858.6,671.5c2.4,0,4.3,0.6,5.6,1.9c1.3,1.3,2,3.1,2,5.4l-0.2,7.8c0,2.6,0.1,4.2,0.3,4.8
				c0.2,0.7,0.8,1,1.6,1c0.1,0,0.4,0,0.9-0.1v0.9c-1.2,0.5-2.2,0.7-3,0.7c-2,0-3.1-0.9-3.3-2.8c-2,2.2-4.3,3.3-6.8,3.3
				c-2.1,0-3.7-0.5-4.8-1.5c-1.1-1-1.7-2.4-1.7-4.2c0-3.4,2-5.5,5.9-6.2c3.9-0.7,6.4-1.4,7.5-2.1c0.1-0.7,0.1-1.2,0.1-1.4
				c0-1.7-0.5-3.1-1.4-4.1c-0.9-1-2.2-1.6-3.8-1.6c-2.7,0-4.7,1.1-5.8,3.3h-0.5v-2.6c1.2-0.8,2.4-1.4,3.6-1.9
				C856,671.7,857.3,671.5,858.6,671.5 M862.7,682.3l-3.3,0.8c-2.7,0.6-4.4,1.2-5.2,1.8c-0.8,0.6-1.2,1.7-1.2,3.1
				c0,1.3,0.4,2.4,1.2,3.2c0.8,0.8,1.8,1.2,3,1.2c1,0,2-0.3,3.1-0.8c1-0.5,1.8-1.4,2.4-2.4L862.7,682.3z"/>
			<path class="st0" d="M878.6,666.2l-0.3,6.2h5c-0.1,0.5-0.2,0.8-0.2,0.9c0,0.2,0.1,0.5,0.2,0.8h-5v3.9v7.8c0,2.7,0.2,4.6,0.7,5.5
				c0.5,1,1.4,1.4,2.7,1.4c0.6,0,1.1-0.1,1.4-0.2c0.3-0.1,0.5-0.2,0.7-0.3v1.1c-1.6,0.6-2.9,0.8-3.9,0.8c-1.7,0-3-0.5-4-1.6
				c-1-1.1-1.4-2.5-1.4-4.3l0.3-12v-1.1v-0.6v-0.7h-3.1c0.1-0.2,0.1-0.5,0.1-0.8c0-0.3,0-0.6-0.1-0.9h3.1v-0.3
				c0-1.6-0.1-3.2-0.3-4.8l4-1.5L878.6,666.2z"/>
			<path class="st0" d="M892.6,666.2l-0.3,6.2h5c-0.1,0.5-0.2,0.8-0.2,0.9c0,0.2,0.1,0.5,0.2,0.8h-5v3.9v7.8c0,2.7,0.2,4.6,0.7,5.5
				c0.5,1,1.4,1.4,2.7,1.4c0.6,0,1.1-0.1,1.4-0.2c0.3-0.1,0.5-0.2,0.7-0.3v1.1c-1.6,0.6-2.9,0.8-3.9,0.8c-1.7,0-3-0.5-4-1.6
				c-1-1.1-1.4-2.5-1.4-4.3l0.3-12v-1.1v-0.6v-0.7h-3.1c0.1-0.2,0.1-0.5,0.1-0.8c0-0.3,0-0.6-0.1-0.9h3.1v-0.3
				c0-1.6-0.1-3.2-0.3-4.8l4-1.5L892.6,666.2z"/>
			<path class="st0" d="M911.2,694.4c-3.5,0-6.2-1-8.1-3c-1.9-2-2.9-4.9-2.9-8.5c0-3.5,1-6.2,2.9-8.2c1.9-2,4.5-3,7.9-3
				c3,0,5.4,0.8,7,2.5c1.6,1.7,2.4,4.1,2.4,7.2l0,1.3h-3.7h-3.9h-7.8h-0.6l0,0.6c0,2.9,0.7,5.2,2.1,6.8c1.4,1.6,3.3,2.4,5.9,2.4
				c2.8,0,5.2-1.1,7.1-3.2l0.3,0.1l-0.4,2.3c-1.3,0.9-2.6,1.6-3.9,2C914,694.2,912.7,694.4,911.2,694.4 M904.3,681l6.2,0.1h2.1
				c1.2,0,2.3,0,3.5-0.1h0.5c0-2.2-0.4-4.1-1.3-5.6c-0.9-1.5-2.3-2.3-4.4-2.3c-1.9,0-3.5,0.7-4.7,2.2
				C904.9,676.7,904.3,678.6,904.3,681"/>
			<path class="st0" d="M925.8,677.3l-0.2-4.8v-0.5c0.6,0.1,1.2,0.1,1.8,0.1h0.7c0.3,0,0.7,0,1.2-0.1l-0.2,3.8v0.8
				c0.9-1.1,1.8-2.1,2.6-3.2c1.1-1.1,2.3-1.6,3.7-1.6c0.5,0,0.9,0.1,1.4,0.3c-0.1,0.4-0.2,0.8-0.3,1.3c-0.1,0.5-0.1,1-0.1,1.4l0,0.8
				l-0.3,0.2c-0.7-0.5-1.5-0.8-2.3-0.8c-3.2,0-4.8,2.5-4.8,7.4v4.1l0.2,7.3c-0.6-0.1-1.1-0.2-1.6-0.2c-0.5,0-1.2,0.1-2.1,0.2v-0.5
				l0.2-5.1V683V677.3z"/>
		</g>
		<g id="Logo_00000116224823668423998320000004309093272597016712_">
			<path class="st0" d="M219.3,406c0.5-3.3,1.9-10.7,2-18.7c0,0,0,0,0,0c23.4,2.4,103.9,31.3,105.7,125.6
				c-1,82.3-67.9,120.5-105.7,125.7c0,0,0,0,0,0c0-4.2-1.1-12.7-2-18.8c28.8-1.3,92.9-24.9,94.7-106.9
				C312.1,421.6,234.6,406,219.3,406"/>
			<path class="st0" d="M211.3,434c0,0,5-12.4,6.4-19.9c0,0,0,0,0,0c20.6,0.9,86.7,17.5,88.7,99c0,0,2.6,88.4-88.7,99
				c0,0-3.1-13.4-6.3-19.8c0,0,0,0,0,0c42.2,0.9,82-26.4,82.5-79.3C294.2,494.6,283.8,433.8,211.3,434"/>
			<path class="st0" d="M203.2,508.5c61.1-8.6,76.4-26.2,76.4-26.2c0,0,0,0,0,0c6.7,15,6.6,26.2,6.6,26.2H203.2z"/>
			<path class="st0" d="M244.2,447.4c0,0-9.5,35.1-62.5,55l0,0c0.2,0,75.5-7.6,93.5-28.3C275.1,474.1,264.4,456,244.2,447.4"/>
			<path class="st0" d="M235.7,444.4c0,0.1-12.5,41.5-81,56.8l0-1.1c0-0.3,0.2-0.6,0.4-0.8c4.1-2.4,36.4-22,52.7-57.5
				C207.8,441.9,230.4,441.6,235.7,444.4C235.7,444.4,235.7,444.4,235.7,444.4"/>
			<path class="st0" d="M154.7,490.2c0,0,56.6-31.6,58.8-103.8c-8.3-1.1-27-0.7-27-0.7s-1.6,39.3-31.7,70.3c0,0,0,0,0,0V490.2z"/>
			<path class="st0" d="M154.7,443.8v-35.4c0,0-0.7-11.9-11.3-21.9c0,0-0.7-0.9,0.4-0.9c0.7-0.1,34.6,0,34.6,0
				S176.7,416.6,154.7,443.8"/>
			<path class="st0" d="M203.2,517.5c61.1,8.6,76.4,26.2,76.4,26.2c0,0,0,0,0,0c6.7-15,6.6-26.2,6.6-26.2H203.2z"/>
			<path class="st0" d="M244.2,578.6c0,0-9.5-35.1-62.5-55l0,0c0.2,0,75.5,7.6,93.5,28.3C275.1,551.9,264.4,570.1,244.2,578.6"/>
			<path class="st0" d="M235.7,581.6c0-0.1-12.5-41.5-81-56.8l0,1.1c0,0.3,0.2,0.6,0.4,0.8c4.1,2.4,36.4,22,52.7,57.5
				C207.8,584.1,230.4,584.4,235.7,581.6C235.7,581.6,235.7,581.6,235.7,581.6"/>
			<path class="st0" d="M154.7,535.9c0,0,56.7,32,58.8,103.8l-27,0.7c0,0-1.6-39.3-31.7-70.3c0,0,0,0,0,0V535.9z"/>
			<path class="st0" d="M154.7,582.2v35.4c0,0-0.7,11.9-11.3,21.9c0,0-0.7,0.9,0.4,0.9c0.7,0.1,34.6,0,34.6,0
				S176.7,609.4,154.7,582.2"/>
		</g>
	</g>
	<g>
		<path class="st0" d="M641.1,642.3c-3.6,0-5.8-0.2-6.2-0.2c-39.3-2.1-71.8-17.1-94.3-43.5c-20-23.5-30.6-54.5-29.9-87.3
			c0.7-32.8,12.6-63.3,33.6-86c23.6-25.5,56.8-39.2,96.1-39.7l0,0c0.3,0,7.3,0.1,17.2,1.4c9,1.2,17.3,3,24.8,5.3c0,0,0.1,0,0.1,0
			l7,1.5c3,0.6,5.6,2.2,7.5,4.5c2.7,3.2,3.8,7.5,2.9,11.6c-0.8,3.6-3.9,6.1-7.6,6.1c-2.7,0-5.2-1.4-6.6-3.7l-1.2-2
			c-4.1-6.8-11-11.6-18.8-13.3l-7.1-1.5l-2.5-0.5c-4.7-0.9-10-1.3-16.2-1.3c-1,0-2,0-3.1,0l-0.8,0c-41.1,0-72.5,33.2-85.4,66.1
			c-11.9,27.9-14.7,61.4-7.7,91.8c7.6,32.9,25.8,57.9,51.4,70.5c16.3,8,33.1,12.1,49.8,12.1c23.2,0,40.5-7.7,50.9-14.2
			c13-8.1,22.6-18.8,26.1-29.3c1.1-3.2,3.1-3.7,4.2-3.7c1.4,0,2.9,0.9,3.8,2.2c0.7,1,0.8,2.1,0.4,3c-8.8,19.7-24,34-45.3,42.3
			C666.8,641.3,649.7,642.3,641.1,642.3L641.1,642.3z"/>
		<path class="st0" d="M335.5,642.4c-0.6,0-1.1-0.4-1.4-0.9c-0.2-0.6-0.1-1.2,0.4-1.6l3.5-3.2c5.4-4.9,8.5-11.8,8.5-19V410.5
			c0-7.2-3.1-14.2-8.6-19.1l-3.5-3.1c-0.4-0.4-0.6-1-0.4-1.6c0.2-0.6,0.8-0.9,1.4-0.9H493c7.5,0,13.6,6.1,13.6,13.6
			c0,3.2-1.9,6-4.9,7.2c-0.9,0.4-1.9,0.6-2.9,0.6c-2.1,0-4.1-0.9-5.6-2.4l-1.6-1.7c-5.4-5.8-13.2-9-21.2-9h-92.6
			c-0.8,0-1.5,0.7-1.5,1.5v113.2c0,0.8,0.7,1.5,1.5,1.5H418c7.4,0,14.5-3.1,19.6-8.4l2.2-2.4c1.5-1.6,3.5-2.4,5.6-2.4
			c1,0,2,0.2,2.9,0.6c3,1.2,4.9,4,4.9,7.2v18.9c0,3.2-1.9,6-4.9,7.2c-0.9,0.4-1.9,0.6-2.9,0.6c-2.1,0-4.1-0.9-5.6-2.4l-2.2-2.4
			c-5-5.3-12.2-8.4-19.6-8.4h-40.3c-0.8,0-1.5,0.7-1.5,1.5v113.1c0,0.8,0.7,1.5,1.5,1.5H468c9.5,0,18.7-3.9,25.2-10.8
			c1.5-1.6,3.5-2.4,5.6-2.4c1,0,2,0.2,2.9,0.6c3,1.2,4.9,4,4.9,7.2c0,7.5-6.1,13.6-13.6,13.6L335.5,642.4z"/>
		<path class="st0" d="M752.2,642.2c-0.4,0-11,0-14.8,0c-1.1,0-2.1-0.6-2.8-1.6c-2.1-3.2-1-11,2.6-19l6.8-16.4
			c0.9-2.3,1.8-4.5,2.7-6.7c1.7-4.3,3.4-8.4,5.3-12.9l81.3-198.3c0.4-1,1.4-1.6,2.4-1.6c1.1,0,2,0.6,2.4,1.6l95,235.6
			c1.5,3.8,2,4.9,3,8c0.6,1.8,0.8,3.7,0.6,5.4c-0.5,3.5-2.3,5.6-5.2,5.9c0,0-0.1,0-0.1,0l-24.8,0c-2.7,0-5.3-1.3-6.8-3.5
			c-1.6-2.2-2-5-1.1-7.6c1.7-4.8,1.6-9.9-0.3-14.6L863,528.6c-0.2-0.6-0.8-0.9-1.4-0.9c-0.1,0-0.2,0-0.4,0l-46.7,12.2
			c-30.7,8-37.9,12.2-38.6,12.7c-0.3,0.2-0.5,0.4-0.6,0.7c-0.6,1.4-14.3,35.1-14.4,35.4c-0.8,2-1.5,3.8-2.2,5.4
			c-7.7,18.9-8.9,21.8-1.3,37.2c1.3,2.5,1.3,5.5,0.2,7.6c-1,1.8-2.8,3-5.1,3.3C752.4,642.2,752.3,642.2,752.2,642.2z M824,434.4
			c-0.6,0-1.1,0.4-1.4,0.9l-41.5,102.1c-0.2,0.5-0.1,1.1,0.3,1.5c0.3,0.3,0.7,0.5,1.1,0.5c0.1,0,0.2,0,0.4,0
			c10.6-2.8,21.4-5.6,31.2-8.1c15.5-4,27.8-7.2,43.6-11.3c0.4-0.1,0.8-0.4,0.9-0.8c0.2-0.4,0.2-0.8,0.1-1.2l-33.3-82.7
			C825.2,434.8,824.6,434.4,824,434.4C824,434.4,824,434.4,824,434.4z"/>
	</g>
</g>
</svg>
