<?xml version="1.0" encoding="utf-8"?>
<!-- Generator: Adobe Illustrator 24.1.0, SVG Export Plug-In . SVG Version: 6.00 Build 0)  -->
<svg version="1.1" id="Layer_1" xmlns="http://www.w3.org/2000/svg" xmlns:xlink="http://www.w3.org/1999/xlink" x="0px" y="0px"
	 viewBox="0 0 1080 1080" style="enable-background:new 0 0 1080 1080;" xml:space="preserve">
<style type="text/css">
	.st0{fill:#F2EFE6;}
	.st1{fill:#BF2627;}
</style>
<g>
	<path class="st0" d="M884,463.2c-7.2,0-15,0-23.1,0l-7,0l-8.3,36.8c-4.6,0-16.9,0-23.6,0l8.3-36.8l-38.8,0l0,0l-11,0
		c-5.5,0-13.1,0-20.8,0l-0.8,0c-7.4,0-14.8,0-20.2,0l-3.8,0L719.2,480l12-53.3l-11,0c-4.6,0-34.3,0-34.3,0l-24.8,110.4l-4.7,0
		c-12.5,0-24.9,0-37.4,0l-1.8,0c-11,0-22.1,0-33.2,0c2.2-9.9,4.8-21.4,6.9-30.7h65.7l-29.8-43l-71.6,0.1l-5.7,25.4L532,463.6l-4.6,0
		c-9.3,0-20.8,0-31.6,0l-20.5,0l-1.8,0l-37.5,0l-5.7,25.5l-17.7-25.5l-44.6,0l8.2-36.7l-45.2,0l-8.2,36.7l-4.5,0c-8,0-17.4,0-27,0
		h-0.1c-21.3,0-43.3,0-54.1-0.1l-3.4,0L200.4,493l-4.7,20.9c-1.6,7.3-3.3,14.7-4.2,18.7l-1.4,6.3l-9.3,41.3h161.1l16.5-73.7h29
		c-3.4,15.3-16.5,73.7-16.5,73.7l325.8,0l1.5-6.9c0.6-2.5,2.8-12.5,2.8-12.5c1.3-5.9,2.8-12.4,3.9-17.5h23.4l-8.3,36.9h45.2
		l3.7-16.3c2.2-9.6,5-22.2,6.2-27.6l0.8-3.8l-18.1-26.1h13.5l25.5,36.8H836l-16.6,73.8h45.2l34.5-153.9L884,463.2z"/>
	<g>
		<path class="st1" d="M233.1,508.7l-0.1,0.5c23.2,0,51.7,0.1,77.1,0.1c-4,17.9-9.9,44.2-13.9,62.1H191.8l5.7-25.4
			c25.2,0.1,49.1,0.1,77.1,0.1c0.1-0.5,2.5-11.1,2.6-11.6h-77.1c1.8-7.9,6.6-29.2,8.3-36.8l28.7-25.4c15.9,0.1,55.6,0.1,81.3,0.1
			l-5.7,25.3h-77.1l-0.1,0.5L233.1,508.7z"/>
		<path class="st1" d="M408,472.4c-13,0-37.1,0-51,0c2.8-12.5,5.6-24.8,8.2-36.7c-9.2,0-18.2,0-27.2,0
			c-9.8,43.6-20.7,92.1-30.4,135.6h27.2c5.3-23.6,10.9-48.7,16.5-73.7h47c-5,22.5-11.5,51.1-16.5,73.7h27.2
			c5-22.5,11.5-51.1,16.5-73.5L408,472.4z"/>
		<path class="st1" d="M443.1,472.4c9,0,18.1,0,27.2,0c-5.1,22.5-11.5,51.2-16.5,73.7c17.7,0,35.4,0,53.2,0c3-13.3,7.9-35,10.9-48.4
			h-42.9l5.7-25.3c13.9,0,32.8,0,46.8,0l17.6,25.4c-5,22.4-11.5,51.1-16.5,73.6H420.9L443.1,472.4z"/>
		<path class="st1" d="M656.5,545.9l-5.7,25.4H540.2c7-31.4,15.2-67.6,22.2-99c20,0,40.1,0,59.9-0.1l17.6,25.4h-56
			c-3,13.3-7.9,35-10.8,48.3C601.1,546,628.7,545.9,656.5,545.9z"/>
		<path class="st1" d="M860.9,472l-8.3,36.8c-11.9,0-32.1,0-41.6,0l0-0.2l8.2-36.6c-8.8,0-17.9,0-27.3,0l-8.2,36.6l-0.1,0.2l0,0.1
			l17.6,25.5h45.4l-16.6,73.8h27.2L888.2,472C879.8,472,870.7,472,860.9,472z"/>
		<path class="st1" d="M774.9,497.7l5.7-25.6c-11,0-30.5,0-41.8,0L703.7,509l16.5-73.5c-9,0-18,0-27.2,0l-30.5,135.9h27.2
			c1.7-7.8,6.6-29.4,8.3-36.9h41.4c-1.7,7.5-6.5,29-8.3,36.9h27.2c1.7-7.8,6.6-29.5,8.3-37L749,508.9c-3.4,0-5.1,0-8.5,0l10.9-11.3
			H774.9z"/>
	</g>
	<polygon class="st0" points="668.8,586.7 671.3,575.7 643.2,575.7 641.2,586.7 412,586.7 397,653.3 748.4,653.3 763.4,586.7 	"/>
	<path class="st1" d="M422.9,631.2h36.6l-3.2,14.3H405l11.4-50.1h51.2l-3.2,14.3h-36.6l-0.8,3.6h36.6l-3.2,14.3h-36.6L422.9,631.2z"
		/>
	<path class="st1" d="M473.8,595.4h14.6l-5.1,22.7l8.5,10.7l0,0l13.4-10.7l5.1-22.7h14.6l-6.5,28.6l-26.8,21.5h-7.3L467.3,624
		L473.8,595.4z"/>
	<path class="st1" d="M537.7,631.2h36.6l-3.2,14.3h-51.2l11.4-50.1h51.2l-7.3,32.2h-36.6L537.7,631.2z M542.5,609.7l-0.8,3.6h21.9
		l0.8-3.6H542.5z"/>
	<path class="st1" d="M599.9,609.7l-8.1,35.8h-14.6l11.4-50.1h51.2l-11.4,50.1h-14.6l8.1-35.8H599.9z"/>
	<path class="st1" d="M648.4,584.7H663l-2.4,10.7h36.6l-3.2,14.3h-36.6l-4.9,21.5H689l-3.2,14.3h-51.2L648.4,584.7z"/>
	<path class="st1" d="M692,645.5l3.2-14.3h36.6l0.8-3.6H696l7.3-32.2h51.2l-3.2,14.3h-36.6l-0.8,3.6h36.6l-7.3,32.2H692z"/>
</g>
</svg>
