<?xml version="1.0" encoding="utf-8"?>
<!-- Generator: Adobe Illustrator 24.1.0, SVG Export Plug-In . SVG Version: 6.00 Build 0)  -->
<svg version="1.1" id="Layer_1" xmlns="http://www.w3.org/2000/svg" xmlns:xlink="http://www.w3.org/1999/xlink" x="0px" y="0px"
	 viewBox="0 0 1080 425.2" style="enable-background:new 0 0 1080 425.2;" xml:space="preserve">
<style type="text/css">
	.st0{fill:#242424;}
</style>
<g>
	<g>
		<g>
			<path class="st0" d="M352.6,201.9H304v-27.2h26.1v-19.6H304v-34.3h-19.6v34.3h-64.1c-7.5,0-14,2.7-19.3,8s-8,11.6-8,19v12.2
				c0,7.4,2.7,13.7,8,19s11.8,8,19.3,8h33.6c2.1,0,3.8,0.7,5.3,2.2s2.2,3.2,2.2,5.3v12.1c0,2.1-0.7,3.8-2.2,5.3s-3.2,2.2-5.3,2.2
				H90.2V268h163.6c7.5,0,13.9-2.6,19.2-7.9s8-11.6,8-19.1v-12.1c0-7.5-2.7-13.9-8-19.1c-5.3-5.3-11.8-7.9-19.3-7.9h-33.6
				c-2.1,0-3.8-0.7-5.3-2.2s-2.2-3.2-2.2-5.3v-12.2c0-2.1,0.7-3.8,2.2-5.2c1.5-1.4,3.3-2.1,5.3-2.1h64.3v93.2H304v-46.4h48.6v82.9
				h19.6V155.1h-19.6V201.9z"/>
			<path class="st0" d="M436.5,155.1h-33.9c-7.4,0-13.7,2.7-19.1,8c-5.3,5.3-8,11.7-8,19v58.7c0,7.5,2.7,13.9,8,19.1
				c5.3,5.3,11.7,7.9,19.1,7.9h33.9c7.4,0,13.7-2.6,19.1-7.9c5.3-5.3,8-11.6,8-19.1v-58.7c0-7.4-2.7-13.7-8-19
				C450.3,157.8,443.9,155.1,436.5,155.1z M444,240.8c0,2.1-0.7,3.8-2.2,5.3s-3.2,2.2-5.3,2.2h-33.9c-2.1,0-3.8-0.7-5.3-2.2
				s-2.2-3.2-2.2-5.3V182c0-2.1,0.7-3.8,2.2-5.2c1.5-1.4,3.2-2.1,5.3-2.1h33.9c2.1,0,3.8,0.7,5.3,2.1s2.2,3.2,2.2,5.2V240.8z"/>
			<path class="st0" d="M606.4,173.7c0,2.2-0.9,3.9-2.6,5.1l-45.9,33.6v-57.2h-19.6v93.2h-44.1c-2.1,0-3.8-0.7-5.3-2.2
				s-2.2-3.2-2.2-5.3v-58.8c0-2.1,0.7-3.8,2.2-5.2c1.5-1.4,3.2-2.1,5.3-2.1h40.3v-19.6h-40.3c-7.5,0-13.9,2.7-19.1,8
				c-5.3,5.3-7.9,11.7-7.9,19v58.7c0,7.5,2.6,13.9,7.9,19.1c5.3,5.3,11.7,7.9,19.1,7.9h44.1v36.4h19.6v-36.4h24.3v-19.6h-24.3v-11.8
				l24-17.3l21.7,24.4c1.9,1.9,2.9,4.3,2.9,7V268H626v-17.4c0-7.7-2.6-14.4-7.7-20.2l-20.7-22.8l17.7-12.9
				c7.1-5.1,10.6-12,10.6-20.8v-52.8h-19.6v52.6H606.4z"/>
			<path class="st0" d="M821.1,176.8c1.5-1.4,3.3-2.1,5.3-2.1h163.4v-19.6H826.6c-7.5,0-14,2.7-19.3,8s-8,11.6-8,19v12.2
				c0,7.4,2.7,13.7,8,19s11.8,8,19.3,8h33.6c2.1,0,3.8,0.7,5.3,2.2s2.2,3.2,2.2,5.3v12.1c0,2.1-0.7,3.8-2.2,5.3s-3.2,2.2-5.3,2.2
				h-71.7c-3.8-10.3-7.4-19.8-10.6-28.6c5.3-2,9.6-5.2,13-9.9c3.3-4.6,5-9.8,5-15.6v-12.1c0-7.5-2.6-13.9-7.9-19.2
				c-5.3-5.3-11.7-7.9-19.1-7.9h-50.8c-2.7,0-5,1-6.9,2.9s-2.9,4.2-2.9,6.9v83.4h-59v-26.9h54.3v-19.6h-54.3v-27.2H690V155h-50.6
				c-2.7,0-5,1-6.9,2.9s-2.9,4.2-2.9,6.9V258c0,2.7,0.9,5,2.9,6.9c1.9,1.9,4.2,2.9,6.9,2.9h68.8v36.4h19.6v-36.4H743h30.9h1h21h64.2
				c7.5,0,13.9-2.6,19.2-7.9s8-11.6,8-19.1v-12.1c0-7.5-2.7-13.9-8-19.1c-5.3-5.3-11.8-7.9-19.3-7.9h-33.6c-2.1,0-3.8-0.7-5.3-2.2
				s-2.2-3.2-2.2-5.3V182C818.8,180,819.6,178.2,821.1,176.8z M727.7,174.7h41.1c2.1,0,3.8,0.7,5.3,2.2s2.2,3.3,2.2,5.3v12.1
				c0,2.1-0.7,3.9-2.2,5.3c-1.5,1.5-3.2,2.2-5.3,2.2h-41.1V174.7z M727.7,248.3v-26.9h29.9c3.8,10.4,7.1,19.3,9.8,26.9h-24.6H727.7z
				"/>
		</g>
	</g>
</g>
</svg>
