<?xml version="1.0" encoding="utf-8"?>
<!-- Generator: Adobe Illustrator 24.1.0, SVG Export Plug-In . SVG Version: 6.00 Build 0)  -->
<svg version="1.1" id="Layer_1" xmlns="http://www.w3.org/2000/svg" xmlns:xlink="http://www.w3.org/1999/xlink" x="0px" y="0px"
	 viewBox="0 0 1080 425.2" style="enable-background:new 0 0 1080 425.2;" xml:space="preserve">
<style type="text/css">
	.st0{fill:#0C123E;}
</style>
<g>
	<path class="st0" d="M210.7,187.4l-0.1,0.5c26.2,0,58.3,0.1,86.8,0.1c-4.5,20.2-11.2,49.8-15.7,70H164.1l6.4-28.6
		c28.4,0.1,55.3,0.1,86.8,0.1c0.1-0.6,2.8-12.5,2.9-13.1h-86.9c2-8.9,7.4-32.9,9.3-41.5l32.3-28.6c17.9,0.1,62.6,0.1,91.6,0.1
		l-6.4,28.5h-86.9l-0.1,0.5L210.7,187.4z"/>
	<path class="st0" d="M447.3,146.5c10.2,0,20.4,0,30.7,0c-5.7,25.4-12.9,57.7-18.6,83c20,0,39.9,0,60,0c3.4-15,8.9-39.4,12.2-54.5
		h-48.4l6.4-28.5c15.7,0,37,0,52.8,0l19.8,28.6c-5.7,25.2-12.9,57.6-18.6,82.9H422.3L447.3,146.5z"/>
	<path class="st0" d="M885.1,146.3l-9.3,41.5c-13.4,0-36.2,0-46.8,0v-0.2l9.3-41.3c-9.9,0-20.1,0-30.7,0l-9.2,41.2l-0.1,0.3v0.1
		l19.9,28.7h51.2l-18.7,83.2h30.7l34.5-153.6C906.3,146.2,896,146.2,885.1,146.3z"/>
	<path class="st0" d="M787.9,175.1l6.5-28.8c-12.4,0-34.4,0-47.1,0.1l-39.5,41.5l18.6-82.9c-10.1,0-20.3,0-30.7,0l-27.4,124.3
		c-28.2,0-57.3,0-74.3,0c3.4-15,8.9-39.4,12.2-54.4h63.1l-19.8-28.6c-22.4,0-45,0-67.5,0.1c-7.9,35.3-17.1,76.2-25,111.5h105.1
		l-9.2,41.9h30.7c1-4.4,5-23.2,9-41.9h31.2l6.4-28.6c-8.1,0-19.1,0-31.5,0c1.3-6.2,2.4-10.9,2.8-12.8h46.6
		c-1.9,8.5-7.3,32.7-9.3,41.5h30.7c2-8.8,7.5-33.2,9.3-41.7L759,187.7c-3.8,0-5.7,0-9.6,0l12.2-12.7L787.9,175.1z"/>
	<g>
		<polygon class="st0" points="341.6,288 342.1,285.8 344.4,285.8 377.3,285.8 379.1,277.8 335.8,277.8 326.2,320.2 369.5,320.2 
			371.3,312.2 339.8,312.2 336.1,312.2 336.9,308.7 337.7,305.2 338.2,303 340.5,303 373.4,303 375.2,295 343.7,295 340,295 
			340.8,291.5 		"/>
		<polygon class="st0" points="426.1,277.8 421.7,297.3 421.5,298.3 420.7,299 408.6,308.7 405.5,311.1 403.7,308.9 395.5,298.5 
			394.6,297.4 395,296.1 399.1,277.8 391,277.8 385.6,301.7 400.2,320.2 404.8,320.2 429,300.8 434.2,277.8 		"/>
		<path class="st0" d="M448.1,305.2l0.5-2.3h2.3h32.8l5.7-25.2h-43.3l-9.6,42.4h43.3l1.8-8h-31.5h-3.6l0.8-3.5L448.1,305.2z
			 M451.2,291.5l0.8-3.4l0.5-2.3h2.3h21.1h3.6l-0.8,3.5l-0.8,3.4l-0.5,2.3h-2.3H454h-3.6L451.2,291.5z"/>
		<polygon class="st0" points="501.3,277.8 491.7,320.2 499.9,320.2 507.1,288 507.6,285.8 510,285.8 531.1,285.8 534.7,285.8 
			533.9,289.3 526.9,320.2 535,320.2 544.6,277.8 		"/>
		<polygon class="st0" points="556.8,312.2 557.6,308.7 562.3,288 562.8,285.8 565.1,285.8 577,285.8 578.8,277.8 568.3,277.8 
			564.6,277.8 565.4,274.3 567,267.5 558.9,267.5 546.9,320.2 581.6,320.2 583.4,312.2 560.5,312.2 		"/>
		<polygon class="st0" points="606.1,288 606.6,285.8 608.9,285.8 641.7,285.8 643.5,277.8 600.3,277.8 594.6,303 626.1,303 
			629.7,303 628.9,306.5 628.1,310 627.6,312.2 625.3,312.2 592.5,312.2 590.7,320.2 633.9,320.2 639.6,295 608.1,295 604.5,295 
			605.3,291.5 		"/>
	</g>
	<path class="st0" d="M407.8,146.5c-10.7,0-41.6,0-57.7,0l9.1-41.5h-30.4L286,299.8h30.4L343.9,175H397c-5.7,25.3-12.9,57.6-18.6,83
		H409c5.7-25.3,12.9-57.6,18.6-82.9L407.8,146.5z"/>
</g>
</svg>
