<?xml version="1.0" encoding="utf-8"?>
<!-- Generator: Adobe Illustrator 24.1.0, SVG Export Plug-In . SVG Version: 6.00 Build 0)  -->
<svg version="1.1" id="Layer_1" xmlns="http://www.w3.org/2000/svg" xmlns:xlink="http://www.w3.org/1999/xlink" x="0px" y="0px"
	 viewBox="0 0 1080 637.8" style="enable-background:new 0 0 1080 637.8;" xml:space="preserve">
<style type="text/css">
	.st0{fill:#252424;}
</style>
<g>
	<g>
		<path class="st0" d="M227.6,286.5l-0.1,0.5c23.6,0,52.7,0.1,78.5,0.1c-4.1,18.2-10.1,45-14.2,63.2H185.5l5.8-25.9
			c25.7,0.1,50,0.1,78.5,0.1c0.1-0.5,2.5-11.3,2.6-11.8h-78.5c1.8-8.1,6.7-29.7,8.4-37.5l29.2-25.8c16.1,0.1,56.6,0.1,82.8,0.1
			l-5.8,25.7H230l-0.1,0.5L227.6,286.5z"/>
		<path class="st0" d="M405.7,249.6c-13.3,0-37.8,0-51.9,0c2.8-12.7,5.7-25.2,8.4-37.4c-9.4,0-18.5,0-27.7,0
			c-10,44.4-21,93.8-31,138.1h27.7c5.4-24,11.1-49.6,16.8-75h47.8c-5.1,22.9-11.7,52.1-16.8,75h27.7c5.1-22.9,11.7-52.1,16.8-74.9
			L405.7,249.6z"/>
		<path class="st0" d="M441.3,249.6c9.2,0,18.4,0,27.7,0c-5.1,22.9-11.7,52.1-16.8,75c18.1,0,36,0,54.2,0c3.1-13.6,8-35.6,11-49.2
			h-43.7l5.8-25.7c14.2,0,33.4,0,47.7,0l17.9,25.9c-5.1,22.8-11.7,52-16.8,74.9H418.7L441.3,249.6z"/>
		<path class="st0" d="M658.6,324.4l-5.8,25.9H540.2c7.2-31.9,15.4-68.9,22.6-100.8c20.3,0,40.8,0,61-0.1l17.9,25.9h-57
			c-3,13.5-8,35.6-11,49.2C602.2,324.5,630.3,324.4,658.6,324.4z"/>
		<path class="st0" d="M866.7,249.2l-8.4,37.5c-12.1,0-32.7,0-42.3,0v-0.2l8.4-37.3c-8.9,0-18.2,0-27.7,0l-8.4,37.2l-0.1,0.2v0.1
			l18,25.9h46.3l-16.9,75.3h27.7l31.1-138.8C885.9,249.2,876.6,249.2,866.7,249.2z"/>
		<path class="st0" d="M779.1,275.3l5.8-26c-11.2,0-31.1,0-42.6,0l-35.7,37.5l16.8-74.9c-9.1,0-18.4,0-27.7,0l-31,138.3h27.7
			c1.8-7.9,6.7-29.9,8.4-37.5h42.1c-1.7,7.7-6.6,29.5-8.4,37.5h27.7c1.8-7.9,6.7-30,8.4-37.6l-17.9-25.9c-3.5,0-5.2,0-8.7,0l11-11.5
			L779.1,275.3L779.1,275.3z"/>
	</g>
	<path class="st0" d="M420.8,411.3H458l-3.3,14.6h-52.1l11.6-51h52.1l-3.3,14.6h-37.2l-0.8,3.6h37.2l-3.3,14.6h-37.2L420.8,411.3z"
		/>
	<path class="st0" d="M472.6,374.8h14.9l-5.2,23.1l8.7,10.9l0,0l13.6-10.9l5.2-23.1h14.9l-6.6,29.1l-27.3,21.9h-7.4L466,404
		L472.6,374.8z"/>
	<path class="st0" d="M537.6,411.3h37.2l-3.3,14.6h-52.1l11.6-51h52.1l-7.4,32.8h-37.2L537.6,411.3z M542.6,389.4l-0.8,3.6h22.3
		l0.8-3.6H542.6z"/>
	<path class="st0" d="M601,389.4l-8.3,36.5h-14.9l11.6-51h52.1l-11.6,51H615l8.3-36.5H601z"/>
	<path class="st0" d="M650.3,363.9h14.9l-2.5,10.9H700l-3.3,14.6h-37.2l-5,21.9h37.2l-3.3,14.6h-52.1L650.3,363.9z"/>
	<path class="st0" d="M694.7,425.8l3.3-14.6h37.2l0.8-3.6h-37.2l7.4-32.8h52.1l-3.3,14.6h-37.2L717,393h37.2l-7.4,32.8H694.7z"/>
</g>
</svg>
