<?xml version="1.0" encoding="utf-8"?>
<!-- Generator: Adobe Illustrator 24.1.0, SVG Export Plug-In . SVG Version: 6.00 Build 0)  -->
<svg version="1.1" id="Layer_1" xmlns="http://www.w3.org/2000/svg" xmlns:xlink="http://www.w3.org/1999/xlink" x="0px" y="0px"
	 viewBox="0 0 1080 425.2" style="enable-background:new 0 0 1080 425.2;" xml:space="preserve">
<style type="text/css">
	.st0{fill:#F2EFE6;}
	.st1{fill:#BF2627;}
</style>
<g>
	<path class="st0" d="M884,135.8c-7.2,0-15,0-23.1,0h-7l-8.3,36.8c-4.6,0-16.9,0-23.6,0l8.3-36.8h-38.8l0,0h-11
		c-5.5,0-13.1,0-20.8,0h-0.8c-7.4,0-14.8,0-20.2,0h-3.8l-15.7,16.8l12-53.3h-11c-4.6,0-34.3,0-34.3,0l-24.8,110.4h-4.7
		c-12.5,0-24.9,0-37.4,0h-1.8c-11,0-22.1,0-33.2,0c2.2-9.9,4.8-21.4,6.9-30.7h65.7l-29.8-43l-71.6,0.1l-5.7,25.4L532,136.2h-4.6
		c-9.3,0-20.8,0-31.6,0h-20.5h-1.8H436l-5.7,25.5l-17.7-25.5H368l8.2-36.7H331l-8.2,36.7h-4.5c-8,0-17.4,0-27,0h-0.1
		c-21.3,0-43.3,0-54.1-0.1h-3.4l-33.3,29.5l-4.7,20.9c-1.6,7.3-3.3,14.7-4.2,18.7l-1.4,6.3l-9.3,41.3h161.1l16.5-73.7h29
		c-3.4,15.3-16.5,73.7-16.5,73.7h325.8l1.5-6.9c0.6-2.5,2.8-12.5,2.8-12.5c1.3-5.9,2.8-12.4,3.9-17.5h23.4l-8.3,36.9h45.2l3.7-16.3
		c2.2-9.6,5-22.2,6.2-27.6l0.8-3.8L757.8,179h13.5l25.5,36.8H836l-16.6,73.8h45.2l34.5-153.9L884,135.8z"/>
	<g>
		<path class="st1" d="M233.1,181.3l-0.1,0.5c23.2,0,51.7,0.1,77.1,0.1c-4,17.9-9.9,44.2-13.9,62.1H191.8l5.7-25.4
			c25.2,0.1,49.1,0.1,77.1,0.1c0.1-0.5,2.5-11.1,2.6-11.6h-77.1c1.8-7.9,6.6-29.2,8.3-36.8l28.7-25.4c15.9,0.1,55.6,0.1,81.3,0.1
			l-5.7,25.3h-77.1l-0.1,0.5L233.1,181.3z"/>
		<path class="st1" d="M408,145c-13,0-37.1,0-51,0c2.8-12.5,5.6-24.8,8.2-36.7c-9.2,0-18.2,0-27.2,0c-9.8,43.6-20.7,92.1-30.4,135.6
			h27.2c5.3-23.6,10.9-48.7,16.5-73.7h47c-5,22.5-11.5,51.1-16.5,73.7H409c5-22.5,11.5-51.1,16.5-73.5L408,145z"/>
		<path class="st1" d="M443.1,145c9,0,18.1,0,27.2,0c-5.1,22.5-11.5,51.2-16.5,73.7c17.7,0,35.4,0,53.2,0c3-13.3,7.9-35,10.9-48.4
			H475l5.7-25.3c13.9,0,32.8,0,46.8,0l17.6,25.4c-5,22.4-11.5,51.1-16.5,73.6H420.9L443.1,145z"/>
		<path class="st1" d="M656.5,218.5l-5.7,25.4H540.2c7-31.4,15.2-67.6,22.2-99c20,0,40.1,0,59.9-0.1l17.6,25.4h-56
			c-3,13.3-7.9,35-10.8,48.3C601.1,218.6,628.7,218.5,656.5,218.5z"/>
		<path class="st1" d="M860.9,144.6l-8.3,36.8c-11.9,0-32.1,0-41.6,0v-0.2l8.2-36.6c-8.8,0-17.9,0-27.3,0l-8.2,36.6l-0.1,0.2v0.1
			l17.6,25.5h45.4L830,280.8h27.2l31-136.2C879.8,144.6,870.7,144.6,860.9,144.6z"/>
		<path class="st1" d="M774.9,170.3l5.7-25.6c-11,0-30.5,0-41.8,0l-35.1,36.9l16.5-73.5c-9,0-18,0-27.2,0L662.5,244h27.2
			c1.7-7.8,6.6-29.4,8.3-36.9h41.4c-1.7,7.5-6.5,29-8.3,36.9h27.2c1.7-7.8,6.6-29.5,8.3-37L749,181.5c-3.4,0-5.1,0-8.5,0l10.9-11.3
			h23.5V170.3z"/>
	</g>
	<polygon class="st0" points="668.8,259.3 671.3,248.3 643.2,248.3 641.2,259.3 412,259.3 397,325.9 748.4,325.9 763.4,259.3 	"/>
	<path class="st1" d="M422.9,303.8h36.6l-3.2,14.3H405l11.4-50.1h51.2l-3.2,14.3h-36.6l-0.8,3.6h36.6l-3.2,14.3h-36.6L422.9,303.8z"
		/>
	<path class="st1" d="M473.8,268h14.6l-5.1,22.7l8.5,10.7l0,0l13.4-10.7l5.1-22.7h14.6l-6.5,28.6l-26.8,21.5h-7.3l-17-21.5
		L473.8,268z"/>
	<path class="st1" d="M537.7,303.8h36.6l-3.2,14.3h-51.2l11.4-50.1h51.2l-7.3,32.2h-36.6L537.7,303.8z M542.5,282.3l-0.8,3.6h21.9
		l0.8-3.6H542.5z"/>
	<path class="st1" d="M599.9,282.3l-8.1,35.8h-14.6l11.4-50.1h51.2l-11.4,50.1h-14.6l8.1-35.8H599.9z"/>
	<path class="st1" d="M648.4,257.3H663l-2.4,10.7h36.6l-3.2,14.3h-36.6l-4.9,21.5H689l-3.2,14.3h-51.2L648.4,257.3z"/>
	<path class="st1" d="M692,318.1l3.2-14.3h36.6l0.8-3.6H696l7.3-32.2h51.2l-3.2,14.3h-36.6l-0.8,3.6h36.6l-7.3,32.2H692z"/>
</g>
</svg>
