<?xml version="1.0" encoding="utf-8"?>
<!-- Generator: Adobe Illustrator 24.1.0, SVG Export Plug-In . SVG Version: 6.00 Build 0)  -->
<svg version="1.1" id="Layer_1" xmlns="http://www.w3.org/2000/svg" xmlns:xlink="http://www.w3.org/1999/xlink" x="0px" y="0px"
	 viewBox="0 0 1080 637.8" style="enable-background:new 0 0 1080 637.8;" xml:space="preserve">
<g>
	<g>
		<polygon points="384.8,343 361.7,343 318.1,414.7 274.6,343 249.7,343 305.6,435.2 305.6,484.8 328.9,484.8 328.9,434.9 		"/>
		<path d="M438.3,343l-64,141.7h24.1l14.7-34h73.1l14.8,34h24.5L461.3,343H438.3z M421.2,432.1l28.4-65.6l28.5,65.6H421.2z"/>
		<path d="M633.6,436.7c8.9-4,15.8-9.7,20.6-17.1c4.8-7.4,7.2-16.3,7.2-26.5c0-10.4-2.4-19.3-7.2-26.8s-11.6-13.2-20.6-17.2
			c-8.9-4-19.6-6-32-6H545v141.7h23.3v-42.1h33.4c2.5,0,4.8-0.1,7.2-0.3l29.7,42.4h25.3l-33.1-46.9
			C631.7,437.5,632.7,437.1,633.6,436.7z M600.8,423h-32.6v-59.7h32.6c12.3,0,21.5,2.6,27.7,7.7c6.2,5.1,9.3,12.5,9.3,22.1
			c0,9.5-3.1,16.8-9.3,22.1C622.4,420.4,613.1,423,600.8,423z"/>
		<path d="M820.5,376.8c-6.5-10.6-15.5-18.9-27-24.8c-11.5-5.9-24.9-8.9-40.2-8.9h-60.7v141.7h60.7c15.3,0,28.7-3,40.2-8.9
			s20.6-14.2,27-24.8c6.5-10.6,9.7-23,9.7-37.2S827,387.3,820.5,376.8z M800,440.4c-4.5,7.6-10.8,13.5-18.9,17.7
			c-8.1,4.3-17.8,6.4-29,6.4h-36.2V363.3h36.2c11.2,0,20.9,2.1,29,6.4c8.1,4.3,14.4,10.1,18.9,17.6s6.8,16.4,6.8,26.6
			C806.8,424,804.5,432.9,800,440.4z"/>
	</g>
	<g>
		<polygon points="255.1,504.6 249.7,504.6 249.7,542.8 252.4,542.8 255.1,542.8 274.2,542.8 274.2,537.7 255.1,537.7 		"/>
		<path d="M289.8,515.1c-2.1,0-3.9,0.3-5.6,1s-3,1.7-4.1,2.9l3.9,2.7c0.8-0.6,1.8-1.1,2.8-1.4c1-0.3,2.1-0.5,3.2-0.5
			c1.7,0,3.1,0.5,4.1,1.5s1.4,2.4,1.4,4.2v1.2H288c-3.1,0-5.4,0.7-6.9,2s-2.3,3.4-2.3,6.1c0,2.9,0.8,5,2.5,6.3
			c1.7,1.4,4.2,2.1,7.5,2.1c1.1,0,2.2-0.1,3.1-0.4c0.9-0.2,1.7-0.6,2.4-1.1c0.5-0.3,0.8-0.7,1.2-1.1v2.1h5.1v-17.5
			c0-3.2-0.9-5.7-2.8-7.5C295.8,516,293.2,515.1,289.8,515.1z M293.9,538.1c-1,0.4-2.5,0.7-4.6,0.7c-1.9,0-3.2-0.3-4.2-1
			c-0.9-0.7-1.4-1.7-1.4-3.1c0-1.3,0.3-2.2,1-2.8s1.7-0.9,3.1-0.9h7.5v5.1C295.4,537,294.9,537.7,293.9,538.1z"/>
		<path d="M321.2,515.1c-1.6,0-3.1,0.4-4.5,1.3c-1.1,0.7-2,1.7-2.7,2.9v-3.8h-5.4v27.3h5.4v-17.2c0-1.7,0.5-3,1.4-3.9
			c1-0.9,2.3-1.4,4.1-1.4c1.8,0,3.2,0.5,4.2,1.6c1,1,1.5,2.5,1.5,4.5v16.4h5.4v-16.5c0-3.5-0.8-6.3-2.4-8.2
			C326.5,516.1,324.2,515.1,321.2,515.1z"/>
		<path d="M354.1,519c-0.7-1.1-1.6-2-2.7-2.6c-1.3-0.8-2.8-1.3-4.4-1.3c-2.9,0-5.2,1-6.8,2.9c-1.6,1.9-2.4,4.7-2.4,8.2v6
			c0,3.5,0.8,6.2,2.5,8.2c1.6,1.9,4,2.9,7,2.9c1.9,0,3.5-0.5,4.7-1.5c0.9-0.8,1.7-1.6,2.2-2.5v3.5h5.4v-38.1h-5.4V519H354.1z
			 M353.5,535.8c-0.4,0.8-1,1.5-1.8,1.9s-1.8,0.7-2.9,0.7c-1.8,0-3.1-0.5-4.1-1.6s-1.5-2.6-1.5-4.6v-5.9c0-2,0.5-3.5,1.5-4.6
			s2.3-1.7,4.1-1.7c1.1,0,2.1,0.2,2.9,0.6c0.8,0.4,1.4,1.1,1.8,1.9c0.4,0.8,0.6,1.8,0.6,3v7.3C354.1,533.9,353.9,534.9,353.5,535.8z
			"/>
		<path d="M385.4,527.9c-1-0.5-2.1-0.9-3.2-1.1c-1.2-0.2-2.3-0.3-3.5-0.4c-1.2-0.1-2.3-0.2-3.3-0.3s-1.9-0.3-2.5-0.7
			s-0.9-0.9-0.9-1.8c0-1.2,0.5-2.2,1.4-2.8s2.3-0.9,4.1-0.9c1.3,0,2.5,0.2,3.9,0.7c1.3,0.4,2.7,1.1,4,2l3.2-3.9
			c-1.6-1.2-3.3-2.1-5.2-2.6c-1.8-0.6-3.8-0.9-6-0.9c-3.5,0-6.1,0.7-7.9,2.2c-1.8,1.4-2.6,3.6-2.6,6.5c0,1.6,0.3,2.9,0.8,3.8
			c0.5,0.9,1.2,1.7,2.1,2.1c0.9,0.5,1.9,0.8,3,1s2.2,0.3,3.3,0.4c1.3,0.1,2.5,0.2,3.7,0.3c1.1,0.1,2.1,0.4,2.8,0.8
			c0.7,0.4,1.1,1.1,1.1,2.2c0,1.3-0.5,2.3-1.6,3s-2.6,1-4.8,1c-1.4,0-2.8-0.3-4.3-0.8c-1.4-0.6-2.9-1.4-4.4-2.5l-3.2,3.9
			c1.6,1.4,3.3,2.5,5.3,3.2s4.2,1.1,6.6,1.1c3.8,0,6.7-0.7,8.6-2.2s2.8-3.6,2.8-6.6c0-1.8-0.3-3.2-0.9-4.2
			C387.1,529.2,386.4,528.4,385.4,527.9z"/>
		<path d="M401.7,522c1.1-1.2,2.7-1.7,4.8-1.7c1.1,0,2.2,0.2,3.3,0.7c1,0.5,1.9,1.1,2.7,2l3.9-3.5c-1-1.4-2.4-2.5-4.1-3.2
			c-1.7-0.8-3.6-1.1-5.8-1.1c-3.7,0-6.6,1-8.7,3.1c-2.1,2-3.1,4.9-3.1,8.6v4.5c0,3.8,1,6.7,3.1,8.7c2.1,2.1,5,3.1,8.7,3.1
			c2.1,0,4-0.4,5.8-1.1c1.7-0.7,3.1-1.8,4.1-3.2l-3.9-3.7c-0.8,0.9-1.6,1.6-2.7,2.2c-1,0.5-2.1,0.8-3.3,0.8c-2.1,0-3.7-0.6-4.8-1.8
			c-1.1-1.2-1.7-2.8-1.7-5v-4.6C400,524.7,400.6,523.1,401.7,522z"/>
		<path d="M431.9,515.1c-2.1,0-3.9,0.3-5.6,1s-3,1.7-4.1,2.9l3.9,2.7c0.8-0.6,1.8-1.1,2.8-1.4c1-0.3,2.1-0.5,3.2-0.5
			c1.7,0,3.1,0.5,4.1,1.5s1.4,2.4,1.4,4.2v1.2h-7.5c-3.1,0-5.4,0.7-6.9,2s-2.3,3.4-2.3,6.1c0,2.9,0.8,5,2.5,6.3
			c1.7,1.4,4.2,2.1,7.5,2.1c1.1,0,2.2-0.1,3.1-0.4c0.9-0.2,1.7-0.6,2.4-1.1c0.5-0.3,0.8-0.7,1.2-1.1v2.1h5.1v-17.5
			c0-3.2-0.9-5.7-2.8-7.5C438,516,435.4,515.1,431.9,515.1z M436.1,538.1c-1,0.4-2.5,0.7-4.6,0.7c-1.9,0-3.2-0.3-4.2-1
			c-0.9-0.7-1.4-1.7-1.4-3.1c0-1.3,0.3-2.2,1-2.8s1.7-0.9,3.1-0.9h7.5v5.1C437.6,537,437.1,537.7,436.1,538.1z"/>
		<path d="M463.3,515.1c-1.6,0-3.1,0.4-4.4,1.3c-1.1,0.7-1.9,1.6-2.7,2.8v-3.7h-5.4v38.3h5.4v-14.6c0.6,1.1,1.4,2,2.4,2.7
			c1.3,0.8,2.7,1.2,4.4,1.2c3,0,5.3-1,7-2.9c1.6-1.9,2.5-4.6,2.5-8.1v-5.9c0-3.5-0.8-6.3-2.4-8.2
			C468.5,516.1,466.2,515.1,463.3,515.1z M467.1,532.2c0,2-0.5,3.5-1.5,4.6s-2.3,1.6-4.1,1.6c-1.1,0-2.1-0.2-2.9-0.7
			c-0.8-0.4-1.4-1.1-1.8-1.9c-0.4-0.8-0.6-1.8-0.6-3v-7.4c0-1.2,0.2-2.1,0.6-2.9c0.4-0.8,1-1.4,1.8-1.8c0.8-0.4,1.8-0.6,2.9-0.6
			c1.8,0,3.1,0.6,4.1,1.7c1,1.1,1.5,2.6,1.5,4.6V532.2z"/>
		<rect x="480" y="515.5" width="5.4" height="27.2"/>
		<rect x="480" y="504.6" width="5.4" height="5.4"/>
		<path d="M506.1,515.1c-1.6,0-3.1,0.4-4.5,1.3c-1.1,0.7-2,1.7-2.7,2.9v-3.8h-5.4v27.3h5.4v-17.2c0-1.7,0.5-3,1.4-3.9
			c1-0.9,2.3-1.4,4.1-1.4c1.8,0,3.2,0.5,4.2,1.6c1,1,1.5,2.5,1.5,4.5v16.4h5.4v-16.5c0-3.5-0.8-6.3-2.4-8.2
			C511.4,516.1,509.1,515.1,506.1,515.1z"/>
		<path d="M539,519c-0.7-1.1-1.6-2-2.7-2.6c-1.3-0.8-2.8-1.3-4.4-1.3c-2.9,0-5.2,1-6.8,2.9s-2.4,4.7-2.4,8.2v6
			c0,3.5,0.8,6.2,2.5,8.2c1.6,1.9,4,2.9,7,2.9c1.9,0,3.5-0.5,4.7-1.5c0.9-0.8,1.7-1.6,2.2-2.5v3.5c0,2.1-0.6,3.7-1.7,4.8
			c-1.1,1.1-2.7,1.7-4.7,1.7c-1.1,0-2.1-0.3-3.1-0.8s-1.8-1.3-2.5-2.2l-3.6,3.3c0.9,1.4,2.1,2.5,3.8,3.2c1.6,0.8,3.4,1.1,5.5,1.1
			c3.7,0,6.6-1,8.6-3.1s3.1-5,3.1-8.8v-26.4H539V519z M538.4,535.8c-0.4,0.8-1,1.5-1.8,1.9s-1.8,0.7-2.9,0.7c-1.8,0-3.1-0.5-4.1-1.6
			s-1.5-2.6-1.5-4.6v-5.9c0-2,0.5-3.5,1.5-4.6s2.3-1.7,4.1-1.7c1.1,0,2.1,0.2,2.9,0.6c0.8,0.4,1.4,1.1,1.8,1.9
			c0.4,0.8,0.6,1.8,0.6,3v7.3C539,533.9,538.8,534.9,538.4,535.8z"/>
		<path d="M592.1,534.1c1.3-2.9,2-6.5,2-10.7H589c0,3.7-0.6,6.7-1.7,9.1l-7.8-8.3c-1.4-1.5-2.4-3-3.2-4.6c-0.7-1.6-1.1-3.2-1.1-4.8
			c0-1.7,0.4-3,1.3-3.9c0.9-0.9,2.1-1.4,3.6-1.4s2.7,0.4,3.6,1.3c0.8,0.8,1.3,2.1,1.3,3.6v0.5h5.4v-0.5c0-3.2-0.9-5.7-2.7-7.5
			s-4.3-2.6-7.5-2.6c-3.3,0-5.8,0.9-7.6,2.7s-2.7,4.4-2.7,7.8c0,2.3,0.5,4.6,1.5,6.7c0.2,0.3,0.3,0.6,0.5,1
			c-1.2,0.5-2.3,1.3-3.2,2.2c-1.7,1.9-2.6,4.4-2.6,7.5c0,3.5,1,6.2,3,8.1c2,1.9,4.7,2.9,8.3,2.9c3.5,0,6.5-0.8,9-2.3
			c0.4-0.2,0.7-0.5,1.1-0.8l2.6,2.7h6.8l-6-6.4C591.4,535.6,591.8,534.9,592.1,534.1z M578.6,538.4c-2.3,0-4.1-0.5-5.4-1.6
			c-1.3-1.1-1.9-2.6-1.9-4.5c0-2,0.6-3.5,1.8-4.6c0.5-0.4,1-0.7,1.6-1c0.3,0.3,0.6,0.7,0.9,1l8.6,9
			C582.7,537.8,580.8,538.4,578.6,538.4z"/>
		<rect x="616.9" y="504.6" width="5.4" height="38.1"/>
		<path d="M643.6,515.1c-1.6,0-3.1,0.5-4.4,1.4c-1.1,0.7-2,1.7-2.7,2.8v-3.8h-5.4v27.3h5.4v-17.2c0-1.7,0.5-3,1.4-3.9
			s2.3-1.4,3.9-1.4c0.9,0,1.8,0.1,2.5,0.4c0.7,0.3,1.3,0.7,1.8,1.3l3.5-4.7c-0.8-0.7-1.6-1.2-2.6-1.6S644.9,515.1,643.6,515.1z"/>
		<path d="M666.6,515.1c-1.6,0-3.1,0.5-4.4,1.4c-1.1,0.7-2,1.7-2.7,2.8v-3.8h-5.4v27.3h5.4v-17.2c0-1.7,0.5-3,1.4-3.9
			s2.3-1.4,3.9-1.4c0.9,0,1.8,0.1,2.5,0.4c0.7,0.3,1.3,0.7,1.8,1.3l3.5-4.7c-0.8-0.7-1.6-1.2-2.6-1.6
			C668.9,515.3,667.8,515.1,666.6,515.1z"/>
		<rect x="677" y="504.6" width="5.4" height="5.4"/>
		<rect x="677" y="515.5" width="5.4" height="27.2"/>
		<path d="M706,519c-0.7-1.1-1.6-2-2.7-2.6c-1.3-0.8-2.8-1.3-4.4-1.3c-2.9,0-5.2,1-6.8,2.9s-2.4,4.7-2.4,8.2v6
			c0,3.5,0.8,6.2,2.5,8.2c1.6,1.9,4,2.9,7,2.9c1.9,0,3.5-0.5,4.7-1.5c0.9-0.8,1.7-1.6,2.2-2.5v3.5c0,2.1-0.6,3.7-1.7,4.8
			c-1.1,1.1-2.7,1.7-4.7,1.7c-1.1,0-2.1-0.3-3.1-0.8s-1.8-1.3-2.5-2.2l-3.6,3.3c0.9,1.4,2.1,2.5,3.8,3.2c1.6,0.8,3.4,1.1,5.5,1.1
			c3.7,0,6.6-1,8.6-3.1s3.1-5,3.1-8.8v-26.4H706V519z M705.4,535.8c-0.4,0.8-1,1.5-1.8,1.9s-1.8,0.7-2.9,0.7c-1.8,0-3.1-0.5-4.1-1.6
			s-1.5-2.6-1.5-4.6v-5.9c0-2,0.5-3.5,1.5-4.6s2.3-1.7,4.1-1.7c1.1,0,2.1,0.2,2.9,0.6c0.8,0.4,1.4,1.1,1.8,1.9
			c0.4,0.8,0.6,1.8,0.6,3v7.3C706,533.9,705.8,534.9,705.4,535.8z"/>
		<path d="M729.2,515.1c-2.1,0-3.9,0.3-5.6,1c-1.7,0.7-3,1.7-4.1,2.9l3.9,2.7c0.8-0.6,1.8-1.1,2.8-1.4c1-0.3,2.1-0.5,3.2-0.5
			c1.7,0,3.1,0.5,4.1,1.5s1.4,2.4,1.4,4.2v1.2h-7.5c-3.1,0-5.4,0.7-6.9,2s-2.3,3.4-2.3,6.1c0,2.9,0.8,5,2.5,6.3
			c1.7,1.4,4.2,2.1,7.5,2.1c1.1,0,2.2-0.1,3.1-0.4c0.9-0.2,1.7-0.6,2.4-1.1c0.5-0.3,0.8-0.7,1.2-1.1v2.1h5.1v-17.5
			c0-3.2-0.9-5.7-2.8-7.5C735.3,516,732.6,515.1,729.2,515.1z M733.3,538.1c-1,0.4-2.5,0.7-4.6,0.7c-1.9,0-3.2-0.3-4.2-1
			c-0.9-0.7-1.4-1.7-1.4-3.1c0-1.3,0.3-2.2,1-2.8s1.7-0.9,3.1-0.9h7.5v5.1C734.9,537,734.4,537.7,733.3,538.1z"/>
		<path d="M754.1,507.6h-5.4v7.9H746v4.8h2.8v15.3c0,2.3,0.5,4.1,1.5,5.4c1,1.2,2.6,1.9,4.9,1.9h3.1v-5.1h-2.6
			c-0.5,0-0.9-0.2-1.2-0.6c-0.3-0.4-0.4-0.9-0.4-1.5v-15.4h4.1v-4.8h-4.1V507.6z"/>
		<rect x="765.6" y="504.6" width="5.4" height="5.4"/>
		<rect x="765.6" y="515.5" width="5.4" height="27.2"/>
		<path d="M789.5,515.1c-3.6,0-6.3,1-8.3,3.1c-2,2-2.9,4.9-2.9,8.7v4.4c0,3.8,1,6.7,2.9,8.7c2,2.1,4.7,3.1,8.3,3.1s6.3-1,8.3-3.1
			s2.9-5,2.9-8.7v-4.5c0-3.7-1-6.6-2.9-8.7C795.9,516.2,793.1,515.1,789.5,515.1z M795.4,531.4c0,2.1-0.5,3.8-1.5,4.9
			c-1,1.2-2.5,1.8-4.3,1.8c-1.9,0-3.3-0.6-4.3-1.8s-1.5-2.8-1.5-4.9v-4.5c0-2.1,0.5-3.8,1.5-4.9c1-1.2,2.5-1.7,4.3-1.7
			c1.9,0,3.3,0.6,4.3,1.7c1,1.2,1.5,2.8,1.5,4.9V531.4z"/>
		<path d="M827.8,518c-1.6-1.9-3.9-2.9-6.9-2.9c-1.6,0-3.1,0.4-4.5,1.3c-1.1,0.7-2,1.7-2.7,2.9v-3.8h-5.4v27.3h5.4v-17.2
			c0-1.7,0.5-3,1.4-3.9c1-0.9,2.3-1.4,4.1-1.4s3.2,0.5,4.2,1.6c1,1,1.5,2.5,1.5,4.5v16.4h5.4v-16.5C830.3,522.7,829.4,520,827.8,518
			z"/>
	</g>
	<path d="M249.7,83.8v239.7h580.5V83.8H249.7z M810.7,304h-233c-8.1-42,11.7-62.6,11.9-62.8c0.3-0.3,0.3-0.7,0-1
		c-0.2-0.3-0.7-0.4-1-0.1c-21.3,15-27.9,39.8-29.9,53.3c-2.5-67.5,37.1-99,37.5-99.3c0.3-0.2,0.4-0.7,0.2-1s-0.7-0.4-1-0.2
		c-58.7,33.3-66,88.7-66.3,111.3l0,0c-6.4-73.7-25.6-113-40.1-133c-16.3-22.5-31-26.4-31.6-26.6c-0.3-0.1-0.7,0.1-0.8,0.4
		c-0.2,0.3-0.1,0.7,0.1,0.9c46.4,43.7,44.8,125.8,42.2,158.3H269.3V103.3h541.4V304z"/>
</g>
</svg>
