<?xml version="1.0" encoding="utf-8"?>
<!-- Generator: Adobe Illustrator 24.1.0, SVG Export Plug-In . SVG Version: 6.00 Build 0)  -->
<svg version="1.1" id="Layer_1" xmlns="http://www.w3.org/2000/svg" xmlns:xlink="http://www.w3.org/1999/xlink" x="0px" y="0px"
	 viewBox="0 0 1080 425.2" style="enable-background:new 0 0 1080 425.2;" xml:space="preserve">
<style type="text/css">
	.st0{fill:#242424;}
</style>
<g>
	<g>
		<polygon class="st0" points="409.1,233 389.6,233 352.8,293.5 316.1,233 295.1,233 342.3,310.7 342.3,352.6 361.9,352.6 
			361.9,310.5 		"/>
		<path class="st0" d="M454.2,233l-54,119.5h20.3l12.4-28.7h61.7l12.5,28.7h20.7L473.6,233H454.2z M439.8,308.1l24-55.3l24,55.3
			H439.8z"/>
		<path class="st0" d="M619,312c7.5-3.4,13.3-8.2,17.4-14.4s6.1-13.8,6.1-22.4c0-8.8-2-16.3-6.1-22.6s-9.8-11.1-17.4-14.5
			c-7.5-3.4-16.5-5.1-27-5.1h-47.7v119.5h19.7v-35.5H592c2.1,0,4-0.1,6.1-0.3l25.1,35.8h21.3L616.6,313
			C617.4,312.7,618.2,312.3,619,312z M591.3,300.5h-27.5v-50.4h27.5c10.4,0,18.1,2.2,23.4,6.5c5.2,4.3,7.8,10.5,7.8,18.6
			c0,8-2.6,14.2-7.8,18.6C609.5,298.3,601.7,300.5,591.3,300.5z"/>
		<path class="st0" d="M776.6,261.5c-5.5-8.9-13.1-15.9-22.8-20.9c-9.7-5-21-7.5-33.9-7.5h-51.2v119.5h51.2
			c12.9,0,24.2-2.5,33.9-7.5c9.7-5,17.4-12,22.8-20.9c5.5-8.9,8.2-19.4,8.2-31.4C784.8,280.8,782.1,270.3,776.6,261.5z M759.3,315.1
			c-3.8,6.4-9.1,11.4-15.9,14.9c-6.8,3.6-15,5.4-24.5,5.4h-30.5v-85.4h30.5c9.4,0,17.6,1.8,24.5,5.4c6.8,3.6,12.1,8.5,15.9,14.8
			c3.8,6.3,5.7,13.8,5.7,22.4C765.1,301.3,763.1,308.8,759.3,315.1z"/>
	</g>
	<g>
		<polygon class="st0" points="299.7,369.3 295.1,369.3 295.1,401.5 297.4,401.5 299.7,401.5 315.8,401.5 315.8,397.2 299.7,397.2 
					"/>
		<path class="st0" d="M328.9,378.1c-1.8,0-3.3,0.3-4.7,0.8c-1.4,0.6-2.5,1.4-3.5,2.4l3.3,2.3c0.7-0.5,1.5-0.9,2.4-1.2
			c0.8-0.3,1.8-0.4,2.7-0.4c1.4,0,2.6,0.4,3.5,1.3s1.2,2,1.2,3.5v1h-6.3c-2.6,0-4.6,0.6-5.8,1.7c-1.3,1.1-1.9,2.9-1.9,5.1
			c0,2.4,0.7,4.2,2.1,5.3c1.4,1.2,3.5,1.8,6.3,1.8c0.9,0,1.9-0.1,2.6-0.3c0.8-0.2,1.4-0.5,2-0.9c0.4-0.3,0.7-0.6,1-0.9v1.8h4.3
			v-14.8c0-2.7-0.8-4.8-2.4-6.3C334,378.9,331.8,378.1,328.9,378.1z M332.4,397.5c-0.8,0.3-2.1,0.6-3.9,0.6c-1.6,0-2.7-0.3-3.5-0.8
			c-0.8-0.6-1.2-1.4-1.2-2.6c0-1.1,0.3-1.9,0.8-2.4c0.6-0.5,1.4-0.8,2.6-0.8h6.3v4.3C333.7,396.6,333.2,397.2,332.4,397.5z"/>
		<path class="st0" d="M355.4,378.1c-1.3,0-2.6,0.3-3.8,1.1c-0.9,0.6-1.7,1.4-2.3,2.4v-3.2h-4.6v23h4.6V387c0-1.4,0.4-2.5,1.2-3.3
			c0.8-0.8,1.9-1.2,3.5-1.2s2.7,0.4,3.5,1.3c0.8,0.8,1.3,2.1,1.3,3.8v13.8h4.6v-13.9c0-3-0.7-5.3-2-6.9
			C359.9,379,358,378.1,355.4,378.1z"/>
		<path class="st0" d="M383.2,381.4c-0.6-0.9-1.3-1.7-2.3-2.2c-1.1-0.7-2.4-1.1-3.7-1.1c-2.4,0-4.4,0.8-5.7,2.4c-1.3,1.6-2,4-2,6.9
			v5.1c0,3,0.7,5.2,2.1,6.9c1.3,1.6,3.4,2.4,5.9,2.4c1.6,0,3-0.4,4-1.3c0.8-0.7,1.4-1.3,1.9-2.1v3h4.6v-32.1h-4.6L383.2,381.4
			L383.2,381.4z M382.7,395.6c-0.3,0.7-0.8,1.3-1.5,1.6s-1.5,0.6-2.4,0.6c-1.5,0-2.6-0.4-3.5-1.3c-0.8-0.9-1.3-2.2-1.3-3.9v-5
			c0-1.7,0.4-3,1.3-3.9c0.8-0.9,1.9-1.4,3.5-1.4c0.9,0,1.8,0.2,2.4,0.5c0.7,0.3,1.2,0.9,1.5,1.6c0.3,0.7,0.5,1.5,0.5,2.5v6.2
			C383.2,394,383,394.8,382.7,395.6z"/>
		<path class="st0" d="M409.6,388.9c-0.8-0.4-1.8-0.8-2.7-0.9c-1-0.2-1.9-0.3-3-0.3c-1-0.1-1.9-0.2-2.8-0.3
			c-0.8-0.1-1.6-0.3-2.1-0.6c-0.5-0.3-0.8-0.8-0.8-1.5c0-1,0.4-1.9,1.2-2.4c0.8-0.5,1.9-0.8,3.5-0.8c1.1,0,2.1,0.2,3.3,0.6
			c1.1,0.3,2.3,0.9,3.4,1.7l2.7-3.3c-1.3-1-2.8-1.8-4.4-2.2c-1.5-0.5-3.2-0.8-5.1-0.8c-3,0-5.1,0.6-6.7,1.9c-1.5,1.2-2.2,3-2.2,5.5
			c0,1.3,0.3,2.4,0.7,3.2c0.4,0.8,1,1.4,1.8,1.8c0.8,0.4,1.6,0.7,2.5,0.8c0.9,0.2,1.9,0.3,2.8,0.3c1.1,0.1,2.1,0.2,3.1,0.3
			c0.9,0.1,1.8,0.3,2.4,0.7c0.6,0.3,0.9,0.9,0.9,1.9c0,1.1-0.4,1.9-1.3,2.5c-0.9,0.6-2.2,0.8-4,0.8c-1.2,0-2.4-0.3-3.6-0.7
			c-1.2-0.5-2.4-1.2-3.7-2.1l-2.7,3.3c1.3,1.2,2.8,2.1,4.5,2.7c1.7,0.6,3.5,0.9,5.6,0.9c3.2,0,5.7-0.6,7.3-1.9
			c1.6-1.3,2.4-3,2.4-5.6c0-1.5-0.3-2.7-0.8-3.5C411,390,410.4,389.4,409.6,388.9z"/>
		<path class="st0" d="M423.3,384c0.9-1,2.3-1.4,4-1.4c0.9,0,1.9,0.2,2.8,0.6c0.8,0.4,1.6,0.9,2.3,1.7l3.3-3c-0.8-1.2-2-2.1-3.5-2.7
			c-1.4-0.7-3-0.9-4.9-0.9c-3.1,0-5.6,0.8-7.3,2.6c-1.8,1.7-2.6,4.1-2.6,7.3v3.8c0,3.2,0.8,5.7,2.6,7.3c1.8,1.8,4.2,2.6,7.3,2.6
			c1.8,0,3.4-0.3,4.9-0.9c1.4-0.6,2.6-1.5,3.5-2.7l-3.3-3.1c-0.7,0.8-1.3,1.3-2.3,1.9c-0.8,0.4-1.8,0.7-2.8,0.7
			c-1.8,0-3.1-0.5-4-1.5c-0.9-1-1.4-2.4-1.4-4.2V388C421.9,386.2,422.4,384.9,423.3,384z"/>
		<path class="st0" d="M448.8,378.1c-1.8,0-3.3,0.3-4.7,0.8c-1.4,0.6-2.5,1.4-3.5,2.4l3.3,2.3c0.7-0.5,1.5-0.9,2.4-1.2
			c0.8-0.3,1.8-0.4,2.7-0.4c1.4,0,2.6,0.4,3.5,1.3s1.2,2,1.2,3.5v1h-6.3c-2.6,0-4.6,0.6-5.8,1.7c-1.3,1.1-1.9,2.9-1.9,5.1
			c0,2.4,0.7,4.2,2.1,5.3c1.4,1.2,3.5,1.8,6.3,1.8c0.9,0,1.9-0.1,2.6-0.3c0.8-0.2,1.4-0.5,2-0.9c0.4-0.3,0.7-0.6,1-0.9v1.8h4.3
			v-14.8c0-2.7-0.8-4.8-2.4-6.3C454,378.9,451.8,378.1,448.8,378.1z M452.4,397.5c-0.8,0.3-2.1,0.6-3.9,0.6c-1.6,0-2.7-0.3-3.5-0.8
			c-0.8-0.6-1.2-1.4-1.2-2.6c0-1.1,0.3-1.9,0.8-2.4c0.6-0.5,1.4-0.8,2.6-0.8h6.3v4.3C453.6,396.6,453.2,397.2,452.4,397.5z"/>
		<path class="st0" d="M475.3,378.1c-1.3,0-2.6,0.3-3.7,1.1c-0.9,0.6-1.6,1.3-2.3,2.4v-3.1h-4.6v32.3h4.6v-12.3
			c0.5,0.9,1.2,1.7,2,2.3c1.1,0.7,2.3,1,3.7,1c2.5,0,4.5-0.8,5.9-2.4c1.3-1.6,2.1-3.9,2.1-6.8v-5c0-3-0.7-5.3-2-6.9
			C479.7,379,477.7,378.1,475.3,378.1z M478.5,392.6c0,1.7-0.4,3-1.3,3.9c-0.8,0.9-1.9,1.3-3.5,1.3c-0.9,0-1.8-0.2-2.4-0.6
			c-0.7-0.3-1.2-0.9-1.5-1.6c-0.3-0.7-0.5-1.5-0.5-2.5v-6.2c0-1,0.2-1.8,0.5-2.4c0.3-0.7,0.8-1.2,1.5-1.5c0.7-0.3,1.5-0.5,2.4-0.5
			c1.5,0,2.6,0.5,3.5,1.4c0.8,0.9,1.3,2.2,1.3,3.9V392.6z"/>
		<rect x="489.4" y="378.5" class="st0" width="4.6" height="22.9"/>
		<rect x="489.4" y="369.3" class="st0" width="4.6" height="4.6"/>
		<path class="st0" d="M511.4,378.1c-1.3,0-2.6,0.3-3.8,1.1c-0.9,0.6-1.7,1.4-2.3,2.4v-3.2h-4.6v23h4.6V387c0-1.4,0.4-2.5,1.2-3.3
			c0.8-0.8,1.9-1.2,3.5-1.2c1.5,0,2.7,0.4,3.5,1.3c0.8,0.8,1.3,2.1,1.3,3.8v13.8h4.6v-13.9c0-3-0.7-5.3-2-6.9
			C515.9,379,513.9,378.1,511.4,378.1z"/>
		<path class="st0" d="M539.2,381.4c-0.6-0.9-1.3-1.7-2.3-2.2c-1.1-0.7-2.4-1.1-3.7-1.1c-2.4,0-4.4,0.8-5.7,2.4s-2,4-2,6.9v5.1
			c0,3,0.7,5.2,2.1,6.9c1.3,1.6,3.4,2.4,5.9,2.4c1.6,0,3-0.4,4-1.3c0.8-0.7,1.4-1.3,1.9-2.1v3c0,1.8-0.5,3.1-1.4,4
			c-0.9,0.9-2.3,1.4-4,1.4c-0.9,0-1.8-0.3-2.6-0.7s-1.5-1.1-2.1-1.9l-3,2.8c0.8,1.2,1.8,2.1,3.2,2.7c1.3,0.7,2.9,0.9,4.6,0.9
			c3.1,0,5.6-0.8,7.3-2.6s2.6-4.2,2.6-7.4v-22.3h-4.6V381.4z M538.7,395.6c-0.3,0.7-0.8,1.3-1.5,1.6c-0.7,0.3-1.5,0.6-2.4,0.6
			c-1.5,0-2.6-0.4-3.5-1.3c-0.8-0.9-1.3-2.2-1.3-3.9v-5c0-1.7,0.4-3,1.3-3.9c0.8-0.9,1.9-1.4,3.5-1.4c0.9,0,1.8,0.2,2.4,0.5
			c0.7,0.3,1.2,0.9,1.5,1.6c0.3,0.7,0.5,1.5,0.5,2.5v6.2C539.2,394,539,394.8,538.7,395.6z"/>
		<path class="st0" d="M583.9,394.2c1.1-2.4,1.7-5.5,1.7-9h-4.3c0,3.1-0.5,5.7-1.4,7.7l-6.6-7c-1.2-1.3-2-2.5-2.7-3.9
			c-0.6-1.3-0.9-2.7-0.9-4c0-1.4,0.3-2.5,1.1-3.3c0.8-0.8,1.8-1.2,3-1.2c1.3,0,2.3,0.3,3,1.1c0.7,0.7,1.1,1.8,1.1,3v0.4h4.6v-0.4
			c0-2.7-0.8-4.8-2.3-6.3c-1.5-1.5-3.6-2.2-6.3-2.2c-2.8,0-4.9,0.8-6.4,2.3c-1.5,1.5-2.3,3.7-2.3,6.6c0,1.9,0.4,3.9,1.3,5.7
			c0.2,0.3,0.3,0.5,0.4,0.8c-1,0.4-1.9,1.1-2.7,1.9c-1.4,1.6-2.2,3.7-2.2,6.3c0,3,0.8,5.2,2.5,6.8c1.7,1.6,4,2.4,7,2.4
			c3,0,5.5-0.7,7.6-1.9c0.3-0.2,0.6-0.4,0.9-0.7l2.2,2.3h5.7l-5.1-5.4C583.4,395.4,583.7,394.8,583.9,394.2z M572.6,397.8
			c-1.9,0-3.5-0.4-4.6-1.3c-1.1-0.9-1.6-2.2-1.6-3.8c0-1.7,0.5-3,1.5-3.9c0.4-0.3,0.8-0.6,1.3-0.8c0.3,0.3,0.5,0.6,0.8,0.8l7.3,7.6
			C576,397.3,574.4,397.8,572.6,397.8z"/>
		<rect x="604.9" y="369.3" class="st0" width="4.6" height="32.1"/>
		<path class="st0" d="M627.4,378.1c-1.3,0-2.6,0.4-3.7,1.2c-0.9,0.6-1.7,1.4-2.3,2.4v-3.2h-4.6v23h4.6V387c0-1.4,0.4-2.5,1.2-3.3
			c0.8-0.8,1.9-1.2,3.3-1.2c0.8,0,1.5,0.1,2.1,0.3c0.6,0.3,1.1,0.6,1.5,1.1l3-4c-0.7-0.6-1.3-1-2.2-1.3S628.5,378.1,627.4,378.1z"/>
		<path class="st0" d="M646.8,378.1c-1.3,0-2.6,0.4-3.7,1.2c-0.9,0.6-1.7,1.4-2.3,2.4v-3.2h-4.6v23h4.6V387c0-1.4,0.4-2.5,1.2-3.3
			c0.8-0.8,1.9-1.2,3.3-1.2c0.8,0,1.5,0.1,2.1,0.3c0.6,0.3,1.1,0.6,1.5,1.1l3-4c-0.7-0.6-1.3-1-2.2-1.3
			C648.7,378.3,647.8,378.1,646.8,378.1z"/>
		<rect x="655.6" y="369.3" class="st0" width="4.6" height="4.6"/>
		<rect x="655.6" y="378.5" class="st0" width="4.6" height="22.9"/>
		<path class="st0" d="M680,381.4c-0.6-0.9-1.3-1.7-2.3-2.2c-1.1-0.7-2.4-1.1-3.7-1.1c-2.4,0-4.4,0.8-5.7,2.4s-2,4-2,6.9v5.1
			c0,3,0.7,5.2,2.1,6.9c1.3,1.6,3.4,2.4,5.9,2.4c1.6,0,3-0.4,4-1.3c0.8-0.7,1.4-1.3,1.9-2.1v3c0,1.8-0.5,3.1-1.4,4
			c-0.9,0.9-2.3,1.4-4,1.4c-0.9,0-1.8-0.3-2.6-0.7c-0.8-0.4-1.5-1.1-2.1-1.9l-3,2.8c0.8,1.2,1.8,2.1,3.2,2.7
			c1.3,0.7,2.9,0.9,4.6,0.9c3.1,0,5.6-0.8,7.3-2.6s2.6-4.2,2.6-7.4v-22.3H680V381.4z M679.5,395.6c-0.3,0.7-0.8,1.3-1.5,1.6
			c-0.7,0.3-1.5,0.6-2.4,0.6c-1.5,0-2.6-0.4-3.5-1.3c-0.8-0.9-1.3-2.2-1.3-3.9v-5c0-1.7,0.4-3,1.3-3.9c0.8-0.9,1.9-1.4,3.5-1.4
			c0.9,0,1.8,0.2,2.4,0.5c0.7,0.3,1.2,0.9,1.5,1.6c0.3,0.7,0.5,1.5,0.5,2.5v6.2C680,394,679.9,394.8,679.5,395.6z"/>
		<path class="st0" d="M699.6,378.1c-1.8,0-3.3,0.3-4.7,0.8c-1.4,0.6-2.5,1.4-3.5,2.4l3.3,2.3c0.7-0.5,1.5-0.9,2.4-1.2
			c0.8-0.3,1.8-0.4,2.7-0.4c1.4,0,2.6,0.4,3.5,1.3c0.8,0.8,1.2,2,1.2,3.5v1h-6.3c-2.6,0-4.6,0.6-5.8,1.7c-1.3,1.1-1.9,2.9-1.9,5.1
			c0,2.4,0.7,4.2,2.1,5.3c1.4,1.2,3.5,1.8,6.3,1.8c0.9,0,1.9-0.1,2.6-0.3c0.8-0.2,1.4-0.5,2-0.9c0.4-0.3,0.7-0.6,1-0.9v1.8h4.3
			v-14.8c0-2.7-0.8-4.8-2.4-6.3C704.7,378.9,702.5,378.1,699.6,378.1z M703.1,397.5c-0.8,0.3-2.1,0.6-3.9,0.6
			c-1.6,0-2.7-0.3-3.5-0.8c-0.8-0.6-1.2-1.4-1.2-2.6c0-1.1,0.3-1.9,0.8-2.4c0.6-0.5,1.4-0.8,2.6-0.8h6.3v4.3
			C704.4,396.6,704,397.2,703.1,397.5z"/>
		<path class="st0" d="M720.6,371.8h-4.6v6.7h-2.3v4h2.4v12.9c0,1.9,0.4,3.5,1.3,4.6c0.8,1,2.2,1.6,4.1,1.6h2.6v-4.3H722
			c-0.4,0-0.8-0.2-1-0.5c-0.3-0.3-0.3-0.8-0.3-1.3v-13h3.5v-4h-3.5V371.8z"/>
		<rect x="730.3" y="369.3" class="st0" width="4.6" height="4.6"/>
		<rect x="730.3" y="378.5" class="st0" width="4.6" height="22.9"/>
		<path class="st0" d="M750.5,378.1c-3,0-5.3,0.8-7,2.6c-1.7,1.7-2.4,4.1-2.4,7.3v3.7c0,3.2,0.8,5.7,2.4,7.3c1.7,1.8,4,2.6,7,2.6
			s5.3-0.8,7-2.6c1.7-1.8,2.4-4.2,2.4-7.3V388c0-3.1-0.8-5.6-2.4-7.3C755.9,379.1,753.5,378.1,750.5,378.1z M755.4,391.9
			c0,1.8-0.4,3.2-1.3,4.1c-0.8,1-2.1,1.5-3.6,1.5c-1.6,0-2.8-0.5-3.6-1.5c-0.8-1-1.3-2.4-1.3-4.1v-3.8c0-1.8,0.4-3.2,1.3-4.1
			c0.8-1,2.1-1.4,3.6-1.4c1.6,0,2.8,0.5,3.6,1.4c0.8,1,1.3,2.4,1.3,4.1V391.9z"/>
		<path class="st0" d="M782.8,380.6c-1.3-1.6-3.3-2.4-5.8-2.4c-1.3,0-2.6,0.3-3.8,1.1c-0.9,0.6-1.7,1.4-2.3,2.4v-3.2h-4.6v23h4.6
			V387c0-1.4,0.4-2.5,1.2-3.3c0.8-0.8,1.9-1.2,3.5-1.2c1.5,0,2.7,0.4,3.5,1.3c0.8,0.8,1.3,2.1,1.3,3.8v13.8h4.6v-13.9
			C784.9,384.6,784.1,382.3,782.8,380.6z"/>
	</g>
	<path class="st0" d="M295.1,14.3v202.2h489.7V14.3H295.1z M768.4,200.1H571.8c-6.8-35.4,9.9-52.8,10-53c0.3-0.3,0.3-0.6,0-0.8
		c-0.2-0.3-0.6-0.3-0.8-0.1c-18,12.7-23.5,33.6-25.2,45c-2.1-56.9,31.3-83.5,31.6-83.8c0.3-0.2,0.3-0.6,0.2-0.8
		c-0.2-0.3-0.6-0.3-0.8-0.2c-49.5,28.1-55.7,74.8-55.9,93.9l0,0c-5.4-62.2-21.6-95.3-33.8-112.2c-13.8-19-26.2-22.3-26.7-22.4
		c-0.3-0.1-0.6,0.1-0.7,0.3c-0.2,0.3-0.1,0.6,0.1,0.8c39.1,36.9,37.8,106.1,35.6,133.5H311.6V30.8h456.7V200.1z"/>
</g>
</svg>
