<?xml version="1.0" encoding="utf-8"?>
<!-- Generator: Adobe Illustrator 24.1.0, SVG Export Plug-In . SVG Version: 6.00 Build 0)  -->
<svg version="1.1" id="Layer_1" xmlns="http://www.w3.org/2000/svg" xmlns:xlink="http://www.w3.org/1999/xlink" x="0px" y="0px"
	 viewBox="0 0 1080 425.2" style="enable-background:new 0 0 1080 425.2;" xml:space="preserve">
<style type="text/css">
	.st0{fill:#242424;}
</style>
<g>
	<g>
		<path class="st0" d="M300.6,398.1v0.2c0,1.2-0.4,2.1-1.2,3c0.8,0.8,1.2,1.8,1.2,3v0.2c0,1.2-0.4,2.1-1.2,3s-1.8,1.2-3,1.2h-16.8
			h-0.1v-0.1v-14.6V394h0.1h16.8c1.2,0,2.1,0.4,3,1.2C300.2,396.1,300.6,397,300.6,398.1z M282.5,396.5v3.6h14
			c0.3,0,0.7-0.2,0.9-0.4c0.2-0.2,0.4-0.6,0.4-0.9v-1.1c0-0.3-0.2-0.7-0.4-0.9c-0.2-0.2-0.6-0.3-0.9-0.3L282.5,396.5L282.5,396.5z
			 M297.7,404.9v-1.1c0-0.3-0.2-0.7-0.4-0.9c-0.2-0.2-0.6-0.4-0.9-0.4h-14v3.6h14c0.3,0,0.7-0.1,0.9-0.3
			C297.5,405.5,297.7,405.3,297.7,404.9z"/>
		<path class="st0" d="M312.6,400h15.9h0.1v0.1v2.3v0.1h-0.1h-16v2.3c0,0.3,0.1,0.7,0.3,0.9c0.2,0.2,0.6,0.4,0.9,0.4h16.8h0.1v0.1
			v2.3v0.1h-0.1h-16.8c-1.2,0-2.1-0.4-3-1.2s-1.2-1.8-1.2-3V398c0-1.2,0.4-2.1,1.2-3s1.8-1.2,3-1.2h16.8h0.1v0.1v2.3v0.1h-0.1h-16.8
			c-0.3,0-0.7,0.2-0.9,0.4c-0.2,0.2-0.3,0.6-0.3,0.9L312.6,400L312.6,400L312.6,400z"/>
		<path class="st0" d="M360.9,406.2L360.9,406.2L360.9,406.2l0.1,2.4v0.1h-0.1h-16.8c-1.2,0-2.1-0.4-3-1.2s-1.2-1.8-1.2-3v-6.3
			c0-1.2,0.4-2.1,1.2-3s1.8-1.2,3-1.2h16.8h0.1v0.1v2.3v0.1h-0.1h-16.8c-0.3,0-0.7,0.2-0.9,0.4s-0.3,0.6-0.3,0.9v7.2
			c0,0.3,0.1,0.7,0.3,0.9c0.2,0.2,0.6,0.4,0.9,0.4L360.9,406.2L360.9,406.2z"/>
		<path class="st0" d="M383.6,395c0.8-0.7,1.6-1.2,2.7-1.2h5.9h0.1v0.1v14.6v0.1h-0.1h-2.7h-0.1v-0.1v-12.1H387
			c-0.3,0-0.7,0.1-0.9,0.3l-12,11.9h-0.1h-3.8c-0.1,0-0.1,0-0.1-0.1c0-0.1,0-0.1,0-0.2L383.6,395z"/>
		<path class="st0" d="M422.6,404.5c0,1.2-0.4,2.1-1.2,3c-0.8,0.8-1.8,1.2-3,1.2h-12.7c-1.2,0-2.1-0.4-3-1.2c-0.8-0.8-1.2-1.8-1.2-3
			V394v-0.1h0.1h2.7h0.1v0.1v10.9c0,0.3,0.2,0.7,0.4,0.9c0.2,0.2,0.6,0.3,0.9,0.3h12.7c0.3,0,0.7-0.1,0.9-0.3s0.4-0.6,0.4-0.9V394
			v-0.1h0.1h2.7h0.1v0.1V404.5z"/>
		<path class="st0" d="M434.5,398.8c0,0.3,0.1,0.7,0.3,0.9c0.2,0.2,0.6,0.3,0.9,0.3h12.7c1.2,0,2.1,0.4,3,1.2s1.2,1.8,1.2,3v0.2
			c0,1.2-0.4,2.1-1.2,3s-1.8,1.2-3,1.2h-16h-0.1v-0.1v-2.3v-0.1h0.1h16c0.3,0,0.7-0.2,0.9-0.4c0.2-0.2,0.3-0.6,0.3-0.9v-1.1
			c0-0.3-0.1-0.7-0.3-0.9c-0.2-0.2-0.6-0.4-0.9-0.4h-12.7c-1.2,0-2.1-0.4-3-1.2s-1.2-1.8-1.2-3V398c0-1.2,0.4-2.1,1.2-3
			s1.8-1.2,3-1.2h16h0.1v0.1v2.3v0.1h-0.1h-16c-0.3,0-0.7,0.2-0.9,0.3c-0.2,0.2-0.3,0.6-0.3,0.9V398.8z"/>
		<path class="st0" d="M464.7,400h16h0.1v0.1v2.3v0.1h-0.1h-16v2.3c0,0.3,0.1,0.7,0.3,0.9c0.2,0.2,0.6,0.4,0.9,0.4h16.8h0.1v0.1v2.3
			v0.1h-0.1h-16.8c-1.2,0-2.1-0.4-3-1.2c-0.8-0.8-1.2-1.8-1.2-3V398c0-1.2,0.4-2.1,1.2-3c0.8-0.8,1.8-1.2,3-1.2h16.8h0.1v0.1v2.3
			v0.1h-0.1h-16.8c-0.3,0-0.7,0.2-0.9,0.4c-0.2,0.2-0.3,0.6-0.3,0.9V400z"/>
		<path class="st0" d="M530.3,394C530.3,394,530.4,393.9,530.3,394c0.1-0.1,0.1-0.1,0.2-0.1h2.7h0.1v0.1v4.1c0,0.6-0.2,1.2-0.5,1.6
			c-0.3,0.5-0.7,0.8-1.3,1.1l-7.8,3.3v4.5v0.1h-0.1h-2.7h-0.1v-0.1v-4.5l-7.8-3.3c-0.6-0.2-1-0.6-1.3-1.1c-0.3-0.5-0.5-1.1-0.5-1.6
			V394v-0.1h0.1h2.7h0.1v0.1v3.5c0,0.5,0.2,0.9,0.8,1.2l7.3,3.1l7.3-3.1c0.5-0.2,0.7-0.7,0.7-1.2L530.3,394L530.3,394z"/>
		<path class="st0" d="M559.3,393.9c1.2,0,2.1,0.4,3,1.2s1.2,1.8,1.2,3v6.3c0,1.2-0.4,2.1-1.2,3s-1.8,1.2-3,1.2h-12.7
			c-1.2,0-2.1-0.4-3-1.2s-1.2-1.8-1.2-3v-6.3c0-1.2,0.4-2.1,1.2-3s1.8-1.2,3-1.2H559.3z M560.6,397.7c0-0.3-0.2-0.7-0.4-0.9
			c-0.2-0.2-0.6-0.4-0.9-0.4h-12.7c-0.3,0-0.7,0.2-0.9,0.4c-0.2,0.2-0.4,0.6-0.4,0.9v7.2c0,0.3,0.2,0.7,0.4,0.9
			c0.2,0.2,0.6,0.4,0.9,0.4h12.7c0.3,0,0.7-0.2,0.9-0.4c0.2-0.2,0.4-0.6,0.4-0.9V397.7z"/>
		<path class="st0" d="M593.7,404.5c0,1.2-0.4,2.1-1.2,3c-0.8,0.8-1.8,1.2-3,1.2h-12.7c-1.2,0-2.1-0.4-3-1.2c-0.8-0.8-1.2-1.8-1.2-3
			V394v-0.1h0.1h2.7h0.1v0.1v10.9c0,0.3,0.2,0.7,0.4,0.9c0.2,0.2,0.6,0.3,0.9,0.3h12.7c0.3,0,0.7-0.1,0.9-0.3s0.4-0.6,0.4-0.9V394
			v-0.1h0.1h2.7h0.1v0.1L593.7,404.5L593.7,404.5z"/>
		<path class="st0" d="M640.3,394L640.3,394L640.3,394l2.8-0.1h0.1v0.1v14.6v0.1h-0.1h-5.5l0,0c-1.2,0-2.1-0.5-2.7-1.4l-6.9-10.3
			c-0.2-0.4-0.7-0.6-1.1-0.6h-1.9v12.1v0.1h-0.1h-2.7l0,0v-0.1v-14.6v-0.1h0.1h5.5l0,0c1.2,0,2.1,0.5,2.7,1.5l6.9,10.2
			c0.2,0.4,0.7,0.6,1.1,0.6h1.9L640.3,394L640.3,394z"/>
		<path class="st0" d="M655.3,400h16h0.1v0.1v2.3v0.1h-0.1h-16v2.3c0,0.3,0.1,0.7,0.3,0.9c0.2,0.2,0.6,0.4,0.9,0.4h16.8h0.1v0.1v2.3
			v0.1h-0.1h-16.8c-1.2,0-2.1-0.4-3-1.2s-1.2-1.8-1.2-3V398c0-1.2,0.4-2.1,1.2-3s1.8-1.2,3-1.2h16.8h0.1v0.1v2.3v0.1h-0.1h-16.8
			c-0.3,0-0.7,0.2-0.9,0.4c-0.2,0.2-0.3,0.6-0.3,0.9V400z"/>
		<path class="st0" d="M685.5,400h16h0.1v0.1v2.3v0.1h-0.1h-16v2.3c0,0.3,0.1,0.7,0.3,0.9c0.2,0.2,0.6,0.4,0.9,0.4h16.8h0.1v0.1v2.3
			v0.1h-0.1h-16.8c-1.2,0-2.1-0.4-3-1.2s-1.2-1.8-1.2-3V398c0-1.2,0.4-2.1,1.2-3s1.8-1.2,3-1.2h16.8h0.1v0.1v2.3v0.1h-0.1h-16.8
			c-0.3,0-0.7,0.2-0.9,0.4c-0.2,0.2-0.3,0.6-0.3,0.9V400z"/>
		<path class="st0" d="M729.7,393.9c1.2,0,2.1,0.4,3,1.2s1.2,1.8,1.2,3v6.3c0,1.2-0.4,2.1-1.2,3s-1.8,1.2-3,1.2h-16.8h-0.1v-0.1V394
			v-0.1h0.1H729.7z M730.9,397.7c0-0.3-0.1-0.7-0.3-0.9c-0.2-0.2-0.6-0.4-0.9-0.4h-13.9v9.7h13.9c0.3,0,0.7-0.2,0.9-0.4
			s0.3-0.6,0.3-0.9V397.7z"/>
		<path class="st0" d="M765.2,408.6C765.2,408.6,765.2,408.7,765.2,408.6c-0.1,0.1-0.1,0.1-0.2,0.1h-2.7h-0.1v-0.1V394v-0.1h0.1h2.7
			h0.1v0.1L765.2,408.6L765.2,408.6z"/>
		<path class="st0" d="M774.3,394L774.3,394L774.3,394l21-0.1h0.1v0.1v2.3v0.1h-0.1h-9.1v12.1v0.1l0,0h-2.7h-0.1v-0.1v-12.1h-9h-0.1
			v-0.1L774.3,394L774.3,394z"/>
	</g>
	<g>
		<g>
			<rect x="505.5" y="216.9" class="st0" width="57.2" height="57.2"/>
		</g>
		<g>
			<path class="st0" d="M537.4,108.2h-68c-20.1-31.3-40.1-62.2-59-91.5h68c8.9,13.8,17.9,27.8,27,42
				C516.1,75.1,526.8,91.7,537.4,108.2z"/>
		</g>
		<g>
			<path class="st0" d="M669.9,16.7c-19.8,28.7-41.1,59.7-63,91.5c-11.9,17.2-23.8,34.6-35.9,52c-2.7,4-5.5,8-8.2,12v39h-57.2v-56.7
				c10.6-15.3,21.3-30.8,31.9-46.3c8.5-12.3,16.9-24.6,25.3-36.7c12.9-18.6,25.5-36.9,37.8-54.8L669.9,16.7L669.9,16.7z"/>
		</g>
	</g>
	<g>
		<g>
			<polygon class="st0" points="324.1,339.2 324.1,366.4 339.5,366.4 339.5,297.3 310,326.8 280.6,297.3 280.6,366.4 295.9,366.4 
				295.9,339.2 310,353.3 			"/>
		</g>
		<g>
			<path class="st0" d="M401.7,366.4v-65.1H349v65.1h15.3v-24.9h21.9v24.9H401.7z M364.3,326.1v-9.5h21.9v9.5H364.3z"/>
		</g>
		<g>
			<path class="st0" d="M463.9,356.2l-14.8-14.8h14.8v-40.2h-52.7v65.1h15.3v-27.2l37.4,37.4V356.2z M448.5,326.1h-21.9v-9.5h21.9
				V326.1z"/>
		</g>
		<g>
			<polygon class="st0" points="526.1,356.2 511.4,341.5 526.1,341.5 526.1,301.2 510.8,301.2 510.8,326.1 488.8,326.1 488.8,301.2 
				473.4,301.2 473.4,366.4 488.8,366.4 488.8,345.3 526.1,382.7 			"/>
		</g>
		<g>
			<polygon class="st0" points="588.3,316.6 588.3,301.2 535.5,301.2 535.5,366.4 588.3,366.4 588.3,350.9 551,350.9 551,341.5 
				588.3,341.5 588.3,326.1 551,326.1 551,316.6 			"/>
		</g>
		<g>
			<polygon class="st0" points="650.6,301.2 597.8,301.2 597.8,316.6 616.5,316.6 616.5,366.4 631.9,366.4 631.9,316.6 650.6,316.6 
							"/>
		</g>
		<g>
			<rect x="660.1" y="301.2" class="st0" width="15.3" height="65.1"/>
		</g>
		<g>
			<polygon class="st0" points="737.6,301.2 722.3,301.2 722.3,328.4 685,291.1 685,366.4 700.3,366.4 700.3,339.2 737.6,376.4 			
				"/>
		</g>
		<g>
			<polygon class="st0" points="799.8,316.6 799.8,301.2 747.1,301.2 747.1,366.4 799.8,366.4 799.8,326.1 772,326.1 772,341.5 
				784.5,341.5 784.5,350.9 762.6,350.9 762.6,316.6 			"/>
		</g>
	</g>
</g>
</svg>
