<?xml version="1.0" encoding="utf-8"?>
<!-- Generator: Adobe Illustrator 24.1.0, SVG Export Plug-In . SVG Version: 6.00 Build 0)  -->
<svg version="1.1" id="Layer_1" xmlns="http://www.w3.org/2000/svg" xmlns:xlink="http://www.w3.org/1999/xlink" x="0px" y="0px"
	 viewBox="0 0 1080 425.2" style="enable-background:new 0 0 1080 425.2;" xml:space="preserve">
<style type="text/css">
	.st0{fill:#FECF08;}
</style>
<g>
	<g>
		<path class="st0" d="M300.9,398v0.2c0,1.2-0.4,2.1-1.2,3c0.8,0.8,1.2,1.8,1.2,3v0.2c0,1.2-0.4,2.1-1.2,3s-1.8,1.2-3,1.2h-16.8
			h-0.1v-0.1v-14.6v-0.1h0.1h16.8c1.2,0,2.1,0.4,3,1.2S300.9,396.8,300.9,398z M282.8,396.3v3.6h14c0.3,0,0.7-0.2,0.9-0.4
			c0.2-0.2,0.4-0.6,0.4-0.9v-1.1c0-0.3-0.2-0.7-0.4-0.9c-0.2-0.2-0.6-0.3-0.9-0.3L282.8,396.3L282.8,396.3z M298,404.7v-1.1
			c0-0.3-0.2-0.7-0.4-0.9c-0.2-0.2-0.6-0.4-0.9-0.4h-14v3.6h14c0.3,0,0.7-0.1,0.9-0.3C297.9,405.4,298,405.2,298,404.7z"/>
		<path class="st0" d="M313,399.9h15.9h0.1v0.1v2.3v0.1h-0.1h-16v2.3c0,0.3,0.1,0.7,0.3,0.9c0.2,0.2,0.6,0.4,0.9,0.4H331h0.1v0.1
			v2.3v0.1H331h-16.8c-1.2,0-2.1-0.4-3-1.2s-1.2-1.8-1.2-3v-6.3c0-1.2,0.4-2.1,1.2-3s1.8-1.2,3-1.2H331h0.1v0.1v2.3v0.1H331h-16.8
			c-0.3,0-0.7,0.2-0.9,0.4c-0.2,0.2-0.3,0.6-0.3,0.9L313,399.9L313,399.9L313,399.9z"/>
		<path class="st0" d="M361.2,406.1L361.2,406.1L361.2,406.1l0.1,2.4v0.1h-0.1h-16.8c-1.2,0-2.1-0.4-3-1.2s-1.2-1.8-1.2-3V398
			c0-1.2,0.4-2.1,1.2-3s1.8-1.2,3-1.2h16.8h0.1v0.1v2.3v0.1h-0.1h-16.8c-0.3,0-0.7,0.2-0.9,0.4s-0.3,0.6-0.3,0.9v7.2
			c0,0.3,0.1,0.7,0.3,0.9s0.6,0.4,0.9,0.4L361.2,406.1L361.2,406.1z"/>
		<path class="st0" d="M384,394.8c0.8-0.7,1.6-1.2,2.7-1.2h5.9h0.1v0.1v14.6v0.1h-0.1h-2.7h-0.1v-0.1v-12.1h-2.5
			c-0.3,0-0.7,0.1-0.9,0.3l-12,11.9h-0.1h-3.8c-0.1,0-0.1,0-0.1-0.1c0-0.1,0-0.1,0-0.2L384,394.8z"/>
		<path class="st0" d="M422.9,404.3c0,1.2-0.4,2.1-1.2,3s-1.8,1.2-3,1.2H406c-1.2,0-2.1-0.4-3-1.2s-1.2-1.8-1.2-3v-10.5v-0.1h0.1
			h2.7h0.1v0.1v10.9c0,0.3,0.2,0.7,0.4,0.9c0.2,0.2,0.6,0.3,0.9,0.3h12.7c0.3,0,0.7-0.1,0.9-0.3c0.2-0.2,0.4-0.6,0.4-0.9v-10.9v-0.1
			h0.1h2.7h0.1v0.1V404.3z"/>
		<path class="st0" d="M434.9,398.6c0,0.3,0.1,0.7,0.3,0.9c0.2,0.2,0.6,0.3,0.9,0.3h12.7c1.2,0,2.1,0.4,3,1.2s1.2,1.8,1.2,3v0.2
			c0,1.2-0.4,2.1-1.2,3s-1.8,1.2-3,1.2h-16h-0.1v-0.1v-2.3v-0.1h0.1h16c0.3,0,0.7-0.2,0.9-0.4c0.2-0.2,0.3-0.6,0.3-0.9v-1.1
			c0-0.3-0.1-0.7-0.3-0.9c-0.2-0.2-0.6-0.4-0.9-0.4h-12.7c-1.2,0-2.1-0.4-3-1.2c-0.8-0.8-1.2-1.8-1.2-3v-0.2c0-1.2,0.4-2.1,1.2-3
			s1.8-1.2,3-1.2h16h0.1v0.1v2.3v0.1h-0.1h-16c-0.3,0-0.7,0.2-0.9,0.3c-0.2,0.2-0.3,0.6-0.3,0.9V398.6z"/>
		<path class="st0" d="M465,399.9h16h0.1v0.1v2.3v0.1H481h-16v2.3c0,0.3,0.1,0.7,0.3,0.9c0.2,0.2,0.6,0.4,0.9,0.4h16.8h0.1v0.1v2.3
			v0.1h-0.1h-16.8c-1.2,0-2.1-0.4-3-1.2s-1.2-1.8-1.2-3v-6.3c0-1.2,0.4-2.1,1.2-3s1.8-1.2,3-1.2h16.8h0.1v0.1v2.3v0.1h-0.1h-16.8
			c-0.3,0-0.7,0.2-0.9,0.4c-0.2,0.2-0.3,0.6-0.3,0.9V399.9z"/>
		<path class="st0" d="M530.7,393.9C530.7,393.9,530.8,393.8,530.7,393.9c0.1-0.1,0.1-0.1,0.2-0.1h2.7h0.1v0.1v4.1
			c0,0.6-0.2,1.2-0.5,1.6c-0.3,0.5-0.7,0.8-1.3,1.1l-7.8,3.3v4.5v0.1H524h-2.7h-0.1v-0.1V404l-7.8-3.3c-0.6-0.2-1-0.6-1.3-1.1
			c-0.3-0.5-0.5-1.1-0.5-1.6v-4.1v-0.1h0.1h2.7h0.1v0.1v3.5c0,0.5,0.2,0.9,0.8,1.2l7.3,3.1l7.3-3.1c0.5-0.2,0.7-0.7,0.7-1.2
			L530.7,393.9L530.7,393.9z"/>
		<path class="st0" d="M559.6,393.8c1.2,0,2.1,0.4,3,1.2s1.2,1.8,1.2,3v6.3c0,1.2-0.4,2.1-1.2,3s-1.8,1.2-3,1.2h-12.7
			c-1.2,0-2.1-0.4-3-1.2c-0.8-0.8-1.2-1.8-1.2-3V398c0-1.2,0.4-2.1,1.2-3c0.8-0.8,1.8-1.2,3-1.2H559.6z M560.9,397.6
			c0-0.3-0.2-0.7-0.4-0.9c-0.2-0.2-0.6-0.4-0.9-0.4h-12.7c-0.3,0-0.7,0.2-0.9,0.4c-0.2,0.2-0.4,0.6-0.4,0.9v7.2
			c0,0.3,0.2,0.7,0.4,0.9c0.2,0.2,0.6,0.4,0.9,0.4h12.7c0.3,0,0.7-0.2,0.9-0.4c0.2-0.2,0.4-0.6,0.4-0.9V397.6z"/>
		<path class="st0" d="M594,404.3c0,1.2-0.4,2.1-1.2,3s-1.8,1.2-3,1.2h-12.7c-1.2,0-2.1-0.4-3-1.2c-0.8-0.8-1.2-1.8-1.2-3v-10.5
			v-0.1h0.1h2.7h0.1v0.1v10.9c0,0.3,0.2,0.7,0.4,0.9c0.2,0.2,0.6,0.3,0.9,0.3h12.7c0.3,0,0.7-0.1,0.9-0.3c0.2-0.2,0.4-0.6,0.4-0.9
			v-10.9v-0.1h0.1h2.7h0.1v0.1L594,404.3L594,404.3z"/>
		<path class="st0" d="M640.6,393.9L640.6,393.9L640.6,393.9l2.8-0.1h0.1v0.1v14.6v0.1h-0.1h-5.5l0,0c-1.2,0-2.1-0.5-2.7-1.4
			l-6.9-10.3c-0.2-0.4-0.7-0.6-1.1-0.6h-1.9v12.1v0.1h-0.1h-2.7l0,0v-0.1v-14.6v-0.1h0.1h5.5l0,0c1.2,0,2.1,0.5,2.7,1.5l6.9,10.2
			c0.2,0.4,0.7,0.6,1.1,0.6h1.9L640.6,393.9L640.6,393.9z"/>
		<path class="st0" d="M655.6,399.9h16h0.1v0.1v2.3v0.1h-0.1h-16v2.3c0,0.3,0.1,0.7,0.3,0.9c0.2,0.2,0.6,0.4,0.9,0.4h16.8h0.1v0.1
			v2.3v0.1h-0.1h-16.8c-1.2,0-2.1-0.4-3-1.2s-1.2-1.8-1.2-3v-6.3c0-1.2,0.4-2.1,1.2-3s1.8-1.2,3-1.2h16.8h0.1v0.1v2.3v0.1h-0.1
			h-16.8c-0.3,0-0.7,0.2-0.9,0.4s-0.3,0.6-0.3,0.9V399.9z"/>
		<path class="st0" d="M685.8,399.9h16h0.1v0.1v2.3v0.1h-0.1h-16v2.3c0,0.3,0.1,0.7,0.3,0.9c0.2,0.2,0.6,0.4,0.9,0.4h16.8h0.1v0.1
			v2.3v0.1h-0.1H687c-1.2,0-2.1-0.4-3-1.2s-1.2-1.8-1.2-3v-6.3c0-1.2,0.4-2.1,1.2-3s1.8-1.2,3-1.2h16.8h0.1v0.1v2.3v0.1h-0.1H687
			c-0.3,0-0.7,0.2-0.9,0.4s-0.3,0.6-0.3,0.9V399.9z"/>
		<path class="st0" d="M730,393.8c1.2,0,2.1,0.4,3,1.2s1.2,1.8,1.2,3v6.3c0,1.2-0.4,2.1-1.2,3s-1.8,1.2-3,1.2h-16.8h-0.1v-0.1v-14.6
			v-0.1h0.1H730z M731.2,397.6c0-0.3-0.1-0.7-0.3-0.9c-0.2-0.2-0.6-0.4-0.9-0.4h-13.9v9.7H730c0.3,0,0.7-0.2,0.9-0.4
			c0.2-0.2,0.3-0.6,0.3-0.9V397.6z"/>
		<path class="st0" d="M765.5,408.5C765.5,408.5,765.5,408.5,765.5,408.5c-0.1,0.1-0.1,0.1-0.2,0.1h-2.7h-0.1v-0.1v-14.6v-0.1h0.1
			h2.7h0.1v0.1L765.5,408.5L765.5,408.5z"/>
		<path class="st0" d="M774.6,393.9L774.6,393.9L774.6,393.9l21-0.1h0.1v0.1v2.3v0.1h-0.1h-9.1v12.1v0.1l0,0h-2.7h-0.1v-0.1v-12.1
			h-9h-0.1v-0.1L774.6,393.9L774.6,393.9z"/>
	</g>
	<g>
		<g>
			<rect x="505.9" y="216.7" class="st0" width="57.2" height="57.2"/>
		</g>
		<g>
			<path class="st0" d="M537.8,108h-68c-20.1-31.3-40.1-62.2-59-91.5h68c8.9,13.8,17.9,27.8,27,42C516.4,75,527.1,91.5,537.8,108z"
				/>
		</g>
		<g>
			<path class="st0" d="M670.2,16.6c-19.8,28.7-41.1,59.7-63,91.5c-11.9,17.2-23.8,34.6-35.9,52c-2.7,4-5.5,8-8.2,12v39h-57.2v-56.7
				c10.6-15.3,21.3-30.8,31.9-46.3c8.5-12.3,16.9-24.6,25.3-36.7c12.9-18.6,25.5-36.9,37.8-54.8L670.2,16.6L670.2,16.6z"/>
		</g>
	</g>
	<g>
		<g>
			<polygon class="st0" points="324.4,339 324.4,366.2 339.9,366.2 339.9,297.2 310.3,326.6 280.9,297.2 280.9,366.2 296.2,366.2 
				296.2,339 310.3,353.1 			"/>
		</g>
		<g>
			<path class="st0" d="M402,366.2v-65.1h-52.7v65.1h15.3v-24.9h21.9v24.9H402z M364.7,326v-9.5h21.9v9.5H364.7z"/>
		</g>
		<g>
			<path class="st0" d="M464.2,356.1l-14.8-14.8h14.8v-40.2h-52.7v65.1h15.3V339l37.4,37.4V356.1z M448.9,326h-21.9v-9.5h21.9V326z"
				/>
		</g>
		<g>
			<polygon class="st0" points="526.4,356.1 511.7,341.3 526.4,341.3 526.4,301.1 511.1,301.1 511.1,326 489.1,326 489.1,301.1 
				473.8,301.1 473.8,366.2 489.1,366.2 489.1,345.2 526.4,382.6 			"/>
		</g>
		<g>
			<polygon class="st0" points="588.7,316.4 588.7,301.1 535.9,301.1 535.9,366.2 588.7,366.2 588.7,350.8 551.4,350.8 551.4,341.3 
				588.7,341.3 588.7,326 551.4,326 551.4,316.4 			"/>
		</g>
		<g>
			<polygon class="st0" points="650.9,301.1 598.1,301.1 598.1,316.4 616.9,316.4 616.9,366.2 632.2,366.2 632.2,316.4 650.9,316.4 
							"/>
		</g>
		<g>
			<rect x="660.4" y="301.1" class="st0" width="15.3" height="65.1"/>
		</g>
		<g>
			<polygon class="st0" points="737.9,301.1 722.7,301.1 722.7,328.3 685.3,290.9 685.3,366.2 700.6,366.2 700.6,339 737.9,376.3 
							"/>
		</g>
		<g>
			<polygon class="st0" points="800.2,316.4 800.2,301.1 747.4,301.1 747.4,366.2 800.2,366.2 800.2,326 772.4,326 772.4,341.3 
				784.8,341.3 784.8,350.8 762.9,350.8 762.9,316.4 			"/>
		</g>
	</g>
</g>
</svg>
