<?xml version="1.0" encoding="utf-8"?>
<!-- Generator: Adobe Illustrator 24.1.0, SVG Export Plug-In . SVG Version: 6.00 Build 0)  -->
<svg version="1.1" id="Layer_1" xmlns="http://www.w3.org/2000/svg" xmlns:xlink="http://www.w3.org/1999/xlink" x="0px" y="0px"
	 viewBox="0 0 1080 1080" style="enable-background:new 0 0 1080 1080;" xml:space="preserve">
<style type="text/css">
	.st0{fill:#252424;}
</style>
<g>
	<g>
		<path class="st0" d="M250.2,764.8v0.3c0,1.4-0.5,2.6-1.5,3.6c1,1,1.5,2.2,1.5,3.6v0.3c0,1.4-0.5,2.6-1.5,3.6c-1,1-2.2,1.5-3.6,1.5
			h-20.4c0,0-0.1,0-0.1,0s0-0.1,0-0.1v-17.7c0,0,0-0.1,0-0.1c0,0,0.1,0,0.1,0H245c1.4,0,2.6,0.5,3.6,1.5S250.2,763.4,250.2,764.8z
			 M228.1,762.8v4.4h17c0.4,0,0.8-0.2,1.1-0.5s0.5-0.7,0.5-1.1v-1.3c0-0.4-0.2-0.8-0.5-1.1s-0.7-0.4-1.1-0.4H228.1z M246.6,773v-1.3
			c0-0.4-0.2-0.8-0.5-1.1s-0.7-0.5-1.1-0.5h-17v4.4h17c0.4,0,0.8-0.1,1.1-0.4S246.6,773.5,246.6,773z"/>
		<path class="st0" d="M264.7,767.1H284c0,0,0.1,0,0.1,0c0,0,0,0.1,0,0.1v2.8c0,0,0,0.1,0,0.1c0,0-0.1,0-0.1,0h-19.4v2.8
			c0,0.4,0.1,0.8,0.4,1.1c0.3,0.3,0.7,0.5,1.1,0.5h20.4c0,0,0.1,0,0.1,0c0,0,0,0.1,0,0.1v2.8c0,0,0,0.1,0,0.1c0,0-0.1,0-0.1,0h-20.4
			c-1.4,0-2.6-0.5-3.6-1.5c-1-1-1.5-2.2-1.5-3.6v-7.7c0-1.4,0.5-2.6,1.5-3.6c1-1,2.2-1.5,3.6-1.5h20.4c0,0,0.1,0,0.1,0
			c0,0,0,0.1,0,0.1v2.8c0,0,0,0.1,0,0.1c0,0-0.1,0-0.1,0h-20.4c-0.4,0-0.8,0.2-1.1,0.5s-0.4,0.7-0.4,1.1V767.1z"/>
		<path class="st0" d="M323.2,774.6c0,0,0.1,0,0.1,0c0,0,0,0.1,0,0.1v2.8c0,0,0,0.1,0,0.1c0,0-0.1,0-0.1,0h-20.4
			c-1.4,0-2.6-0.5-3.6-1.5c-1-1-1.5-2.2-1.5-3.6v-7.7c0-1.4,0.5-2.6,1.5-3.6c1-1,2.2-1.5,3.6-1.5h20.4c0,0,0.1,0,0.1,0
			c0,0,0,0.1,0,0.1v2.8c0,0,0,0.1,0,0.1c0,0-0.1,0-0.1,0h-20.4c-0.4,0-0.8,0.2-1.1,0.5s-0.4,0.7-0.4,1.1v8.7c0,0.4,0.1,0.8,0.4,1.1
			c0.3,0.3,0.7,0.5,1.1,0.5H323.2z"/>
		<path class="st0" d="M350.8,761c1-0.9,2-1.4,3.3-1.4h7.2c0,0,0.1,0,0.1,0c0,0,0,0.1,0,0.1v17.7c0,0,0,0.1,0,0.1c0,0-0.1,0-0.1,0
			h-3.3c0,0-0.1,0-0.1,0c0,0,0-0.1,0-0.1v-14.7h-3c-0.4,0-0.8,0.1-1.1,0.4l-14.5,14.4c0,0-0.1,0-0.1,0h-4.6c-0.1,0-0.1,0-0.1-0.1
			c0-0.1,0-0.1,0-0.2L350.8,761z"/>
		<path class="st0" d="M398,772.5c0,1.4-0.5,2.6-1.5,3.6c-1,1-2.2,1.5-3.6,1.5h-15.4c-1.4,0-2.6-0.5-3.6-1.5c-1-1-1.5-2.2-1.5-3.6
			v-12.7c0,0,0-0.1,0-0.1c0,0,0.1,0,0.1,0h3.3c0,0,0.1,0,0.1,0c0,0,0,0.1,0,0.1V773c0,0.4,0.2,0.8,0.5,1.1c0.3,0.3,0.7,0.4,1.1,0.4
			h15.4c0.4,0,0.8-0.1,1.1-0.4s0.5-0.7,0.5-1.1v-13.2c0,0,0-0.1,0-0.1c0,0,0.1,0,0.1,0h3.3c0,0,0.1,0,0.1,0c0,0,0,0.1,0,0.1V772.5z"
			/>
		<path class="st0" d="M412.5,765.6c0,0.4,0.1,0.8,0.4,1.1s0.7,0.4,1.1,0.4h15.4c1.4,0,2.6,0.5,3.6,1.5s1.5,2.2,1.5,3.6v0.3
			c0,1.4-0.5,2.6-1.5,3.6s-2.2,1.5-3.6,1.5h-19.4c0,0-0.1,0-0.1,0c0,0,0-0.1,0-0.1v-2.8c0,0,0-0.1,0-0.1c0,0,0.1,0,0.1,0h19.4
			c0.4,0,0.8-0.2,1.1-0.5c0.3-0.3,0.4-0.7,0.4-1.1v-1.3c0-0.4-0.1-0.8-0.4-1.1s-0.7-0.5-1.1-0.5H414c-1.4,0-2.6-0.5-3.6-1.5
			c-1-1-1.5-2.2-1.5-3.6v-0.3c0-1.4,0.5-2.6,1.5-3.6c1-1,2.2-1.5,3.6-1.5h19.4c0,0,0.1,0,0.1,0c0,0,0,0.1,0,0.1v2.8c0,0,0,0.1,0,0.1
			c0,0-0.1,0-0.1,0H414c-0.4,0-0.8,0.2-1.1,0.4c-0.3,0.3-0.4,0.7-0.4,1.1V765.6z"/>
		<path class="st0" d="M449.1,767.1h19.4c0,0,0.1,0,0.1,0c0,0,0,0.1,0,0.1v2.8c0,0,0,0.1,0,0.1c0,0-0.1,0-0.1,0h-19.4v2.8
			c0,0.4,0.1,0.8,0.4,1.1c0.3,0.3,0.7,0.5,1.1,0.5H471c0,0,0.1,0,0.1,0c0,0,0,0.1,0,0.1v2.8c0,0,0,0.1,0,0.1c0,0-0.1,0-0.1,0h-20.4
			c-1.4,0-2.6-0.5-3.6-1.5c-1-1-1.5-2.2-1.5-3.6v-7.7c0-1.4,0.5-2.6,1.5-3.6c1-1,2.2-1.5,3.6-1.5H471c0,0,0.1,0,0.1,0
			c0,0,0,0.1,0,0.1v2.8c0,0,0,0.1,0,0.1c0,0-0.1,0-0.1,0h-20.4c-0.4,0-0.8,0.2-1.1,0.5s-0.4,0.7-0.4,1.1V767.1z"/>
		<path class="st0" d="M528.7,759.8C528.7,759.8,528.8,759.7,528.7,759.8c0.1-0.1,0.1-0.1,0.2-0.1h3.3c0,0,0.1,0,0.1,0
			c0,0,0,0.1,0,0.1v5c0,0.7-0.2,1.4-0.6,2c-0.4,0.6-0.9,1-1.6,1.3l-9.4,4v5.4c0,0,0,0.1,0,0.1c0,0-0.1,0-0.1,0h-3.3c0,0-0.1,0-0.1,0
			c0,0,0-0.1,0-0.1v-5.4l-9.4-4c-0.7-0.3-1.2-0.7-1.6-1.3c-0.4-0.6-0.6-1.3-0.6-2v-5c0,0,0-0.1,0-0.1c0,0,0.1,0,0.1,0h3.3
			c0,0,0.1,0,0.1,0c0,0,0,0.1,0,0.1v4.3c0,0.6,0.3,1.1,1,1.4l8.8,3.7l8.8-3.7c0.6-0.3,0.9-0.8,0.9-1.4V759.8z"/>
		<path class="st0" d="M563.8,759.7c1.4,0,2.6,0.5,3.6,1.5s1.5,2.2,1.5,3.6v7.7c0,1.4-0.5,2.6-1.5,3.6c-1,1-2.2,1.5-3.6,1.5h-15.4
			c-1.4,0-2.6-0.5-3.6-1.5c-1-1-1.5-2.2-1.5-3.6v-7.7c0-1.4,0.5-2.6,1.5-3.6s2.2-1.5,3.6-1.5H563.8z M565.4,764.3
			c0-0.4-0.2-0.8-0.5-1.1s-0.7-0.5-1.1-0.5h-15.4c-0.4,0-0.8,0.2-1.1,0.5c-0.3,0.3-0.5,0.7-0.5,1.1v8.7c0,0.4,0.2,0.8,0.5,1.1
			c0.3,0.3,0.7,0.5,1.1,0.5h15.4c0.4,0,0.8-0.2,1.1-0.5c0.3-0.3,0.5-0.7,0.5-1.1V764.3z"/>
		<path class="st0" d="M605.6,772.5c0,1.4-0.5,2.6-1.5,3.6c-1,1-2.2,1.5-3.6,1.5H585c-1.4,0-2.6-0.5-3.6-1.5c-1-1-1.5-2.2-1.5-3.6
			v-12.7c0,0,0-0.1,0-0.1c0,0,0.1,0,0.1,0h3.3c0,0,0.1,0,0.1,0c0,0,0,0.1,0,0.1V773c0,0.4,0.2,0.8,0.5,1.1c0.3,0.3,0.7,0.4,1.1,0.4
			h15.4c0.4,0,0.8-0.1,1.1-0.4s0.5-0.7,0.5-1.1v-13.2c0,0,0-0.1,0-0.1c0,0,0.1,0,0.1,0h3.3c0,0,0.1,0,0.1,0c0,0,0,0.1,0,0.1V772.5z"
			/>
		<path class="st0" d="M662.1,759.8c0,0,0-0.1,0-0.1c0,0,0.1,0,0.1,0h3.3c0,0,0.1,0,0.1,0c0,0,0,0.1,0,0.1v17.7c0,0,0,0.1,0,0.1
			c0,0-0.1,0-0.1,0h-6.7h0c-1.4,0-2.5-0.6-3.3-1.7l-8.4-12.5c-0.3-0.5-0.8-0.7-1.3-0.7h-2.3v14.7c0,0,0,0.1,0,0.1c0,0-0.1,0-0.1,0
			h-3.3c0,0-0.1,0-0.1,0s0-0.1,0-0.1v-17.7c0,0,0-0.1,0-0.1c0,0,0.1,0,0.1,0h6.7h0c1.4,0,2.5,0.6,3.3,1.8l8.4,12.4
			c0.3,0.5,0.8,0.7,1.3,0.7h2.3V759.8z"/>
		<path class="st0" d="M680.2,767.1h19.4c0,0,0.1,0,0.1,0c0,0,0,0.1,0,0.1v2.8c0,0,0,0.1,0,0.1c0,0-0.1,0-0.1,0h-19.4v2.8
			c0,0.4,0.1,0.8,0.4,1.1c0.3,0.3,0.7,0.5,1.1,0.5h20.4c0,0,0.1,0,0.1,0c0,0,0,0.1,0,0.1v2.8c0,0,0,0.1,0,0.1c0,0-0.1,0-0.1,0h-20.4
			c-1.4,0-2.6-0.5-3.6-1.5c-1-1-1.5-2.2-1.5-3.6v-7.7c0-1.4,0.5-2.6,1.5-3.6c1-1,2.2-1.5,3.6-1.5h20.4c0,0,0.1,0,0.1,0
			c0,0,0,0.1,0,0.1v2.8c0,0,0,0.1,0,0.1c0,0-0.1,0-0.1,0h-20.4c-0.4,0-0.8,0.2-1.1,0.5s-0.4,0.7-0.4,1.1V767.1z"/>
		<path class="st0" d="M716.8,767.1h19.4c0,0,0.1,0,0.1,0c0,0,0,0.1,0,0.1v2.8c0,0,0,0.1,0,0.1c0,0-0.1,0-0.1,0h-19.4v2.8
			c0,0.4,0.1,0.8,0.4,1.1c0.3,0.3,0.7,0.5,1.1,0.5h20.4c0,0,0.1,0,0.1,0c0,0,0,0.1,0,0.1v2.8c0,0,0,0.1,0,0.1c0,0-0.1,0-0.1,0h-20.4
			c-1.4,0-2.6-0.5-3.6-1.5c-1-1-1.5-2.2-1.5-3.6v-7.7c0-1.4,0.5-2.6,1.5-3.6c1-1,2.2-1.5,3.6-1.5h20.4c0,0,0.1,0,0.1,0
			c0,0,0,0.1,0,0.1v2.8c0,0,0,0.1,0,0.1c0,0-0.1,0-0.1,0h-20.4c-0.4,0-0.8,0.2-1.1,0.5s-0.4,0.7-0.4,1.1V767.1z"/>
		<path class="st0" d="M770.4,759.7c1.4,0,2.6,0.5,3.6,1.5s1.5,2.2,1.5,3.6v7.7c0,1.4-0.5,2.6-1.5,3.6c-1,1-2.2,1.5-3.6,1.5H750
			c0,0-0.1,0-0.1,0s0-0.1,0-0.1v-17.7c0,0,0-0.1,0-0.1c0,0,0.1,0,0.1,0H770.4z M771.9,764.3c0-0.4-0.1-0.8-0.4-1.1s-0.7-0.5-1.1-0.5
			h-16.9v11.8h16.9c0.4,0,0.8-0.2,1.1-0.5c0.3-0.3,0.4-0.7,0.4-1.1V764.3z"/>
		<path class="st0" d="M813.5,777.5C813.5,777.5,813.5,777.6,813.5,777.5c-0.1,0.1-0.1,0.1-0.2,0.1h-3.3c0,0-0.1,0-0.1,0
			s0-0.1,0-0.1v-17.7c0,0,0-0.1,0-0.1c0,0,0.1,0,0.1,0h3.3c0,0,0.1,0,0.1,0c0,0,0,0.1,0,0.1V777.5z"/>
		<path class="st0" d="M824.5,759.8c0,0,0-0.1,0-0.1c0,0,0.1,0,0.1,0H850c0,0,0.1,0,0.1,0c0,0,0,0.1,0,0.1v2.8c0,0,0,0.1,0,0.1
			c0,0-0.1,0-0.1,0h-10.9v14.7c0,0,0,0.1,0,0.1c0,0-0.1,0-0.1,0h-3.3c0,0-0.1,0-0.1,0c0,0,0-0.1,0-0.1v-14.7h-10.9c0,0-0.1,0-0.1,0
			c0,0,0-0.1,0-0.1V759.8z"/>
	</g>
	<g>
		<g>
			<rect x="498.6" y="545" class="st0" width="69.4" height="69.4"/>
		</g>
		<g>
			<path class="st0" d="M537.3,413.2h-82.4c-24.4-37.9-48.6-75.4-71.5-110.9h82.4c10.8,16.7,21.7,33.7,32.8,50.9
				C511.4,373.1,524.4,393.2,537.3,413.2z"/>
		</g>
		<g>
			<path class="st0" d="M697.9,302.3c-24,34.8-49.9,72.4-76.4,110.9c-14.4,20.9-28.9,42-43.5,63.1c-3.3,4.8-6.7,9.7-10,14.5v47.3
				h-69.4v-68.7c12.8-18.6,25.8-37.4,38.7-56.2c10.3-14.9,20.5-29.8,30.7-44.5c15.6-22.6,30.9-44.8,45.8-66.4H697.9z"/>
		</g>
	</g>
	<g>
		<g>
			<polygon class="st0" points="278.6,693.3 278.6,726.3 297.3,726.3 297.3,642.6 261.5,678.3 225.8,642.6 225.8,726.3 244.4,726.3 
				244.4,693.3 261.5,710.4 			"/>
		</g>
		<g>
			<path class="st0" d="M372.7,726.3v-79h-63.9v79h18.6v-30.2h26.6v30.2H372.7z M327.4,677.5v-11.5h26.6v11.5H327.4z"/>
		</g>
		<g>
			<path class="st0" d="M448.1,714l-17.9-17.9h17.9v-48.8h-63.9v79h18.6v-33l45.3,45.3V714z M429.5,677.5h-26.6v-11.5h26.6V677.5z"
				/>
		</g>
		<g>
			<polygon class="st0" points="523.6,714 505.7,696.1 523.6,696.1 523.6,647.3 505,647.3 505,677.5 478.3,677.5 478.3,647.3 
				459.7,647.3 459.7,726.3 478.3,726.3 478.3,700.8 523.6,746.1 			"/>
		</g>
		<g>
			<polygon class="st0" points="599,665.9 599,647.3 535.1,647.3 535.1,726.3 599,726.3 599,707.6 553.8,707.6 553.8,696.1 
				599,696.1 599,677.5 553.8,677.5 553.8,665.9 			"/>
		</g>
		<g>
			<polygon class="st0" points="674.5,647.3 610.6,647.3 610.6,665.9 633.2,665.9 633.2,726.3 651.8,726.3 651.8,665.9 674.5,665.9 
							"/>
		</g>
		<g>
			<rect x="686" y="647.3" class="st0" width="18.6" height="79"/>
		</g>
		<g>
			<polygon class="st0" points="780.1,647.3 761.5,647.3 761.5,680.3 716.2,635 716.2,726.3 734.8,726.3 734.8,693.3 780.1,738.5 
							"/>
		</g>
		<g>
			<polygon class="st0" points="855.5,665.9 855.5,647.3 791.6,647.3 791.6,726.3 855.5,726.3 855.5,677.5 821.8,677.5 821.8,696.1 
				836.9,696.1 836.9,707.6 810.3,707.6 810.3,665.9 			"/>
		</g>
	</g>
</g>
</svg>
