<?xml version="1.0" encoding="utf-8"?>
<!-- Generator: Adobe Illustrator 24.1.0, SVG Export Plug-In . SVG Version: 6.00 Build 0)  -->
<svg version="1.1" id="Layer_1" xmlns="http://www.w3.org/2000/svg" xmlns:xlink="http://www.w3.org/1999/xlink" x="0px" y="0px"
	 viewBox="0 0 1080 637.8" style="enable-background:new 0 0 1080 637.8;" xml:space="preserve">
<style type="text/css">
	.st0{fill:#252424;}
</style>
<g>
	<g>
		<path class="st0" d="M250.2,543.7v0.3c0,1.4-0.5,2.6-1.5,3.6c1,1,1.5,2.2,1.5,3.6v0.3c0,1.4-0.5,2.6-1.5,3.6s-2.2,1.5-3.6,1.5
			h-20.4h-0.1v-0.1v-17.7v-0.1h0.1H245c1.4,0,2.6,0.5,3.6,1.5S250.2,542.3,250.2,543.7z M228.1,541.7v4.4h17c0.4,0,0.8-0.2,1.1-0.5
			s0.5-0.7,0.5-1.1v-1.3c0-0.4-0.2-0.8-0.5-1.1s-0.7-0.4-1.1-0.4L228.1,541.7L228.1,541.7z M246.6,551.9v-1.3c0-0.4-0.2-0.8-0.5-1.1
			s-0.7-0.5-1.1-0.5h-17v4.4h17c0.4,0,0.8-0.1,1.1-0.4S246.6,552.4,246.6,551.9z"/>
		<path class="st0" d="M264.7,546H284h0.1v0.1v2.8v0.1H284h-19.4v2.8c0,0.4,0.1,0.8,0.4,1.1s0.7,0.5,1.1,0.5h20.4h0.1v0.1v2.8v0.1
			h-0.1h-20.4c-1.4,0-2.6-0.5-3.6-1.5s-1.5-2.2-1.5-3.6v-7.7c0-1.4,0.5-2.6,1.5-3.6s2.2-1.5,3.6-1.5h20.4h0.1v0.1v2.8v0.1h-0.1
			h-20.4c-0.4,0-0.8,0.2-1.1,0.5s-0.4,0.7-0.4,1.1v2.9H264.7z"/>
		<path class="st0" d="M323.2,553.5h0.1v0.1v2.8v0.1h-0.1h-20.4c-1.4,0-2.6-0.5-3.6-1.5s-1.5-2.2-1.5-3.6v-7.7
			c0-1.4,0.5-2.6,1.5-3.6s2.2-1.5,3.6-1.5h20.4h0.1v0.1v2.8v0.1h-0.1h-20.4c-0.4,0-0.8,0.2-1.1,0.5s-0.4,0.7-0.4,1.1v8.7
			c0,0.4,0.1,0.8,0.4,1.1s0.7,0.5,1.1,0.5L323.2,553.5L323.2,553.5z"/>
		<path class="st0" d="M350.8,539.9c1-0.9,2-1.4,3.3-1.4h7.2h0.1v0.1v17.7v0.1h-0.1H358h-0.1v-0.1v-14.7h-3c-0.4,0-0.8,0.1-1.1,0.4
			l-14.5,14.4h-0.1h-4.6c-0.1,0-0.1,0-0.1-0.1s0-0.1,0-0.2L350.8,539.9z"/>
		<path class="st0" d="M398,551.4c0,1.4-0.5,2.6-1.5,3.6s-2.2,1.5-3.6,1.5h-15.4c-1.4,0-2.6-0.5-3.6-1.5s-1.5-2.2-1.5-3.6v-12.7
			v-0.1h0.1h3.3h0.1v0.1v13.2c0,0.4,0.2,0.8,0.5,1.1s0.7,0.4,1.1,0.4h15.4c0.4,0,0.8-0.1,1.1-0.4s0.5-0.7,0.5-1.1v-13.2v-0.1h0.1
			h3.3h0.1v0.1V551.4z"/>
		<path class="st0" d="M412.5,544.5c0,0.4,0.1,0.8,0.4,1.1s0.7,0.4,1.1,0.4h15.4c1.4,0,2.6,0.5,3.6,1.5s1.5,2.2,1.5,3.6v0.3
			c0,1.4-0.5,2.6-1.5,3.6s-2.2,1.5-3.6,1.5H410h-0.1v-0.1v-2.8v-0.1h0.1h19.4c0.4,0,0.8-0.2,1.1-0.5c0.3-0.3,0.4-0.7,0.4-1.1v-1.3
			c0-0.4-0.1-0.8-0.4-1.1s-0.7-0.5-1.1-0.5H414c-1.4,0-2.6-0.5-3.6-1.5s-1.5-2.2-1.5-3.6v-0.3c0-1.4,0.5-2.6,1.5-3.6
			s2.2-1.5,3.6-1.5h19.4h0.1v0.1v2.8v0.1h-0.1H414c-0.4,0-0.8,0.2-1.1,0.4c-0.3,0.3-0.4,0.7-0.4,1.1V544.5z"/>
		<path class="st0" d="M449.1,546h19.4h0.1v0.1v2.8v0.1h-0.1h-19.4v2.8c0,0.4,0.1,0.8,0.4,1.1s0.7,0.5,1.1,0.5H471h0.1v0.1v2.8v0.1
			H471h-20.4c-1.4,0-2.6-0.5-3.6-1.5s-1.5-2.2-1.5-3.6v-7.7c0-1.4,0.5-2.6,1.5-3.6s2.2-1.5,3.6-1.5H471h0.1v0.1v2.8v0.1H471h-20.4
			c-0.4,0-0.8,0.2-1.1,0.5s-0.4,0.7-0.4,1.1V546z"/>
		<path class="st0" d="M528.7,538.7C528.7,538.7,528.8,538.6,528.7,538.7c0.1-0.1,0.1-0.1,0.2-0.1h3.3h0.1v0.1v5
			c0,0.7-0.2,1.4-0.6,2c-0.4,0.6-0.9,1-1.6,1.3l-9.4,4v5.4v0.1h-0.1h-3.3h-0.1v-0.1V551l-9.4-4c-0.7-0.3-1.2-0.7-1.6-1.3
			s-0.6-1.3-0.6-2v-5v-0.1h0.1h3.3h0.1v0.1v4.3c0,0.6,0.3,1.1,1,1.4l8.8,3.7l8.8-3.7c0.6-0.3,0.9-0.8,0.9-1.4L528.7,538.7
			L528.7,538.7z"/>
		<path class="st0" d="M563.8,538.6c1.4,0,2.6,0.5,3.6,1.5s1.5,2.2,1.5,3.6v7.7c0,1.4-0.5,2.6-1.5,3.6s-2.2,1.5-3.6,1.5h-15.4
			c-1.4,0-2.6-0.5-3.6-1.5s-1.5-2.2-1.5-3.6v-7.7c0-1.4,0.5-2.6,1.5-3.6s2.2-1.5,3.6-1.5H563.8z M565.4,543.2c0-0.4-0.2-0.8-0.5-1.1
			s-0.7-0.5-1.1-0.5h-15.4c-0.4,0-0.8,0.2-1.1,0.5s-0.5,0.7-0.5,1.1v8.7c0,0.4,0.2,0.8,0.5,1.1s0.7,0.5,1.1,0.5h15.4
			c0.4,0,0.8-0.2,1.1-0.5s0.5-0.7,0.5-1.1V543.2z"/>
		<path class="st0" d="M605.6,551.4c0,1.4-0.5,2.6-1.5,3.6s-2.2,1.5-3.6,1.5H585c-1.4,0-2.6-0.5-3.6-1.5s-1.5-2.2-1.5-3.6v-12.7
			v-0.1h0.1h3.3h0.1v0.1v13.2c0,0.4,0.2,0.8,0.5,1.1s0.7,0.4,1.1,0.4h15.4c0.4,0,0.8-0.1,1.1-0.4s0.5-0.7,0.5-1.1v-13.2v-0.1h0.1
			h3.3h0.1v0.1v12.7H605.6z"/>
		<path class="st0" d="M662.1,538.7L662.1,538.7L662.1,538.7l3.4-0.1h0.1v0.1v17.7v0.1h-0.1h-6.7l0,0c-1.4,0-2.5-0.6-3.3-1.7
			l-8.4-12.5c-0.3-0.5-0.8-0.7-1.3-0.7h-2.3v14.7v0.1h-0.1h-3.3H640v-0.1v-17.7v-0.1h0.1h6.7l0,0c1.4,0,2.5,0.6,3.3,1.8l8.4,12.4
			c0.3,0.5,0.8,0.7,1.3,0.7h2.3V538.7z"/>
		<path class="st0" d="M680.2,546h19.4h0.1v0.1v2.8v0.1h-0.1h-19.4v2.8c0,0.4,0.1,0.8,0.4,1.1c0.3,0.3,0.7,0.5,1.1,0.5h20.4h0.1v0.1
			v2.8v0.1h-0.1h-20.4c-1.4,0-2.6-0.5-3.6-1.5s-1.5-2.2-1.5-3.6v-7.7c0-1.4,0.5-2.6,1.5-3.6s2.2-1.5,3.6-1.5h20.4h0.1v0.1v2.8v0.1
			h-0.1h-20.4c-0.4,0-0.8,0.2-1.1,0.5s-0.4,0.7-0.4,1.1V546z"/>
		<path class="st0" d="M716.8,546h19.4h0.1v0.1v2.8v0.1h-0.1h-19.4v2.8c0,0.4,0.1,0.8,0.4,1.1c0.3,0.3,0.7,0.5,1.1,0.5h20.4h0.1v0.1
			v2.8v0.1h-0.1h-20.4c-1.4,0-2.6-0.5-3.6-1.5s-1.5-2.2-1.5-3.6v-7.7c0-1.4,0.5-2.6,1.5-3.6s2.2-1.5,3.6-1.5h20.4h0.1v0.1v2.8v0.1
			h-0.1h-20.4c-0.4,0-0.8,0.2-1.1,0.5s-0.4,0.7-0.4,1.1V546z"/>
		<path class="st0" d="M770.4,538.6c1.4,0,2.6,0.5,3.6,1.5s1.5,2.2,1.5,3.6v7.7c0,1.4-0.5,2.6-1.5,3.6s-2.2,1.5-3.6,1.5H750h-0.1
			v-0.1v-17.7v-0.1h0.1H770.4z M771.9,543.2c0-0.4-0.1-0.8-0.4-1.1s-0.7-0.5-1.1-0.5h-16.9v11.8h16.9c0.4,0,0.8-0.2,1.1-0.5
			s0.4-0.7,0.4-1.1V543.2z"/>
		<path class="st0" d="M813.5,556.4C813.5,556.4,813.5,556.5,813.5,556.4c-0.1,0.1-0.1,0.1-0.2,0.1H810h-0.1v-0.1v-17.7v-0.1h0.1
			h3.3h0.1v0.1v17.7H813.5z"/>
		<path class="st0" d="M824.5,538.7L824.5,538.7L824.5,538.7l25.5-0.1h0.1v0.1v2.8v0.1H850h-10.9v14.7v0.1H839h-3.3h-0.1v-0.1v-14.7
			h-10.9h-0.1v-0.1v-2.8H824.5z"/>
	</g>
	<g>
		<g>
			<rect x="498.6" y="323.9" class="st0" width="69.4" height="69.4"/>
		</g>
		<g>
			<path class="st0" d="M537.3,192.1h-82.4c-24.4-37.9-48.6-75.4-71.5-110.9h82.4c10.8,16.7,21.7,33.7,32.8,50.9
				C511.4,152,524.4,172.1,537.3,192.1z"/>
		</g>
		<g>
			<path class="st0" d="M697.9,81.2c-24,34.8-49.9,72.4-76.4,110.9c-14.4,20.9-28.9,42-43.5,63.1c-3.3,4.8-6.7,9.7-10,14.5V317
				h-69.4v-68.7c12.8-18.6,25.8-37.4,38.7-56.2c10.3-14.9,20.5-29.8,30.7-44.5c15.6-22.6,30.9-44.8,45.8-66.4L697.9,81.2L697.9,81.2
				z"/>
		</g>
	</g>
	<g>
		<g>
			<polygon class="st0" points="278.6,472.2 278.6,505.2 297.3,505.2 297.3,421.5 261.5,457.2 225.8,421.5 225.8,505.2 244.4,505.2 
				244.4,472.2 261.5,489.3 			"/>
		</g>
		<g>
			<path class="st0" d="M372.7,505.2v-79h-63.9v79h18.6V475H354v30.2H372.7z M327.4,456.4v-11.5H354v11.5H327.4z"/>
		</g>
		<g>
			<path class="st0" d="M448.1,492.9L430.2,475h17.9v-48.8h-63.9v79h18.6v-33l45.3,45.3V492.9z M429.5,456.4h-26.6v-11.5h26.6V456.4
				z"/>
		</g>
		<g>
			<polygon class="st0" points="523.6,492.9 505.7,475 523.6,475 523.6,426.2 505,426.2 505,456.4 478.3,456.4 478.3,426.2 
				459.7,426.2 459.7,505.2 478.3,505.2 478.3,479.7 523.6,525 			"/>
		</g>
		<g>
			<polygon class="st0" points="599,444.8 599,426.2 535.1,426.2 535.1,505.2 599,505.2 599,486.5 553.8,486.5 553.8,475 599,475 
				599,456.4 553.8,456.4 553.8,444.8 			"/>
		</g>
		<g>
			<polygon class="st0" points="674.5,426.2 610.6,426.2 610.6,444.8 633.2,444.8 633.2,505.2 651.8,505.2 651.8,444.8 674.5,444.8 
							"/>
		</g>
		<g>
			<rect x="686" y="426.2" class="st0" width="18.6" height="79"/>
		</g>
		<g>
			<polygon class="st0" points="780.1,426.2 761.5,426.2 761.5,459.2 716.2,413.9 716.2,505.2 734.8,505.2 734.8,472.2 780.1,517.4 
							"/>
		</g>
		<g>
			<polygon class="st0" points="855.5,444.8 855.5,426.2 791.6,426.2 791.6,505.2 855.5,505.2 855.5,456.4 821.8,456.4 821.8,475 
				836.9,475 836.9,486.5 810.3,486.5 810.3,444.8 			"/>
		</g>
	</g>
</g>
</svg>
