<?xml version="1.0" encoding="utf-8"?>
<!-- Generator: Adobe Illustrator 24.1.0, SVG Export Plug-In . SVG Version: 6.00 Build 0)  -->
<svg version="1.1" id="Layer_1" xmlns="http://www.w3.org/2000/svg" xmlns:xlink="http://www.w3.org/1999/xlink" x="0px" y="0px"
	 viewBox="0 0 1080 419.5" style="enable-background:new 0 0 1080 419.5;" xml:space="preserve">
<style type="text/css">
	.st0{fill:#FFFFFF;}
</style>
<g>
	<g id="Logo_00000119093945485753560110000006823083627894761359_">
		<g>
			<path class="st0" d="M515.9,401.2l2.2-6.2l5.9-18.5c0.9,0.2,1.6,0.3,2,0.3c0.5,0,1.2-0.1,2.1-0.3l7.6,23.8c1.1,3.5,2,6.3,2.7,8.2
				c0.6,1.9,1.1,3.3,1.5,4.1h0.4c0.4-1,0.7-1.8,0.9-2.3c0.2-0.5,0.7-2,1.5-4.7c0.8-2.6,1.8-5.8,3.1-9.7c1.3-3.8,2.4-7.4,3.3-10.6
				c1-3.2,1.8-6.2,2.4-8.9c0.7,0.2,1.4,0.3,2.1,0.3c0.6,0,1.5-0.1,2.5-0.3l-5.7,14.8l-2.4,6.9l-2.3,6.8l-2.5,7.2
				c-0.7,2-1.2,3.4-1.5,4.3c-0.3,0.9-0.6,1.9-0.9,3.1c-0.7-0.2-1.4-0.3-2-0.3c-0.7,0-1.5,0.1-2.4,0.3l-5.8-18.5l-5.6-16.6h-0.4
				l-0.2,0.6l-12,34.4c-0.9-0.2-1.7-0.3-2.3-0.3h-1.3c-0.3,0.1-0.6,0.2-0.8,0.3l-4.3-14.6l-2.3-7l-2-6.8l-2.4-7.2l-2.2-6.8l-0.3-0.6
				c1.2,0.2,2.2,0.3,3.1,0.3h1.9c0.5-0.1,0.9-0.2,1.2-0.3l1.6,6.3l1.9,6.5l3.6,12.1l3.6,11.5h0.4L515.9,401.2z"/>
			<path class="st0" d="M561.7,380.3l-0.3-7.8c0.5,0.1,1,0.1,1.4,0.2s0.8,0.1,1.3,0.1h1.6c0.5-0.1,0.8-0.2,1.1-0.3
				c-0.1,0.9-0.2,1.9-0.3,2.9c-0.1,1-0.1,2.1-0.1,3.1l-0.3,16.2v0.5l0.3,0.1c2.1-4,5.4-5.9,9.8-5.9c3.2,0,5.8,0.9,7.6,2.8
				c1.8,1.9,2.7,4.5,2.7,7.9l-0.3,14.1l0.2,5.4c-0.9-0.2-1.7-0.3-2.5-0.3H583c-0.3,0-0.9,0.1-1.8,0.3c0.2-1.4,0.3-3.6,0.4-6.5
				c0.1-2.9,0.2-5.4,0.2-7.7c0-2.9-0.1-4.8-0.2-5.8c-0.1-1-0.4-2-0.8-3.1c-0.4-1.1-1.3-2-2.5-2.8c-1.2-0.8-2.6-1.2-4-1.2
				c-1.5,0-2.9,0.4-4.1,1.1c-1.3,0.7-2.2,1.7-2.7,2.8c-0.6,1.1-0.9,2.3-1.1,3.5c-0.2,1.2-0.3,3.3-0.3,6.3v6.6l0.7,6.8
				c-1.2-0.2-2-0.3-2.6-0.3c-0.5,0-0.9,0-1.2,0c-0.3,0-0.9,0.1-1.7,0.2c0.1-1.5,0.2-3.8,0.2-6.8c0.1-3,0.1-5.7,0.1-8.2v-16.3V380.3z
				"/>
			<path class="st0" d="M609.2,420.3c-4.8,0-8.5-1.4-11.1-4.1c-2.6-2.8-3.9-6.6-3.9-11.6c0-4.7,1.3-8.5,3.9-11.2
				c2.6-2.7,6.2-4.1,10.7-4.1c4.1,0,7.3,1.1,9.5,3.4c2.2,2.3,3.3,5.5,3.3,9.7l-0.1,1.8h-5.1h-5.3h-10.6h-0.8l-0.1,0.8
				c0,4,0.9,7.1,2.8,9.3c1.9,2.2,4.5,3.3,8,3.3c3.8,0,7-1.5,9.7-4.4l0.4,0.1l-0.5,3.2c-1.8,1.2-3.5,2.1-5.3,2.7
				C613,420,611.1,420.3,609.2,420.3 M599.7,402.1l8.4,0.1h2.9c1.6,0,3.2,0,4.8-0.1h0.7c0-3-0.6-5.6-1.8-7.6c-1.2-2.1-3.2-3.1-6-3.1
				c-2.6,0-4.8,1-6.5,2.9C600.6,396.2,599.7,398.8,599.7,402.1"/>
			<path class="st0" d="M629,397l-0.3-6.6v-0.7c0.8,0.1,1.7,0.2,2.5,0.2h0.9c0.4,0,0.9-0.1,1.6-0.2l-0.3,5.1v1
				c1.2-1.4,2.4-2.9,3.6-4.3c1.5-1.5,3.1-2.2,5-2.2c0.6,0,1.3,0.2,1.9,0.4c-0.2,0.5-0.3,1.1-0.4,1.8c-0.1,0.7-0.1,1.3-0.1,1.9
				l0.1,1.2l-0.4,0.3c-1-0.7-2-1.1-3.1-1.1c-4.3,0-6.5,3.4-6.5,10.1v5.6l0.3,9.9c-0.8-0.2-1.6-0.3-2.1-0.3c-0.6,0-1.6,0.1-2.9,0.3
				v-0.6l0.3-6.9v-7.2V397z"/>
			<path class="st0" d="M663,420.3c-4.8,0-8.5-1.4-11.1-4.1c-2.6-2.8-3.9-6.6-3.9-11.6c0-4.7,1.3-8.5,3.9-11.2
				c2.6-2.7,6.2-4.1,10.7-4.1c4.1,0,7.3,1.1,9.5,3.4c2.2,2.3,3.3,5.5,3.3,9.7l-0.1,1.8h-5.1H665h-10.6h-0.8l-0.1,0.8
				c0,4,0.9,7.1,2.8,9.3c1.9,2.2,4.5,3.3,8,3.3c3.8,0,7-1.5,9.7-4.4l0.4,0.1l-0.5,3.2c-1.8,1.2-3.5,2.1-5.3,2.7
				C666.8,420,665,420.3,663,420.3 M653.6,402.1l8.4,0.1h2.9c1.6,0,3.2,0,4.8-0.1h0.7c0-3-0.6-5.6-1.8-7.6c-1.2-2.1-3.2-3.1-6-3.1
				c-2.6,0-4.8,1-6.5,2.9C654.4,396.2,653.6,398.8,653.6,402.1"/>
			<path class="st0" d="M717.6,376.4c4.2,0,7.6,0.3,10.2,0.8c2.6,0.6,5.4,2.3,8.5,5.2c3.1,2.9,4.7,7.7,4.7,14.5
				c0,3.5-0.7,6.9-2.2,10.1c-1.4,3.2-3.4,5.7-5.9,7.7c-2.5,1.9-4.9,3.2-7.4,3.9c-2.5,0.6-6.2,1-11.1,1l-9.3-0.3l-4,0.3
				c0.2-0.9,0.3-1.7,0.3-2.5c0-0.7,0.1-2.2,0.1-4.4l0.2-21.7l-0.2-7.5v-7l4.7,0.3L717.6,376.4z M722.5,416.2c4-0.7,7.1-3,9.2-6.7
				c2.1-3.8,3.1-7.9,3.1-12.4c0-6.5-1.2-10.8-3.6-13.1c-2.4-2.3-4.6-3.7-6.7-4.3c-2-0.6-4.9-0.9-8.5-0.9l-9,0.4
				c-0.3,3.3-0.4,7.4-0.4,12.3v6.3v6.4c0,2.1,0,4.2,0,6.3c0,2.1,0.1,4.2,0.3,6.1c1,0.3,1.9,0.4,2.7,0.4c0.8,0,1.7,0.1,2.6,0.1
				c2.3,0,4.1-0.1,5.5-0.2C719.1,416.9,720.7,416.6,722.5,416.2"/>
			<path class="st0" d="M762.4,420.3c-4.8,0-8.5-1.4-11.1-4.1c-2.6-2.8-3.9-6.6-3.9-11.6c0-4.7,1.3-8.5,3.9-11.2
				c2.6-2.7,6.2-4.1,10.7-4.1c4.1,0,7.3,1.1,9.5,3.4c2.2,2.3,3.3,5.5,3.3,9.7l-0.1,1.8h-5.1h-5.3h-10.6H753l-0.1,0.8
				c0,4,0.9,7.1,2.8,9.3c1.9,2.2,4.5,3.3,8,3.3c3.8,0,7-1.5,9.7-4.4l0.4,0.1l-0.5,3.2c-1.8,1.2-3.5,2.1-5.3,2.7
				C766.2,420,764.4,420.3,762.4,420.3 M753,402.1l8.4,0.1h2.9c1.6,0,3.2,0,4.8-0.1h0.7c0-3-0.6-5.6-1.8-7.6c-1.2-2.1-3.2-3.1-6-3.1
				c-2.6,0-4.8,1-6.5,2.9C753.8,396.2,753,398.8,753,402.1"/>
			<path class="st0" d="M789.1,381.9l-0.4,8.4h6.8c-0.2,0.6-0.3,1.1-0.3,1.2c0,0.2,0.1,0.6,0.3,1.2h-6.8v5.3v10.6
				c0,3.7,0.3,6.2,1,7.5c0.6,1.3,1.9,2,3.7,2c0.9,0,1.5-0.1,1.9-0.2c0.4-0.1,0.7-0.3,1-0.4v1.5c-2.2,0.8-4,1.2-5.4,1.2
				c-2.3,0-4.1-0.7-5.4-2.1c-1.3-1.4-1.9-3.4-1.9-5.9l0.4-16.3v-1.5v-0.8v-0.9h-4.2c0.1-0.3,0.2-0.7,0.2-1.2c0-0.4-0.1-0.8-0.2-1.2
				h4.2V390c0-2.2-0.1-4.3-0.4-6.5l5.5-2L789.1,381.9z"/>
			<path class="st0" d="M812.4,389.1c3.3,0,5.9,0.9,7.7,2.6c1.8,1.7,2.7,4.2,2.7,7.3l-0.3,10.5c0,3.5,0.1,5.7,0.4,6.6
				c0.3,0.9,1,1.3,2.2,1.3c0.2,0,0.6-0.1,1.2-0.2v1.3c-1.7,0.6-3,1-4,1c-2.7,0-4.2-1.3-4.5-3.8c-2.8,3-5.9,4.5-9.3,4.5
				c-2.8,0-5-0.7-6.6-2c-1.6-1.3-2.3-3.2-2.3-5.7c0-4.6,2.7-7.4,8.1-8.4c5.4-0.9,8.8-1.9,10.2-2.9c0.1-1,0.2-1.6,0.2-1.9
				c0-2.3-0.6-4.2-1.9-5.6c-1.3-1.4-3-2.1-5.2-2.1c-3.7,0-6.4,1.5-7.9,4.5h-0.6v-3.5c1.6-1.1,3.3-1.9,4.9-2.6
				C808.9,389.4,810.6,389.1,812.4,389.1 M818,403.8l-4.5,1c-3.7,0.8-6,1.6-7.1,2.5c-1.1,0.8-1.6,2.3-1.6,4.3c0,1.8,0.5,3.2,1.6,4.3
				c1,1.1,2.4,1.6,4.1,1.6c1.4,0,2.7-0.4,4.2-1.1c1.4-0.7,2.5-1.8,3.3-3.3L818,403.8z"/>
			<path class="st0" d="M835.2,382.2c-0.9,0-1.7-0.3-2.3-0.9c-0.6-0.6-0.9-1.4-0.9-2.3c0-0.9,0.3-1.7,0.9-2.3
				c0.6-0.6,1.4-0.9,2.3-0.9c0.9,0,1.7,0.3,2.3,0.9c0.6,0.6,0.9,1.4,0.9,2.3c0,0.9-0.3,1.7-0.9,2.3
				C836.8,381.9,836.1,382.2,835.2,382.2 M832.2,389.7c0.4,0,0.9,0.1,1.5,0.1c0.5,0,1,0.1,1.3,0.1l3.3-0.2l-0.4,8l-0.2,14.1l0.2,7.7
				c-1.2-0.2-2.1-0.3-2.7-0.3c-0.8,0-1.7,0.1-2.8,0.3c0.2-1.2,0.4-2.2,0.4-2.9c0.1-0.7,0.1-2.3,0.1-4.8v-7.2v-7.1v-1.7
				c0-1.7-0.1-3-0.2-3.8C832.3,391.2,832.2,390.4,832.2,389.7"/>
			<path class="st0" d="M847.2,379.4l-0.2-6.3l-0.1-0.6c0.5,0.1,0.9,0.1,1.3,0.2c0.3,0,0.8,0.1,1.5,0.1h1.6c0.4-0.1,0.8-0.2,1-0.3
				c0,0.8-0.1,1.9-0.2,3.4c-0.1,1.5-0.2,2.8-0.2,3.7v7.7l-0.1,8.5l0.1,7.9v7.9l-0.1,7.9c-1.2-0.2-2.1-0.3-2.6-0.3
				c-0.6,0-1.4,0.1-2.4,0.3l0.3-15.7V396v-8.7V379.4z"/>
			<path class="st0" d="M869.4,390.9c-1.5,0-2.7,0.5-3.7,1.5c-1,1-1.5,2.2-1.5,3.7c0,2.7,2.5,4.7,7.4,6.1c5,1.4,7.4,3.9,7.4,7.4
				c0,3.1-1.1,5.6-3.2,7.5c-2.2,1.9-5,2.9-8.5,2.9c-1.3,0-2.7-0.2-4.1-0.6c-1.4-0.4-2.7-0.9-3.7-1.5c0.5-1.1,0.9-2.6,1.3-4.5h0.5
				c1.9,2.9,4.3,4.4,7.2,4.4c1.9,0,3.4-0.5,4.5-1.5c1.2-1,1.7-2.4,1.7-4.2c0-2.4-2.5-4.4-7.5-6c-5-1.6-7.5-4.4-7.5-8.5
				c0-2.5,1-4.6,2.9-6.3c2-1.7,4.5-2.5,7.5-2.5c2.9,0,5.2,0.6,7,1.7c-0.4,0.9-0.8,1.6-1.1,2.4c-0.3,0.7-0.4,1.4-0.4,2h-0.6
				c-0.7-1.4-1.5-2.5-2.5-3.1C871.9,391.2,870.8,390.9,869.4,390.9"/>
			<path class="st0" d="M911.2,376.3l4.4,8.6l4.3,8.2c1.4,2.8,2.8,5.6,4.3,8.3c1.4,2.7,3,5.4,4.8,8.2h0.3l0.3-0.5
				c1.2-2,2.6-4.4,4.2-7.4c1.6-3,3.1-5.8,4.5-8.5l4.6-8.4l4.7-8.4l0.4-0.6h0.8l0.1,0.7l0.7,6.7l0.8,7.9l0.7,6.8l0.7,6.1l1,8.2
				l0.9,6.6l0.1,0.7h-1.3h-1.3h-3.3c0-3.7-0.1-6.8-0.4-9.6c-0.3-2.7-0.8-7.4-1.6-14.1l-0.9-7.8l-0.1-0.8c-0.7,1.1-1.3,2-1.8,2.8
				c-0.5,0.8-1.4,2.5-2.7,5.1L936,403l-4,7.5c-0.3,0.5-0.8,1.7-1.8,3.5c-0.9,1.9-1.6,3.4-2.1,4.8h-0.8l-3.8-7.6l-7.8-15.1l-4.3-7.7
				l-0.4-0.6l-0.1,0.8l-1,7.7l-0.9,8.1c-0.3,2.5-0.5,5.1-0.8,7.8c-0.3,2.7-0.4,5.1-0.4,7.3H906h-2.4l4.4-28.6l2-15.1h1L911.2,376.3z
				"/>
			<path class="st0" d="M973.6,389.1c3.3,0,5.9,0.9,7.7,2.6c1.8,1.7,2.7,4.2,2.7,7.3l-0.3,10.5c0,3.5,0.1,5.7,0.4,6.6
				c0.3,0.9,1,1.3,2.2,1.3c0.2,0,0.6-0.1,1.2-0.2v1.3c-1.7,0.6-3,1-4,1c-2.7,0-4.2-1.3-4.5-3.8c-2.8,3-5.9,4.5-9.3,4.5
				c-2.8,0-5-0.7-6.6-2c-1.6-1.3-2.3-3.2-2.3-5.7c0-4.6,2.7-7.4,8.1-8.4c5.4-0.9,8.8-1.9,10.2-2.9c0.1-1,0.2-1.6,0.2-1.9
				c0-2.3-0.6-4.2-1.9-5.6c-1.3-1.4-3-2.1-5.2-2.1c-3.7,0-6.3,1.5-7.9,4.5h-0.6v-3.5c1.6-1.1,3.3-1.9,4.9-2.6
				C970.1,389.4,971.8,389.1,973.6,389.1 M979.1,403.8l-4.5,1c-3.7,0.8-6,1.6-7.1,2.5c-1.1,0.8-1.6,2.3-1.6,4.3
				c0,1.8,0.5,3.2,1.6,4.3c1,1.1,2.4,1.6,4.1,1.6c1.4,0,2.7-0.4,4.2-1.1c1.4-0.7,2.5-1.8,3.3-3.3L979.1,403.8z"/>
			<path class="st0" d="M1000.8,381.9l-0.4,8.4h6.8c-0.2,0.6-0.3,1.1-0.3,1.2c0,0.2,0.1,0.6,0.3,1.2h-6.8v5.3v10.6
				c0,3.7,0.3,6.2,1,7.5c0.6,1.3,1.9,2,3.7,2c0.9,0,1.5-0.1,1.9-0.2c0.4-0.1,0.7-0.3,1-0.4v1.5c-2.2,0.8-4,1.2-5.4,1.2
				c-2.3,0-4.1-0.7-5.4-2.1c-1.3-1.4-1.9-3.4-1.9-5.9l0.4-16.3v-1.5v-0.8v-0.9h-4.2c0.1-0.3,0.2-0.7,0.2-1.2c0-0.4-0.1-0.8-0.2-1.2
				h4.2V390c0-2.2-0.2-4.3-0.4-6.5l5.5-2L1000.8,381.9z"/>
			<path class="st0" d="M1019.8,381.9l-0.4,8.4h6.8c-0.2,0.6-0.3,1.1-0.3,1.2c0,0.2,0.1,0.6,0.3,1.2h-6.8v5.3v10.6
				c0,3.7,0.3,6.2,1,7.5c0.6,1.3,1.9,2,3.7,2c0.9,0,1.5-0.1,1.9-0.2c0.4-0.1,0.7-0.3,1-0.4v1.5c-2.2,0.8-4,1.2-5.4,1.2
				c-2.3,0-4.1-0.7-5.4-2.1c-1.3-1.4-1.9-3.4-1.9-5.9l0.4-16.3v-1.5v-0.8v-0.9h-4.2c0.1-0.3,0.2-0.7,0.2-1.2c0-0.4-0.1-0.8-0.2-1.2
				h4.2V390c0-2.2-0.2-4.3-0.4-6.5l5.5-2L1019.8,381.9z"/>
			<path class="st0" d="M1045.2,420.3c-4.8,0-8.5-1.4-11.1-4.1c-2.6-2.8-3.9-6.6-3.9-11.6c0-4.7,1.3-8.5,3.9-11.2
				c2.6-2.7,6.2-4.1,10.7-4.1c4.1,0,7.3,1.1,9.5,3.4c2.2,2.3,3.3,5.5,3.3,9.7l-0.1,1.8h-5.1h-5.3h-10.6h-0.8l-0.1,0.8
				c0,4,0.9,7.1,2.8,9.3c1.9,2.2,4.5,3.3,8,3.3c3.8,0,7-1.5,9.7-4.4l0.4,0.1l-0.5,3.2c-1.8,1.2-3.5,2.1-5.3,2.7
				C1049,420,1047.1,420.3,1045.2,420.3 M1035.7,402.1l8.4,0.1h2.9c1.6,0,3.2,0,4.8-0.1h0.7c0-3-0.6-5.6-1.8-7.6
				c-1.2-2.1-3.2-3.1-6-3.1c-2.6,0-4.8,1-6.5,2.9C1036.6,396.2,1035.7,398.8,1035.7,402.1"/>
			<path class="st0" d="M1065,397l-0.3-6.6v-0.7c0.8,0.1,1.7,0.2,2.5,0.2h0.9c0.4,0,0.9-0.1,1.6-0.2l-0.3,5.1v1
				c1.2-1.4,2.4-2.9,3.6-4.3c1.5-1.5,3.1-2.2,5-2.2c0.6,0,1.3,0.2,1.9,0.4c-0.2,0.5-0.3,1.1-0.4,1.8c-0.1,0.7-0.1,1.3-0.1,1.9
				l0.1,1.2l-0.4,0.3c-1-0.7-2-1.1-3.1-1.1c-4.3,0-6.5,3.4-6.5,10.1v5.6l0.3,9.9c-0.8-0.2-1.6-0.3-2.1-0.3c-0.6,0-1.6,0.1-2.9,0.3
				v-0.6l0.3-6.9v-7.2V397z"/>
		</g>
		<g id="Logo_00000116224823668423998320000004309093272597016712_">
			<path class="st0" d="M103.6,27.8c0.7-4.5,2.6-14.5,2.8-25.5c0,0,0,0,0,0C138.1,5.6,247.8,45,250.2,173.3
				c-1.4,112-92.4,164-143.9,171c0,0,0,0,0,0c0-5.7-1.5-17.3-2.8-25.6c39.2-1.8,126.4-33.9,128.9-145.4
				C229.8,49.1,124.4,27.8,103.6,27.8"/>
			<path class="st0" d="M92.7,65.9c0,0,6.8-16.9,8.7-27.1c0,0,0,0,0,0c28.1,1.2,118,23.8,120.6,134.8c0,0,3.5,120.3-120.6,134.8
				c0,0-4.3-18.2-8.6-26.9c0,0,0,0,0,0c57.4,1.3,111.6-35.9,112.3-107.9C205.5,148.4,191.4,65.7,92.7,65.9"/>
			<path class="st0" d="M81.6,167.3c83.1-11.7,104-35.7,104-35.7c0,0,0,0,0,0c9.1,20.4,9,35.7,9,35.7H81.6z"/>
			<path class="st0" d="M137.4,84.2c0,0-12.9,47.8-85.1,74.8l0,0c0.3,0,102.7-10.3,127.2-38.5C179.5,120.5,164.9,95.8,137.4,84.2"/>
			<path class="st0" d="M126,80.1c-0.1,0.2-17,56.4-110.3,77.3l0-1.5c0-0.4,0.2-0.8,0.6-1c5.6-3.2,49.6-29.9,71.7-78.2
				C87.9,76.6,118.7,76.3,126,80.1C126,80.1,126,80.1,126,80.1"/>
			<path class="st0" d="M15.7,142.3c0,0,77-43,80-141.3c-11.2-1.5-36.8-1-36.8-1s-2.2,53.5-43.2,95.7c0,0,0,0,0,0V142.3z"/>
			<path class="st0" d="M15.7,79.3V31.2c0,0-1-16.2-15.3-29.8c0,0-1-1.2,0.5-1.3c0.9-0.1,47,0,47,0S45.7,42.3,15.7,79.3"/>
			<path class="st0" d="M81.6,179.6c83.1,11.7,104,35.7,104,35.7c0,0,0,0,0,0c9.1-20.4,9-35.7,9-35.7H81.6z"/>
			<path class="st0" d="M137.4,262.7c0,0-12.9-47.8-85.1-74.8l0,0c0.3,0,102.7,10.3,127.2,38.5C179.5,226.4,164.9,251.1,137.4,262.7
				"/>
			<path class="st0" d="M126,266.8c-0.1-0.2-17-56.4-110.3-77.3l0,1.5c0,0.4,0.2,0.8,0.6,1c5.6,3.3,49.6,29.9,71.7,78.2
				C87.9,270.2,118.7,270.6,126,266.8C126,266.8,126,266.8,126,266.8"/>
			<path class="st0" d="M15.7,204.5c0,0,77.1,43.5,80,141.3l-36.8,1c0,0-2.2-53.4-43.2-95.6c0,0,0,0,0,0V204.5z"/>
			<path class="st0" d="M15.7,267.6v48.1c0,0-1,16.2-15.3,29.8c0,0-1,1.2,0.5,1.3c0.9,0.1,47,0,47,0S45.7,304.6,15.7,267.6"/>
		</g>
	</g>
	<g>
		<path class="st0" d="M677.6,349.3c-4.9,0-7.9-0.2-8.5-0.3c-53.4-2.8-97.8-23.3-128.3-59.3c-27.2-32-41.7-74.2-40.7-118.8
			c0.9-44.6,17.1-86.2,45.7-117.1C577.8,19.2,623,0.6,676.5,0l0.1,0c0.4,0,9.9,0.1,23.4,1.9c12.3,1.6,23.6,4,33.7,7.2
			c0.1,0,0.1,0,0.2,0l9.5,2c4.1,0.9,7.6,3,10.2,6.1c3.7,4.4,5.2,10.2,4,15.8c-1.1,4.9-5.3,8.3-10.4,8.3c-3.7,0-7-1.9-9-5.1l-1.7-2.8
			c-5.6-9.2-14.9-15.8-25.6-18.1l-9.7-2.1l-3.4-0.7c-6.4-1.2-13.6-1.8-22-1.8c-1.4,0-2.8,0-4.2,0l-1.1,0c-56,0-98.7,45.2-116.1,90
			c-16.2,38-20.1,83.5-10.5,124.9c10.3,44.8,35.1,78.8,69.9,95.9c22.2,10.9,45,16.4,67.8,16.4c31.6,0,55.2-10.5,69.3-19.3
			c17.8-11,30.7-25.5,35.6-39.8c1.5-4.4,4.2-5.1,5.7-5.1c1.9,0,4,1.2,5.1,2.9c0.9,1.4,1.1,2.9,0.5,4.1
			c-11.9,26.9-32.7,46.2-61.6,57.5C712.5,348,689.3,349.3,677.6,349.3L677.6,349.3z"/>
		<path class="st0" d="M261.7,349.5c-0.8,0-1.6-0.5-1.8-1.3c-0.3-0.8-0.1-1.6,0.5-2.2l4.8-4.3c7.4-6.7,11.6-16.1,11.6-25.9V34
			c0-9.8-4.2-19.3-11.7-26l-4.8-4.3c-0.6-0.6-0.8-1.4-0.5-2.2c0.3-0.8,1-1.3,1.8-1.3H476c10.2,0,18.5,8.3,18.5,18.5
			c0,4.4-2.6,8.2-6.7,9.8c-1.3,0.5-2.6,0.8-3.9,0.8c-2.9,0-5.6-1.2-7.6-3.3l-2.2-2.3c-7.4-7.8-17.9-12.3-28.8-12.3h-126
			c-1.1,0-2,0.9-2,2v154c0,1.1,0.9,2,2,2h54.7c10.1,0,19.8-4.2,26.6-11.4l3.1-3.2c2-2.1,4.8-3.3,7.7-3.3c1.3,0,2.7,0.3,3.9,0.8
			c4.1,1.6,6.7,5.5,6.7,9.8v25.8c0,4.3-2.6,8.2-6.7,9.8c-1.3,0.5-2.6,0.8-3.9,0.8c-2.9,0-5.6-1.2-7.6-3.3l-3-3.2
			c-6.8-7.2-16.5-11.4-26.6-11.4h-54.8c-1.1,0-2,0.9-2,2v154c0,1.1,0.9,2,2,2h122.9c13,0,25.5-5.3,34.3-14.7c2-2.1,4.7-3.3,7.6-3.3
			c1.3,0,2.7,0.3,3.9,0.8c4,1.6,6.7,5.5,6.7,9.8c0,10.2-8.3,18.4-18.4,18.5L261.7,349.5z"/>
		<path class="st0" d="M828.8,349.2c-0.6,0-15,0-20.1,0c-1.6,0-2.9-0.8-3.8-2.2c-2.8-4.4-1.3-15,3.6-25.8l9.2-22.4
			c1.3-3.1,2.5-6.2,3.7-9.1c2.4-5.8,4.6-11.4,7.2-17.5L939.1,2.3c0.6-1.4,1.9-2.2,3.3-2.2c1.5,0,2.8,0.9,3.3,2.2L1075,322.9
			c2.1,5.1,2.7,6.7,4.1,10.9c0.8,2.5,1.1,5,0.8,7.4c-0.6,4.8-3.1,7.6-7.1,8c-0.1,0-0.1,0-0.2,0l-33.7,0c-3.7,0-7.2-1.8-9.3-4.8
			c-2.1-3-2.7-6.9-1.4-10.3c2.3-6.5,2.1-13.5-0.4-19.9l-48.2-119.6c-0.3-0.8-1.1-1.3-1.9-1.3c-0.2,0-0.3,0-0.5,0.1L913.6,210
			c-41.7,10.9-51.6,16.7-52.6,17.3c-0.4,0.2-0.6,0.5-0.8,0.9c-0.8,1.9-19.5,47.7-19.7,48.1c-1.1,2.7-2.1,5.1-3,7.4
			c-10.5,25.7-12.2,29.6-1.8,50.6c1.7,3.4,1.8,7.4,0.2,10.4c-1.3,2.5-3.8,4.1-6.9,4.6C829,349.2,828.9,349.2,828.8,349.2z
			 M926.5,66.5c-0.8,0-1.5,0.5-1.9,1.2l-56.4,138.9c-0.3,0.7-0.1,1.5,0.3,2.1c0.4,0.4,0.9,0.7,1.5,0.7c0.2,0,0.3,0,0.5-0.1
			c14.5-3.8,29.2-7.6,42.4-11.1c21.1-5.5,37.8-9.9,59.4-15.3c0.6-0.1,1-0.5,1.3-1c0.3-0.5,0.3-1.1,0.1-1.7L928.4,67.7
			C928.1,67,927.3,66.5,926.5,66.5C926.5,66.5,926.5,66.5,926.5,66.5z"/>
	</g>
</g>
</svg>
