<?xml version="1.0" encoding="utf-8"?>
<!-- Generator: Adobe Illustrator 24.1.0, SVG Export Plug-In . SVG Version: 6.00 Build 0)  -->
<svg version="1.1" id="Layer_1" xmlns="http://www.w3.org/2000/svg" xmlns:xlink="http://www.w3.org/1999/xlink" x="0px" y="0px"
	 viewBox="0 0 721.9 434.3" style="enable-background:new 0 0 721.9 434.3;" xml:space="preserve">
<style type="text/css">
	.st0{fill:#FBFCFA;}
</style>
<g>
	<g>
		<path class="st0" d="M45.3,193l-0.1,0.5c25.1,0,55.9,0.1,83.2,0.1c-4.3,19.3-10.7,47.8-15.1,67.1l-112.7,0l6.2-27.4
			c27.3,0.1,53.1,0.1,83.2,0.1c0.1-0.5,2.7-12,2.8-12.5l-83.3,0c1.9-8.5,7.1-31.5,8.9-39.7l31-27.4c17.1,0.1,60,0.1,87.8,0.1
			l-6.1,27.3l-83.3,0l-0.1,0.5L45.3,193z"/>
		<path class="st0" d="M272.1,153.8c9.7,0,19.6,0,29.4,0c-5.5,24.3-12.4,55.3-17.9,79.6c19.2,0,38.2,0,57.5,0
			c3.2-14.4,8.5-37.8,11.7-52.2l-46.4,0l6.1-27.3c15.1,0,35.5,0,50.6,0l19,27.5c-5.4,24.2-12.4,55.2-17.8,79.4l-116.3,0L272.1,153.8
			z"/>
		<path class="st0" d="M691.8,153.6l-8.9,39.8c-12.8,0-34.7,0-44.9,0l0-0.2l8.9-39.5c-9.5,0-19.3,0-29.4,0l-8.9,39.5l-0.1,0.2l0,0.1
			l19,27.5l49.1,0l-17.9,79.8l29.4,0l33-147.3C712.1,153.5,702.3,153.5,691.8,153.6z"/>
		<path class="st0" d="M598.6,181.2l6.2-27.6c-11.9,0-33,0-45.2,0l-37.9,39.8l17.8-79.4c-9.7,0-19.5,0-29.4,0l-26.3,119.2
			c-27,0-54.9,0-71.3,0c3.2-14.4,8.5-37.8,11.7-52.2l60.5,0l-19-27.4c-21.5,0-43.2,0-64.7,0.1c-7.6,33.9-16.4,73.1-24,106.9l100.8,0
			l-8.8,40.1l29.4,0c0.9-4.2,4.8-22.2,8.6-40.1l29.9,0l6.2-27.5c-7.8,0-18.3,0-30.2,0c1.3-6,2.3-10.5,2.7-12.2l44.7,0
			c-1.8,8.1-7,31.3-8.9,39.8h29.4c1.9-8.4,7.1-31.8,9-39.9l-19-27.5c-3.7,0-5.5,0-9.2,0l11.7-12.2L598.6,181.2z"/>
		<g>
			<polygon class="st0" points="170.8,289.5 171.3,287.3 173.5,287.3 204.9,287.3 206.7,279.7 165.2,279.7 156,320.3 197.5,320.3 
				199.2,312.7 169,312.7 165.5,312.7 166.3,309.3 167,306 167.5,303.8 169.7,303.8 201.2,303.8 202.9,296.2 172.7,296.2 
				169.2,296.2 170,292.8 			"/>
			<polygon class="st0" points="251.8,279.7 247.6,298.4 247.3,299.3 246.6,299.9 235,309.2 232,311.5 230.3,309.4 222.4,299.5 
				221.6,298.5 221.9,297.2 225.9,279.7 218.1,279.7 212.9,302.6 227,320.3 231.4,320.3 254.6,301.7 259.6,279.7 			"/>
			<path class="st0" d="M272.8,306l0.5-2.2h2.2l31.5,0l5.5-24.1l-41.5,0l-9.2,40.6l41.5,0l1.7-7.6h-30.2h-3.5l0.8-3.4L272.8,306z
				 M275.8,292.8l0.7-3.3l0.5-2.2h2.2h20.2h3.5l-0.8,3.4l-0.7,3.3l-0.5,2.2h-2.2h-20.2H275L275.8,292.8z"/>
			<polygon class="st0" points="323.9,279.7 314.7,320.3 322.5,320.3 329.4,289.5 329.9,287.3 332.2,287.3 352.4,287.3 355.9,287.3 
				355.1,290.7 348.4,320.3 356.2,320.3 365.4,279.7 			"/>
			<polygon class="st0" points="377.1,312.7 377.9,309.3 382.3,289.5 382.8,287.3 385.1,287.3 396.5,287.3 398.2,279.7 388,279.7 
				384.6,279.7 385.3,276.3 386.8,269.8 379,269.8 367.6,320.3 400.8,320.3 402.5,312.7 380.6,312.7 			"/>
			<polygon class="st0" points="424.3,289.5 424.8,287.3 427,287.3 458.5,287.3 460.2,279.7 418.7,279.7 413.3,303.8 443.5,303.8 
				447,303.8 446.2,307.2 445.4,310.5 444.9,312.7 442.7,312.7 411.2,312.7 409.5,320.3 451,320.3 456.4,296.2 426.2,296.2 
				422.8,296.2 423.5,292.8 			"/>
		</g>
		<path class="st0" d="M234.2,153.8c-10.2,0-39.9,0-55.3,0l8.8-39.8h-29.1l-41.1,186.8h29.1l26.3-119.7l50.9,0
			c-5.4,24.3-12.4,55.2-17.8,79.6h29.4c5.4-24.3,12.4-55.2,17.8-79.4L234.2,153.8z"/>
	</g>
</g>
</svg>
