<?xml version="1.0" encoding="utf-8"?>
<!-- Generator: Adobe Illustrator 24.1.0, SVG Export Plug-In . SVG Version: 6.00 Build 0)  -->
<svg version="1.1" id="Layer_1" xmlns="http://www.w3.org/2000/svg" xmlns:xlink="http://www.w3.org/1999/xlink" x="0px" y="0px"
	 viewBox="0 0 2273.5 463.7" style="enable-background:new 0 0 2273.5 463.7;" xml:space="preserve">
<style type="text/css">
	.st0{fill:#FFFFFF;}
</style>
<g>
	<g>
		<g>
			<path class="st0" d="M663,204.8H540.3v-68.8h65.9V86.6h-65.9V0h-49.4v86.6H328.8c-19,0-35.3,6.7-48.8,20.1
				c-13.5,13.4-20.2,29.4-20.2,48.1v30.8c0,18.6,6.7,34.6,20.2,48.1c13.5,13.4,29.7,20.1,48.7,20.1h85c5.2,0,9.7,1.9,13.4,5.6
				c3.7,3.7,5.6,8.2,5.6,13.4v30.5c0,5.2-1.9,9.7-5.6,13.4c-3.7,3.7-8.2,5.6-13.4,5.6H0v49.4h413.4c18.9,0,35.1-6.7,48.6-20
				c13.4-13.3,20.2-29.4,20.2-48.4v-30.5c0-18.9-6.7-35.1-20.2-48.4c-13.5-13.3-29.7-20-48.7-20h-85c-5.2,0-9.7-1.9-13.4-5.6
				c-3.7-3.7-5.6-8.2-5.6-13.4v-30.9c0-5.2,1.9-9.6,5.6-13.2c3.7-3.6,8.2-5.4,13.5-5.4h162.6v235.5h49.4V254.2H663v209.5h49.4v-377
				H663V204.8z"/>
			<path class="st0" d="M875.2,86.6h-85.6c-18.7,0-34.7,6.7-48.2,20.2c-13.5,13.4-20.2,29.5-20.2,48.1v148.4
				c0,18.9,6.7,35,20.2,48.3c13.5,13.3,29.5,19.9,48.2,19.9h85.6c18.7,0,34.7-6.6,48.2-19.9c13.4-13.3,20.2-29.4,20.2-48.3V154.9
				c0-18.6-6.7-34.7-20.2-48.1C909.9,93.4,893.9,86.6,875.2,86.6z M894.1,303.2c0,5.2-1.9,9.7-5.6,13.4c-3.7,3.7-8.2,5.6-13.4,5.6
				h-85.6c-5.2,0-9.7-1.9-13.4-5.6c-3.7-3.7-5.6-8.2-5.6-13.4V154.6c0-5.2,1.9-9.6,5.6-13.2c3.7-3.6,8.2-5.4,13.4-5.4h85.6
				c5.2,0,9.7,1.8,13.4,5.4c3.7,3.6,5.6,8,5.6,13.2V303.2z"/>
			<path class="st0" d="M1304.6,133.6c0,5.5-2.2,9.7-6.6,12.8l-116.1,84.8V86.6h-49.4v235.5h-111.4c-5.2,0-9.7-1.9-13.4-5.6
				c-3.7-3.7-5.6-8.2-5.6-13.4V154.6c0-5.2,1.9-9.6,5.6-13.2c3.7-3.6,8.2-5.4,13.4-5.4h101.8V86.6h-101.8
				c-18.9,0-35.1,6.7-48.4,20.2c-13.3,13.4-20,29.5-20,48.1v148.4c0,18.9,6.7,35,20,48.3c13.3,13.3,29.4,19.9,48.4,19.9h111.4v92.1
				h49.4v-92.1h61.4v-49.4h-61.4v-29.8l60.7-43.8l54.7,61.5c4.9,4.9,7.3,10.8,7.3,17.6v43.9h49.4v-44.1c0-19.5-6.5-36.5-19.4-51.1
				l-52.2-57.6l44.7-32.7c17.9-12.9,26.8-30.4,26.8-52.7V0h-49.4V133.6z"/>
			<path class="st0" d="M1847,141.4c3.7-3.6,8.2-5.4,13.5-5.4h413V86.6H1861c-19,0-35.3,6.7-48.8,20.1
				c-13.5,13.4-20.2,29.4-20.2,48.1v30.8c0,18.6,6.7,34.6,20.2,48.1c13.5,13.4,29.7,20.1,48.7,20.1h85c5.2,0,9.7,1.9,13.4,5.6
				c3.7,3.7,5.6,8.2,5.6,13.4v30.5c0,5.2-1.9,9.7-5.6,13.4c-3.7,3.7-8.2,5.6-13.4,5.6h-181.3c-9.7-25.9-18.6-50-26.7-72.2
				c13.5-4.9,24.4-13.3,32.7-25c8.4-11.7,12.6-24.8,12.6-39.4v-30.5c0-19-6.7-35.1-20-48.4c-13.3-13.3-29.4-20-48.4-20h-128.5
				c-6.9,0-12.7,2.4-17.5,7.2c-4.8,4.8-7.2,10.7-7.2,17.5v210.8h-149.1v-67.9h137.1v-49.4h-137.1v-68.8h103.3V86.6h-128
				c-6.9,0-12.7,2.4-17.5,7.2c-4.8,4.8-7.2,10.7-7.2,17.5v235.5c0,6.9,2.4,12.7,7.2,17.5c4.8,4.8,10.6,7.2,17.5,7.2h173.9v92.1h49.4
				v-92.1h38.4h78h2.5h53.2h162.3c18.9,0,35.1-6.7,48.6-20c13.4-13.3,20.2-29.4,20.2-48.4v-30.5c0-18.9-6.7-35.1-20.2-48.4
				c-13.5-13.3-29.7-20-48.7-20h-85c-5.2,0-9.7-1.9-13.4-5.6c-3.7-3.7-5.6-8.2-5.6-13.4v-30.9C1841.4,149.4,1843.3,145,1847,141.4z
				 M1611.2,136.1h103.8c5.2,0,9.7,1.9,13.4,5.6c3.7,3.7,5.6,8.2,5.6,13.5v30.7c0,5.3-1.9,9.7-5.6,13.5c-3.7,3.7-8.2,5.6-13.4,5.6
				h-103.8V136.1z M1611.2,322.2v-67.9h75.6c9.6,26.2,17.8,48.8,24.9,67.9h-62.1H1611.2z"/>
		</g>
	</g>
</g>
</svg>
