<?xml version="1.0" encoding="utf-8"?>
<!-- Generator: Adobe Illustrator 24.1.0, SVG Export Plug-In . SVG Version: 6.00 Build 0)  -->
<svg version="1.1" id="Layer_1" xmlns="http://www.w3.org/2000/svg" xmlns:xlink="http://www.w3.org/1999/xlink" x="0px" y="0px"
	 viewBox="0 0 721.9 434.3" style="enable-background:new 0 0 721.9 434.3;" xml:space="preserve">
<style type="text/css">
	.st0{fill:#FFFFFF;}
</style>
<g>
	<g>
		<path class="st0" d="M53.8,185.3l-0.1,0.5c23.2,0,51.8,0.1,77.1,0.1c-4,17.9-9.9,44.3-14,62.2H12.5l5.7-25.4
			c25.3,0.1,49.2,0.1,77.1,0.1c0.1-0.5,2.5-11.1,2.6-11.6H20.7c1.8-7.9,6.6-29.2,8.3-36.8L57.7,149c15.9,0.1,55.6,0.1,81.4,0.1
			l-5.7,25.3H56.3l-0.1,0.5L53.8,185.3z"/>
		<path class="st0" d="M228.9,149.1c-13,0-37.1,0-51,0c2.8-12.5,5.6-24.8,8.3-36.8c-9.2,0-18.2,0-27.3,0
			c-9.8,43.6-20.7,92.2-30.5,135.8h27.3c5.3-23.6,10.9-48.7,16.5-73.7h47c-5,22.5-11.5,51.2-16.5,73.7H230
			c5-22.5,11.5-51.2,16.5-73.6L228.9,149.1z"/>
		<path class="st0" d="M263.9,149c9,0,18.1,0,27.3,0c-5.1,22.5-11.5,51.2-16.5,73.7c17.8,0,35.4,0,53.3,0c3-13.4,7.9-35,10.9-48.4
			h-43l5.7-25.3c14,0,32.9,0,46.9,0l17.6,25.4c-5,22.4-11.5,51.2-16.5,73.6H241.7L263.9,149z"/>
		<path class="st0" d="M477.5,222.6l-5.7,25.4H361.1c7-31.4,15.2-67.7,22.2-99.1c20,0,40.1,0,60-0.1l17.6,25.4h-56
			c-3,13.3-7.9,35-10.8,48.3C422.1,222.7,449.7,222.6,477.5,222.6z"/>
		<path class="st0" d="M682.2,148.6l-8.3,36.9c-11.9,0-32.1,0-41.6,0v-0.2l8.2-36.6c-8.8,0-17.9,0-27.3,0l-8.2,36.6l-0.1,0.2v0.1
			l17.7,25.5h45.5l-16.5,74h27.3l30.6-136.5C701,148.6,691.9,148.6,682.2,148.6z"/>
		<path class="st0" d="M596,174.3l5.7-25.6c-11,0-30.5,0-41.9,0l-35.1,36.9l16.5-73.6c-9,0-18.1,0-27.3,0l-30.5,136h27.3
			c1.7-7.8,6.6-29.4,8.3-36.9h41.4c-1.7,7.5-6.5,29-8.3,36.9h27.3c1.8-7.8,6.6-29.5,8.3-37l-17.6-25.4c-3.4,0-5.1,0-8.5,0l10.9-11.3
			H596z"/>
	</g>
	<path class="st0" d="M243.7,308h36.6l-3.2,14.3h-51.2l11.4-50.2h51.2l-3.2,14.3h-36.6l-0.8,3.6h36.6l-3.2,14.3h-36.6L243.7,308z"/>
	<path class="st0" d="M294.6,272.2h14.6l-5.1,22.7l8.5,10.8l0,0l13.4-10.8l5.1-22.7h14.6l-6.5,28.6l-26.9,21.5H305l-17.1-21.5
		L294.6,272.2z"/>
	<path class="st0" d="M358.6,308h36.6l-3.2,14.3h-51.2l11.4-50.2h51.2l-7.3,32.3h-36.6L358.6,308z M363.5,286.5l-0.8,3.6h22l0.8-3.6
		H363.5z"/>
	<path class="st0" d="M420.9,286.5l-8.1,35.8h-14.6l11.4-50.2h51.2l-11.4,50.2h-14.6l8.1-35.8H420.9z"/>
	<path class="st0" d="M469.4,261.4H484l-2.4,10.8h36.6l-3.2,14.3h-36.6l-4.9,21.5h36.6l-3.2,14.3h-51.2L469.4,261.4z"/>
	<path class="st0" d="M513.1,322.3l3.2-14.3h36.6l0.8-3.6h-36.6l7.3-32.3h51.2l-3.2,14.3h-36.6l-0.8,3.7h36.6l-7.3,32.3L513.1,322.3
		L513.1,322.3z"/>
</g>
</svg>
