<?xml version="1.0" encoding="utf-8"?>
<!-- Generator: Adobe Illustrator 24.1.0, SVG Export Plug-In . SVG Version: 6.00 Build 0)  -->
<svg version="1.1" xmlns="http://www.w3.org/2000/svg" xmlns:xlink="http://www.w3.org/1999/xlink" x="0px" y="0px"
	 viewBox="0 0 500 500" style="enable-background:new 0 0 500 500;" xml:space="preserve">
<style type="text/css">
	.st0{display:none;}
	.st1{display:inline;fill:#FFFFFF;}
	.st2{fill:#DEDEDE;}
	.st3{fill:#969696;}
	.st4{fill:#6E6E6E;}
	.st5{fill:#4E4E4E;}
	.st6{fill:#494949;}
	.st7{fill:#C2C2C2;}
	.st8{fill:#FFFFFF;}
	.st9{fill:#A1A1A1;}
	.st10{fill:#848484;}
	.st11{fill:#505050;}
	.st12{fill:#242424;}
	.st13{fill:#616161;}
	.st14{opacity:0.5;}
</style>
<g id="BACKGROUND" class="st0">
	<rect class="st1" width="500" height="500"/>
</g>
<g id="OBJECTS">
	<g>
		<path class="st2" d="M218.4,165.5c-15.4-55.8-84.6-73.7-124.3-32c-0.6,0.6-1.1,1.2-1.7,1.8c-56.9,61.9-30,214.3,88.7,252.9
			c118.8,38.6,242.3-31.9,249.2-95c6.9-63.1-47.9-82.9-132.9-65.3C249.4,237.9,228,200.2,218.4,165.5z"/>
		<path class="st2" d="M317.2,175c-15.9,2.6-20.3,16.7-8,26.7c4.1,3.3,9.8,6,18.1,7.4c31.4,5.2,48.1-8.7,35.5-26.7
			C355,171.2,332.9,172.5,317.2,175z"/>
		<path class="st2" d="M71.3,289c-7.8-14.1-22.5-13.5-27.8,1.5c-1.7,4.9-2.4,11.3-0.9,19.5c5.7,31.3,24.4,42.3,37.1,24.4
			C87.6,323.3,79,302.9,71.3,289z"/>
		<path class="st2" d="M441.5,300.5c-1.5,7.7,4.9,13.1,12,10.1c2.4-1,4.8-2.9,6.9-6.2c8.1-12.6,4-23.4-7.3-22.3
			C446.2,282.9,443,293,441.5,300.5z"/>
		<path class="st2" d="M401.4,219.7c7.6,1.6,13.2-4.6,10.3-11.9c-0.9-2.4-2.8-4.8-6-7c-12.5-8.3-23.3-4.4-22.4,6.9
			C383.8,214.7,393.8,218.1,401.4,219.7z"/>
		<path class="st2" d="M215.7,137.7c6,4.9,13.8,1.9,14.6-5.8c0.3-2.5-0.3-5.5-2.2-9c-7.2-13.1-18.7-14.6-23.1-4.2
			C202.4,125.2,209.7,132.8,215.7,137.7z"/>
	</g>
	<g>
		<g>
			<path class="st3" d="M457.6,412.9c2.6,0.4,5.4-0.3,7.2-2.2c1.2-1.3,2-2.8,2-4.3c0,0,0,0,0-0.1c0-10.7,13.1-10,17.3-23
				c4.2-13.1-12.4-14.2-22-6.1c-6.8,5.8-15.1-2.3-25,4.5c-8.6,5.9-3.8,20.3-18,15.8c-4.5-1.4-8.6-0.1-12,2.5
				c-3.9,3-6.5,7.1-7.6,11.6l1.1,0.8C428.6,429.4,441.2,410.1,457.6,412.9z"/>
			<g>
				<path class="st4" d="M429.9,412.3l37-23.8c0.5-0.3,0.6-1,0.3-1.5c-0.3-0.5-1-0.6-1.5-0.3l-39.8,25.6H429.9z"/>
			</g>
		</g>
		<g>
			<g>
				<path class="st5" d="M427.9,341.6c-1.6-23.3-1.8-47.7-0.1-63.9c2.3-21.2,7.4-35.9,15.2-43.8c0.5-0.5,1.4-0.5,1.9,0
					c0.5,0.5,0.5,1.4,0,1.9c-13.7,13.8-18.6,50.8-14.3,107.2L427.9,341.6z"/>
			</g>
			<path class="st4" d="M431.4,258.9c0,0-11.2,0-10.4-19.6C421,239.3,438.1,244.2,431.4,258.9z"/>
			<path class="st4" d="M430.5,269c0,0-0.6-11.1,19-11.4C449.5,257.6,445.6,274.9,430.5,269z"/>
			<path class="st4" d="M439,241.5c0,0-4.3-10.3,14.1-17.1C453.1,224.4,455.2,242,439,241.5z"/>
			<path class="st4" d="M427.9,289.3c0,0-10.5,3.8-16.4-15C411.5,274.3,429.3,273.1,427.9,289.3z"/>
			<path class="st4" d="M428.5,299.7c0,0-2.5-10.9,16.8-14.6C445.3,285.2,444.5,302.9,428.5,299.7z"/>
			<path class="st4" d="M428,314.1c0,0-10.4,4-16.7-14.7C411.3,299.4,429,297.9,428,314.1z"/>
		</g>
		<g>
			<path class="st4" d="M104,393.5l-3-0.1l-1.6-0.1l-4.6-0.2c0,0-42.2-71.7-15.8-95.1c8.1-7.2,22.4-1.2,19.2,31.9
				C95.3,360.6,104,393.5,104,393.5z"/>
			<g>
				<path class="st5" d="M100.9,393.4l-1.6-0.1c-7.4-17.4-11.1-36-12.9-49.1c-2.2-15.6-2.3-26.8-2.3-27c0-0.4,0.3-0.7,0.7-0.7
					c0.4,0,0.7,0.3,0.7,0.7c0,0.1,0.1,11.3,2.3,26.8C89.7,357.2,93.5,376,100.9,393.4z"/>
			</g>
		</g>
		<g>
			<path class="st3" d="M112.4,407.9l-4.1,1.5l-2.2,0.8l-6.2,2.3c0,0-96.4-72.3-74.1-118.3c6.9-14.2,29.2-14.1,43.5,31.8
				C82.4,368.7,112.4,407.9,112.4,407.9z"/>
			<g>
				<path class="st4" d="M108.2,409.4l-2.2,0.8c-19.5-19.1-34.9-42-44.7-58.4c-11.6-19.6-18-34.6-18.1-34.7c-0.2-0.5,0-1.2,0.6-1.4
					c0.5-0.2,1.2,0,1.4,0.6c0.1,0.2,6.4,15.1,18,34.5C73,367.3,88.5,390.3,108.2,409.4z"/>
			</g>
		</g>
		<g>
			<path class="st4" d="M441.9,412c0-1.7-0.2-3.3-0.6-5c-3.5-15.9,6-18.9,18.4-23.9c12.4-5,13.9-19.9,5.1-32.3
				c-8.8-12.4,7-22.3,1.2-40.9c-5.8-18.6-26.1-6.2-30.5,10.9c-3.2,12.3-19.3,9.7-25.3,25.7c-5.2,13.9,12.2,26.7-7.9,33.1
				c-6.4,2-10,7-11.8,12.7c-2.1,6.7-1.7,13.6,0.7,19.6H441.9z"/>
			<g>
				<path class="st5" d="M417.2,412l33.2-81.9c0.3-0.8-0.1-1.7-0.8-2c-0.8-0.3-1.7,0.1-2,0.8L414,412H417.2z"/>
			</g>
		</g>
	</g>
	<g>
		<path class="st6" d="M140.9,164.4c0,0,0.7-14.7-8.3-17.6c-14-4.4-17.8,2.8-20,7.6c-2.8,6.1-1.6,18.2,6.7,19.3
			C131.8,175.5,140.1,168.6,140.9,164.4z"/>
		<path class="st6" d="M149.9,213.7c7.3,0,13.5-5.1,15-12.2c1.1-5.1,2.1-9.6,2.1-12.2v-0.1c0.1-0.8,0.1-1.6,0.1-2.4
			c0.1-11.6-7.1-32.9-32.3-29.5c0,0-20.9,2.4-23.3,22.8c0,0-1,9.4-1.7,16.3c0,0.1,0,0.2,0,0.4c-0.9,9,6.2,16.9,15.3,16.9H149.9z"/>
		<g>
			<g>
				<path class="st4" d="M179.8,238c0,0,4.5,35.3,9.6,53.5c0,0,7.2-3.4,16.7-7.9c10.3-5,25-14,25-14l3.7,9c0,0-38.1,36-50.8,38
					c-12.6,2-20.4-43.2-20.4-43.2L179.8,238z"/>
				<path class="st7" d="M230.4,270.6c0,0-1-5,1.2-8.4c2.2-3.4,5.7-9.8,9.7-11.1c3.4-1.1-1.6,4.6-1.7,8.2c0,0,5-0.6,8.6-1.8
					c3.2-1,9.4-2.3,12.4-2.9c0.8-0.2,1.3,0.8,0.7,1.4c-1,0.9-3.1,1.9-7.4,3c0,0,10.4-2,11.5-0.4c1.1,1.6-12,3.8-12,3.8
					s10.2-0.6,10.4,1c0.2,1-10.4,3.2-10.4,3.2s9.6,0.3,7.3,1.8c-0.7,0.4-19.3,2.5-25.8,10.2C234.9,278.5,230.5,274,230.4,270.6z"/>
			</g>
		</g>
		<g>
			<g>
				<path class="st4" d="M115.5,231.1c0,0-21.3,6.3-39.7,10.4c0,0-0.5-8-1-18.5c-0.5-11.4,0.4-28.7,0.4-28.7l-9.7,1
					c0,0-13.5,50.7-9.3,62.8c4.2,12.1,57.8-4.8,57.8-4.8L115.5,231.1z"/>
				<path class="st7" d="M74.7,195.5c0,0,4.9-1.5,6.8-5.1c1.9-3.6,7.2-10.8,3.9-13.5c-1.2-1-2.1,3.3-5.2,5.1c0,0-1.8-4.7-2.5-8.4
					c-0.6-3.3-2.5-9.4-3.3-12.2c-0.2-0.8-1.4-0.7-1.5,0c-0.3,1.3-0.2,3.6,0.9,7.9c0,0-3.2-10.1-5.2-10.3c-1.9-0.2,2.3,12.4,2.3,12.4
					s-4.3-9.2-5.8-8.7c-0.9,0.3,2.1,10.6,2.1,10.6s-4.8-8.3-5-5.6c-0.1,0.8,6.9,18.2,3.3,27.5C65.6,195.3,71.6,197,74.7,195.5z"/>
			</g>
		</g>
		<g>
			<g>
				<path class="st3" d="M179,374.9l0.2,0.8c-16.6,11.3-78.8,3.6-78.8,3.6c0.1-1.3,0.2-2.7,0.4-4.1c0.2-1.6,0.4-3.2,0.7-4.9
					c0.8-4.5,1.8-9.4,2.9-14.5c0.4-1.6,0.7-3.2,1.1-4.8c1.1-4.8,2.3-9.7,3.4-14.4c0.4-1.6,0.8-3.2,1.1-4.8c0.5-2.2,1-4.4,1.5-6.5
					c0.6-2.8,1.2-5.5,1.6-8.1c0.3-1.7,0.6-3.4,0.8-4.9c0.2-1.7,0.4-3.2,0.5-4.7c-1-3.7-1.9-7.2-2.8-10.7c-0.4-1.8-0.8-3.5-1.3-5.2
					c-1.3-5.5-2.4-10.7-3.4-15.5c-0.3-1.8-0.7-3.5-1-5.2c-1.1-5.7-2-10.9-2.7-15.5c-0.3-1.8-0.5-3.5-0.8-5.1
					c-0.2-1.7-0.5-3.4-0.6-4.8c-0.8-6.4-1.1-10.1-1.1-10.1c0.1-0.1,0.3-0.2,0.5-0.3c1.9-1.3,4.8-2.6,8.1-3.7c3.5-1.2,7.3-2.2,10.7-3
					c0.5-0.1,1-0.2,1.5-0.4c4.4-1,7.7-1.6,7.7-1.6c15.1,3.2,19.4,1.1,19.4,1.1l7.7,2.3l0.9,0.3l5.6,2l0.2,0.1l10,3.5l6.7,2.3
					l-2.6,12l-1.1,5.2l-3.4,15.7l-1.1,5.2l-3.4,15.7l-1.1,5.1l-2.8,13l0.6,2.5l1.1,4.8l1.7,7.7l1.6,6.9l1.1,4.8l3.3,14.4l1.1,4.8
					l3.3,14.3L179,374.9z"/>
				<path class="st7" d="M157.3,230.1c-1.6,9.4-6.2,18.9-15.7,19.9c-11.5,1.2-17.4-13.1-20-22c4.4-1,9-2,9-2c15.1,3.2,18,1.2,18,1.2
					l7.8,2.6L157.3,230.1z"/>
				<g>
					<path class="st8" d="M140.5,242.1c-12,0-14.9-14.8-14.9-15c-0.1-0.3,0.2-0.6,0.5-0.7c0.3-0.1,0.6,0.2,0.7,0.5
						c0.1,0.6,2.8,14.6,14.5,14c10.2-0.5,10.8-11.8,10.8-12.3c0-0.3,0.3-0.6,0.6-0.6c0.3,0,0.6,0.3,0.6,0.6
						c0,0.1-0.7,12.8-11.9,13.4C141,242.1,140.8,242.1,140.5,242.1z"/>
				</g>
				<path class="st4" d="M118.9,238c0,1.6-1.3,2.9-2.9,2.9s-2.9-1.3-2.9-2.9s1.3-2.9,2.9-2.9S118.9,236.4,118.9,238z"/>
				<path class="st4" d="M113.1,252.4c0,1.6-1.3,2.9-2.9,2.9c-1.6,0-2.9-1.3-2.9-2.9c0-1.6,1.3-2.9,2.9-2.9
					C111.8,249.4,113.1,250.7,113.1,252.4z"/>
				<path class="st4" d="M131.8,259.1c0,1.6-1.3,2.9-2.9,2.9c-1.6,0-2.9-1.3-2.9-2.9c0-1.6,1.3-2.9,2.9-2.9
					C130.5,256.2,131.8,257.5,131.8,259.1z"/>
				<path class="st4" d="M118.7,267.1c0.6,1.5-0.1,3.2-1.6,3.8c-1.5,0.6-3.2-0.1-3.8-1.6c-0.6-1.5,0.1-3.2,1.6-3.8
					C116.4,264.9,118.1,265.6,118.7,267.1z"/>
				<path class="st4" d="M144.2,272.6c0,1.6-1.3,2.9-2.9,2.9c-1.6,0-2.9-1.3-2.9-2.9c0-1.6,1.3-2.9,2.9-2.9
					C142.9,269.6,144.2,270.9,144.2,272.6z"/>
				<path class="st4" d="M162.9,278.6c0,1.6-1.3,2.9-2.9,2.9c-1.6,0-2.9-1.3-2.9-2.9c0-1.6,1.3-2.9,2.9-2.9
					C161.6,275.7,162.9,277,162.9,278.6z"/>
				<path class="st4" d="M166.7,241c0,1.6-1.3,2.9-2.9,2.9c-1.6,0-2.9-1.3-2.9-2.9c0-1.6,1.3-2.9,2.9-2.9
					C165.3,238,166.7,239.4,166.7,241z"/>
				<path class="st4" d="M145.4,291.3c0,1.6-1.3,2.9-2.9,2.9c-1.6,0-2.9-1.3-2.9-2.9c0-1.6,1.3-2.9,2.9-2.9
					C144,288.4,145.4,289.7,145.4,291.3z"/>
				<path class="st4" d="M127.3,300.4c0,1.6-1.3,2.9-2.9,2.9c-1.6,0-2.9-1.3-2.9-2.9c0-1.6,1.3-2.9,2.9-2.9
					C126,297.5,127.3,298.8,127.3,300.4z"/>
				<path class="st4" d="M125.2,283.8c0,1.6-1.3,2.9-2.9,2.9c-1.6,0-2.9-1.3-2.9-2.9c0-1.6,1.3-2.9,2.9-2.9
					C123.9,280.9,125.2,282.2,125.2,283.8z"/>
				<path class="st4" d="M154.1,259.9c0,1.6-1.3,2.9-2.9,2.9c-1.6,0-2.9-1.3-2.9-2.9c0-1.6,1.3-2.9,2.9-2.9
					C152.8,257,154.1,258.3,154.1,259.9z"/>
				<path class="st4" d="M170.3,256.2c0,1.6-1.3,2.9-2.9,2.9s-2.9-1.3-2.9-2.9c0-1.6,1.3-2.9,2.9-2.9S170.3,254.6,170.3,256.2z"/>
				<path class="st4" d="M160,296.2c0,1.6-1.3,2.9-2.9,2.9c-1.6,0-2.9-1.3-2.9-2.9c0-1.6,1.3-2.9,2.9-2.9
					C158.6,293.2,160,294.5,160,296.2z"/>
				<path class="st4" d="M160.7,319.4c0,1.6-1.3,2.9-2.9,2.9c-1.6,0-2.9-1.3-2.9-2.9c0-1.6,1.3-2.9,2.9-2.9
					C159.4,316.4,160.7,317.8,160.7,319.4z"/>
				<path class="st4" d="M145.8,309.7c0.6,1.5-0.1,3.2-1.6,3.8c-1.5,0.6-3.2-0.1-3.8-1.6c-0.6-1.5,0.1-3.2,1.6-3.8
					C143.5,307.5,145.2,308.2,145.8,309.7z"/>
				<path class="st4" d="M125.8,318.3c0.6,1.5-0.1,3.2-1.6,3.8c-1.5,0.6-3.2-0.1-3.8-1.6c-0.6-1.5,0.1-3.2,1.6-3.8
					C123.5,316,125.2,316.8,125.8,318.3z"/>
			</g>
			<polygon class="st3" points="185.3,411.9 184.7,408.3 182.3,394.1 181.5,389.2 179.2,375.7 175.1,375.9 120.6,378.3 100.4,379.3 
				99.1,389.8 98.5,394.7 96.8,409.3 96.4,411.9 			"/>
			<g>
				<g>
					<path class="st6" d="M185.3,411.9l-0.6-3.3l0-0.3l-0.4-2.3l-0.4-2.3l-1.6-9.5l-0.5-2.8l-0.3-2l0-0.3l-2.1-12.4l-0.1-0.9
						l-0.2-0.8l-0.2-0.7l-0.9-4.1l-1.8-8l-0.5-2.3l-0.9-4l-1.1-4.8l-0.7-3.3l-0.5-2.3l-2-8.9l-0.7-3.2l-0.3-1.6l-0.2-0.7l-1.4-6.2
						c-22.1,6.5-45.6,2.7-56,0.3c-0.5,2.1-1,4.3-1.5,6.5c-0.1,0.5-0.2,1-0.3,1.5c-0.2,0.8-0.4,1.5-0.6,2.3c-0.1,0.4-0.2,0.7-0.3,1.1
						c-0.9,3.6-1.8,7.3-2.6,11c-0.2,0.8-0.3,1.5-0.5,2.3c-0.1,0.4-0.2,0.8-0.3,1.2c-0.4,1.6-0.7,3.2-1.1,4.8
						c-0.5,2.1-0.9,4.2-1.3,6.2c-0.2,0.8-0.3,1.5-0.5,2.2c-0.4,2.1-0.8,4.1-1.1,6c-0.3,1.7-0.5,3.3-0.7,4.9c-0.1,0.5-0.1,1-0.2,1.4
						c-0.1,0.8-0.2,1.5-0.2,2.3c0,0.1,0,0.2,0,0.3l-1.3,10.5l-0.2,1.6l-0.3,2.3l-0.1,1l-1.4,11.5l-0.3,2.3l-0.1,0.7l-0.3,2.7H185.3z
						"/>
				</g>
			</g>
		</g>
		<g>
			<g>
				<g>
					<path class="st9" d="M158.5,190.7c0,0,3.6-4.6,6.3-0.8c2.7,3.8-1.1,14.9-7.7,12.2L158.5,190.7z"/>
					<g>
						<path class="st10" d="M158.5,198.7c0.2,0,0.5-0.2,0.5-0.4c1-3.4,4.8-4.8,4.8-4.9c0.3-0.1,0.4-0.4,0.3-0.7
							c-0.1-0.3-0.4-0.4-0.7-0.3c-0.2,0.1-4.3,1.6-5.5,5.6c-0.1,0.3,0.1,0.6,0.4,0.6C158.4,198.7,158.5,198.7,158.5,198.7z"/>
					</g>
					<g>
						<path class="st10" d="M162.3,196.9c0.1,0,0.2,0,0.3-0.1c0.3-0.2,0.3-0.5,0.2-0.7c0,0-0.7-1-2.1-1.6c-0.3-0.1-0.6,0-0.7,0.3
							c-0.1,0.3,0,0.6,0.3,0.7c1.1,0.5,1.6,1.2,1.6,1.2C161.9,196.8,162.1,196.9,162.3,196.9z"/>
					</g>
					<g>
						<path class="st8" d="M156.8,202c-0.6,0.7-1,1.6-1,2.6c0,2.2,1.8,3.9,3.9,3.9c2.2,0,3.9-1.8,3.9-3.9c0-1.2-0.6-2.3-1.5-3.1
							c-0.5-0.4-1-0.6-1.6-0.7c-0.1-0.3-0.1-0.5,0.1-0.7c0.7,0.2,1.4,0.5,2,1c1,0.9,1.7,2.1,1.7,3.6c0,2.6-2.1,4.7-4.7,4.7
							c-2.6,0-4.7-2.1-4.7-4.7c0-1.1,0.4-2.1,1-2.9C156.4,201.8,156.6,201.9,156.8,202z"/>
					</g>
				</g>
				<path class="st7" d="M130.7,214v13.7c0,0,6.4,4.9,11.3,5.3c5,0.4,6.7-5.4,6.7-5.4v-12.7L130.7,214z"/>
				<path class="st9" d="M130.7,215.4v5.5c3.3,3.7,9.2,5,18,3.7l0-8.3L130.7,215.4z"/>
				<path class="st7" d="M160.6,195.9c-0.2,1.3-0.3,2.7-0.6,4c-1.6,8.9-7.2,18.5-14.3,20.1c-15.3,3.5-21.7-8.6-24.2-17.5
					c-0.3-1,0.2-2.1,0-3.3c-0.5-2.8-1.6-5.9-1.9-9c-0.2-2.2-0.3-4.3-0.4-6.2c-0.2-5.4,2.9-10.4,7.8-12.3c7.1-2.8,17.8-5,27.9,0.9
					c3.7,2.2,6.1,6.3,6.2,10.7C161.3,186.8,161.2,191.2,160.6,195.9z"/>
				<g>
					<path class="st9" d="M141.2,202.8c-0.3,0-0.5-0.2-0.6-0.5c-0.1-0.3,0.2-0.6,0.5-0.7l2-0.3l-2.8-7.5c-0.1-0.3,0-0.7,0.3-0.8
						c0.3-0.1,0.7,0,0.8,0.3l3.3,8.9L141.2,202.8C141.2,202.8,141.2,202.8,141.2,202.8z"/>
				</g>
				<path class="st6" d="M148.5,192.8c0,1.3,0.7,2.4,1.5,2.4c0.8,0,1.5-1.1,1.5-2.4c0-1.3-0.7-2.4-1.5-2.4
					C149.2,190.5,148.5,191.5,148.5,192.8z"/>
				<path class="st6" d="M131.8,192.8c0,1.3,0.7,2.4,1.5,2.4s1.5-1.1,1.5-2.4c0-1.3-0.7-2.4-1.5-2.4S131.8,191.5,131.8,192.8z"/>
				<path class="st6" d="M154.5,186.6c-1.2-0.2-3.7-0.6-6.3-0.5c-0.7,0-1.2,0.5-1.1,1.1l0,0c0.1,0.4,0.5,0.7,1.1,0.7
					c1.8-0.1,6.4-0.1,8.6,0.5c0.1-0.3-0.2-0.6-0.5-0.9C155.8,187,155.2,186.8,154.5,186.6z"/>
				<path class="st6" d="M130.2,186.9c1.2-0.3,3.7-0.7,6.3-0.6c0.7,0,1.2,0.5,1.2,1.1l0,0c-0.1,0.4-0.5,0.7-1.1,0.7
					c-1.8-0.1-6.4,0-8.6,0.7c-0.1-0.3,0.1-0.7,0.4-0.9C128.8,187.3,129.5,187,130.2,186.9z"/>
				<path class="st8" d="M148.5,206.3c-0.4,2.1-1.9,5.9-6.9,5.9c-5,0-6.3-3.5-6.8-5.9H148.5z"/>
				<g>
					<path class="st9" d="M141.7,215.8c1.4,0,2.7-0.8,2.7-0.8c0.3-0.2,0.4-0.5,0.2-0.8c-0.2-0.3-0.5-0.4-0.8-0.2l0,0
						c0,0-1,0.6-2.1,0.6c-1.2,0-2.2-0.6-2.2-0.6c-0.3-0.2-0.6-0.1-0.8,0.2c-0.2,0.3-0.1,0.6,0.2,0.8
						C138.9,215.1,140.2,215.8,141.7,215.8z"/>
				</g>
				<path class="st6" d="M161.2,194.5c-0.1,0.1-0.3,0.1-0.4-0.2c-2-3.6-0.1-10.7-6.1-13.4c-4.6-2.1-6.2-6.4-6.2-6.4
					c-1,1.8-3.8,3.4-3.8,3.4s-6.9,4.1-14.1,6.8c-2.1,0.8-3.6,1.7-4.7,2.4c0.1,0,0.1,0,0.1,0s-2,3.2-0.5,8.2c1.5,5-0.4,13.3-3.6,15.2
					c0.1-0.1,2.5-5.9,1.1-10.5c-0.8-2.7-0.8-6.9-1.5-9.5c-0.8-0.6-2.7-1.5-3.4-1.9c-0.2-2.2-0.3-4.4-0.4-6.3
					c-0.3-5.5,3-10.6,8.2-12.6c7.4-2.9,18.7-5.1,29.4,0.9c3.9,2.2,6.4,6.4,6.5,10.9C161.9,185.2,161.8,189.8,161.2,194.5z"/>
			</g>
			<g>
				<path class="st7" d="M121.5,190.7c0,0-4.2-5.1-6.7-1.4c-2.5,3.7,1.2,14.9,7.2,12.3L121.5,190.7z"/>
				<g>
					<path class="st8" d="M121.7,201.7c0.4,0.8,0.6,1.8,0.3,2.8c-0.5,2.1-2.6,3.4-4.7,2.8c-2.1-0.5-3.4-2.6-2.8-4.7
						c0.3-1.2,1.1-2.1,2.2-2.6c0.5-0.2,1.1-0.4,1.7-0.3c0.1-0.2,0.2-0.5,0-0.8c-0.8,0-1.5,0.1-2.2,0.5c-1.2,0.6-2.1,1.7-2.5,3.1
						c-0.6,2.5,0.9,5,3.4,5.6c2.5,0.6,5-0.9,5.6-3.4c0.3-1.1,0.1-2.2-0.3-3.1C122.2,201.6,121.9,201.6,121.7,201.7z"/>
				</g>
				<g>
					<path class="st9" d="M120.6,197.7c-0.2,0-0.4-0.1-0.5-0.4c-0.9-3.3-4.4-4.7-4.4-4.7c-0.3-0.1-0.4-0.4-0.3-0.7
						c0.1-0.3,0.4-0.4,0.7-0.3c0.2,0.1,4,1.5,5.1,5.4c0.1,0.3-0.1,0.6-0.4,0.6C120.7,197.7,120.7,197.7,120.6,197.7z"/>
				</g>
				<g>
					<g>
						<path class="st9" d="M117.1,196.1c-0.1,0-0.2,0-0.3-0.1c-0.2-0.2-0.3-0.5-0.2-0.7c0,0,0.6-1,1.9-1.5c0.3-0.1,0.6,0,0.7,0.3
							c0.1,0.3,0,0.6-0.3,0.7c-1,0.4-1.5,1.2-1.5,1.2C117.4,196,117.3,196.1,117.1,196.1z"/>
					</g>
				</g>
			</g>
		</g>
	</g>
	<g>
		<path class="st7" d="M343.4,301c-9.7,7-25,11.8-25,11.8l-3.1-11.2l-2.4-8.8l-1.7-6.2l-17.5,0c0.9,3.3,1.9,6.6,2.9,9.9
			c1.3,4.3,2.5,8.4,3.7,12.3c1.7,5.4,3.2,10.2,4.5,13.5c0.3,0.8,0.6,1.7,1,2.6c2.3,6.3,4.2,13.2,13.1,8.9c7.9-3.8,18.5-9,23.8-12.5
			L343.4,301z"/>
		<g>
			<path class="st9" d="M296.6,296.6c1.3,4.2,2.5,8.4,3.7,12.3c7.1-0.8,12.1-4.3,15-7.2l-2.4-8.8L296.6,296.6z"/>
			<path class="st11" d="M292.8,235.3c0,0,18.2,43.5,26.1,57.6c0,0-11,9.3-21.7,9.6C297.2,302.4,291.1,254.7,292.8,235.3z"/>
		</g>
		<g>
			<g>
				<g>
					<path class="st3" d="M250.1,412c0.2-3,0.4-5.9,0.5-8.6c0.6-11,1.1-18.5,1.1-18.5l-4.3-0.2l-2.4-0.1l-29.2-1.3
						c0,0-0.5,8.4-1.2,20.7c-0.1,2.5-0.3,5.2-0.4,8H250.1z"/>
				</g>
			</g>
			<path class="st4" d="M247.4,384.7l4.3,0.2c0,0-0.4,7.5-1.1,18.5c-11.2,0.9-23.5,1.3-36.1,0.6c0.6-12.3,1.2-20.7,1.2-20.7
				l29.2,1.3L247.4,384.7z"/>
			<g>
				<path class="st4" d="M245.9,412c0.7-11.7,1.2-21.8,1.5-27.3l-2.4-0.1c-0.3,5.5-0.9,15.6-1.5,27.4H245.9z"/>
			</g>
		</g>
		<g>
			<g>
				<g>
					<path class="st3" d="M259.6,412h35.9c-0.1-2.8-0.3-5.5-0.4-8c-0.6-12.3-1.2-20.7-1.2-20.7l-29.2,1.3l-2.4,0.1l-4.3,0.2
						c0,0,0.4,7.5,1.1,18.5C259.2,406,259.4,408.9,259.6,412z"/>
				</g>
			</g>
			<path class="st4" d="M262.3,384.7l-4.3,0.2c0,0,0.4,7.5,1.1,18.5c11.2,0.9,23.5,1.3,36.1,0.6c-0.6-12.3-1.2-20.7-1.2-20.7
				l-29.2,1.3L262.3,384.7z"/>
			<g>
				<path class="st4" d="M266.3,412c-0.7-11.8-1.2-21.9-1.5-27.4l-2.4,0.1c0.3,5.5,0.9,15.6,1.5,27.3H266.3z"/>
			</g>
		</g>
		<g>
			<g>
				<g>
					<g>
						<path class="st4" d="M209.4,362.4c0,0.6,0,1.2,0,1.8c0,10.7,0.1,19,0.1,23c10.3,2.8,20.6,4.6,31,5.4c0.5,0,0.9,0.1,1.4,0.1
							c0.3,0,0.5,0,0.8,0c0.6,0,1.1,0.1,1.7,0.1c0.6,0,1.2,0.1,1.8,0.1c7,0.3,14.1,0.2,21.1-0.4c1.4-0.1,2.8-0.3,4.3-0.4
							c0.1,0,0.2,0,0.3,0c0.4,0,0.7-0.1,1.1-0.1c0.2,0,0.4-0.1,0.7-0.1c8.2-1,16.3-2.6,24.5-4.8c0-1.8,0-4.6,0-8c0-0.6,0-1.3,0-2v0
							c0-4.9,0-11.1-0.1-18c0-0.6,0-1.2,0-1.8c0-4.6-0.1-9.6-0.1-14.7c0-0.6,0-1.2,0-1.8c-0.1-5.3-0.1-10.8-0.2-16.4
							c-0.1-3.4-0.1-6.9-0.2-10.3c-0.1-3.5-0.1-7-0.2-10.5c0-0.8,0-1.5-0.1-2.3c-0.8-32.9-2.2-63-4.5-66.4c-1.6-2.3-5.2-5.1-9.5-7.8
							c-0.5-0.3-1.1-0.7-1.6-1c-1.8-1.1-16.7-6.2-18.6-7.3l-15.7-1.1c-0.1,0.1-15.1,5.1-15.2,5.2c-0.6,0.4-1.3,0.7-1.9,1.1
							c-5.6,3.2-11.1,6.6-14.2,9.5c-0.5,0.4-0.9,0.8-1.2,1.2c-0.3,0.3-0.5,0.6-0.7,0.9c-0.2,0.3-0.4,0.7-0.5,1.4
							c-1.9,6.9-2.9,34.1-3.4,63.7c0,2.1-0.1,4.3-0.1,6.4c0,0.9,0,1.9,0,2.8c0,0.6,0,1.3,0,1.9c0,0.3,0,0.6,0,1c0,1.6,0,3.2-0.1,4.8
							c0,1.2,0,2.4,0,3.5C209.5,336.2,209.4,350.6,209.4,362.4z"/>
					</g>
				</g>
			</g>
		</g>
		<g>
			<g>
				<path class="st7" d="M181.3,404.7c-0.4,4.2,4.7,1.9,3.3-6.6c-1.4-8.5,2.7-16.2,4.4-16c1.8,0.3-1.5,9.3,0.1,12.5
					c1.6,3.3,3.6-3.1,5.6-6.9c2.1-4,2-12.7,1-18.9c-1-6.2,10.3-43.9,10.4-54.9l1.4-4.6l5-17l7.9-26.6c0,0-4.7-20.1-12.7-18.4
					c0,0-4.2,14-8.7,29.8c-0.8,2.7-1.5,5.4-2.3,8.1c-3.2,11.5-6.2,22.8-7.6,29.5c-3.7,17.7-4,54.5-4,54.5s-6.5,13.5-6.7,19.6
					C178.3,395.4,181.7,400.5,181.3,404.7z"/>
				<path class="st9" d="M196.7,285.4l10.8,24l5-17L199,277.2C198.3,279.9,197.5,282.7,196.7,285.4z"/>
			</g>
			<path class="st4" d="M196.2,278.2c4.7,8.1,9.5,16.1,14.3,24.2c1.6-5.3,3.2-10.3,4.7-15c0,0,0,0,0,0c0.6-1.9,1.2-3.7,1.8-5.4
				c0,0,0-0.1,0-0.1c0.2-0.6,0.4-1.2,0.6-1.8v0c2.3-6.9,4-12.4,4.6-15.6c1.4-8.6-2.4-25.5-7.6-28.8l0,0c-0.1,0.3-0.5-0.6-0.8-0.1
				c-0.9,2.1-5,7.4-7,12.5c-0.3,0.7-0.5,1.3-0.8,2C203.1,257.8,199.5,267.5,196.2,278.2z"/>
		</g>
		<g>
			<g>
				<g>
					<path class="st11" d="M254.4,233.5c6.8,0,11.6-6.2,11.8-6.5c0.3-0.4,0.2-0.9-0.1-1.2c-0.4-0.3-0.9-0.2-1.2,0.1
						c-0.1,0.1-4.5,5.8-10.5,5.8c-5.9,0-9.6-6.5-9.6-6.6c-0.2-0.4-0.7-0.6-1.1-0.3c-0.4,0.2-0.5,0.8-0.3,1.2
						C243.5,226.3,247.5,233.5,254.4,233.5z"/>
				</g>
			</g>
			<g>
				<path class="st11" d="M283.2,293c0.1,0,0.3,0,0.4-0.1c0.4-0.2,0.6-0.8,0.4-1.2l-3-6.3c-0.2-0.4-0.7-0.6-1.1-0.4
					c-0.4,0.2-0.6,0.8-0.4,1.2l3,6.3C282.6,292.9,282.9,293,283.2,293z"/>
			</g>
			<g>
				<path class="st11" d="M289.4,287.9c0.1,0.1,0.2,0.1,0.4,0.1c0.5,0,0.9-0.3,0.9-0.8l0.6-7c0-0.5-0.3-0.9-0.8-1
					c-0.5,0-0.9,0.3-0.9,0.8l-0.6,7C288.9,287.4,289.1,287.7,289.4,287.9z"/>
			</g>
			<g>
				<path class="st11" d="M273.4,277c0.4,0,0.8-0.3,0.8-0.7l1.1-6.9c0.1-0.5-0.2-0.9-0.7-1c-0.5-0.1-0.9,0.2-1,0.7l-1.1,6.9
					c-0.1,0.5,0.2,0.9,0.7,1C273.3,277,273.4,277,273.4,277z"/>
			</g>
			<g>
				<path class="st11" d="M246.7,279.6c0.1,0,0.3,0,0.4-0.1c0.4-0.2,0.5-0.8,0.3-1.2l-3.4-6.1c-0.2-0.4-0.7-0.6-1.1-0.3
					c-0.4,0.2-0.5,0.8-0.3,1.2l3.4,6.1C246.1,279.5,246.4,279.6,246.7,279.6z"/>
			</g>
			<g>
				<path class="st11" d="M279.5,252.5c0.2,0,0.3,0,0.4-0.1l5.5-3.8c0.4-0.3,0.5-0.8,0.2-1.2c-0.2-0.4-0.8-0.5-1.1-0.3l-5.5,3.8
					c-0.4,0.3-0.5,0.8-0.2,1.2C279,252.3,279.2,252.5,279.5,252.5z"/>
			</g>
			<g>
				<path class="st11" d="M254.9,308.9c0.1,0,0.3,0,0.4-0.1c0.4-0.2,0.6-0.8,0.4-1.2l-3-6.3c-0.2-0.4-0.7-0.6-1.1-0.4
					c-0.4,0.2-0.6,0.8-0.4,1.2l3,6.3C254.3,308.7,254.6,308.9,254.9,308.9z"/>
			</g>
			<g>
				<path class="st11" d="M267.9,257.2c0.3,0,0.5-0.1,0.7-0.4c0.2-0.4,0.1-1-0.3-1.2l-5.6-3.7c-0.4-0.3-0.9-0.1-1.1,0.3
					c-0.2,0.4-0.1,1,0.3,1.2l5.6,3.7C267.6,257.2,267.8,257.2,267.9,257.2z"/>
			</g>
			<g>
				<path class="st11" d="M281.2,231.1c0,0.2,0,0.3,0.1,0.5c0.1,0.3,0.4,0.4,0.7,0.5c0.5,0,0.9-0.3,0.9-0.8l0.3-4
					c-0.5-0.3-1.1-0.7-1.6-1L281.2,231.1z"/>
			</g>
			<g>
				<path class="st11" d="M288.6,269.6c0.3,0,0.5-0.1,0.7-0.4c0.2-0.4,0.1-1-0.3-1.2l-5.6-3.7c-0.4-0.3-0.9-0.1-1.1,0.3
					c-0.2,0.4-0.1,1,0.3,1.2l5.6,3.7C288.3,269.6,288.5,269.6,288.6,269.6z"/>
			</g>
			<g>
				<path class="st11" d="M244.2,239c0.2,0,0.3,0,0.5-0.1c0.4-0.3,0.5-0.8,0.2-1.2l-3.2-5.2c-0.3-0.4-0.8-0.5-1.1-0.3
					c-0.4,0.3-0.5,0.8-0.2,1.2l3.2,5.2C243.6,238.8,243.9,239,244.2,239z"/>
			</g>
			<g>
				<path class="st11" d="M241.3,328.1c0.2,0,0.4-0.1,0.6-0.3l4.6-5.1c0.3-0.4,0.3-0.9,0-1.3c-0.3-0.3-0.9-0.3-1.2,0l-4.6,5.1
					c-0.3,0.4-0.3,0.9,0,1.3C240.9,328.1,241.1,328.1,241.3,328.1z"/>
			</g>
			<g>
				<path class="st11" d="M258.1,327.1c0.2,0,0.4-0.1,0.6-0.3l4.6-5.1c0.3-0.4,0.3-0.9,0-1.3c-0.3-0.3-0.9-0.3-1.2,0l-4.6,5.1
					c-0.3,0.4-0.3,0.9,0,1.3C257.6,327,257.9,327.1,258.1,327.1z"/>
			</g>
			<g>
				<path class="st11" d="M270.1,361.4c0.1-0.2,0.1-0.5,0-0.7l-2.8-6.3c-0.2-0.4-0.7-0.6-1.1-0.4c-0.4,0.2-0.6,0.7-0.4,1.2l2.8,6.3
					c0.2,0.4,0.7,0.6,1.1,0.4C269.9,361.8,270,361.6,270.1,361.4z"/>
			</g>
			<g>
				<path class="st11" d="M222,382.3c0.1-0.2,0.1-0.5,0-0.7l-2.8-6.3c-0.2-0.4-0.7-0.6-1.1-0.4c-0.4,0.2-0.6,0.7-0.4,1.2l2.8,6.3
					c0.2,0.4,0.7,0.6,1.1,0.4C221.8,382.7,222,382.6,222,382.3z"/>
			</g>
			<g>
				<path class="st11" d="M242.7,392.9c0.6,0,1.1,0.1,1.7,0.1l0.6-4c0.1-0.5-0.2-0.9-0.7-1c-0.5-0.1-0.9,0.3-0.9,0.7L242.7,392.9z"
					/>
			</g>
			<g>
				<path class="st11" d="M236.1,380.9c0.2-0.1,0.3-0.3,0.3-0.6l1-7c0.1-0.5-0.2-0.9-0.7-1c-0.5-0.1-0.9,0.3-0.9,0.7l-1,7
					c-0.1,0.5,0.2,0.9,0.7,1C235.7,381.1,235.9,381,236.1,380.9z"/>
			</g>
			<g>
				<path class="st11" d="M276.1,322.8c0.1,0,0.3,0,0.4-0.1c0.4-0.2,0.5-0.8,0.3-1.2l-3.3-6.1c-0.2-0.4-0.7-0.6-1.1-0.3
					c-0.4,0.2-0.5,0.8-0.3,1.2l3.3,6.1C275.5,322.6,275.8,322.8,276.1,322.8z"/>
			</g>
			<g>
				<path class="st11" d="M266.4,307.6c0.3,0,0.6-0.2,0.7-0.5l3-6.3c0.2-0.4,0.1-1-0.4-1.2c-0.4-0.2-0.9-0.1-1.1,0.4l-3,6.3
					c-0.2,0.4-0.1,1,0.4,1.2C266.1,307.5,266.3,307.6,266.4,307.6z"/>
			</g>
			<g>
				<path class="st11" d="M292.6,306.6c0.1,0.1,0.2,0.2,0.3,0.2c0.3,0.1,0.6,0.1,0.9-0.1l3.4-3c0-0.8,0-1.5-0.1-2.3l-4.4,4
					C292.3,305.7,292.3,306.3,292.6,306.6z"/>
			</g>
			<g>
				<path class="st11" d="M266.4,241.2c0.3,0,0.6-0.2,0.7-0.5l3-6.3c0.2-0.4,0.1-1-0.4-1.2c-0.4-0.2-0.9-0.1-1.1,0.4l-3,6.3
					c-0.2,0.4-0.1,1,0.4,1.2C266.2,241.2,266.3,241.2,266.4,241.2z"/>
			</g>
			<g>
				<path class="st11" d="M247.1,264.1c0.1,0,0.1,0,0.2,0c0.4-0.1,0.7-0.6,0.7-1l-1.2-6.9c-0.1-0.5-0.5-0.8-1-0.7
					c-0.4,0.1-0.7,0.6-0.7,1l1.2,6.9C246.4,263.8,246.7,264.1,247.1,264.1z"/>
			</g>
			<g>
				<path class="st11" d="M257.9,270.2c0.1,0,0.1,0,0.2,0c0.4-0.1,0.7-0.6,0.7-1l-1.2-6.9c-0.1-0.5-0.5-0.8-1-0.7
					c-0.4,0.1-0.7,0.6-0.7,1l1.2,6.9C257.1,269.9,257.5,270.2,257.9,270.2z"/>
			</g>
			<g>
				<path class="st11" d="M250.1,247.4c0.3,0,0.5-0.1,0.7-0.4l3.5-5.9c0.2-0.4,0.1-1-0.3-1.2c-0.4-0.3-0.9-0.1-1.1,0.3l-3.5,5.9
					c-0.2,0.4-0.1,1,0.3,1.2C249.8,247.3,250,247.4,250.1,247.4z"/>
			</g>
			<g>
				<path class="st11" d="M282.5,308.6c0.2-0.3,0.3-0.6,0.1-1l-2.8-6.4c-0.2-0.4-0.7-0.6-1.1-0.4c-0.4,0.2-0.6,0.7-0.4,1.2l2.8,6.4
					c0.2,0.4,0.7,0.6,1.1,0.4C282.3,308.8,282.4,308.7,282.5,308.6z"/>
			</g>
			<g>
				<path class="st11" d="M261.2,290.2c0.3,0,0.6-0.2,0.8-0.6l2.4-6.6c0.2-0.5,0-1-0.5-1.1c-0.4-0.2-0.9,0-1.1,0.5l-2.4,6.6
					c-0.2,0.5,0,1,0.5,1.1C261,290.2,261.1,290.2,261.2,290.2z"/>
			</g>
			<g>
				<path class="st11" d="M234.8,330.7c0.1,0,0.3,0,0.4-0.1c0.4-0.2,0.6-0.8,0.4-1.2l-3-6.3c-0.2-0.4-0.7-0.6-1.1-0.4
					c-0.4,0.2-0.6,0.8-0.4,1.2l3,6.3C234.2,330.5,234.5,330.7,234.8,330.7z"/>
			</g>
			<g>
				<path class="st11" d="M278.5,375.8c0,0.1,0,0.3,0.1,0.4c0.2,0.4,0.7,0.6,1.1,0.4l5.8-3.2c0.4-0.2,0.6-0.8,0.4-1.2
					c-0.2-0.4-0.7-0.6-1.1-0.4l-5.8,3.2C278.6,375.2,278.5,375.5,278.5,375.8z"/>
			</g>
			<g>
				<path class="st11" d="M294.3,379.9c0,0.1,0,0.3,0.1,0.4c0.2,0.4,0.7,0.6,1.1,0.4l2.5-1.4c0-0.6,0-1.3,0-2l-3.3,1.8
					C294.5,379.2,294.3,379.5,294.3,379.9z"/>
			</g>
			<g>
				<path class="st11" d="M269.8,387.7l2,4.6c0.4,0,0.7-0.1,1.1-0.1c0.2,0,0.4-0.1,0.7-0.1l-2.2-5.1c-0.2-0.4-0.7-0.6-1.1-0.4
					C269.8,386.7,269.6,387.2,269.8,387.7z"/>
			</g>
			<g>
				<path class="st11" d="M224,314.7c0.4,0,0.8-0.3,0.8-0.7l1.1-6.9c0.1-0.5-0.2-0.9-0.7-1c-0.5-0.1-0.9,0.2-1,0.7l-1.1,6.9
					c-0.1,0.5,0.2,0.9,0.7,1C223.9,314.7,224,314.7,224,314.7z"/>
			</g>
			<g>
				<path class="st11" d="M223.4,263.5c0.1,0,0.3,0,0.4-0.1c0.4-0.2,0.5-0.8,0.3-1.2l-3.4-6.1c-0.2-0.4-0.7-0.6-1.1-0.3
					c-0.4,0.2-0.5,0.8-0.3,1.2l3.4,6.1C222.8,263.3,223.1,263.5,223.4,263.5z"/>
			</g>
			<g>
				<path class="st11" d="M234.1,288.1c0.2,0,0.3,0,0.4-0.1l5.5-3.8c0.4-0.3,0.5-0.8,0.2-1.2c-0.2-0.4-0.8-0.5-1.1-0.3l-5.5,3.8
					c-0.4,0.3-0.5,0.8-0.2,1.2C233.6,287.9,233.9,288.1,234.1,288.1z"/>
			</g>
			<g>
				<path class="st11" d="M292.6,329.3c0.1,0,0.3,0,0.4-0.1c0.4-0.2,0.6-0.8,0.4-1.2l-3-6.3c-0.2-0.4-0.7-0.6-1.1-0.4
					c-0.4,0.2-0.6,0.8-0.4,1.2l3,6.3C292,329.2,292.3,329.3,292.6,329.3z"/>
			</g>
			<g>
				<path class="st11" d="M224.7,297.6c0.3,0,0.5-0.1,0.7-0.4c0.2-0.4,0.1-1-0.3-1.2l-5.6-3.7c-0.4-0.3-0.9-0.1-1.1,0.3
					c-0.2,0.4-0.1,1,0.3,1.2l5.6,3.7C224.4,297.6,224.6,297.6,224.7,297.6z"/>
			</g>
			<g>
				<path class="st11" d="M238.1,306.5c0.2,0.2,0.5,0.3,0.8,0.2c0.4-0.1,0.7-0.6,0.6-1.1l-1.7-6.8c-0.1-0.5-0.6-0.8-1-0.6
					c-0.4,0.1-0.7,0.6-0.6,1.1l1.7,6.8C237.9,306.2,238,306.4,238.1,306.5z"/>
			</g>
			<g>
				<path class="st11" d="M214.5,234.8l1.4,2.3c0.2,0.3,0.4,0.4,0.7,0.4c0.2,0,0.3,0,0.5-0.1c0.4-0.3,0.5-0.8,0.2-1.2l-1.6-2.6
					C215.3,234,214.9,234.4,214.5,234.8z"/>
			</g>
			<g>
				<path class="st11" d="M208.2,250.3l1.5,2.5c0.2,0.3,0.4,0.4,0.7,0.4c0.2,0,0.3,0,0.5-0.1c0.4-0.3,0.5-0.8,0.2-1.2l-2.2-3.5
					C208.7,248.9,208.5,249.6,208.2,250.3z"/>
			</g>
			<g>
				<path class="st11" d="M280,351.3c0.2,0,0.4-0.1,0.6-0.3l4.6-5.1c0.3-0.4,0.3-0.9,0-1.3c-0.3-0.3-0.9-0.3-1.2,0l-4.6,5.1
					c-0.3,0.4-0.3,0.9,0,1.3C279.5,351.2,279.7,351.3,280,351.3z"/>
			</g>
			<g>
				<path class="st11" d="M249.6,369c0.2,0,0.4-0.1,0.6-0.3l4.6-5.1c0.3-0.4,0.3-0.9,0-1.3c-0.3-0.3-0.9-0.3-1.2,0l-4.6,5.1
					c-0.3,0.4-0.3,0.9,0,1.3C249.2,368.9,249.4,369,249.6,369z"/>
			</g>
			<g>
				<path class="st11" d="M241.2,362c0.1-0.2,0.2-0.4,0.2-0.7l-0.8-7c-0.1-0.5-0.5-0.8-0.9-0.8c-0.5,0.1-0.8,0.5-0.7,1l0.8,7
					c0.1,0.5,0.5,0.8,0.9,0.8C240.9,362.3,241.1,362.1,241.2,362z"/>
			</g>
			<g>
				<path class="st11" d="M258.5,381.7c0.2,0,0.4-0.1,0.6-0.3l4.6-5.1c0.3-0.4,0.3-0.9,0-1.3c-0.3-0.3-0.9-0.3-1.2,0l-4.6,5.1
					c-0.3,0.4-0.3,0.9,0,1.3C258.1,381.6,258.3,381.7,258.5,381.7z"/>
			</g>
			<g>
				<path class="st11" d="M209.4,362.4c0,0.6,0,1.2,0,1.8l5.1,0.5c0.5,0,0.9-0.3,0.9-0.8c0-0.5-0.3-0.9-0.8-1L209.4,362.4z"/>
			</g>
			<g>
				<path class="st11" d="M269.7,340.6c0.2,0,0.4-0.1,0.6-0.3l4.6-5.1c0.3-0.4,0.3-0.9,0-1.3c-0.3-0.3-0.9-0.3-1.2,0l-4.6,5.1
					c-0.3,0.4-0.3,0.9,0,1.3C269.2,340.5,269.5,340.6,269.7,340.6z"/>
			</g>
			<g>
				<path class="st11" d="M247.7,338.4c0,0.2,0.1,0.5,0.3,0.6l5,4.5c0.4,0.3,0.9,0.3,1.2-0.1c0.3-0.4,0.2-0.9-0.1-1.2l-5-4.5
					c-0.4-0.3-0.9-0.3-1.2,0.1C247.8,337.9,247.7,338.2,247.7,338.4z"/>
			</g>
			<g>
				<path class="st11" d="M223.7,363.3c0.1,0,0.3,0,0.4-0.1c0.4-0.2,0.5-0.8,0.3-1.2l-3.3-6.1c-0.2-0.4-0.7-0.6-1.1-0.3
					c-0.4,0.2-0.5,0.8-0.3,1.2l3.3,6.1C223.2,363.1,223.5,363.3,223.7,363.3z"/>
			</g>
			<g>
				<path class="st11" d="M218,345.2c0.3,0,0.6-0.2,0.7-0.5l3-6.3c0.2-0.4,0.1-1-0.4-1.2c-0.4-0.2-0.9-0.1-1.1,0.4l-3,6.3
					c-0.2,0.4-0.1,1,0.4,1.2C217.8,345.2,217.9,345.2,218,345.2z"/>
			</g>
			<g>
				<path class="st11" d="M227,274.2c0.3,0,0.6-0.2,0.7-0.5l3-6.3c0.2-0.4,0.1-1-0.4-1.2c-0.4-0.2-0.9-0.1-1.1,0.4l-3,6.3
					c-0.2,0.4-0.1,1,0.4,1.2C226.8,274.2,226.9,274.2,227,274.2z"/>
			</g>
			<g>
				<path class="st11" d="M223.7,247.9c0.1,0,0.1,0,0.2,0c0.4-0.1,0.7-0.6,0.7-1l-1.2-6.9c-0.1-0.5-0.5-0.8-1-0.7
					c-0.4,0.1-0.7,0.6-0.7,1l1.2,6.9C223,247.7,223.4,247.9,223.7,247.9z"/>
			</g>
			<g>
				<path class="st11" d="M208.6,271.8c0.1,0,0.1,0,0.2,0c0.4-0.1,0.7-0.6,0.7-1l-1.2-6.9c-0.1-0.5-0.5-0.8-1-0.7
					c-0.4,0.1-0.7,0.6-0.7,1l1.2,6.9C207.9,271.5,208.2,271.8,208.6,271.8z"/>
			</g>
			<g>
				<path class="st11" d="M234.5,254c0.1,0,0.1,0,0.2,0c0.4-0.1,0.7-0.6,0.7-1l-1.2-6.9c-0.1-0.5-0.5-0.8-1-0.7
					c-0.4,0.1-0.7,0.6-0.7,1l1.2,6.9C233.8,253.7,234.1,254,234.5,254z"/>
			</g>
			<g>
				<path class="st11" d="M229.6,229.9c0.2,0,0.3,0,0.5,0c0.3-0.1,0.5-0.3,0.5-0.6l1.4-6.3c-0.6,0.4-1.3,0.7-1.9,1.1l-1.1,4.8
					C228.8,229.4,229.1,229.8,229.6,229.9z"/>
			</g>
			<g>
				<path class="st11" d="M210.6,282.5c0.3,0,0.5-0.1,0.7-0.4l3.5-5.9c0.2-0.4,0.1-1-0.3-1.2c-0.4-0.3-0.9-0.1-1.1,0.3l-3.5,5.9
					c-0.2,0.4-0.1,1,0.3,1.2C210.3,282.4,210.4,282.5,210.6,282.5z"/>
			</g>
			<g>
				<path class="st11" d="M234.1,346.3c0.2-0.3,0.3-0.6,0.1-1l-2.8-6.4c-0.2-0.4-0.7-0.6-1.1-0.4c-0.4,0.2-0.6,0.7-0.4,1.2l2.8,6.4
					c0.2,0.4,0.7,0.6,1.1,0.4C234,346.4,234.1,346.4,234.1,346.3z"/>
			</g>
			<g>
				<path class="st11" d="M292.5,358.2l5.5,1c0-0.6,0-1.2,0-1.8l-5.3-0.9c-0.5-0.1-0.9,0.3-0.9,0.7
					C291.7,357.7,292,358.2,292.5,358.2z"/>
			</g>
			<g>
				<path class="st11" d="M294.2,342l3.7,0.6c0-0.6,0-1.2,0-1.8l-3.4-0.6c-0.5-0.1-0.9,0.3-0.9,0.7
					C293.4,341.5,293.7,341.9,294.2,342z"/>
			</g>
			<g>
				<path class="st11" d="M212.8,327.9c0.3,0,0.6-0.2,0.8-0.6l2.4-6.6c0.2-0.5,0-1-0.5-1.1c-0.4-0.2-0.9,0-1.1,0.5l-2.4,6.6
					c-0.2,0.5,0,1,0.5,1.1C212.6,327.9,212.7,327.9,212.8,327.9z"/>
			</g>
		</g>
		<g>
			<g>
				<g>
					<path class="st11" d="M209.8,307.2c1.6-6.4,3.5-13.6,5.5-19.7c0,0,0,0,0,0c0.6-1.9,1.2-3.7,1.8-5.4c0,0,0-0.1,0-0.1
						c0.2-0.5,0.4-1,0.5-1.5c0-0.1,0-0.2,0-0.3v0c0-0.3-0.2-0.6-0.5-0.7c-0.4-0.1-0.8,0.1-0.9,0.4c-2,5.4-4.3,13.2-6.3,20.9
						C209.8,302.9,209.8,305.1,209.8,307.2z"/>
				</g>
			</g>
		</g>
		<g>
			<path class="st6" d="M233.5,183c0,0-5.8-6.4-3.6-13.8c2.2-7.4,8.1-7.3,8.1-7.3s3.5-7.9,9.4-8.1c5.9-0.3,11.5-10.8,16.9-7.9
				c5.4,2.9-0.6,9.1-0.6,9.1s9.2-9.7,12.3-6.9c3,2.9-4.2,10.5-4.2,10.5s7.8-5.5,10.3-3.4c2.5,2.1-6.1,11-6.1,11s5.6,10.1,0,14.6
				L233.5,183z"/>
			<g>
				<path class="st9" d="M273.9,185.1c0,0,3.7-4.9,6.4-0.9c2.7,4.1-1.1,16.1-7.9,13.2L273.9,185.1z"/>
				<g>
					<path class="st10" d="M273.9,193.7c0.2,0,0.5-0.2,0.5-0.4c1-3.7,4.9-5.2,4.9-5.2c0.3-0.1,0.4-0.4,0.3-0.7
						c-0.1-0.3-0.4-0.4-0.7-0.3c-0.2,0.1-4.4,1.7-5.6,6c-0.1,0.3,0.1,0.6,0.4,0.7C273.8,193.7,273.9,193.7,273.9,193.7z"/>
				</g>
				<g>
					<path class="st10" d="M277.8,191.8c0.1,0,0.2,0,0.3-0.1c0.3-0.2,0.3-0.5,0.2-0.8c0,0-0.7-1.1-2.1-1.7c-0.3-0.1-0.6,0-0.8,0.3
						c-0.1,0.3,0,0.6,0.3,0.8c1.1,0.5,1.6,1.3,1.6,1.3C277.4,191.8,277.6,191.8,277.8,191.8z"/>
				</g>
			</g>
			<g>
				<path class="st9" d="M235.8,185.1c0,0-3.7-4.9-6.4-0.9c-2.7,4.1,1.1,16.1,7.9,13.2L235.8,185.1z"/>
				<g>
					<path class="st10" d="M235.8,193.7c-0.2,0-0.5-0.2-0.5-0.4c-1-3.7-4.9-5.2-4.9-5.2c-0.3-0.1-0.4-0.4-0.3-0.7
						c0.1-0.3,0.4-0.4,0.7-0.3c0.2,0.1,4.4,1.7,5.6,6c0.1,0.3-0.1,0.6-0.4,0.7C235.9,193.7,235.8,193.7,235.8,193.7z"/>
				</g>
				<g>
					<g>
						<path class="st10" d="M231.9,191.8c-0.1,0-0.2,0-0.3-0.1c-0.3-0.2-0.3-0.5-0.2-0.8c0,0,0.7-1.1,2.1-1.7c0.3-0.1,0.6,0,0.8,0.3
							c0.1,0.3,0,0.6-0.3,0.8c-1.1,0.5-1.6,1.3-1.6,1.3C232.3,191.8,232.1,191.8,231.9,191.8z"/>
					</g>
				</g>
			</g>
			<path class="st7" d="M245.8,207.6v12c0,0,3.6,6.1,8.4,6.5c4.8,0.4,9.1-5.2,9.1-5.2v-12.4L245.8,207.6z"/>
			<path class="st9" d="M245.8,207.6v5.3c3.2,3.6,9,4.5,17.5,3.2v-7.7L245.8,207.6z"/>
			<path class="st7" d="M233.2,176.9c0.2,4.6,0.7,10.5,1.5,15.1v0c0,0,0,0,0,0c0,0,0,0,0,0c0.2,1.1,0.5,2.2,0.7,3.2
				c0.2,0.6,0.3,1.2,0.5,1.8c2.8,8.9,9.4,21.8,25.9,15.9c6.9-2.5,10.6-9.7,12.4-17.4c0.1-0.5,0.2-0.9,0.3-1.4
				c0.1-0.3,0.1-0.6,0.2-0.9l0.1-0.4c0-0.1,0-0.1,0-0.2c0,0,0,0,0,0c1.1-6,1.3-12,1.2-16.4c-0.1-4.4-2.5-8.4-6.3-10.6
				c-10.4-5.9-21.4-3.7-28.6-0.9C236.1,166.6,232.9,171.6,233.2,176.9z"/>
			<path class="st6" d="M234.7,192C234.7,192,234.7,192,234.7,192C234.7,192.1,234.7,192.1,234.7,192
				C234.7,192.1,234.7,192.1,234.7,192c0.1,0.5,0.7,2.6,1.3,5c2.8,8.9,9.4,21.8,25.9,15.9c6.9-2.5,10.6-9.7,12.4-17.4
				c0.1-0.5,0.2-0.9,0.3-1.4c0.1-0.3,0.1-0.6,0.2-0.9l0.1-0.4c0-0.1,0-0.1,0-0.2c0,0,0,0,0,0l-2.4-0.5c-0.5,2.3-1.5,4.5-2.7,6.4
				c-2.1-4.9-12.5-1.7-12.5-1.7l0,0c-0.6,0.2-1.3,0.3-1.9,0.3c-0.7,0-1.3-0.1-2-0.3c0,0-10.3-3.4-12.4,1.3c-2.1-3.3-3.6-6.3-3.6-6.3
				L234.7,192L234.7,192z M255.2,199.1c11.8-1.6,9.9,4.8,9.9,4.8c-1.3,1.2-2.5,2.1-3.3,2.5c-2.6,1.4-5.1,2-6.9,1.9
				c-1.8-0.1-2.3,0.3-6.9-2.2c-0.8-0.4-1.6-1.1-2.4-1.8c0,0,0,0,0,0v0C245.4,203,243.4,197.1,255.2,199.1z"/>
			<path class="st6" d="M244.5,185.6c0,1.3,0.7,2.3,1.5,2.3c0.8,0,1.5-1,1.5-2.3c0-1.3-0.7-2.3-1.5-2.3
				C245.2,183.3,244.5,184.3,244.5,185.6z"/>
			<path class="st6" d="M262.9,185.6c0,1.3,0.7,2.3,1.5,2.3c0.8,0,1.5-1,1.5-2.3c0-1.3-0.7-2.3-1.5-2.3
				C263.6,183.3,262.9,184.3,262.9,185.6z"/>
			<path class="st6" d="M240.8,177.8c0,0,6.1-2.4,10.7-0.4l-0.5,2.6c0,0-6.9-0.6-10.3,0.8C240.4,179.8,240.4,178.8,240.8,177.8z"/>
			<path class="st6" d="M269.7,177.8c0,0-6.1-2.4-10.8-0.4l0.5,2.6c0,0,6.9-0.6,10.4,0.8C270,179.8,270.1,178.8,269.7,177.8z"/>
			<g>
				<g>
					<path class="st9" d="M254.7,195.9c-1,0-1.9-0.4-2.1-0.4c-0.3-0.1-0.4-0.4-0.3-0.7c0.1-0.3,0.5-0.4,0.7-0.3
						c0.5,0.2,1.7,0.5,2.3,0.2c0.1-0.1,0.2-0.2,0.3-0.5c0.2-2-0.3-8.6-0.3-8.7c0-0.3,0.2-0.6,0.5-0.6c0.3,0,0.6,0.2,0.6,0.5
						c0,0.3,0.6,6.8,0.3,8.9c-0.1,0.8-0.5,1.2-0.8,1.4C255.5,195.8,255.1,195.9,254.7,195.9z"/>
				</g>
			</g>
			<path class="st8" d="M261.9,200.2c-0.4,2.2-1.9,6.2-6.7,6.2c-4.8,0-6.2-3.6-6.7-6.2H261.9z"/>
			<path class="st6" d="M233.2,176.9c0.2,4.6,0.7,10.5,1.6,15.1l2.5-0.2c0,0-0.6-3.9-0.9-6.5c-0.3-2.6-0.8-7.3,1.4-7.9
				c2.2-0.6,0.9-6,3.9-8.4c3-2.4,9.8-3,14.3-0.3c4.5,2.7,9.5-0.2,11.6,0.3c2.1,0.5,4.9,3.3,4.1,6c-0.8,2.6,1.5,4.3,2.1,7
				c0.6,2.7-1.2,10.1-1.2,10.1l2.4,0.5c1.1-6,1.3-12,1.2-16.4c-0.1-4.4-2.5-8.4-6.3-10.6c-10.4-5.9-21.4-3.7-28.6-0.9
				C236.1,166.6,232.9,171.6,233.2,176.9z"/>
		</g>
	</g>
	<g>
		<g>
			<g>
				<g>
					<g>
						<path class="st4" d="M337.7,304.9c-1.5,14.1-10.7,45.5-17.1,51.7c-8.3,8-35.6,24.9-49.8,33.6c-2.6,1.6,9.5,12,9.5,12
							s37.7-16.1,52.1-28.8c4.1-3.6,12.3-14.9,21.7-36.6c2.8-6.6,9.7-19.8,9.3-28.4C363,298.4,347.3,300,337.7,304.9z"/>
					</g>
				</g>
				<path class="st7" d="M308.2,385.8c0,0-10.3,3.9-13.9,8.2c-3.6,4.3-8.4,7.9-7.3,9.6c1.2,1.7,6.5-3.2,6.5-3.2s1.5,5.4,6.6,6
					c5.2,0.6,14.9-9.5,14.9-9.5L308.2,385.8z"/>
				<g>
					<g>
						<path class="st3" d="M409.5,344.2c0,0.9,0,1.9,0,3.1c0,1.2,0,2.5-0.1,4c0,1-0.1,2-0.1,3.2c0,0.9-0.1,1.9-0.1,2.9
							c0,1-0.1,2.1-0.1,3.2c-0.7,14.7-2.4,35.1-6.2,51.4H323c2.7-11.9,6.7-30.6,10-54.9c0.1-1,0.3-2.1,0.4-3.1
							c0.1-1,0.3-2.1,0.4-3.2c0.1-0.6,0.1-1.1,0.2-1.7c0.1-0.5,0.1-0.9,0.2-1.4c0.1-1.3,0.3-2.6,0.4-3.9c0.1-1.1,0.2-2.1,0.3-3.1
							c1.4-16.3,0.9-28.6,2.9-35.9c2.3-8.5,29-18.3,29-18.3l16.7,0.9c0,0,16,5.2,24.5,12.7c8.5,7.5,1.4,29.8,1.6,42.5
							C409.5,343.1,409.5,343.6,409.5,344.2z"/>
						<g>
							<path class="st2" d="M409.5,347.3c-7.3,0.9-14.8,1.2-22.3,1.2c-24.3,0-47.2-3.7-52.7-4.7c0.1-1.1,0.2-2.1,0.3-3.1
								c6.4,1.1,43.6,7.3,74.7,3.4C409.5,345.1,409.5,346.1,409.5,347.3z"/>
						</g>
						<g>
							<path class="st2" d="M409.4,351.3c0,1-0.1,2-0.1,3.2c-7.2,0.9-14.7,1.2-22.1,1.2c-25.7,0-49.7-4.2-53.5-4.8
								c0.1-0.6,0.1-1.1,0.2-1.7c0.1-0.5,0.1-0.9,0.2-1.4C337.8,348.4,376.9,355.3,409.4,351.3z"/>
						</g>
						<g>
							<path class="st2" d="M409.2,357.3c0,1-0.1,2.1-0.1,3.2c-7.5,1-15.3,1.3-23,1.3c-24.9,0-48.2-3.9-53.1-4.7
								c0.1-1,0.3-2.1,0.4-3.1C339.1,355,377.6,361.5,409.2,357.3z"/>
						</g>
						<g>
							<path class="st4" d="M371.5,302.6c8.3,0,16-8.8,16.3-9.2c0.2-0.2,0.2-0.6-0.1-0.8c-0.2-0.2-0.6-0.2-0.8,0.1
								c-0.1,0.1-8.1,9.4-16.2,8.8c-0.3,0-0.6,0.2-0.6,0.5c0,0.3,0.2,0.6,0.5,0.6C371,302.6,371.2,302.6,371.5,302.6z"/>
						</g>
						<g>
							<path class="st4" d="M378.7,402.1c0.3,0,0.5-0.2,0.6-0.5c0-0.3-0.2-0.6-0.5-0.7c-21.5-2.5-30.4-39.7-30.5-40.1
								c-0.1-0.3-0.4-0.5-0.7-0.4c-0.3,0.1-0.5,0.4-0.4,0.7C347.5,362.7,356.3,399.5,378.7,402.1
								C378.7,402.1,378.7,402.1,378.7,402.1z"/>
						</g>
						<g>
							<path class="st4" d="M370.2,390.8c0.2,0,0.4-0.1,0.5-0.3c0.2-0.3,0.1-0.6-0.2-0.8c-11.4-7-13.1-17.4-13.1-17.5
								c0-0.3-0.3-0.5-0.7-0.5c-0.3,0-0.5,0.3-0.5,0.7c0.1,0.4,1.8,11,13.7,18.4C370,390.8,370.1,390.8,370.2,390.8z"/>
						</g>
					</g>
					<g>
						<circle class="st6" cx="376.8" cy="247.9" r="23.5"/>
						<path class="st6" d="M353.7,243.7c0,0-6.7-1.8-5.8-8.3c0.7-5.5,7.2-1.9,6.6-6.2c-0.6-4.3-1.8-8.2,3.7-9.3
							c4.9-0.9,5,2.4,11.3-2.4c7.6-5.7,13.4,7.5,20.1,7.9c9.9,0.6,11.2,6.2,12.2,10.7c1,4.5-2.9,7.7-2.9,7.7H353.7z"/>
						<g>
							<path class="st9" d="M357.3,254.5c0,0-3.7-5-6.5-0.9c-2.8,4.1,1.1,16.3,7.9,13.3L357.3,254.5z"/>
							<g>
								<path class="st10" d="M357.2,263.1c-0.3,0-0.5-0.2-0.6-0.4c-1.1-3.7-4.9-5.3-5-5.3c-0.3-0.1-0.4-0.4-0.3-0.7
									c0.1-0.3,0.4-0.4,0.7-0.3c0.2,0.1,4.5,1.7,5.7,6c0.1,0.3-0.1,0.6-0.4,0.7C357.3,263.1,357.3,263.1,357.2,263.1z"/>
							</g>
							<g>
								<g>
									<path class="st10" d="M353.3,261.3c-0.1,0-0.2,0-0.3-0.1c-0.3-0.2-0.3-0.5-0.2-0.8c0,0,0.7-1.1,2.2-1.7
										c0.3-0.1,0.6,0,0.8,0.3c0.1,0.3,0,0.6-0.3,0.8c-1.1,0.5-1.7,1.3-1.7,1.3C353.7,261.2,353.5,261.3,353.3,261.3z"/>
								</g>
							</g>
						</g>
						<path class="st7" d="M384.3,277.2v12.1c0,0-5,5.3-9.8,5.7c-4.9,0.4-7.8-5.4-7.8-5.4v-11.6L384.3,277.2z"/>
						<path class="st9" d="M384.3,277.2v5.4c-3.3,3.6-9.1,4.5-17.7,3.3v-7.8L384.3,277.2z"/>
						<path class="st7" d="M397,246.2c-0.2,4.7-0.7,10.6-1.6,15.3c-0.2,1.2-0.5,2.3-0.8,3.3c-2.5,8.9-8.9,24.2-26.7,17.8
							c-7.9-2.8-11.5-11.6-13.1-20.5c-1.1-6-1.3-12.2-1.2-16.5c0.1-4.5,2.5-8.5,6.4-10.7c10.5-6,21.6-3.7,28.9-0.9
							C394.1,235.8,397.3,240.8,397,246.2z"/>
						<g>
							<g>
								<g>
									<path class="st6" d="M375.7,254.7v1c0,1.9,0.7,3.7,2.1,5.1c1.3,1.3,3.1,2.1,5,2.1h0.2c1.6,0,3.1-0.7,4.4-2
										c1.3-1.3,2.1-3.1,2.1-5v-1.1c0-0.3-0.1-0.6-0.2-0.9c-0.1-0.3-0.3-0.6-0.6-0.9c-0.5-0.5-1.1-0.7-1.8-0.7h-8.8
										c-1,0-1.9,0.6-2.3,1.4C375.8,253.9,375.7,254.3,375.7,254.7C375.7,254.7,375.7,254.7,375.7,254.7z M376.7,254.7
										c0-0.8,0.7-1.5,1.5-1.5h8.8c0.8,0,1.5,0.7,1.5,1.5v1.1c0,1.6-0.6,3.2-1.7,4.3c-1.1,1.1-2.4,1.6-3.7,1.7h-0.2
										c-1.6,0-3.1-0.6-4.3-1.8c-1.2-1.2-1.8-2.7-1.8-4.3V254.7z"/>
								</g>
								<g>
									<path class="st6" d="M358,254.7v1c0,1.9,0.8,3.7,2.1,5.1c1.3,1.3,3.1,2.1,5,2.1h0.2c1.6,0,3.1-0.7,4.4-2
										c1.3-1.3,2.1-3.1,2.1-5v-1.1c0,0,0,0,0,0c0-0.3-0.1-0.7-0.2-1c-0.4-0.9-1.3-1.5-2.3-1.5h-8.8c-0.8,0-1.5,0.4-1.9,0.9
										c-0.2,0.3-0.4,0.6-0.5,0.9C358.1,254.3,358,254.5,358,254.7z M359.1,254.7c0-0.8,0.7-1.5,1.5-1.5h8.8
										c0.8,0,1.5,0.7,1.5,1.5v1.1c0,1.6-0.6,3.2-1.7,4.3c-1.1,1.1-2.4,1.6-3.7,1.7h-0.2c-1.6,0-3.1-0.6-4.3-1.8
										c-1.2-1.2-1.8-2.7-1.8-4.3V254.7z"/>
								</g>
								<g>
									<path class="st6" d="M395.8,251.8c-3-0.1-5.1,0.7-6,1.2c-0.2,0.1-0.9,0.5-0.9,0.5l0.5,0.9c0,0,0.7-0.4,1-0.5
										c0.8-0.4,2.7-1.2,5.4-1V251.8z"/>
								</g>
								<g>
									<path class="st6" d="M376.4,254.8l0.3-1c-0.1,0-1.5-0.5-3.1-0.5c-1.7,0-2.8,0.5-2.9,0.5l0.5,0.9c0,0,0.9-0.4,2.4-0.4
										C375,254.3,376.4,254.7,376.4,254.8z"/>
								</g>
								<g>
									<path class="st6" d="M354.4,252v1c2.2,0.2,4.1,1.1,4.2,1.2l0.5-0.9C358.9,253.2,356.8,252.2,354.4,252z"/>
								</g>
							</g>
						</g>
						<path class="st6" d="M366.2,256c0,1.3-0.7,2.3-1.5,2.3c-0.8,0-1.5-1-1.5-2.3c0-1.3,0.7-2.3,1.5-2.3
							C365.5,253.7,366.2,254.8,366.2,256z"/>
						<path class="st6" d="M383.6,256c0,1.3-0.7,2.3-1.5,2.3c-0.8,0-1.5-1-1.5-2.3c0-1.3,0.7-2.3,1.5-2.3
							C382.9,253.7,383.6,254.8,383.6,256z"/>
						<path class="st6" d="M359.9,248.9c0,0,6.2-2.4,10.9-0.4l-0.4,2.2c0,0-5.2-1.2-10.2,0.7C359.9,250.4,359.5,249.9,359.9,248.9z"
							/>
						<path class="st6" d="M388.2,248.9c0,0-6.2-2.4-10.9-0.4l0.4,2.2c0,0,5.2-1.2,10.2,0.7C388.1,250.4,388.6,249.9,388.2,248.9z"
							/>
						<g>
							<g>
								<path class="st9" d="M374.3,265.8c1,0,1.9-0.4,2.1-0.4c0.3-0.1,0.4-0.5,0.3-0.7c-0.1-0.3-0.5-0.4-0.7-0.3
									c-0.5,0.2-1.8,0.5-2.3,0.2c-0.1-0.1-0.2-0.2-0.3-0.5c-0.2-2,0.3-8.7,0.3-8.8c0-0.3-0.2-0.6-0.5-0.6c-0.3,0-0.6,0.2-0.6,0.5
									c0,0.3-0.6,6.9-0.3,9c0.1,0.8,0.5,1.2,0.8,1.4C373.4,265.8,373.9,265.8,374.3,265.8z"/>
							</g>
						</g>
						<path class="st8" d="M367.2,268.7c0.5,2.4,2,6.7,7.3,6.7c5.3,0,6.7-4,7.2-6.7H367.2z"/>
						<g>
							<path class="st9" d="M374.4,278.4c1.5,0,2.7-0.8,2.8-0.8c0.3-0.2,0.4-0.5,0.2-0.8c-0.2-0.3-0.5-0.4-0.8-0.2
								c0,0-1,0.6-2.2,0.6c-1.1,0-2.1-0.6-2.1-0.6c-0.3-0.2-0.6-0.1-0.8,0.2c-0.2,0.3-0.1,0.6,0.2,0.8
								C371.8,277.7,373,278.4,374.4,278.4z"/>
						</g>
						<path class="st6" d="M356.7,258.3c-0.4-2.4-0.9-5.4-0.6-7c0.6-2.8,2.9-4.4,2.1-7.1c-0.8-2.7,2.1-5.6,4.1-6
							c2.1-0.5,6.9,0.6,11.7-1.7c4.6-2.2,12.5-0.6,13.8,2.3c1.6,3.5-0.6,3.9,3.7,7.7c1.7,1.5-0.3,5.5-0.6,8.1
							c-0.1,1.2-0.1,1.8-0.1,3l0,0.6h5.1c0.6-4,0.9-8.4,1.1-12.1c0.3-5.4-3-10.4-8.1-12.3c-7.3-2.8-18.4-5-28.9,0.9
							c-3.9,2.2-6.3,6.3-6.4,10.7c-0.1,3.5,0,8,0.6,12.8H356.7z"/>
						<g>
							<path class="st7" d="M393.7,260.5c0-1.3,0.1-2.7,0.3-4c0.3-1.8,0.8-3.4,2.7-4.2c1.5-0.6,3.1-0.6,4.2,1.1
								c2.8,4.1-0.3,16.9-7.1,13.9L393.7,260.5z"/>
							<g>
								<g>
									<path class="st9" d="M395.1,263.6c0.2,0,0.4-0.3,0.5-0.5c0.3-3.9,3.8-6.1,3.8-6.2c0.3-0.2,0.3-0.5,0.2-0.8
										c-0.2-0.3-0.5-0.3-0.8-0.2c-0.2,0.1-4,2.6-4.4,7c0,0.3,0.2,0.6,0.5,0.6C395,263.6,395.1,263.6,395.1,263.6z"/>
								</g>
							</g>
							<g>
								<g>
									<path class="st9" d="M398.6,261c0.1,0,0.2-0.1,0.3-0.2c0.2-0.2,0.2-0.6,0-0.8c0,0-0.9-0.9-2.5-1.3
										c-0.3-0.1-0.6,0.1-0.7,0.4c-0.1,0.3,0.1,0.6,0.4,0.7c1.2,0.3,1.9,1,1.9,1C398.2,261,398.4,261,398.6,261z"/>
								</g>
							</g>
						</g>
					</g>
				</g>
				<g>
					<path class="st4" d="M404.5,297.5c-8.4,12.7-40.5,56.7-47.7,61.8c-9.4,6.6-35.1,16.1-49.9,25.9c-5,3.3,6.8,12.8,6.8,12.8
						s36-10.1,52.2-20.5c4.6-2.9,23.6-22,35.8-38.9c4.2-5.8,10.9-13.9,11.9-22.4C414.7,306.4,411.6,301.1,404.5,297.5z"/>
				</g>
			</g>
		</g>
		<g>
			<path class="st12" d="M340.9,411.9h-100c-1.3,0-2.3-1-2.3-2.3v-8c0-1.3,1-2.3,2.3-2.3h100c1.3,0,2.3,1,2.3,2.3v8
				C343.2,410.9,342.2,411.9,340.9,411.9z"/>
			<path class="st6" d="M238.6,411.9L219,338.3c-1.1-4.1,2-8.2,6.3-8.2h43.3c2.9,0,5.5,1.9,6.3,4.8l21.7,77.1H238.6z"/>
			<path class="st12" d="M274.8,334.8l21.5,76.4h4.9l-21.5-76.4c-0.8-2.8-3.4-4.8-6.3-4.8h-4.9C271.4,330.1,274,332,274.8,334.8z"/>
			<path class="st13" d="M263.7,374.3c1.1,4.9-1.9,8.8-6.8,8.8c-4.9,0-9.7-3.9-10.8-8.8c-1.1-4.9,1.9-8.8,6.8-8.8
				C257.7,365.5,262.5,369.5,263.7,374.3z"/>
		</g>
	</g>
	<g>
		<g>
			<g>
				<g>
					<path class="st4" d="M397.7,140.7c-3.6,0-6.6-3-6.6-6.6s3-6.6,6.6-6.6c3.6,0,6.6,3,6.6,6.6S401.4,140.7,397.7,140.7z
						 M397.7,129.6c-2.5,0-4.5,2-4.5,4.5c0,2.5,2,4.5,4.5,4.5c2.5,0,4.5-2,4.5-4.5C402.3,131.6,400.2,129.6,397.7,129.6z"/>
				</g>
				<g>
					<path class="st3" d="M421.5,163.9c-3.6,0-6.6-3-6.6-6.6c0-3.6,3-6.6,6.6-6.6c3.6,0,6.6,3,6.6,6.6
						C428.1,160.9,425.2,163.9,421.5,163.9z M421.5,152.7c-2.5,0-4.5,2-4.5,4.5c0,2.5,2,4.5,4.5,4.5c2.5,0,4.5-2,4.5-4.5
						C426,154.8,424,152.7,421.5,152.7z"/>
				</g>
				<g>
					<g>
						<g>
							<path class="st4" d="M429.7,185.3c-0.6,0-1-0.5-1-1v-4.6c0-0.6,0.5-1,1-1c0.6,0,1,0.5,1,1v4.6
								C430.7,184.9,430.2,185.3,429.7,185.3z"/>
						</g>
						<g>
							<path class="st4" d="M429.7,193.3c-0.6,0-1-0.5-1-1v-4.6c0-0.6,0.5-1,1-1c0.6,0,1,0.5,1,1v4.6
								C430.7,192.9,430.2,193.3,429.7,193.3z"/>
						</g>
					</g>
					<g>
						<g>
							<path class="st4" d="M436.1,187H432c-0.6,0-1-0.5-1-1c0-0.6,0.5-1,1-1h4.1c0.6,0,1,0.5,1,1C437.1,186.6,436.7,187,436.1,187z
								"/>
						</g>
						<g>
							<path class="st4" d="M427.4,187h-4.1c-0.6,0-1-0.5-1-1c0-0.6,0.5-1,1-1h4.1c0.6,0,1,0.5,1,1C428.4,186.6,427.9,187,427.4,187
								z"/>
						</g>
					</g>
				</g>
				<g>
					<g>
						<g>
							<g>
								<path class="st5" d="M393.2,159.7c-0.6,0-1-0.5-1-1v-4.6c0-0.6,0.5-1,1-1c0.6,0,1,0.5,1,1v4.6
									C394.3,159.3,393.8,159.7,393.2,159.7z"/>
							</g>
							<g>
								<path class="st5" d="M393.2,167.7c-0.6,0-1-0.5-1-1v-4.6c0-0.6,0.5-1,1-1c0.6,0,1,0.5,1,1v4.6
									C394.3,167.3,393.8,167.7,393.2,167.7z"/>
							</g>
						</g>
						<g>
							<g>
								<path class="st5" d="M399.6,161.4h-4.1c-0.6,0-1-0.5-1-1c0-0.6,0.5-1,1-1h4.1c0.6,0,1,0.5,1,1
									C400.7,161,400.2,161.4,399.6,161.4z"/>
							</g>
							<g>
								<path class="st5" d="M390.9,161.4h-4.1c-0.6,0-1-0.5-1-1c0-0.6,0.5-1,1-1h4.1c0.6,0,1,0.5,1,1
									C391.9,161,391.5,161.4,390.9,161.4z"/>
							</g>
						</g>
					</g>
				</g>
			</g>
		</g>
		<g>
			<g>
				<g>
					<path class="st4" d="M91.3,110.4c0-3.6,3-6.6,6.6-6.6c3.6,0,6.6,3,6.6,6.6s-3,6.6-6.6,6.6C94.3,117,91.3,114,91.3,110.4z
						 M93.4,110.4c0,2.5,2,4.5,4.5,4.5c2.5,0,4.5-2,4.5-4.5c0-2.5-2-4.5-4.5-4.5C95.4,105.9,93.4,107.9,93.4,110.4z"/>
				</g>
				<g>
					<path class="st3" d="M64.8,135.6c0-3.6,3-6.6,6.6-6.6c3.6,0,6.6,3,6.6,6.6s-3,6.6-6.6,6.6C67.7,142.2,64.8,139.2,64.8,135.6z
						 M66.8,135.6c0,2.5,2,4.5,4.5,4.5c2.5,0,4.5-2,4.5-4.5c0-2.5-2-4.5-4.5-4.5C68.9,131,66.8,133.1,66.8,135.6z"/>
				</g>
				<g>
					<g>
						<g>
							<path class="st4" d="M51,144.8c0.6,0,1-0.5,1-1v-4.6c0-0.6-0.5-1-1-1c-0.6,0-1,0.5-1,1v4.6C50,144.4,50.5,144.8,51,144.8z"/>
						</g>
						<g>
							<path class="st4" d="M51,152.8c0.6,0,1-0.5,1-1v-4.6c0-0.6-0.5-1-1-1c-0.6,0-1,0.5-1,1v4.6C50,152.4,50.5,152.8,51,152.8z"/>
						</g>
					</g>
					<g>
						<g>
							<path class="st4" d="M44.6,146.5h4.1c0.6,0,1-0.5,1-1c0-0.6-0.5-1-1-1h-4.1c-0.6,0-1,0.5-1,1
								C43.6,146.1,44.1,146.5,44.6,146.5z"/>
						</g>
						<g>
							<path class="st4" d="M53.4,146.5h4.1c0.6,0,1-0.5,1-1c0-0.6-0.5-1-1-1h-4.1c-0.6,0-1,0.5-1,1
								C52.3,146.1,52.8,146.5,53.4,146.5z"/>
						</g>
					</g>
				</g>
				<g>
					<g>
						<g>
							<g>
								<path class="st5" d="M74.9,109.7c0.6,0,1-0.5,1-1v-4.6c0-0.6-0.5-1-1-1c-0.6,0-1,0.5-1,1v4.6
									C73.9,109.2,74.3,109.7,74.9,109.7z"/>
							</g>
							<g>
								<path class="st5" d="M74.9,117.7c0.6,0,1-0.5,1-1v-4.6c0-0.6-0.5-1-1-1c-0.6,0-1,0.5-1,1v4.6
									C73.9,117.2,74.3,117.7,74.9,117.7z"/>
							</g>
						</g>
						<g>
							<g>
								<path class="st5" d="M68.5,111.4h4.1c0.6,0,1-0.5,1-1s-0.5-1-1-1h-4.1c-0.6,0-1,0.5-1,1S67.9,111.4,68.5,111.4z"/>
							</g>
							<g>
								<path class="st5" d="M77.2,111.4h4.1c0.6,0,1-0.5,1-1s-0.5-1-1-1h-4.1c-0.6,0-1,0.5-1,1S76.7,111.4,77.2,111.4z"/>
							</g>
						</g>
					</g>
				</g>
			</g>
		</g>
		<g>
			<path class="st3" d="M346,117.4v20.1c0,2.7-2.2,4.8-4.8,4.8h-36.5l-11,4c-1.1,0.4-2.2-0.7-1.8-1.8l4.2-10.8v-16.3
				c0-2.7,2.2-4.8,4.8-4.8h40.3C343.9,112.6,346,114.7,346,117.4z"/>
			<g class="st14">
				<path class="st2" d="M338.3,123.1h-33.5c-0.7,0-1.3-0.6-1.3-1.3l0,0c0-0.7,0.6-1.3,1.3-1.3h33.5c0.7,0,1.3,0.6,1.3,1.3l0,0
					C339.7,122.5,339.1,123.1,338.3,123.1z"/>
				<path class="st2" d="M338.3,128.4h-33.5c-0.7,0-1.3-0.6-1.3-1.3l0,0c0-0.7,0.6-1.3,1.3-1.3h33.5c0.7,0,1.3,0.6,1.3,1.3l0,0
					C339.7,127.8,339.1,128.4,338.3,128.4z"/>
				<path class="st2" d="M338.3,133.8h-33.5c-0.7,0-1.3-0.6-1.3-1.3l0,0c0-0.7,0.6-1.3,1.3-1.3h33.5c0.7,0,1.3,0.6,1.3,1.3l0,0
					C339.7,133.2,339.1,133.8,338.3,133.8z"/>
			</g>
		</g>
	</g>
	<g>
		<path class="st5" d="M453.7,419.4v0.7c0,4.1-3.4,7.5-7.5,7.5H56.8c-4.1,0-7.5-3.4-7.5-7.5v-0.7c0-4.1,3.4-7.5,7.5-7.5h389.4
			C450.4,411.9,453.7,415.3,453.7,419.4z"/>
		<path class="st4" d="M453.7,419.4v0.4H49.3v-0.4c0-4.1,3.4-7.5,7.5-7.5h389.4C450.4,411.9,453.7,415.3,453.7,419.4z"/>
	</g>
</g>
<g id="DESIGNED_BY_FREEPIK">
</g>
</svg>
