<?xml version="1.0" encoding="utf-8"?>
<!-- Generator: Adobe Illustrator 24.1.0, SVG Export Plug-In . SVG Version: 6.00 Build 0)  -->
<svg version="1.1" id="Layer_1" xmlns="http://www.w3.org/2000/svg" xmlns:xlink="http://www.w3.org/1999/xlink" x="0px" y="0px"
	 viewBox="0 0 721.9 476.6" style="enable-background:new 0 0 721.9 476.6;" xml:space="preserve">
<style type="text/css">
	.st0{fill:#4B6559;}
</style>
<g>
	<g>
		<path class="st0" d="M256,410.8c1.9-4.3,2.9-8.8,2.9-13.3l0.7-112.8c0-7.1-5.8-12.9-12.9-12.9l0,0c-7.1,0-12.9,5.8-12.9,12.9
			l-0.7,112.8c0,1.5-0.3,3-0.8,4.3c-0.6,1.3-1.4,2.5-2.6,3.5c-2,1.9-5.1,3-9.2,3.1c-0.6,0-1.1,0-1.7-0.1c-2.7-0.3-25.2-0.3-42.3-0.1
			l-2.9,0c-2.8-0.1-5.3-1.1-7.5-3.2c-1-0.9-1.8-2.2-2.4-3.6c-0.6-1.5-0.9-2.9-0.9-4.4l0.7-90.7c0-4.6-1-9.1-2.9-13.4
			c-1.9-4.3-4.6-8.1-8-11.3c-3.4-3.2-7.4-5.7-11.9-7.5c-4.5-1.7-9.3-2.6-14.1-2.6H62.2c-4.8,0-9.6,1-14.3,3c-4.7,2-8.8,4.5-12.2,7.5
			c-3.4,3.1-6.1,6.8-7.8,11c-1.8,4.2-2.6,8.6-2.6,13.2l-0.7,90.7c0,4.4,1,8.8,2.9,13.1c1.9,4.3,4.5,8.1,7.9,11.3
			c1.9,1.8,3.8,3.3,5.7,4.6c1.9,1.2,4,2.3,6.2,3.2c4.3,1.7,9.1,2.6,14.3,2.6h64.4c5,0,9.9-1,14.4-2.8c1.2-0.5,2.4-1,3.6-1.6
			c3.8-2,8.3-2,12.1,0.1c1.2,0.7,2.5,1.3,3.7,1.8l0.1,0c4.2,1.6,8.9,2.5,13.8,2.7l43.4,0v0h5.6l0.1,0c0.2,0,0.4,0,0.6,0l0.2,0l0,0
			c4.3-0.3,8.6-1.2,12.7-2.7c4.6-1.8,8.6-4.3,11.9-7.5C251.4,418.9,254.1,415.1,256,410.8z M137.1,397.2c0,1.4-0.3,2.8-1,4.3
			c0,0,0,0.1-0.1,0.1c-1.1,2.4-3.1,4.5-5.5,5.7c-0.2,0.1-0.4,0.2-0.6,0.3c-1,0.4-2.4,0.7-4.1,0.7H61.4c-3.1,0-5.6-1.1-7.9-3.3
			c-2.2-2.2-3.3-4.7-3.3-7.7l0.7-90.7c0-3.2,1.1-5.7,3.3-7.9c1.2-1.2,2.4-2,3.6-2.4c1.3-0.5,2.7-0.7,4.3-0.7h64.4
			c3.1,0,5.7,1,7.9,3.2c2.2,2.1,3.3,4.7,3.3,7.8L137.1,397.2z"/>
		<path class="st0" d="M568.3,477.5c3,0,5.4-2.4,5.4-5.4v-13c0-3-2.4-5.4-5.4-5.4h-15c-3,0-5.4,2.4-5.4,5.4v13c0,3,2.4,5.4,5.4,5.4
			H568.3z"/>
		<path class="st0" d="M609.8,472.1v-13c0-3-2.4-5.4-5.4-5.4h-15c-3,0-5.4,2.4-5.4,5.4v13c0,3,2.4,5.4,5.4,5.4h15
			C607.4,477.5,609.8,475.1,609.8,472.1z"/>
		<path class="st0" d="M675.3,477.5c3,0,5.4-2.4,5.4-5.4v-13c0-3-2.4-5.4-5.4-5.4h-15c-3,0-5.4,2.4-5.4,5.4v13c0,3,2.4,5.4,5.4,5.4
			H675.3z"/>
		<path class="st0" d="M475.6,252.6c3.9,0,7-3.1,7-7v-28.2c0-3.9-3.1-7-7-7h-31.7c-3.9,0-7,3.1-7,7v28.2c0,3.9,3.1,7,7,7H475.6z"/>
		<path class="st0" d="M508.4,252.6h31.7c3.9,0,7-3.1,7-7v-28.2c0-3.9-3.1-7-7-7h-31.7c-3.9,0-7,3.1-7,7v28.2
			C501.4,249.4,504.5,252.6,508.4,252.6z"/>
		<path class="st0" d="M262.3,252.5c4,0,7.2-3.2,7.2-7.2v-27.6c0-4-3.2-7.2-7.2-7.2h-31.1c-4,0-7.2,3.2-7.2,7.2v27.6
			c0,4,3.2,7.2,7.2,7.2H262.3z"/>
		<path class="st0" d="M710.4,255.7l-113.6-76.8c-2.5-1.7-33-22.3-35.4-23.9L376.1,29.8c0,0,0,0,0-0.1l26.7-18h0
			c-8.1-11.9-24.3-15.1-36.2-7l-13.8,9.3c0,0,0,0,0,0l-14.2-9.6c-11.9-8.1-28.1-4.9-36.2,7v0l27.1,18.3c0,0,0,0,0,0.1L0,252.4
			c0,0,0,0.1,0,0.1h24.6c14.2,0,28.1-4.2,39.9-12.2L332.4,59.3c12.3-8.3,28.5-8.3,40.8,0l267,180.3c0,0,0,0,0,0
			c9.9,8.7,15.7,21.3,15.7,34.6l-0.7,89.3h0v33.9c0,1.5-0.3,3-0.8,4.3c-0.6,1.3-1.4,2.5-2.6,3.5c-2.1,2.1-5.6,3.2-10.3,3.2l-29.8,0
			c-9.7,0-12.1-0.5-12.7-0.7c-1.2-0.5-2.3-1.2-3.4-2.3c-2.4-2.3-3.5-4.9-3.5-7.9l0.7-112.5c0-6.9-5.3-12.9-12.2-13.2
			c-7.4-0.3-13.5,5.5-13.5,12.8l-0.7,112.9c0,3-1.1,5.5-3.4,7.7c-1.5,1.5-5.7,3.3-16.5,3.3h-30.3v0.2c-2.5-0.1-3.8-0.4-4.5-0.7
			c-1.2-0.5-2.3-1.2-3.4-2.3c-2.4-2.3-3.5-4.9-3.5-7.9l0.7-113.2c0-6.9-5.6-12.5-12.5-12.5h-0.3c-7.2,0-12.9,5.7-12.9,12.8
			c0,27.3-0.7,112.9-0.7,112.9c0,3-1.1,5.5-3.4,7.7c-2.2,2.2-5.7,3.3-10.4,3.3l-30-0.2l-2.8,0c-2.9-0.1-5.2-1-7.2-3l-0.1-0.1
			c-1.1-1-2-2.1-2.5-3.3c-0.5-1.1-0.8-2.6-0.8-4.5l0.7-90.1c0-4.5-1-9-2.9-13.3c-1.9-4.3-4.5-8-7.8-11.1c-3.7-3.2-7.7-5.8-11.9-7.5
			c-2.3-1-4.6-1.7-6.9-2.1c-2.2-0.4-4.6-0.6-7.2-0.6h-63.7c-5.2,0-10.1,0.9-14.4,2.7c-4.3,1.8-8.3,4.4-11.8,7.7
			c-3.5,3.3-6.2,7.1-7.9,11.1c-1.8,4.1-2.6,8.4-2.6,12.9l-0.7,90.1c0,4.4,0.9,8.8,2.8,13c1.9,4.3,4.6,8.1,8.1,11.3
			c3.5,3.1,7.3,5.6,11.5,7.4c4.2,1.8,9.1,2.7,14.3,2.7h63.4c0.3,0,0.6,0,0.8,0l4.2-0.4c0.2,0,0.4-0.1,0.7-0.1l4.1-0.8l0.2,0
			c0.5-0.1,0.9-0.3,1.3-0.4v13.8c0,3.1-1.1,5.5-3.2,7.4c0,0,0,0,0,0c-1.4,1.2-3.2,1.9-5.1,1.9c-11.4,0.3-66.4,0.4-91.1,0.4
			c-6.4,0-11.9,5-12,11.5c-0.1,6.5,5.2,11.8,11.7,11.8c12.4,0,75.2-0.6,75.2-0.6c15.3-0.2,26.8-0.6,27.9-1.1
			c4.5-1.9,8.5-4.4,11.7-7.6c3.5-3,6.2-6.7,7.9-10.8c1.7-4.1,2.6-8.4,2.6-12.8l0-13.7c0.5,0.1,1,0.3,1.5,0.4c3.1,0.8,7,1.2,11.9,1.2
			h27.6v0.3h2.4c1.9,0,3.9-0.1,5.8-0.3c4.2-0.4,8-1.3,11.1-2.6c1.9-0.8,3.8-1.7,5.5-2.8c2.6-1.6,5.9-1.6,8.5,0
			c1.6,1,3.4,1.9,5.2,2.6c3.1,1.4,6.9,2.3,11.2,2.7h0c1.9,0.2,3.8,0.3,5.7,0.3h2.4v-0.3l23.2,0v0h2.4c0.6,0,1.1,0,1.6,0h0
			c10-0.1,17-1,21.4-2.8c1.9-0.8,3.7-1.7,5.4-2.7c2.7-1.6,6-1.5,8.6,0.1c1.5,0.9,3.2,1.8,4.9,2.6l0.1,0.1c4.2,1.6,10.1,2.5,17.9,2.8
			v0l5.1,0l2.4,0h25v0h5.4l0.1,0v0l0,0c4.7-0.2,9.3-1.1,13.6-2.7c4.6-1.8,8.6-4.3,11.9-7.5c3.3-3.1,6-6.9,7.9-11.2
			c1.9-4.3,2.9-8.8,2.9-13.3l0.7-112.8c0-0.6-0.1-1.1-0.1-1.7c0,0,0,0,0,0v-8.6c0-2.3-0.1-4.6-0.3-6.9c0,0,0,0,0.1,0l36.2,24.4
			c0,0,0,0,0,0C725.5,279.9,722.3,263.7,710.4,255.7z M396.4,397.7c0,3.1-1.1,5.7-3.3,7.7c-1.1,1-2.5,1.8-3.9,2.4
			c-1.4,0.5-2.8,0.8-4,0.8h-3.7c-2.2,0-53.7,0-55.9,0h-4.1c-3,0-5.5-1-7.7-3c-1.1-1.2-2-2.4-2.6-3.6c-0.5-1.1-0.8-2.5-0.8-4.3
			l0.7-90.1c0-3.1,1.1-5.6,3.4-7.8l0.1-0.1c1-1.1,2.1-1.8,3.4-2.3c1.3-0.5,2.8-0.7,4.2-0.7H386c3.1,0,5.6,1,7.8,3.2
			c1.1,1,1.9,2.2,2.5,3.4c0.5,1.2,0.8,2.7,0.8,4.3L396.4,397.7z"/>
	</g>
</g>
</svg>
