<?xml version="1.0" encoding="utf-8"?>
<!-- Generator: Adobe Illustrator 24.1.0, SVG Export Plug-In . SVG Version: 6.00 Build 0)  -->
<svg version="1.1" id="Layer_1" xmlns="http://www.w3.org/2000/svg" xmlns:xlink="http://www.w3.org/1999/xlink" x="0px" y="0px"
	 viewBox="0 0 460 374.5" style="enable-background:new 0 0 460 374.5;" xml:space="preserve">
<style type="text/css">
	.st0{fill:#B9D989;}
</style>
<g>
	<g>
		<polygon points="107,205.4 88.7,205.4 54.2,262.3 19.7,205.4 0,205.4 44.3,278.5 44.3,317.8 62.7,317.8 62.7,278.2 		"/>
		<path d="M149.4,205.4L98.7,317.8h19.1l11.7-27h57.9l11.7,27h19.4l-50.9-112.3H149.4z M135.8,276l22.5-52l22.6,52H135.8z"/>
		<path d="M304.2,279.6c7.1-3.2,12.5-7.7,16.3-13.6c3.8-5.9,5.7-12.9,5.7-21c0-8.2-1.9-15.3-5.7-21.3c-3.8-5.9-9.2-10.5-16.3-13.6
			c-7.1-3.2-15.5-4.7-25.4-4.7h-44.9v112.3h18.5v-33.4h26.5c2,0,3.8-0.1,5.7-0.2l23.5,33.6h20.1l-26.2-37.2
			C302.7,280.3,303.5,280,304.2,279.6z M278.2,268.8h-25.8v-47.3h25.8c9.7,0,17.1,2,22,6.1c4.9,4.1,7.4,9.9,7.4,17.5
			c0,7.5-2.5,13.3-7.4,17.5C295.3,266.7,287.9,268.8,278.2,268.8z"/>
		<path d="M452.3,232.2c-5.1-8.4-12.3-14.9-21.4-19.7c-9.1-4.7-19.8-7.1-31.8-7.1h-48.1v112.3H399c12.1,0,22.7-2.4,31.8-7.1
			c9.1-4.7,16.3-11.3,21.4-19.7c5.1-8.4,7.7-18.2,7.7-29.4C460,250.4,457.4,240.6,452.3,232.2z M436,282.6c-3.6,6-8.6,10.7-15,14
			s-14.1,5.1-22.9,5.1h-28.7v-80.2h28.7c8.9,0,16.5,1.7,22.9,5.1c6.4,3.4,11.4,8,15,14c3.6,5.9,5.4,13,5.4,21.1
			C441.4,269.6,439.6,276.6,436,282.6z"/>
	</g>
	<rect x="15.5" y="15.5" class="st0" width="429" height="159"/>
	<g>
		<polygon points="4.2,333.5 0,333.5 0,363.7 2.1,363.7 4.2,363.7 19.4,363.7 19.4,359.7 4.2,359.7 		"/>
		<path d="M31.7,341.8c-1.6,0-3.1,0.3-4.5,0.8c-1.3,0.5-2.4,1.3-3.2,2.3l3.1,2.1c0.7-0.5,1.4-0.9,2.2-1.1c0.8-0.3,1.7-0.4,2.5-0.4
			c1.4,0,2.5,0.4,3.2,1.2c0.8,0.8,1.1,1.9,1.1,3.3v0.9h-5.9c-2.4,0-4.2,0.5-5.5,1.6c-1.2,1.1-1.8,2.7-1.8,4.8c0,2.3,0.7,3.9,2,5
			c1.3,1.1,3.3,1.6,6,1.6c0.9,0,1.7-0.1,2.4-0.3c0.7-0.2,1.3-0.5,1.9-0.8c0.4-0.2,0.7-0.5,1-0.9v1.7h4v-13.9c0-2.5-0.7-4.5-2.2-5.9
			C36.5,342.5,34.4,341.8,31.7,341.8z M35,360c-0.8,0.3-2,0.5-3.6,0.5c-1.5,0-2.6-0.3-3.3-0.8c-0.7-0.5-1.1-1.3-1.1-2.4
			c0-1,0.3-1.8,0.8-2.3c0.6-0.5,1.4-0.7,2.5-0.7h5.9v4.1C36.2,359.2,35.8,359.7,35,360z"/>
		<path d="M56.6,341.8c-1.3,0-2.5,0.4-3.6,1.1c-0.9,0.6-1.6,1.3-2.2,2.3v-3h-4.2v21.6h4.2v-13.7c0-1.3,0.4-2.4,1.1-3.1
			c0.8-0.7,1.8-1.1,3.2-1.1c1.4,0,2.6,0.4,3.3,1.2c0.8,0.8,1.2,2,1.2,3.5v13.1H64v-13.1c0-2.8-0.6-5-1.9-6.5
			C60.8,342.6,59,341.8,56.6,341.8z"/>
		<path d="M82.7,344.9c-0.6-0.9-1.3-1.6-2.1-2.1c-1.1-0.7-2.2-1-3.5-1c-2.3,0-4.1,0.8-5.4,2.3c-1.3,1.5-1.9,3.7-1.9,6.5v4.8
			c0,2.8,0.6,4.9,1.9,6.5c1.3,1.5,3.1,2.3,5.5,2.3c1.5,0,2.8-0.4,3.7-1.2c0.7-0.6,1.3-1.3,1.7-2v2.8h4.2v-30.2h-4.2V344.9z
			 M82.2,358.2c-0.3,0.7-0.8,1.2-1.4,1.5c-0.6,0.4-1.4,0.5-2.3,0.5c-1.4,0-2.5-0.4-3.3-1.3c-0.8-0.9-1.2-2.1-1.2-3.6v-4.7
			c0-1.6,0.4-2.8,1.2-3.7c0.8-0.9,1.9-1.3,3.3-1.3c0.9,0,1.7,0.2,2.3,0.5c0.6,0.3,1.1,0.8,1.4,1.5c0.3,0.7,0.5,1.4,0.5,2.3v5.8
			C82.7,356.7,82.5,357.5,82.2,358.2z"/>
		<path d="M107.5,351.9c-0.8-0.4-1.6-0.7-2.5-0.8c-0.9-0.1-1.8-0.2-2.7-0.3c-0.9-0.1-1.8-0.1-2.6-0.2c-0.8-0.1-1.5-0.3-2-0.6
			c-0.5-0.3-0.7-0.8-0.7-1.4c0-1,0.4-1.7,1.1-2.2c0.7-0.5,1.8-0.7,3.2-0.7c1,0,2,0.2,3.1,0.5c1,0.3,2.1,0.9,3.2,1.6l2.6-3.1
			c-1.3-0.9-2.6-1.6-4.1-2.1c-1.5-0.5-3-0.7-4.7-0.7c-2.8,0-4.9,0.6-6.3,1.7c-1.4,1.1-2.1,2.8-2.1,5.1c0,1.3,0.2,2.3,0.6,3
			c0.4,0.7,1,1.3,1.7,1.7c0.7,0.4,1.5,0.6,2.3,0.8c0.9,0.1,1.7,0.3,2.6,0.3c1,0.1,2,0.2,2.9,0.3c0.9,0.1,1.6,0.3,2.2,0.7
			c0.6,0.3,0.8,0.9,0.8,1.7c0,1-0.4,1.8-1.3,2.3c-0.8,0.5-2.1,0.8-3.8,0.8c-1.1,0-2.3-0.2-3.4-0.7c-1.1-0.4-2.3-1.1-3.5-2l-2.5,3.1
			c1.2,1.1,2.6,2,4.2,2.5c1.6,0.6,3.3,0.8,5.2,0.8c3,0,5.3-0.6,6.8-1.7c1.5-1.1,2.3-2.9,2.3-5.2c0-1.4-0.2-2.5-0.7-3.3
			C108.9,352.9,108.3,352.3,107.5,351.9z"/>
		<path d="M120.4,347.2c0.9-0.9,2.2-1.4,3.8-1.4c0.9,0,1.8,0.2,2.6,0.6c0.8,0.4,1.5,0.9,2.1,1.6l3.1-2.7c-0.8-1.1-1.9-2-3.2-2.6
			c-1.4-0.6-2.9-0.9-4.6-0.9c-3,0-5.3,0.8-6.9,2.4c-1.6,1.6-2.4,3.9-2.4,6.8v3.6c0,3,0.8,5.3,2.4,6.9c1.6,1.6,3.9,2.5,6.9,2.5
			c1.7,0,3.2-0.3,4.6-0.9c1.4-0.6,2.4-1.4,3.3-2.5l-3.1-3c-0.6,0.7-1.3,1.3-2.1,1.7c-0.8,0.4-1.7,0.6-2.6,0.6
			c-1.6,0-2.9-0.5-3.8-1.4c-0.9-0.9-1.4-2.2-1.4-3.9v-3.6C119.1,349.4,119.5,348.1,120.4,347.2z"/>
		<path d="M144.4,341.8c-1.6,0-3.1,0.3-4.5,0.8c-1.3,0.5-2.4,1.3-3.2,2.3l3.1,2.1c0.7-0.5,1.4-0.9,2.2-1.1c0.8-0.3,1.7-0.4,2.5-0.4
			c1.4,0,2.5,0.4,3.2,1.2c0.8,0.8,1.1,1.9,1.1,3.3v0.9h-5.9c-2.4,0-4.2,0.5-5.5,1.6c-1.2,1.1-1.8,2.7-1.8,4.8c0,2.3,0.7,3.9,2,5
			c1.3,1.1,3.3,1.6,6,1.6c0.9,0,1.7-0.1,2.4-0.3c0.7-0.2,1.3-0.5,1.9-0.8c0.4-0.2,0.7-0.5,1-0.9v1.7h4v-13.9c0-2.5-0.7-4.5-2.2-5.9
			C149.2,342.5,147.1,341.8,144.4,341.8z M147.6,360c-0.8,0.3-2,0.5-3.6,0.5c-1.5,0-2.6-0.3-3.3-0.8c-0.7-0.5-1.1-1.3-1.1-2.4
			c0-1,0.3-1.8,0.8-2.3c0.6-0.5,1.4-0.7,2.5-0.7h5.9v4.1C148.8,359.2,148.4,359.7,147.6,360z"/>
		<path d="M169.2,341.8c-1.3,0-2.5,0.3-3.5,1c-0.8,0.5-1.5,1.3-2.1,2.2v-2.9h-4.2v30.4h4.2v-11.6c0.5,0.9,1.1,1.6,1.9,2.1
			c1,0.6,2.2,1,3.5,1c2.4,0,4.2-0.8,5.5-2.3c1.3-1.5,2-3.7,2-6.4v-4.7c0-2.8-0.6-5-1.9-6.5C173.3,342.6,171.5,341.8,169.2,341.8z
			 M172.2,355.3c0,1.6-0.4,2.8-1.2,3.6c-0.8,0.9-1.9,1.3-3.3,1.3c-0.9,0-1.7-0.2-2.3-0.5c-0.6-0.3-1.1-0.8-1.4-1.5
			c-0.3-0.7-0.5-1.4-0.5-2.4v-5.9c0-0.9,0.2-1.7,0.5-2.3c0.3-0.6,0.8-1.1,1.4-1.5c0.6-0.3,1.4-0.5,2.3-0.5c1.4,0,2.5,0.4,3.3,1.3
			c0.8,0.9,1.2,2.1,1.2,3.7V355.3z"/>
		<rect x="182.5" y="342.1" width="4.2" height="21.6"/>
		<rect x="182.5" y="333.5" width="4.2" height="4.2"/>
		<path d="M203.1,341.8c-1.3,0-2.5,0.4-3.6,1.1c-0.9,0.6-1.6,1.3-2.2,2.3v-3h-4.2v21.6h4.2v-13.7c0-1.3,0.4-2.4,1.1-3.1
			c0.8-0.7,1.8-1.1,3.2-1.1c1.4,0,2.6,0.4,3.3,1.2c0.8,0.8,1.2,2,1.2,3.5v13.1h4.2v-13.1c0-2.8-0.6-5-1.9-6.5
			C207.3,342.6,205.5,341.8,203.1,341.8z"/>
		<path d="M229.2,344.9c-0.6-0.9-1.3-1.6-2.1-2.1c-1.1-0.7-2.2-1-3.5-1c-2.3,0-4.1,0.8-5.4,2.3c-1.3,1.5-1.9,3.7-1.9,6.5v4.8
			c0,2.8,0.6,4.9,1.9,6.5c1.3,1.5,3.1,2.3,5.5,2.3c1.5,0,2.8-0.4,3.7-1.2c0.7-0.6,1.3-1.3,1.7-2v2.8c0,1.6-0.4,2.9-1.3,3.8
			c-0.9,0.9-2.1,1.3-3.8,1.3c-0.8,0-1.7-0.2-2.4-0.6c-0.8-0.4-1.4-1-2-1.8l-2.9,2.6c0.7,1.1,1.7,1.9,3,2.5c1.3,0.6,2.7,0.9,4.4,0.9
			c3,0,5.2-0.8,6.8-2.5c1.6-1.6,2.4-4,2.4-7v-20.9h-4.2V344.9z M228.7,358.2c-0.3,0.7-0.8,1.2-1.4,1.5c-0.6,0.4-1.4,0.5-2.3,0.5
			c-1.4,0-2.5-0.4-3.3-1.3c-0.8-0.9-1.2-2.1-1.2-3.6v-4.7c0-1.6,0.4-2.8,1.2-3.7c0.8-0.9,1.9-1.3,3.3-1.3c0.9,0,1.7,0.2,2.3,0.5
			c0.6,0.3,1.1,0.8,1.4,1.5c0.3,0.7,0.5,1.4,0.5,2.3v5.8C229.2,356.7,229,357.5,228.7,358.2z"/>
		<path d="M271.3,356.8c1-2.3,1.6-5.1,1.6-8.5h-4c0,2.9-0.4,5.3-1.3,7.2l-6.2-6.6c-1.1-1.2-1.9-2.4-2.5-3.7
			c-0.6-1.3-0.9-2.6-0.9-3.8c0-1.3,0.3-2.4,1-3.1c0.7-0.7,1.6-1.1,2.8-1.1c1.2,0,2.2,0.3,2.8,1c0.7,0.7,1,1.6,1,2.9v0.4h4.2v-0.4
			c0-2.5-0.7-4.5-2.1-5.9c-1.4-1.4-3.4-2.1-6-2.1c-2.6,0-4.6,0.7-6,2.2c-1.4,1.4-2.1,3.5-2.1,6.1c0,1.8,0.4,3.6,1.2,5.3
			c0.1,0.3,0.3,0.5,0.4,0.8c-1,0.4-1.8,1-2.5,1.8c-1.4,1.5-2,3.5-2,5.9c0,2.8,0.8,4.9,2.3,6.4c1.6,1.5,3.8,2.3,6.6,2.3
			c2.8,0,5.2-0.6,7.2-1.8c0.3-0.2,0.6-0.4,0.9-0.6l2.1,2.2h5.4l-4.8-5.1C270.7,358.1,271,357.5,271.3,356.8z M260.6,360.2
			c-1.8,0-3.2-0.4-4.3-1.3c-1-0.9-1.5-2-1.5-3.6c0-1.6,0.5-2.8,1.4-3.6c0.4-0.3,0.8-0.6,1.3-0.8c0.2,0.3,0.4,0.5,0.7,0.8l6.8,7.1
			C263.8,359.7,262.3,360.2,260.6,360.2z"/>
		<rect x="290.9" y="333.5" width="4.2" height="30.2"/>
		<path d="M312.1,341.8c-1.3,0-2.4,0.4-3.5,1.1c-0.8,0.6-1.5,1.3-2.1,2.2v-3h-4.2v21.6h4.2v-13.7c0-1.3,0.4-2.3,1.1-3.1
			c0.7-0.7,1.8-1.1,3.1-1.1c0.7,0,1.4,0.1,2,0.4c0.6,0.2,1,0.6,1.4,1l2.8-3.7c-0.6-0.6-1.3-1-2.1-1.3
			C314,342,313.1,341.8,312.1,341.8z"/>
		<path d="M330.3,341.8c-1.3,0-2.4,0.4-3.5,1.1c-0.8,0.6-1.5,1.3-2.1,2.2v-3h-4.2v21.6h4.2v-13.7c0-1.3,0.4-2.3,1.1-3.1
			c0.7-0.7,1.8-1.1,3.1-1.1c0.7,0,1.4,0.1,2,0.4c0.6,0.2,1,0.6,1.4,1l2.8-3.7c-0.6-0.6-1.3-1-2.1-1.3
			C332.2,342,331.3,341.8,330.3,341.8z"/>
		<rect x="338.6" y="333.5" width="4.2" height="4.2"/>
		<rect x="338.6" y="342.1" width="4.2" height="21.6"/>
		<path d="M361.5,344.9c-0.6-0.9-1.3-1.6-2.1-2.1c-1.1-0.7-2.2-1-3.5-1c-2.3,0-4.1,0.8-5.4,2.3c-1.3,1.5-1.9,3.7-1.9,6.5v4.8
			c0,2.8,0.6,4.9,1.9,6.5c1.3,1.5,3.1,2.3,5.5,2.3c1.5,0,2.8-0.4,3.7-1.2c0.7-0.6,1.3-1.3,1.7-2v2.8c0,1.6-0.4,2.9-1.3,3.8
			c-0.9,0.9-2.1,1.3-3.8,1.3c-0.8,0-1.7-0.2-2.4-0.6c-0.8-0.4-1.4-1-2-1.8l-2.9,2.6c0.7,1.1,1.7,1.9,3,2.5c1.3,0.6,2.7,0.9,4.4,0.9
			c3,0,5.2-0.8,6.8-2.5c1.6-1.6,2.4-4,2.4-7v-20.9h-4.2V344.9z M361,358.2c-0.3,0.7-0.8,1.2-1.4,1.5c-0.6,0.4-1.4,0.5-2.3,0.5
			c-1.4,0-2.5-0.4-3.3-1.3c-0.8-0.9-1.2-2.1-1.2-3.6v-4.7c0-1.6,0.4-2.8,1.2-3.7c0.8-0.9,1.9-1.3,3.3-1.3c0.9,0,1.7,0.2,2.3,0.5
			c0.6,0.3,1.1,0.8,1.4,1.5c0.3,0.7,0.5,1.4,0.5,2.3v5.8C361.5,356.7,361.4,357.5,361,358.2z"/>
		<path d="M379.9,341.8c-1.6,0-3.1,0.3-4.5,0.8c-1.3,0.5-2.4,1.3-3.2,2.3l3.1,2.1c0.7-0.5,1.4-0.9,2.2-1.1c0.8-0.3,1.7-0.4,2.5-0.4
			c1.4,0,2.5,0.4,3.2,1.2c0.8,0.8,1.1,1.9,1.1,3.3v0.9h-5.9c-2.4,0-4.2,0.5-5.5,1.6c-1.2,1.1-1.8,2.7-1.8,4.8c0,2.3,0.7,3.9,2,5
			c1.3,1.1,3.3,1.6,6,1.6c0.9,0,1.7-0.1,2.4-0.3c0.7-0.2,1.3-0.5,1.9-0.8c0.4-0.2,0.7-0.5,1-0.9v1.7h4v-13.9c0-2.5-0.7-4.5-2.2-5.9
			C384.7,342.5,382.6,341.8,379.9,341.8z M383.2,360c-0.8,0.3-2,0.5-3.6,0.5c-1.5,0-2.6-0.3-3.3-0.8c-0.7-0.5-1.1-1.3-1.1-2.4
			c0-1,0.3-1.8,0.8-2.3c0.6-0.5,1.4-0.7,2.5-0.7h5.9v4.1C384.4,359.2,384,359.7,383.2,360z"/>
		<path d="M399.7,335.9h-4.2v6.3h-2.2v3.8h2.2v12.1c0,1.8,0.4,3.3,1.2,4.2c0.8,1,2.1,1.5,3.9,1.5h2.5v-4h-2c-0.4,0-0.7-0.1-0.9-0.4
			c-0.2-0.3-0.3-0.7-0.3-1.2V346h3.3v-3.8h-3.3V335.9z"/>
		<rect x="408.8" y="333.5" width="4.2" height="4.2"/>
		<rect x="408.8" y="342.1" width="4.2" height="21.6"/>
		<path d="M427.7,341.8c-2.8,0-5,0.8-6.6,2.4c-1.6,1.6-2.3,3.9-2.3,6.9v3.5c0,3,0.8,5.3,2.3,6.9c1.6,1.6,3.7,2.5,6.6,2.5
			c2.8,0,5-0.8,6.6-2.4c1.6-1.6,2.3-3.9,2.3-6.9v-3.6c0-3-0.8-5.2-2.3-6.9C432.7,342.6,430.6,341.8,427.7,341.8z M432.4,354.7
			c0,1.7-0.4,3-1.2,3.9c-0.8,0.9-2,1.4-3.4,1.4c-1.5,0-2.6-0.5-3.4-1.4c-0.8-0.9-1.2-2.2-1.2-3.9v-3.6c0-1.7,0.4-3,1.2-3.9
			c0.8-0.9,2-1.4,3.4-1.4c1.5,0,2.6,0.5,3.4,1.4c0.8,0.9,1.2,2.2,1.2,3.9V354.7z"/>
		<path d="M458.1,344.1c-1.3-1.5-3.1-2.3-5.4-2.3c-1.3,0-2.5,0.4-3.6,1.1c-0.9,0.6-1.6,1.3-2.2,2.3v-3h-4.2v21.6h4.2v-13.7
			c0-1.3,0.4-2.4,1.1-3.1c0.8-0.7,1.8-1.1,3.2-1.1c1.4,0,2.6,0.4,3.3,1.2c0.8,0.8,1.2,2,1.2,3.5v13.1h4.2v-13.1
			C460,347.8,459.3,345.6,458.1,344.1z"/>
	</g>
	<path d="M0,0v190h460V0H0z M444.5,174.5H259.8c-6.4-33.3,9.3-49.6,9.4-49.8c0.2-0.2,0.2-0.6,0-0.8c-0.2-0.2-0.5-0.3-0.8-0.1
		c-16.9,11.9-22.1,31.5-23.7,42.2c-2-53.5,29.4-78.5,29.7-78.7c0.2-0.2,0.3-0.5,0.1-0.8c-0.2-0.3-0.5-0.3-0.8-0.2
		c-46.5,26.4-52.3,70.3-52.6,88.2l0,0C216.2,116.1,201,85,189.5,69.1c-12.9-17.8-24.6-20.9-25-21.1c-0.3-0.1-0.5,0.1-0.7,0.3
		c-0.1,0.2-0.1,0.5,0.1,0.7c36.8,34.6,35.5,99.7,33.4,125.5H15.5v-159h429V174.5z"/>
</g>
</svg>
