<?xml version="1.0" encoding="utf-8"?>
<!-- Generator: Adobe Illustrator 24.1.0, SVG Export Plug-In . SVG Version: 6.00 Build 0)  -->
<svg version="1.1" id="Layer_1" xmlns="http://www.w3.org/2000/svg" xmlns:xlink="http://www.w3.org/1999/xlink" x="0px" y="0px"
	 viewBox="0 0 721.9 253" style="enable-background:new 0 0 721.9 253;" xml:space="preserve">
<style type="text/css">
	.st0{fill:#F1EFE6;}
	.st1{fill:#BF2627;}
</style>
<g>
	<path class="st0" d="M705.3,50.8c-7.3,0-15,0-23.1,0h-7l-8.3,36.8c-4.6,0-16.9,0-23.6,0l8.3-36.8h-38.8l0,0h-11
		c-5.5,0-13.1,0-20.8,0h-0.8c-7.4,0-14.8,0-20.2,0h-3.8l-15.8,16.6l12-53.4h-11c-4.7,0-34.3,0-34.3,0l-24.8,110.5h-4.7
		c-12.5,0-25,0-37.4,0h-1.8c-11,0-22.1,0-33.2,0c2.2-9.9,4.8-21.4,6.9-30.8h65.8l-29.8-43l-71.6,0.1l-5.7,25.4l-17.8-25h-4.6
		c-9.3,0-20.9,0-31.6,0h-20.5h-1.8H257l-5.7,25.5l-17.7-25.5H189l8.3-36.8H152l-8.2,36.8h-4.5c-8,0-17.4,0-27,0H112
		c-21.3,0-43.3,0-54.2-0.1h-3.4L21,80.6l-4.7,20.9c-1.6,7.3-3.3,14.7-4.2,18.7l-1.4,6.3l-9.3,41.3h161.2l16.5-73.7h29
		c-3.4,15.3-16.5,73.7-16.5,73.7h326.1l1.5-6.9c0.6-2.5,2.8-12.5,2.8-12.5c1.3-5.9,2.8-12.4,3.9-17.5h23.4l-8.3,36.9h45.3l3.7-16.3
		c2.2-9.6,5-22.2,6.2-27.6l0.8-3.8l-17.9-26h13.5l25.5,36.8h39.1l-16.6,73.9h45.3l34.6-154L705.3,50.8z"/>
	<g>
		<path class="st1" d="M53.8,96.3l-0.1,0.5c23.2,0,51.8,0.1,77.1,0.1c-4,17.9-9.9,44.3-14,62.2H12.5l5.7-25.4
			c25.3,0.1,49.2,0.1,77.1,0.1c0.1-0.5,2.5-11.1,2.6-11.6H20.7c1.8-7.9,6.6-29.2,8.3-36.8L57.7,60c15.9,0.1,55.6,0.1,81.4,0.1
			l-5.7,25.3H56.3l-0.1,0.5L53.8,96.3z"/>
		<path class="st1" d="M228.9,60.1c-13,0-37.1,0-51,0c2.8-12.5,5.6-24.8,8.3-36.8c-9.2,0-18.2,0-27.3,0
			c-9.8,43.6-20.7,92.2-30.5,135.8h27.3c5.3-23.6,10.9-48.7,16.5-73.7h47c-5,22.5-11.5,51.2-16.5,73.7H230
			c5-22.5,11.5-51.2,16.5-73.6L228.9,60.1z"/>
		<path class="st1" d="M263.9,60c9,0,18.1,0,27.3,0c-5.1,22.5-11.5,51.2-16.5,73.7c17.8,0,35.4,0,53.3,0c3-13.4,7.9-35,10.9-48.4
			h-43l5.7-25.3c14,0,32.9,0,46.9,0l17.6,25.4c-5,22.4-11.5,51.2-16.5,73.6H241.7L263.9,60z"/>
		<path class="st1" d="M477.5,133.6l-5.7,25.4H361.1c7-31.4,15.2-67.7,22.2-99.1c20,0,40.1,0,60-0.1l17.6,25.4h-56
			c-3,13.3-7.9,35-10.8,48.3C422.1,133.7,449.7,133.6,477.5,133.6z"/>
		<path class="st1" d="M682.2,59.6l-8.3,36.9c-11.9,0-32.1,0-41.6,0v-0.2l8.2-36.6c-8.8,0-17.9,0-27.3,0L605,96.3l-0.1,0.2v0.1
			l17.7,25.5h45.5l-16.5,74h27.3l30.6-136.5C701,59.6,691.9,59.6,682.2,59.6z"/>
		<path class="st1" d="M596,85.3l5.7-25.6c-11,0-30.5,0-41.9,0l-35.1,36.9L541.2,23c-9,0-18.1,0-27.3,0l-30.5,136h27.3
			c1.7-7.8,6.6-29.4,8.3-36.9h41.4c-1.7,7.5-6.5,29-8.3,36.9h27.3c1.8-7.8,6.6-29.5,8.3-37l-17.6-25.4c-3.4,0-5.1,0-8.5,0l10.9-11.3
			H596z"/>
	</g>
	<polygon class="st0" points="489.8,174.4 492.3,163.4 464.2,163.4 462.2,174.4 232.8,174.4 217.8,241.1 569.6,241.1 584.6,174.4 	
		"/>
	<path class="st1" d="M243.7,219h36.6l-3.2,14.3h-51.2l11.4-50.2h51.2l-3.2,14.3h-36.6l-0.8,3.6h36.6l-3.2,14.3h-36.6L243.7,219z"/>
	<path class="st1" d="M294.6,183.2h14.6l-5.1,22.7l8.5,10.8l0,0l13.4-10.8l5.1-22.7h14.6l-6.5,28.6l-26.9,21.5H305l-17.1-21.5
		L294.6,183.2z"/>
	<path class="st1" d="M358.6,219h36.6l-3.2,14.3h-51.2l11.4-50.2h51.2l-7.3,32.3h-36.6L358.6,219z M363.5,197.5l-0.8,3.6h22l0.8-3.6
		H363.5z"/>
	<path class="st1" d="M420.9,197.5l-8.1,35.8h-14.6l11.4-50.2h51.2l-11.4,50.2h-14.6l8.1-35.8H420.9z"/>
	<path class="st1" d="M469.4,172.4H484l-2.4,10.8h36.6l-3.2,14.3h-36.6l-4.9,21.5h36.6l-3.2,14.3h-51.2L469.4,172.4z"/>
	<path class="st1" d="M513.1,233.3l3.2-14.3h36.6l0.8-3.6h-36.6l7.3-32.3h51.2l-3.2,14.3h-36.6l-0.8,3.7h36.6l-7.3,32.3L513.1,233.3
		L513.1,233.3z"/>
</g>
</svg>
