<?xml version="1.0" encoding="utf-8"?>
<!-- Generator: Adobe Illustrator 24.1.0, SVG Export Plug-In . SVG Version: 6.00 Build 0)  -->
<svg version="1.1" id="Layer_1" xmlns="http://www.w3.org/2000/svg" xmlns:xlink="http://www.w3.org/1999/xlink" x="0px" y="0px"
	 viewBox="0 0 721.9 575.2" style="enable-background:new 0 0 721.9 575.2;" xml:space="preserve">
<style type="text/css">
	.st0{fill:#F1EFE6;}
	.st1{fill:#BF2627;}
</style>
<g>
	<path class="st0" d="M705.3,210.7c-7.3,0-15,0-23.1,0l-7,0l-8.3,36.8c-4.6,0-16.9,0-23.6,0l8.3-36.8l-38.8,0l0,0l-11,0
		c-5.5,0-13.1,0-20.8,0l-0.8,0c-7.4,0-14.8,0-20.2,0l-3.8,0l-15.8,16.6l12-53.4l-11,0c-4.7,0-34.3,0-34.3,0l-24.8,110.5l-4.7,0
		c-12.5,0-25,0-37.4,0l-1.8,0c-11,0-22.1,0-33.2,0c2.2-9.9,4.8-21.4,6.9-30.8h65.8l-29.8-43l-71.6,0.1l-5.7,25.4L353,211.1l-4.6,0
		c-9.3,0-20.9,0-31.6,0l-20.5,0l-1.8,0l-37.5,0l-5.7,25.5l-17.7-25.5l-44.6,0l8.3-36.8l-45.3,0l-8.2,36.8l-4.5,0c-8,0-17.4,0-27,0
		H112c-21.3,0-43.3,0-54.2-0.1l-3.4,0L21,240.5l-4.7,20.9c-1.6,7.3-3.3,14.7-4.2,18.7l-1.4,6.3l-9.3,41.3h161.2l16.5-73.7h29
		c-3.4,15.3-16.5,73.7-16.5,73.7l326.1,0l1.5-6.9c0.6-2.5,2.8-12.5,2.8-12.5c1.3-5.9,2.8-12.4,3.9-17.5h23.4l-8.3,36.9h45.3
		l3.7-16.3c2.2-9.6,5-22.2,6.2-27.6l0.8-3.8L579.1,254h13.5l25.5,36.8h39.1l-16.6,73.9h45.3l34.6-154L705.3,210.7z"/>
	<g>
		<path class="st1" d="M53.8,256.2l-0.1,0.5c23.2,0,51.8,0.1,77.1,0.1c-4,17.9-9.9,44.3-14,62.2H12.5l5.7-25.4
			c25.3,0.1,49.2,0.1,77.1,0.1c0.1-0.5,2.5-11.1,2.6-11.6H20.7c1.8-7.9,6.6-29.2,8.3-36.8l28.7-25.4c15.9,0.1,55.6,0.1,81.4,0.1
			l-5.7,25.3H56.3l-0.1,0.5L53.8,256.2z"/>
		<path class="st1" d="M228.9,220c-13,0-37.1,0-51,0c2.8-12.5,5.6-24.8,8.3-36.8c-9.2,0-18.2,0-27.3,0
			c-9.8,43.6-20.7,92.2-30.5,135.8h27.3c5.3-23.6,10.9-48.7,16.5-73.7h47c-5,22.5-11.5,51.2-16.5,73.7h27.3
			c5-22.5,11.5-51.2,16.5-73.6L228.9,220z"/>
		<path class="st1" d="M263.9,219.9c9,0,18.1,0,27.3,0c-5.1,22.5-11.5,51.2-16.5,73.7c17.8,0,35.4,0,53.3,0c3-13.4,7.9-35,10.9-48.4
			h-43l5.7-25.3c14,0,32.9,0,46.9,0l17.6,25.4c-5,22.4-11.5,51.2-16.5,73.6H241.7L263.9,219.9z"/>
		<path class="st1" d="M477.5,293.5l-5.7,25.4H361.1c7-31.4,15.2-67.7,22.2-99.1c20,0,40.1,0,60-0.1l17.6,25.4h-56
			c-3,13.3-7.9,35-10.8,48.3C422.1,293.6,449.7,293.5,477.5,293.5z"/>
		<path class="st1" d="M682.2,219.5l-8.3,36.9c-11.9,0-32.1,0-41.6,0l0-0.2l8.2-36.6c-8.8,0-17.9,0-27.3,0l-8.2,36.6l-0.1,0.2l0,0.1
			l17.7,25.5h45.5L651.6,356h27.3l30.6-136.5C701,219.5,691.9,219.5,682.2,219.5z"/>
		<path class="st1" d="M596,245.2l5.7-25.6c-11,0-30.5,0-41.9,0l-35.1,36.9l16.5-73.6c-9,0-18.1,0-27.3,0l-30.5,136h27.3
			c1.7-7.8,6.6-29.4,8.3-36.9h41.4c-1.7,7.5-6.5,29-8.3,36.9h27.3c1.8-7.8,6.6-29.5,8.3-37l-17.6-25.4c-3.4,0-5.1,0-8.5,0l10.9-11.3
			H596z"/>
	</g>
	<polygon class="st0" points="489.8,334.3 492.3,323.3 464.2,323.3 462.2,334.3 232.8,334.3 217.8,401 569.6,401 584.6,334.3 	"/>
	<path class="st1" d="M243.7,378.9h36.6l-3.2,14.3h-51.2l11.4-50.2h51.2l-3.2,14.3h-36.6l-0.8,3.6h36.6l-3.2,14.3h-36.6L243.7,378.9
		z"/>
	<path class="st1" d="M294.6,343.1h14.6l-5.1,22.7l8.5,10.8l0,0l13.4-10.8l5.1-22.7h14.6l-6.5,28.6l-26.9,21.5h-7.3l-17.1-21.5
		L294.6,343.1z"/>
	<path class="st1" d="M358.6,378.9h36.6l-3.2,14.3h-51.2l11.4-50.2h51.2l-7.3,32.3h-36.6L358.6,378.9z M363.5,357.4l-0.8,3.6h22
		l0.8-3.6H363.5z"/>
	<path class="st1" d="M420.9,357.4l-8.1,35.8h-14.6l11.4-50.2h51.2l-11.4,50.2h-14.6l8.1-35.8H420.9z"/>
	<path class="st1" d="M469.4,332.3h14.6l-2.4,10.8h36.6l-3.2,14.3h-36.6l-4.9,21.5h36.6l-3.2,14.3h-51.2L469.4,332.3z"/>
	<path class="st1" d="M513.1,393.2l3.2-14.3h36.6l0.8-3.6h-36.6l7.3-32.3h51.2l-3.2,14.3h-36.6L535,361h36.6l-7.3,32.3H513.1z"/>
</g>
</svg>
