<?xml version="1.0" encoding="utf-8"?>
<!-- Generator: Adobe Illustrator 24.1.0, SVG Export Plug-In . SVG Version: 6.00 Build 0)  -->
<svg version="1.1" id="Layer_1" xmlns="http://www.w3.org/2000/svg" xmlns:xlink="http://www.w3.org/1999/xlink" x="0px" y="0px"
	 viewBox="0 0 721.9 575.2" style="enable-background:new 0 0 721.9 575.2;" xml:space="preserve">
<style type="text/css">
	.st0{fill:#052460;}
</style>
<g>
	<g>
		<path class="st0" d="M29.4,544.8v0.3c0,1.6-0.6,3-1.7,4.1c1.1,1.1,1.7,2.5,1.7,4.1v0.3c0,1.6-0.6,3-1.7,4.1
			c-1.2,1.1-2.5,1.7-4.2,1.7H0.2c-0.1,0-0.1,0-0.1-0.1L0,559.2V539c0-0.1,0-0.1,0.1-0.1l0.1-0.1h23.3c1.6,0,3,0.6,4.2,1.7
			C28.8,541.8,29.4,543.1,29.4,544.8z M4.1,542.4v5h19.4c0.5,0,0.9-0.2,1.2-0.5c0.3-0.3,0.5-0.8,0.5-1.2v-1.5c0-0.5-0.2-0.9-0.5-1.2
			s-0.8-0.5-1.2-0.5L4.1,542.4L4.1,542.4z M25.3,554.2v-1.5c0-0.5-0.2-0.9-0.5-1.3s-0.8-0.5-1.2-0.5H4.1v5h19.4
			c0.5,0,0.9-0.2,1.2-0.5S25.3,554.7,25.3,554.2z"/>
		<path class="st0" d="M46,547.4h22.2c0.1,0,0.1,0,0.1,0.1l0.1,0.1v3.2c0,0.1,0,0.1-0.1,0.1l-0.1,0.1H46v3.2c0,0.5,0.2,0.9,0.5,1.2
			c0.3,0.4,0.8,0.5,1.3,0.5h23.3c0.1,0,0.1,0,0.1,0.1l0.1,0.1v3.2c0,0.1,0,0.1-0.1,0.1l-0.1,0.1H47.8c-1.6,0-3-0.6-4.2-1.7
			c-1.1-1.1-1.7-2.5-1.7-4.2v-8.8c0-1.6,0.6-3,1.7-4.2c1.1-1.1,2.5-1.7,4.2-1.7h23.3c0.1,0,0.1,0,0.1,0.1l0.1,0.1v3.2
			c0,0,0,0.1-0.1,0.1l-0.1,0.1H47.8c-0.5,0-0.9,0.2-1.3,0.5s-0.5,0.8-0.5,1.2V547.4z"/>
		<path class="st0" d="M113,555.9C113.1,555.9,113.1,555.9,113,555.9l0.2,0.2v3.2c0,0.1,0,0.1-0.1,0.1l-0.1,0.1H89.7
			c-1.6,0-3-0.6-4.2-1.7c-1.1-1.1-1.7-2.5-1.7-4.2v-8.8c0-1.6,0.6-3,1.7-4.2c1.1-1.1,2.5-1.7,4.2-1.7H113c0.1,0,0.1,0,0.1,0.1
			l0.1,0.1v3.2c0,0,0,0.1-0.1,0.1l-0.1,0.1H89.7c-0.5,0-0.9,0.2-1.3,0.5c-0.3,0.3-0.5,0.8-0.5,1.2v10c0,0.5,0.2,0.9,0.5,1.2
			c0.3,0.4,0.8,0.5,1.3,0.5L113,555.9L113,555.9z"/>
		<path class="st0" d="M144.5,540.4c1.1-1,2.3-1.6,3.7-1.6h8.2c0.1,0,0.1,0,0.1,0.1l0.1,0.1v20.2c0,0,0,0.1-0.1,0.1l-0.1,0.1h-3.8
			c0,0-0.1,0-0.1-0.1l-0.1-0.1v-16.9H149c-0.5,0-0.9,0.2-1.2,0.5l-16.6,16.5h-0.1h-5.2c-0.1,0-0.1,0-0.2-0.1c0-0.1,0-0.1,0-0.2
			L144.5,540.4z"/>
		<path class="st0" d="M198.5,553.6c0,1.6-0.6,3-1.7,4.1c-1.1,1.1-2.5,1.7-4.2,1.7H175c-1.6,0-3-0.6-4.2-1.7
			c-1.2-1.1-1.7-2.5-1.7-4.1v-14.5c0-0.1,0-0.1,0.1-0.1l0.1-0.1h3.8c0,0,0.1,0,0.1,0.1l0.1,0.1v15.1c0,0.5,0.2,0.9,0.5,1.3
			c0.3,0.3,0.8,0.5,1.2,0.5h17.6c0.5,0,0.9-0.2,1.3-0.5c0.3-0.3,0.5-0.8,0.5-1.3v-15.1c0-0.1,0-0.1,0.1-0.1l0.1-0.1h3.7
			c0.1,0,0.1,0,0.1,0.1l0.1,0.1L198.5,553.6L198.5,553.6z"/>
		<path class="st0" d="M215.1,545.6c0,0.5,0.2,0.9,0.5,1.3c0.3,0.3,0.8,0.5,1.2,0.5h17.7c1.6,0,3,0.6,4.1,1.7
			c1.1,1.1,1.7,2.5,1.7,4.2v0.3c0,1.6-0.6,3-1.7,4.2c-1.1,1.2-2.5,1.7-4.1,1.7h-22.2c0,0-0.1,0-0.1-0.1l-0.1-0.1v-3.2
			c0-0.1,0-0.1,0.1-0.1l0.1-0.1h22.2c0.5,0,0.9-0.2,1.2-0.5s0.5-0.8,0.5-1.2v-1.5c0-0.5-0.2-0.9-0.5-1.2s-0.8-0.5-1.2-0.5h-17.7
			c-1.6,0-3-0.6-4.1-1.7c-1.1-1.1-1.7-2.5-1.7-4.1v-0.3c0-1.6,0.6-3,1.7-4.1c1.1-1.1,2.5-1.7,4.1-1.7H239c0,0,0.1,0,0.1,0.1l0.1,0.1
			v3.2c0,0,0,0.1-0.1,0.1l-0.1,0.1h-22.2c-0.5,0-0.9,0.2-1.2,0.5s-0.5,0.8-0.5,1.3V545.6z"/>
		<path class="st0" d="M257,547.4h22.2c0.1,0,0.1,0,0.1,0.1l0.1,0.1v3.2c0,0.1,0,0.1-0.1,0.1l-0.1,0.1H257v3.2
			c0,0.5,0.2,0.9,0.5,1.2c0.3,0.4,0.8,0.5,1.3,0.5h23.3c0.1,0,0.1,0,0.1,0.1l0.1,0.1v3.2c0,0.1,0,0.1-0.1,0.1l-0.1,0.1h-23.3
			c-1.6,0-3-0.6-4.2-1.7c-1.1-1.1-1.7-2.5-1.7-4.2v-8.8c0-1.6,0.6-3,1.7-4.2c1.1-1.1,2.5-1.7,4.2-1.7h23.3c0.1,0,0.1,0,0.1,0.1
			l0.1,0.1v3.2c0,0,0,0.1-0.1,0.1l-0.1,0.1h-23.3c-0.5,0-0.9,0.2-1.3,0.5s-0.5,0.8-0.5,1.2V547.4z"/>
		<path class="st0" d="M348.1,539c0,0,0-0.1,0.1-0.1l0.1-0.1h3.7c0.1,0,0.1,0,0.1,0.1l0.1,0.1v5.8c0,0.8-0.2,1.6-0.7,2.3
			s-1.1,1.2-1.8,1.5l-10.7,4.5v6.1c0,0.1,0,0.1-0.1,0.1l-0.1,0.1H335c-0.1,0-0.1,0-0.1-0.1l-0.1-0.1v-6.1l-10.7-4.5
			c-0.8-0.3-1.4-0.8-1.8-1.5c-0.5-0.7-0.7-1.4-0.7-2.3V539c0,0,0-0.1,0.1-0.1l0.1-0.1h3.8c0,0,0.1,0,0.1,0.1l0.1,0.1v5
			c0,0.7,0.4,1.3,1.1,1.6l10.1,4.2l10.1-4.2c0.7-0.4,1.1-0.9,1.1-1.6v-5H348.1z"/>
		<path class="st0" d="M388.2,538.9c1.6,0,3,0.6,4.2,1.7c1.1,1.1,1.7,2.5,1.7,4.2v8.8c0,1.6-0.6,3-1.7,4.2c-1.1,1.1-2.5,1.7-4.2,1.7
			h-17.6c-1.6,0-3-0.6-4.2-1.7c-1.2-1.1-1.7-2.5-1.7-4.2v-8.8c0-1.6,0.6-3,1.7-4.2s2.5-1.7,4.2-1.7H388.2z M390,544.2
			c0-0.5-0.2-0.9-0.5-1.2s-0.8-0.5-1.3-0.5h-17.6c-0.5,0-0.9,0.2-1.2,0.5c-0.4,0.3-0.5,0.8-0.5,1.2v10c0,0.5,0.2,0.9,0.5,1.2
			c0.3,0.4,0.8,0.5,1.2,0.5h17.6c0.5,0,0.9-0.2,1.3-0.5c0.3-0.3,0.5-0.8,0.5-1.2V544.2z"/>
		<path class="st0" d="M436,553.6c0,1.6-0.6,3-1.7,4.1s-2.5,1.7-4.2,1.7h-17.6c-1.6,0-3-0.6-4.2-1.7c-1.2-1.1-1.7-2.5-1.7-4.1v-14.5
			c0-0.1,0-0.1,0.1-0.1l0.1-0.1h3.8c0,0,0.1,0,0.1,0.1l0.1,0.1v15.1c0,0.5,0.2,0.9,0.5,1.3c0.3,0.3,0.8,0.5,1.2,0.5h17.6
			c0.5,0,0.9-0.2,1.3-0.5s0.5-0.8,0.5-1.3v-15.1c0-0.1,0-0.1,0.1-0.1l0.1-0.1h3.7c0.1,0,0.1,0,0.1,0.1l0.1,0.1V553.6z"/>
		<path class="st0" d="M500.6,539.1c0-0.1,0-0.1,0.1-0.1l0.1-0.1h3.8c0,0,0.1,0,0.1,0.1l0.1,0.1v20.2c0,0,0,0.1-0.1,0.1l-0.1,0.1
			h-7.7l0,0c-1.6,0-2.8-0.7-3.7-2l-9.6-14.3c-0.4-0.5-0.9-0.8-1.5-0.8h-2.6v16.9c0,0,0,0.1-0.1,0.1l-0.1,0.1h-3.8c0,0-0.1,0-0.1-0.1
			l-0.1-0.1v-20.2c0-0.1,0-0.1,0.1-0.1l0.1-0.1h7.7l0,0c1.6,0.1,2.8,0.7,3.7,2l9.6,14.2c0.4,0.5,0.9,0.8,1.5,0.8h2.6V539.1z"/>
		<path class="st0" d="M521.3,547.4h22.2c0.1,0,0.1,0,0.1,0.1l0.1,0.1v3.2c0,0.1,0,0.1-0.1,0.1l-0.1,0.1h-22.2v3.2
			c0,0.5,0.2,0.9,0.5,1.2c0.3,0.4,0.8,0.5,1.3,0.5h23.3c0.1,0,0.1,0,0.1,0.1l0.1,0.1v3.2c0,0.1,0,0.1-0.1,0.1l-0.1,0.1h-23.3
			c-1.6,0-3-0.6-4.2-1.7c-1.1-1.1-1.7-2.5-1.7-4.2v-8.8c0-1.6,0.6-3,1.7-4.2c1.1-1.1,2.5-1.7,4.2-1.7h23.3c0.1,0,0.1,0,0.1,0.1
			l0.1,0.1v3.2c0,0,0,0.1-0.1,0.1l-0.1,0.1h-23.3c-0.5,0-0.9,0.2-1.3,0.5s-0.5,0.8-0.5,1.2V547.4z"/>
		<path class="st0" d="M563.2,547.4h22.2c0.1,0,0.1,0,0.1,0.1l0.1,0.1v3.2c0,0.1,0,0.1-0.1,0.1l-0.1,0.1h-22.2v3.2
			c0,0.5,0.2,0.9,0.5,1.2c0.3,0.4,0.8,0.5,1.3,0.5h23.3c0.1,0,0.1,0,0.1,0.1l0.1,0.1v3.2c0,0.1,0,0.1-0.1,0.1l-0.1,0.1H565
			c-1.6,0-3-0.6-4.2-1.7c-1.1-1.1-1.7-2.5-1.7-4.2v-8.8c0-1.6,0.6-3,1.7-4.2c1.1-1.1,2.5-1.7,4.2-1.7h23.3c0.1,0,0.1,0,0.1,0.1
			l0.1,0.1v3.2c0,0,0,0.1-0.1,0.1l-0.1,0.1H565c-0.5,0-0.9,0.2-1.3,0.5s-0.5,0.8-0.5,1.2V547.4z"/>
		<path class="st0" d="M624.5,538.9c1.6,0,3,0.6,4.2,1.7c1.1,1.1,1.7,2.5,1.7,4.2v8.8c0,1.6-0.6,3-1.7,4.2c-1.1,1.1-2.5,1.7-4.2,1.7
			h-23.3c0,0-0.1,0-0.1-0.1l-0.1-0.1v-20.2c0-0.1,0-0.1,0.1-0.1l0.1-0.1L624.5,538.9L624.5,538.9z M626.3,544.2
			c0-0.5-0.2-0.9-0.5-1.2s-0.8-0.5-1.3-0.5h-19.4V556h19.4c0.5,0,0.9-0.2,1.3-0.5c0.3-0.3,0.5-0.8,0.5-1.2V544.2z"/>
		<path class="st0" d="M673.9,559.3C673.9,559.3,673.9,559.4,673.9,559.3l-0.2,0.2h-3.8c0,0-0.1,0-0.1-0.1l-0.1-0.1v-20.2
			c0-0.1,0-0.1,0.1-0.1l0.1-0.1h3.8c0.1,0,0.1,0,0.1,0.1l0.1,0.1V559.3z"/>
		<path class="st0" d="M686.4,539.1C686.4,539,686.4,539,686.4,539.1l0.2-0.2h29c0,0,0.1,0,0.1,0.1l0.1,0.1v3.2c0,0,0,0.1-0.1,0.1
			l-0.1,0.1h-12.5v16.9c0,0.1,0,0.1-0.1,0.1l-0.1,0.1h-3.8c-0.1,0-0.1,0-0.1-0.1l-0.1-0.1v-16.9h-12.5c0,0-0.1,0-0.1-0.1l-0.1-0.1
			v-3.2H686.4z"/>
	</g>
	<g>
		<g>
			<rect x="313.6" y="293.3" class="st0" width="79.4" height="79.4"/>
		</g>
		<g>
			<path class="st0" d="M357.9,142.6h-94.3C235.7,99.3,208,56.3,181.8,15.7h94.3c12.3,19.1,24.8,38.5,37.5,58.2
				C328.3,96.7,343.1,119.6,357.9,142.6z"/>
		</g>
		<g>
			<path class="st0" d="M541.6,15.7c-27.4,39.8-57.1,82.8-87.4,126.9c-16.4,23.9-33.1,48-49.7,72.2c-3.8,5.5-7.6,11.1-11.4,16.6
				v54.1h-79.4v-78.6c14.7-21.3,29.5-42.8,44.3-64.3c11.7-17,23.5-34,35.1-50.9c17.8-25.8,35.3-51.3,52.4-76L541.6,15.7L541.6,15.7z
				"/>
		</g>
	</g>
	<g>
		<g>
			<polygon class="st0" points="62,462.9 62,500.7 83.3,500.7 83.3,404.9 42.4,445.8 1.5,404.9 1.5,500.7 22.9,500.7 22.9,462.9 
				42.4,482.5 			"/>
		</g>
		<g>
			<path class="st0" d="M169.6,500.7v-90.4H96.5v90.4h21.3v-34.5h30.5v34.5H169.6z M117.8,444.8v-13.2h30.5v13.2H117.8z"/>
		</g>
		<g>
			<path class="st0" d="M255.9,486.7l-20.5-20.5h20.5v-55.8h-73.1v90.4h21.3V463l51.8,51.8V486.7z M234.6,444.8h-30.5v-13.2h30.5
				V444.8z"/>
		</g>
		<g>
			<polygon class="st0" points="342.2,486.7 321.7,466.2 342.2,466.2 342.2,410.3 320.9,410.3 320.9,444.8 290.4,444.8 290.4,410.3 
				269.1,410.3 269.1,500.7 290.4,500.7 290.4,471.6 342.2,523.3 			"/>
		</g>
		<g>
			<polygon class="st0" points="428.5,431.6 428.5,410.3 355.4,410.3 355.4,500.7 428.5,500.7 428.5,479.4 376.7,479.4 376.7,466.2 
				428.5,466.2 428.5,444.8 376.7,444.8 376.7,431.6 			"/>
		</g>
		<g>
			<polygon class="st0" points="514.8,410.3 441.7,410.3 441.7,431.6 467.6,431.6 467.6,500.7 488.9,500.7 488.9,431.6 514.8,431.6 
							"/>
		</g>
		<g>
			<rect x="528" y="410.3" class="st0" width="21.3" height="90.4"/>
		</g>
		<g>
			<polygon class="st0" points="635.6,410.3 614.3,410.3 614.3,448.1 562.5,396.3 562.5,500.7 583.8,500.7 583.8,462.9 635.6,514.7 
							"/>
		</g>
		<g>
			<polygon class="st0" points="721.9,431.6 721.9,410.3 648.8,410.3 648.8,500.7 721.9,500.7 721.9,444.8 683.3,444.8 683.3,466.2 
				700.6,466.2 700.6,479.4 670.1,479.4 670.1,431.6 			"/>
		</g>
	</g>
</g>
</svg>
