<?xml version="1.0" encoding="utf-8"?>
<!-- Generator: Adobe Illustrator 24.1.0, SVG Export Plug-In . SVG Version: 6.00 Build 0)  -->
<svg version="1.1" id="Layer_1" xmlns="http://www.w3.org/2000/svg" xmlns:xlink="http://www.w3.org/1999/xlink" x="0px" y="0px"
	 viewBox="0 0 721.9 253" style="enable-background:new 0 0 721.9 253;" xml:space="preserve">
<style type="text/css">
	.st0{fill:#0C123E;}
</style>
<g>
	<path class="st0" d="M45.3,102.3l-0.1,0.5c25.1,0,55.9,0.1,83.2,0.1c-4.3,19.3-10.7,47.8-15.1,67.1L0.7,170l6.2-27.4
		c27.3,0.1,53.1,0.1,83.2,0.1c0.1-0.5,2.7-12,2.8-12.5l-83.3,0c1.9-8.5,7.1-31.5,8.9-39.7l31-27.4c17.1,0.1,60,0.1,87.8,0.1
		l-6.1,27.3l-83.3,0L47.9,91L45.3,102.3z"/>
	<path class="st0" d="M272.1,63.2c9.7,0,19.6,0,29.4,0c-5.5,24.3-12.4,55.3-17.9,79.6c19.2,0,38.2,0,57.5,0
		c3.2-14.4,8.5-37.8,11.7-52.2l-46.4,0l6.1-27.3c15.1,0,35.5,0,50.6,0l19,27.5c-5.4,24.2-12.4,55.2-17.8,79.4l-116.3,0L272.1,63.2z"
		/>
	<path class="st0" d="M691.8,62.9l-8.9,39.8c-12.8,0-34.7,0-44.9,0l0-0.2l8.9-39.5c-9.5,0-19.3,0-29.4,0l-8.9,39.5l-0.1,0.2l0,0.1
		l19,27.5l49.1,0l-17.9,79.8l29.4,0l33-147.3C712.1,62.9,702.3,62.9,691.8,62.9z"/>
	<path class="st0" d="M598.6,90.6l6.2-27.6c-11.9,0-33,0-45.2,0l-37.9,39.8l17.8-79.4c-9.7,0-19.5,0-29.4,0l-26.3,119.2
		c-27,0-54.9,0-71.3,0c3.2-14.4,8.5-37.8,11.7-52.2l60.5,0l-19-27.4c-21.5,0-43.2,0-64.7,0.1c-7.6,33.9-16.4,73.1-24,106.9l100.8,0
		l-8.8,40.1l29.4,0c0.9-4.2,4.8-22.2,8.6-40.1l29.9,0l6.2-27.5c-7.8,0-18.3,0-30.2,0c1.3-6,2.3-10.5,2.7-12.2l44.7,0
		c-1.8,8.1-7,31.3-8.9,39.8h29.4c1.9-8.4,7.1-31.8,9-39.9l-19-27.5c-3.7,0-5.5,0-9.2,0l11.7-12.2L598.6,90.6z"/>
	<g>
		<polygon class="st0" points="170.8,198.8 171.3,196.6 173.5,196.6 204.9,196.6 206.7,189 165.2,189 156,229.6 197.5,229.6 
			199.2,222 169,222 165.5,222 166.3,218.6 167,215.3 167.5,213.1 169.7,213.1 201.2,213.1 202.9,205.5 172.7,205.5 169.2,205.5 
			170,202.1 		"/>
		<polygon class="st0" points="251.8,189 247.6,207.7 247.3,208.7 246.6,209.3 235,218.6 232,220.9 230.3,218.8 222.4,208.9 
			221.6,207.8 221.9,206.5 225.9,189 218.1,189 212.9,211.9 227,229.6 231.4,229.6 254.6,211 259.6,189 		"/>
		<path class="st0" d="M272.8,215.3l0.5-2.2h2.2l31.5,0l5.5-24.1l-41.5,0l-9.2,40.6l41.5,0l1.7-7.6h-30.2h-3.5l0.8-3.4L272.8,215.3z
			 M275.8,202.1l0.7-3.3l0.5-2.2h2.2h20.2h3.5l-0.8,3.4l-0.7,3.3l-0.5,2.2h-2.2h-20.2H275L275.8,202.1z"/>
		<polygon class="st0" points="323.9,189 314.7,229.6 322.5,229.6 329.4,198.8 329.9,196.6 332.2,196.6 352.4,196.6 355.9,196.6 
			355.1,200 348.4,229.6 356.2,229.6 365.4,189 		"/>
		<polygon class="st0" points="377.1,222 377.9,218.6 382.3,198.8 382.8,196.6 385.1,196.6 396.5,196.6 398.2,189 388,189 
			384.6,189 385.3,185.6 386.8,179.1 379,179.1 367.6,229.6 400.8,229.6 402.5,222 380.6,222 		"/>
		<polygon class="st0" points="424.3,198.8 424.8,196.6 427,196.6 458.5,196.6 460.2,189 418.7,189 413.3,213.1 443.5,213.1 
			447,213.1 446.2,216.5 445.4,219.8 444.9,222 442.7,222 411.2,222 409.5,229.6 451,229.6 456.4,205.5 426.2,205.5 422.8,205.5 
			423.5,202.1 		"/>
	</g>
	<path class="st0" d="M234.2,63.2c-10.2,0-39.9,0-55.3,0l8.8-39.8h-29.1l-41.1,186.8h29.1l26.3-119.7l50.9,0
		c-5.4,24.3-12.4,55.2-17.8,79.6h29.4c5.4-24.3,12.4-55.2,17.8-79.4L234.2,63.2z"/>
</g>
</svg>
